M48
; DRILL file {KiCad 8.0.7} date 2025-04-19T00:44:54-0700
; FORMAT={-:-/ absolute / metric / decimal}
; #@! TF.CreationDate,2025-04-19T00:44:54-07:00
; #@! TF.GenerationSoftware,Kicad,Pcbnew,8.0.7
; #@! TF.FileFunction,Plated,1,4,PTH
FMAT,2
METRIC
; #@! TA.AperFunction,Plated,PTH,ViaDrill
T1C0.300
; #@! TA.AperFunction,Plated,PTH,ComponentDrill
T2C1.000
%
G90
G05
T1
X132.47Y-48.26
X132.58Y-97.38
X133.5Y-50.8
X133.5Y-52.2
X133.5Y-53.6
X133.5Y-92.4
X133.5Y-93.8
X133.5Y-95.2
X134.76Y-104.31
X134.94Y-41.6
X135.0Y-50.75
X135.0Y-52.15
X135.0Y-53.55
X135.0Y-92.35
X135.0Y-93.75
X135.0Y-95.15
X135.94Y-97.43
X136.5Y-50.8
X136.5Y-52.2
X136.5Y-53.6
X136.5Y-92.4
X136.5Y-93.8
X136.5Y-95.2
X136.67Y-48.42
X138.6Y-50.2
X138.71Y-52.07
X140.42Y-101.11
X140.95Y-106.55
X141.26Y-39.52
X141.32Y-91.19
X141.37Y-42.85
X141.54Y-68.09
X141.59Y-71.23
X141.6Y-73.01
X141.69Y-64.01
X142.575Y-58.425
X143.57Y-88.73
X143.85Y-41.9
X143.85Y-103.9
X143.9Y-40.4
X143.9Y-43.4
X143.9Y-102.4
X143.9Y-105.4
X144.0Y-55.7
X144.175Y-54.525
X144.175Y-57.0
X144.7Y-78.7
X144.85Y-91.24
X145.0Y-55.7
X145.25Y-41.9
X145.25Y-103.9
X145.3Y-40.4
X145.3Y-43.4
X145.3Y-102.4
X145.3Y-105.4
X145.4Y-46.875
X145.95Y-55.7
X146.46Y-64.54
X146.65Y-41.9
X146.65Y-103.9
X146.7Y-40.4
X146.7Y-43.4
X146.7Y-102.4
X146.7Y-105.4
X147.8Y-47.3
X148.7Y-47.35
X148.7Y-48.4
X149.1Y-72.81
X149.28Y-98.52
X150.23Y-69.32
X150.76Y-93.64
X151.67Y-41.53
X151.74Y-43.88
X151.81Y-39.27
X151.99Y-54.11
X152.26Y-101.75
X154.25Y-59.05
X154.66Y-98.52
X155.39Y-64.54
X155.4Y-93.6
X155.45Y-54.125
X155.45Y-58.025
X155.48Y-89.66
X155.65Y-53.05
X155.9Y-73.03
X156.8Y-49.2
X157.15Y-41.7
X157.2Y-40.2
X157.2Y-43.2
X157.91Y-69.38
X158.24Y-101.86
X158.55Y-41.7
X158.6Y-40.2
X158.6Y-43.2
X159.15Y-81.625
X159.8Y-98.65
X159.95Y-41.7
X160.0Y-40.2
X160.0Y-43.2
X160.47Y-89.57
X160.51Y-93.64
X161.19Y-52.96
X161.465Y-50.2
X162.48Y-81.8
X162.63Y-64.6
X163.575Y-53.182
X164.0Y-50.0
X164.04Y-54.91
X164.08Y-73.16
X164.5Y-53.182
X164.72Y-43.91
X164.8Y-101.91
X164.81Y-41.53
X164.88Y-38.97
X165.0Y-81.5
X165.66Y-90.77
X165.73Y-88.71
X167.15Y-50.35
X167.79Y-69.13
X168.25Y-85.76
X168.42Y-81.81
X169.2Y-50.35
X169.2Y-53.0
X169.38Y-92.86
X170.5Y-53.0
X171.0Y-56.5
X171.0Y-64.41
X171.57Y-101.86
X171.68Y-85.81
X171.75Y-53.0
X171.77Y-81.81
X172.15Y-41.7
X172.2Y-40.2
X172.2Y-43.2
X172.25Y-56.5
X172.79Y-92.81
X173.25Y-55.0
X173.26Y-72.65
X173.38Y-88.26
X173.5Y-56.5
X173.55Y-41.7
X173.575Y-50.3
X173.6Y-40.2
X173.6Y-43.2
X173.95Y-51.55
X174.25Y-55.0
X174.95Y-41.7
X175.0Y-40.2
X175.0Y-43.2
X175.0Y-48.7
X175.0Y-49.5
X175.25Y-55.0
X175.375Y-83.05
X175.9Y-48.7
X175.9Y-49.5
X176.1Y-88.26
X176.5Y-52.1
X176.95Y-50.5
X177.025Y-83.1
X177.04Y-68.94
X177.28Y-101.91
X177.5Y-52.1
X177.9Y-50.5
X178.66Y-39.16
X178.85Y-52.15
X179.09Y-92.87
X179.12Y-64.6
X179.35Y-50.5
X179.9Y-52.15
X180.15Y-74.52
X180.25Y-50.5
X180.26Y-81.91
X180.42Y-40.46
X180.52Y-85.46
X181.3Y-95.1
X181.82Y-42.17
X181.87Y-44.65
X181.95Y-81.921
X182.16Y-39.28
X182.43Y-101.86
X183.23Y-82.38
X183.525Y-47.6
X183.525Y-48.575
X183.525Y-49.575
X184.17Y-88.31
X184.17Y-94.31
X184.34Y-72.4
X184.5Y-81.921
X184.66Y-47.6
X184.66Y-48.575
X184.66Y-49.575
X184.78Y-64.41
X184.8Y-45.6
X185.35Y-42.0
X185.4Y-40.5
X185.4Y-43.5
X185.41Y-68.88
X185.775Y-47.6
X185.775Y-48.575
X185.775Y-49.575
X185.85Y-104.5
X185.9Y-103.0
X185.9Y-106.0
X186.0Y-86.05
X186.75Y-42.0
X186.8Y-40.5
X186.8Y-43.5
X186.891Y-85.45
X187.25Y-104.5
X187.3Y-103.0
X187.3Y-106.0
X187.99Y-54.92
X188.15Y-42.0
X188.2Y-40.5
X188.2Y-43.5
X188.55Y-82.95
X188.65Y-104.5
X188.7Y-103.0
X188.7Y-106.0
X189.07Y-99.88
X189.63Y-53.02
X189.96Y-74.3
X190.05Y-67.04
X190.05Y-71.04
X190.1Y-64.33
X190.125Y-83.0
X190.13Y-88.15
X190.66Y-50.77
X190.8Y-43.6
X190.96Y-39.49
X191.07Y-102.77
X191.36Y-86.13
X191.4Y-78.75
X191.55Y-81.66
X191.59Y-106.68
X192.08Y-95.29
X193.55Y-93.94
X195.35Y-105.78
X195.5Y-50.9
X195.5Y-52.3
X195.5Y-53.7
X196.1Y-92.8
X196.1Y-94.2
X196.1Y-95.6
X197.0Y-50.85
X197.0Y-52.25
X197.0Y-53.65
X197.12Y-48.2
X197.41Y-41.81
X197.6Y-92.75
X197.6Y-94.15
X197.6Y-95.55
X198.14Y-103.19
X198.5Y-50.9
X198.5Y-52.3
X198.5Y-53.7
X199.1Y-92.8
X199.1Y-94.2
X199.1Y-95.6
X199.32Y-48.25
X199.79Y-97.81
T2
X134.943Y-45.557
X134.954Y-100.454
X136.739Y-43.761
X136.75Y-102.25
X138.535Y-41.965
X138.546Y-104.046
X141.85Y-61.75
X141.85Y-76.99
X142.13Y-83.703
X144.39Y-61.75
X144.39Y-76.99
X144.67Y-83.703
X146.93Y-61.75
X146.93Y-76.99
X147.21Y-83.703
X149.47Y-61.75
X149.47Y-76.99
X149.75Y-83.703
X152.01Y-61.75
X152.01Y-76.99
X152.29Y-83.703
X154.55Y-61.75
X154.55Y-76.99
X154.83Y-83.703
X157.09Y-61.75
X157.09Y-76.99
X157.37Y-83.703
X158.925Y-48.25
X159.63Y-61.75
X159.63Y-76.99
X159.91Y-83.703
X161.465Y-48.25
X162.17Y-61.75
X162.17Y-76.99
X162.45Y-83.703
X164.005Y-48.25
X164.71Y-61.75
X164.71Y-76.99
X164.99Y-83.703
X167.25Y-61.75
X167.25Y-76.99
X169.64Y-97.87
X169.79Y-61.75
X169.79Y-76.99
X172.18Y-97.87
X172.33Y-61.75
X172.33Y-76.99
X174.72Y-97.87
X174.87Y-61.75
X174.87Y-76.99
X177.26Y-97.87
X177.41Y-61.75
X177.41Y-76.99
X179.8Y-97.87
X179.95Y-61.75
X179.95Y-76.99
X182.34Y-97.87
X182.49Y-61.75
X182.49Y-76.99
X185.03Y-61.75
X185.03Y-76.99
X187.57Y-61.75
X187.57Y-76.99
X190.11Y-61.75
X190.11Y-76.99
X193.443Y-41.943
X193.454Y-104.046
X195.239Y-43.739
X195.25Y-102.25
X197.035Y-45.535
X197.046Y-100.454
M30
