%TF.GenerationSoftware,KiCad,Pcbnew,8.0.7*%
%TF.CreationDate,2025-04-19T00:44:56-07:00*%
%TF.ProjectId,Hardware,48617264-7761-4726-952e-6b696361645f,rev?*%
%TF.SameCoordinates,Original*%
%TF.FileFunction,Drillmap*%
%TF.FilePolarity,Positive*%
%FSLAX45Y45*%
G04 Gerber Fmt 4.5, Leading zero omitted, Abs format (unit mm)*
G04 Created by KiCad (PCBNEW 8.0.7) date 2025-04-19 00:44:56*
%MOMM*%
%LPD*%
G01*
G04 APERTURE LIST*
%ADD10C,0.050000*%
%ADD11C,0.200000*%
%ADD12C,0.320000*%
G04 APERTURE END LIST*
D10*
X16600000Y-10300000D02*
X14850000Y-10300000D01*
X13100000Y-9050000D02*
X13100000Y-9800000D01*
X20100000Y-9800000D02*
G75*
G02*
X19100000Y-10800000I-1000000J0D01*
G01*
X13600000Y-7300000D02*
X13600000Y-5550000D01*
X19100000Y-3800000D02*
G75*
G02*
X20100000Y-4800000I0J-1000000D01*
G01*
X14100000Y-10800000D02*
G75*
G02*
X13100000Y-9800000I0J1000000D01*
G01*
X13600000Y-7300000D02*
X13600000Y-9050000D01*
X19600000Y-9050000D02*
X20100000Y-9050000D01*
X20100000Y-5550000D02*
X20100000Y-4800000D01*
X20100000Y-9050000D02*
X20100000Y-9800000D01*
X18350000Y-10300000D02*
X18350000Y-10800000D01*
X13600000Y-5550000D02*
X13100000Y-5550000D01*
X13100000Y-4800000D02*
G75*
G02*
X14100000Y-3800000I1000000J0D01*
G01*
X19600000Y-7300000D02*
X19600000Y-9050000D01*
X13600000Y-9050000D02*
X13100000Y-9050000D01*
X19600000Y-7300000D02*
X19600000Y-5550000D01*
X19100000Y-10800000D02*
X18350000Y-10800000D01*
X14850000Y-10300000D02*
X14850000Y-10800000D01*
X19600000Y-5550000D02*
X20100000Y-5550000D01*
X19100000Y-3800000D02*
X14100000Y-3800000D01*
X16600000Y-10300000D02*
X18350000Y-10300000D01*
X14850000Y-10800000D02*
X14100000Y-10800000D01*
X13100000Y-4800000D02*
X13100000Y-5550000D01*
D11*
D12*
X13865000Y-4565000D02*
X14185000Y-4885000D01*
X14185000Y-4565000D02*
X13865000Y-4885000D01*
X14180000Y-9330250D02*
X14500000Y-9650250D01*
X14500000Y-9330250D02*
X14180000Y-9650250D01*
X16212000Y-9330250D02*
X16532000Y-9650250D01*
X16532000Y-9330250D02*
X16212000Y-9650250D01*
X16931000Y-8865000D02*
X17251000Y-9185000D01*
X17251000Y-8865000D02*
X16931000Y-9185000D01*
X17947000Y-8865000D02*
X18267000Y-9185000D01*
X18267000Y-8865000D02*
X17947000Y-9185000D01*
X19015000Y-4565000D02*
X19335000Y-4885000D01*
X19335000Y-4565000D02*
X19015000Y-4885000D01*
X19065000Y-9765000D02*
X19385000Y-10085000D01*
X19385000Y-9765000D02*
X19065000Y-10085000D01*
D11*
X13358277Y-11113984D02*
X13358277Y-10913984D01*
X13358277Y-10913984D02*
X13405896Y-10913984D01*
X13405896Y-10913984D02*
X13434467Y-10923508D01*
X13434467Y-10923508D02*
X13453515Y-10942555D01*
X13453515Y-10942555D02*
X13463039Y-10961603D01*
X13463039Y-10961603D02*
X13472562Y-10999698D01*
X13472562Y-10999698D02*
X13472562Y-11028270D01*
X13472562Y-11028270D02*
X13463039Y-11066365D01*
X13463039Y-11066365D02*
X13453515Y-11085412D01*
X13453515Y-11085412D02*
X13434467Y-11104460D01*
X13434467Y-11104460D02*
X13405896Y-11113984D01*
X13405896Y-11113984D02*
X13358277Y-11113984D01*
X13558277Y-11113984D02*
X13558277Y-10980650D01*
X13558277Y-11018746D02*
X13567801Y-10999698D01*
X13567801Y-10999698D02*
X13577324Y-10990174D01*
X13577324Y-10990174D02*
X13596372Y-10980650D01*
X13596372Y-10980650D02*
X13615420Y-10980650D01*
X13682086Y-11113984D02*
X13682086Y-10980650D01*
X13682086Y-10913984D02*
X13672562Y-10923508D01*
X13672562Y-10923508D02*
X13682086Y-10933031D01*
X13682086Y-10933031D02*
X13691610Y-10923508D01*
X13691610Y-10923508D02*
X13682086Y-10913984D01*
X13682086Y-10913984D02*
X13682086Y-10933031D01*
X13805896Y-11113984D02*
X13786848Y-11104460D01*
X13786848Y-11104460D02*
X13777324Y-11085412D01*
X13777324Y-11085412D02*
X13777324Y-10913984D01*
X13910658Y-11113984D02*
X13891610Y-11104460D01*
X13891610Y-11104460D02*
X13882086Y-11085412D01*
X13882086Y-11085412D02*
X13882086Y-10913984D01*
X14139229Y-11113984D02*
X14139229Y-10913984D01*
X14139229Y-10913984D02*
X14205896Y-11056841D01*
X14205896Y-11056841D02*
X14272562Y-10913984D01*
X14272562Y-10913984D02*
X14272562Y-11113984D01*
X14453515Y-11113984D02*
X14453515Y-11009222D01*
X14453515Y-11009222D02*
X14443991Y-10990174D01*
X14443991Y-10990174D02*
X14424943Y-10980650D01*
X14424943Y-10980650D02*
X14386848Y-10980650D01*
X14386848Y-10980650D02*
X14367801Y-10990174D01*
X14453515Y-11104460D02*
X14434467Y-11113984D01*
X14434467Y-11113984D02*
X14386848Y-11113984D01*
X14386848Y-11113984D02*
X14367801Y-11104460D01*
X14367801Y-11104460D02*
X14358277Y-11085412D01*
X14358277Y-11085412D02*
X14358277Y-11066365D01*
X14358277Y-11066365D02*
X14367801Y-11047317D01*
X14367801Y-11047317D02*
X14386848Y-11037793D01*
X14386848Y-11037793D02*
X14434467Y-11037793D01*
X14434467Y-11037793D02*
X14453515Y-11028270D01*
X14548753Y-10980650D02*
X14548753Y-11180650D01*
X14548753Y-10990174D02*
X14567801Y-10980650D01*
X14567801Y-10980650D02*
X14605896Y-10980650D01*
X14605896Y-10980650D02*
X14624943Y-10990174D01*
X14624943Y-10990174D02*
X14634467Y-10999698D01*
X14634467Y-10999698D02*
X14643991Y-11018746D01*
X14643991Y-11018746D02*
X14643991Y-11075889D01*
X14643991Y-11075889D02*
X14634467Y-11094936D01*
X14634467Y-11094936D02*
X14624943Y-11104460D01*
X14624943Y-11104460D02*
X14605896Y-11113984D01*
X14605896Y-11113984D02*
X14567801Y-11113984D01*
X14567801Y-11113984D02*
X14548753Y-11104460D01*
X14729705Y-11094936D02*
X14739229Y-11104460D01*
X14739229Y-11104460D02*
X14729705Y-11113984D01*
X14729705Y-11113984D02*
X14720182Y-11104460D01*
X14720182Y-11104460D02*
X14729705Y-11094936D01*
X14729705Y-11094936D02*
X14729705Y-11113984D01*
X14729705Y-10990174D02*
X14739229Y-10999698D01*
X14739229Y-10999698D02*
X14729705Y-11009222D01*
X14729705Y-11009222D02*
X14720182Y-10999698D01*
X14720182Y-10999698D02*
X14729705Y-10990174D01*
X14729705Y-10990174D02*
X14729705Y-11009222D01*
X12897500Y-11342500D02*
X13097500Y-11542500D01*
X13097500Y-11342500D02*
X12897500Y-11542500D01*
X13339229Y-11333984D02*
X13463039Y-11333984D01*
X13463039Y-11333984D02*
X13396372Y-11410174D01*
X13396372Y-11410174D02*
X13424943Y-11410174D01*
X13424943Y-11410174D02*
X13443991Y-11419698D01*
X13443991Y-11419698D02*
X13453515Y-11429222D01*
X13453515Y-11429222D02*
X13463039Y-11448269D01*
X13463039Y-11448269D02*
X13463039Y-11495888D01*
X13463039Y-11495888D02*
X13453515Y-11514936D01*
X13453515Y-11514936D02*
X13443991Y-11524460D01*
X13443991Y-11524460D02*
X13424943Y-11533984D01*
X13424943Y-11533984D02*
X13367801Y-11533984D01*
X13367801Y-11533984D02*
X13348753Y-11524460D01*
X13348753Y-11524460D02*
X13339229Y-11514936D01*
X13548753Y-11514936D02*
X13558277Y-11524460D01*
X13558277Y-11524460D02*
X13548753Y-11533984D01*
X13548753Y-11533984D02*
X13539229Y-11524460D01*
X13539229Y-11524460D02*
X13548753Y-11514936D01*
X13548753Y-11514936D02*
X13548753Y-11533984D01*
X13634467Y-11353031D02*
X13643991Y-11343508D01*
X13643991Y-11343508D02*
X13663039Y-11333984D01*
X13663039Y-11333984D02*
X13710658Y-11333984D01*
X13710658Y-11333984D02*
X13729705Y-11343508D01*
X13729705Y-11343508D02*
X13739229Y-11353031D01*
X13739229Y-11353031D02*
X13748753Y-11372079D01*
X13748753Y-11372079D02*
X13748753Y-11391127D01*
X13748753Y-11391127D02*
X13739229Y-11419698D01*
X13739229Y-11419698D02*
X13624943Y-11533984D01*
X13624943Y-11533984D02*
X13748753Y-11533984D01*
X13872562Y-11333984D02*
X13891610Y-11333984D01*
X13891610Y-11333984D02*
X13910658Y-11343508D01*
X13910658Y-11343508D02*
X13920182Y-11353031D01*
X13920182Y-11353031D02*
X13929705Y-11372079D01*
X13929705Y-11372079D02*
X13939229Y-11410174D01*
X13939229Y-11410174D02*
X13939229Y-11457793D01*
X13939229Y-11457793D02*
X13929705Y-11495888D01*
X13929705Y-11495888D02*
X13920182Y-11514936D01*
X13920182Y-11514936D02*
X13910658Y-11524460D01*
X13910658Y-11524460D02*
X13891610Y-11533984D01*
X13891610Y-11533984D02*
X13872562Y-11533984D01*
X13872562Y-11533984D02*
X13853515Y-11524460D01*
X13853515Y-11524460D02*
X13843991Y-11514936D01*
X13843991Y-11514936D02*
X13834467Y-11495888D01*
X13834467Y-11495888D02*
X13824943Y-11457793D01*
X13824943Y-11457793D02*
X13824943Y-11410174D01*
X13824943Y-11410174D02*
X13834467Y-11372079D01*
X13834467Y-11372079D02*
X13843991Y-11353031D01*
X13843991Y-11353031D02*
X13853515Y-11343508D01*
X13853515Y-11343508D02*
X13872562Y-11333984D01*
X14063039Y-11333984D02*
X14082086Y-11333984D01*
X14082086Y-11333984D02*
X14101134Y-11343508D01*
X14101134Y-11343508D02*
X14110658Y-11353031D01*
X14110658Y-11353031D02*
X14120182Y-11372079D01*
X14120182Y-11372079D02*
X14129705Y-11410174D01*
X14129705Y-11410174D02*
X14129705Y-11457793D01*
X14129705Y-11457793D02*
X14120182Y-11495888D01*
X14120182Y-11495888D02*
X14110658Y-11514936D01*
X14110658Y-11514936D02*
X14101134Y-11524460D01*
X14101134Y-11524460D02*
X14082086Y-11533984D01*
X14082086Y-11533984D02*
X14063039Y-11533984D01*
X14063039Y-11533984D02*
X14043991Y-11524460D01*
X14043991Y-11524460D02*
X14034467Y-11514936D01*
X14034467Y-11514936D02*
X14024943Y-11495888D01*
X14024943Y-11495888D02*
X14015420Y-11457793D01*
X14015420Y-11457793D02*
X14015420Y-11410174D01*
X14015420Y-11410174D02*
X14024943Y-11372079D01*
X14024943Y-11372079D02*
X14034467Y-11353031D01*
X14034467Y-11353031D02*
X14043991Y-11343508D01*
X14043991Y-11343508D02*
X14063039Y-11333984D01*
X14215420Y-11533984D02*
X14215420Y-11400650D01*
X14215420Y-11419698D02*
X14224943Y-11410174D01*
X14224943Y-11410174D02*
X14243991Y-11400650D01*
X14243991Y-11400650D02*
X14272563Y-11400650D01*
X14272563Y-11400650D02*
X14291610Y-11410174D01*
X14291610Y-11410174D02*
X14301134Y-11429222D01*
X14301134Y-11429222D02*
X14301134Y-11533984D01*
X14301134Y-11429222D02*
X14310658Y-11410174D01*
X14310658Y-11410174D02*
X14329705Y-11400650D01*
X14329705Y-11400650D02*
X14358277Y-11400650D01*
X14358277Y-11400650D02*
X14377324Y-11410174D01*
X14377324Y-11410174D02*
X14386848Y-11429222D01*
X14386848Y-11429222D02*
X14386848Y-11533984D01*
X14482086Y-11533984D02*
X14482086Y-11400650D01*
X14482086Y-11419698D02*
X14491610Y-11410174D01*
X14491610Y-11410174D02*
X14510658Y-11400650D01*
X14510658Y-11400650D02*
X14539229Y-11400650D01*
X14539229Y-11400650D02*
X14558277Y-11410174D01*
X14558277Y-11410174D02*
X14567801Y-11429222D01*
X14567801Y-11429222D02*
X14567801Y-11533984D01*
X14567801Y-11429222D02*
X14577324Y-11410174D01*
X14577324Y-11410174D02*
X14596372Y-11400650D01*
X14596372Y-11400650D02*
X14624943Y-11400650D01*
X14624943Y-11400650D02*
X14643991Y-11410174D01*
X14643991Y-11410174D02*
X14653515Y-11429222D01*
X14653515Y-11429222D02*
X14653515Y-11533984D01*
X15043991Y-11324460D02*
X14872563Y-11581603D01*
X15301134Y-11333984D02*
X15320182Y-11333984D01*
X15320182Y-11333984D02*
X15339229Y-11343508D01*
X15339229Y-11343508D02*
X15348753Y-11353031D01*
X15348753Y-11353031D02*
X15358277Y-11372079D01*
X15358277Y-11372079D02*
X15367801Y-11410174D01*
X15367801Y-11410174D02*
X15367801Y-11457793D01*
X15367801Y-11457793D02*
X15358277Y-11495888D01*
X15358277Y-11495888D02*
X15348753Y-11514936D01*
X15348753Y-11514936D02*
X15339229Y-11524460D01*
X15339229Y-11524460D02*
X15320182Y-11533984D01*
X15320182Y-11533984D02*
X15301134Y-11533984D01*
X15301134Y-11533984D02*
X15282086Y-11524460D01*
X15282086Y-11524460D02*
X15272563Y-11514936D01*
X15272563Y-11514936D02*
X15263039Y-11495888D01*
X15263039Y-11495888D02*
X15253515Y-11457793D01*
X15253515Y-11457793D02*
X15253515Y-11410174D01*
X15253515Y-11410174D02*
X15263039Y-11372079D01*
X15263039Y-11372079D02*
X15272563Y-11353031D01*
X15272563Y-11353031D02*
X15282086Y-11343508D01*
X15282086Y-11343508D02*
X15301134Y-11333984D01*
X15453515Y-11514936D02*
X15463039Y-11524460D01*
X15463039Y-11524460D02*
X15453515Y-11533984D01*
X15453515Y-11533984D02*
X15443991Y-11524460D01*
X15443991Y-11524460D02*
X15453515Y-11514936D01*
X15453515Y-11514936D02*
X15453515Y-11533984D01*
X15653515Y-11533984D02*
X15539229Y-11533984D01*
X15596372Y-11533984D02*
X15596372Y-11333984D01*
X15596372Y-11333984D02*
X15577325Y-11362555D01*
X15577325Y-11362555D02*
X15558277Y-11381603D01*
X15558277Y-11381603D02*
X15539229Y-11391127D01*
X15729706Y-11353031D02*
X15739229Y-11343508D01*
X15739229Y-11343508D02*
X15758277Y-11333984D01*
X15758277Y-11333984D02*
X15805896Y-11333984D01*
X15805896Y-11333984D02*
X15824944Y-11343508D01*
X15824944Y-11343508D02*
X15834467Y-11353031D01*
X15834467Y-11353031D02*
X15843991Y-11372079D01*
X15843991Y-11372079D02*
X15843991Y-11391127D01*
X15843991Y-11391127D02*
X15834467Y-11419698D01*
X15834467Y-11419698D02*
X15720182Y-11533984D01*
X15720182Y-11533984D02*
X15843991Y-11533984D01*
X16015420Y-11333984D02*
X15977325Y-11333984D01*
X15977325Y-11333984D02*
X15958277Y-11343508D01*
X15958277Y-11343508D02*
X15948753Y-11353031D01*
X15948753Y-11353031D02*
X15929706Y-11381603D01*
X15929706Y-11381603D02*
X15920182Y-11419698D01*
X15920182Y-11419698D02*
X15920182Y-11495888D01*
X15920182Y-11495888D02*
X15929706Y-11514936D01*
X15929706Y-11514936D02*
X15939229Y-11524460D01*
X15939229Y-11524460D02*
X15958277Y-11533984D01*
X15958277Y-11533984D02*
X15996372Y-11533984D01*
X15996372Y-11533984D02*
X16015420Y-11524460D01*
X16015420Y-11524460D02*
X16024944Y-11514936D01*
X16024944Y-11514936D02*
X16034467Y-11495888D01*
X16034467Y-11495888D02*
X16034467Y-11448269D01*
X16034467Y-11448269D02*
X16024944Y-11429222D01*
X16024944Y-11429222D02*
X16015420Y-11419698D01*
X16015420Y-11419698D02*
X15996372Y-11410174D01*
X15996372Y-11410174D02*
X15958277Y-11410174D01*
X15958277Y-11410174D02*
X15939229Y-11419698D01*
X15939229Y-11419698D02*
X15929706Y-11429222D01*
X15929706Y-11429222D02*
X15920182Y-11448269D01*
X16158277Y-11333984D02*
X16177325Y-11333984D01*
X16177325Y-11333984D02*
X16196372Y-11343508D01*
X16196372Y-11343508D02*
X16205896Y-11353031D01*
X16205896Y-11353031D02*
X16215420Y-11372079D01*
X16215420Y-11372079D02*
X16224944Y-11410174D01*
X16224944Y-11410174D02*
X16224944Y-11457793D01*
X16224944Y-11457793D02*
X16215420Y-11495888D01*
X16215420Y-11495888D02*
X16205896Y-11514936D01*
X16205896Y-11514936D02*
X16196372Y-11524460D01*
X16196372Y-11524460D02*
X16177325Y-11533984D01*
X16177325Y-11533984D02*
X16158277Y-11533984D01*
X16158277Y-11533984D02*
X16139229Y-11524460D01*
X16139229Y-11524460D02*
X16129706Y-11514936D01*
X16129706Y-11514936D02*
X16120182Y-11495888D01*
X16120182Y-11495888D02*
X16110658Y-11457793D01*
X16110658Y-11457793D02*
X16110658Y-11410174D01*
X16110658Y-11410174D02*
X16120182Y-11372079D01*
X16120182Y-11372079D02*
X16129706Y-11353031D01*
X16129706Y-11353031D02*
X16139229Y-11343508D01*
X16139229Y-11343508D02*
X16158277Y-11333984D01*
X16301134Y-11333984D02*
X16301134Y-11372079D01*
X16377325Y-11333984D02*
X16377325Y-11372079D01*
X16672563Y-11610174D02*
X16663039Y-11600650D01*
X16663039Y-11600650D02*
X16643991Y-11572079D01*
X16643991Y-11572079D02*
X16634468Y-11553031D01*
X16634468Y-11553031D02*
X16624944Y-11524460D01*
X16624944Y-11524460D02*
X16615420Y-11476841D01*
X16615420Y-11476841D02*
X16615420Y-11438746D01*
X16615420Y-11438746D02*
X16624944Y-11391127D01*
X16624944Y-11391127D02*
X16634468Y-11362555D01*
X16634468Y-11362555D02*
X16643991Y-11343508D01*
X16643991Y-11343508D02*
X16663039Y-11314936D01*
X16663039Y-11314936D02*
X16672563Y-11305412D01*
X16729706Y-11333984D02*
X16863039Y-11333984D01*
X16863039Y-11333984D02*
X16777325Y-11533984D01*
X17091611Y-11533984D02*
X17091611Y-11333984D01*
X17177325Y-11533984D02*
X17177325Y-11429222D01*
X17177325Y-11429222D02*
X17167801Y-11410174D01*
X17167801Y-11410174D02*
X17148753Y-11400650D01*
X17148753Y-11400650D02*
X17120182Y-11400650D01*
X17120182Y-11400650D02*
X17101134Y-11410174D01*
X17101134Y-11410174D02*
X17091611Y-11419698D01*
X17301134Y-11533984D02*
X17282087Y-11524460D01*
X17282087Y-11524460D02*
X17272563Y-11514936D01*
X17272563Y-11514936D02*
X17263039Y-11495888D01*
X17263039Y-11495888D02*
X17263039Y-11438746D01*
X17263039Y-11438746D02*
X17272563Y-11419698D01*
X17272563Y-11419698D02*
X17282087Y-11410174D01*
X17282087Y-11410174D02*
X17301134Y-11400650D01*
X17301134Y-11400650D02*
X17329706Y-11400650D01*
X17329706Y-11400650D02*
X17348753Y-11410174D01*
X17348753Y-11410174D02*
X17358277Y-11419698D01*
X17358277Y-11419698D02*
X17367801Y-11438746D01*
X17367801Y-11438746D02*
X17367801Y-11495888D01*
X17367801Y-11495888D02*
X17358277Y-11514936D01*
X17358277Y-11514936D02*
X17348753Y-11524460D01*
X17348753Y-11524460D02*
X17329706Y-11533984D01*
X17329706Y-11533984D02*
X17301134Y-11533984D01*
X17482087Y-11533984D02*
X17463039Y-11524460D01*
X17463039Y-11524460D02*
X17453515Y-11505412D01*
X17453515Y-11505412D02*
X17453515Y-11333984D01*
X17634468Y-11524460D02*
X17615420Y-11533984D01*
X17615420Y-11533984D02*
X17577325Y-11533984D01*
X17577325Y-11533984D02*
X17558277Y-11524460D01*
X17558277Y-11524460D02*
X17548753Y-11505412D01*
X17548753Y-11505412D02*
X17548753Y-11429222D01*
X17548753Y-11429222D02*
X17558277Y-11410174D01*
X17558277Y-11410174D02*
X17577325Y-11400650D01*
X17577325Y-11400650D02*
X17615420Y-11400650D01*
X17615420Y-11400650D02*
X17634468Y-11410174D01*
X17634468Y-11410174D02*
X17643992Y-11429222D01*
X17643992Y-11429222D02*
X17643992Y-11448269D01*
X17643992Y-11448269D02*
X17548753Y-11467317D01*
X17720182Y-11524460D02*
X17739230Y-11533984D01*
X17739230Y-11533984D02*
X17777325Y-11533984D01*
X17777325Y-11533984D02*
X17796373Y-11524460D01*
X17796373Y-11524460D02*
X17805896Y-11505412D01*
X17805896Y-11505412D02*
X17805896Y-11495888D01*
X17805896Y-11495888D02*
X17796373Y-11476841D01*
X17796373Y-11476841D02*
X17777325Y-11467317D01*
X17777325Y-11467317D02*
X17748753Y-11467317D01*
X17748753Y-11467317D02*
X17729706Y-11457793D01*
X17729706Y-11457793D02*
X17720182Y-11438746D01*
X17720182Y-11438746D02*
X17720182Y-11429222D01*
X17720182Y-11429222D02*
X17729706Y-11410174D01*
X17729706Y-11410174D02*
X17748753Y-11400650D01*
X17748753Y-11400650D02*
X17777325Y-11400650D01*
X17777325Y-11400650D02*
X17796373Y-11410174D01*
X17872563Y-11610174D02*
X17882087Y-11600650D01*
X17882087Y-11600650D02*
X17901134Y-11572079D01*
X17901134Y-11572079D02*
X17910658Y-11553031D01*
X17910658Y-11553031D02*
X17920182Y-11524460D01*
X17920182Y-11524460D02*
X17929706Y-11476841D01*
X17929706Y-11476841D02*
X17929706Y-11438746D01*
X17929706Y-11438746D02*
X17920182Y-11391127D01*
X17920182Y-11391127D02*
X17910658Y-11362555D01*
X17910658Y-11362555D02*
X17901134Y-11343508D01*
X17901134Y-11343508D02*
X17882087Y-11314936D01*
X17882087Y-11314936D02*
X17872563Y-11305412D01*
X18234468Y-11610174D02*
X18224944Y-11600650D01*
X18224944Y-11600650D02*
X18205896Y-11572079D01*
X18205896Y-11572079D02*
X18196373Y-11553031D01*
X18196373Y-11553031D02*
X18186849Y-11524460D01*
X18186849Y-11524460D02*
X18177325Y-11476841D01*
X18177325Y-11476841D02*
X18177325Y-11438746D01*
X18177325Y-11438746D02*
X18186849Y-11391127D01*
X18186849Y-11391127D02*
X18196373Y-11362555D01*
X18196373Y-11362555D02*
X18205896Y-11343508D01*
X18205896Y-11343508D02*
X18224944Y-11314936D01*
X18224944Y-11314936D02*
X18234468Y-11305412D01*
X18310658Y-11400650D02*
X18310658Y-11533984D01*
X18310658Y-11419698D02*
X18320182Y-11410174D01*
X18320182Y-11410174D02*
X18339230Y-11400650D01*
X18339230Y-11400650D02*
X18367801Y-11400650D01*
X18367801Y-11400650D02*
X18386849Y-11410174D01*
X18386849Y-11410174D02*
X18396373Y-11429222D01*
X18396373Y-11429222D02*
X18396373Y-11533984D01*
X18520182Y-11533984D02*
X18501134Y-11524460D01*
X18501134Y-11524460D02*
X18491611Y-11514936D01*
X18491611Y-11514936D02*
X18482087Y-11495888D01*
X18482087Y-11495888D02*
X18482087Y-11438746D01*
X18482087Y-11438746D02*
X18491611Y-11419698D01*
X18491611Y-11419698D02*
X18501134Y-11410174D01*
X18501134Y-11410174D02*
X18520182Y-11400650D01*
X18520182Y-11400650D02*
X18548754Y-11400650D01*
X18548754Y-11400650D02*
X18567801Y-11410174D01*
X18567801Y-11410174D02*
X18577325Y-11419698D01*
X18577325Y-11419698D02*
X18586849Y-11438746D01*
X18586849Y-11438746D02*
X18586849Y-11495888D01*
X18586849Y-11495888D02*
X18577325Y-11514936D01*
X18577325Y-11514936D02*
X18567801Y-11524460D01*
X18567801Y-11524460D02*
X18548754Y-11533984D01*
X18548754Y-11533984D02*
X18520182Y-11533984D01*
X18643992Y-11400650D02*
X18720182Y-11400650D01*
X18672563Y-11333984D02*
X18672563Y-11505412D01*
X18672563Y-11505412D02*
X18682087Y-11524460D01*
X18682087Y-11524460D02*
X18701134Y-11533984D01*
X18701134Y-11533984D02*
X18720182Y-11533984D01*
X18939230Y-11400650D02*
X18939230Y-11600650D01*
X18939230Y-11410174D02*
X18958277Y-11400650D01*
X18958277Y-11400650D02*
X18996373Y-11400650D01*
X18996373Y-11400650D02*
X19015420Y-11410174D01*
X19015420Y-11410174D02*
X19024944Y-11419698D01*
X19024944Y-11419698D02*
X19034468Y-11438746D01*
X19034468Y-11438746D02*
X19034468Y-11495888D01*
X19034468Y-11495888D02*
X19024944Y-11514936D01*
X19024944Y-11514936D02*
X19015420Y-11524460D01*
X19015420Y-11524460D02*
X18996373Y-11533984D01*
X18996373Y-11533984D02*
X18958277Y-11533984D01*
X18958277Y-11533984D02*
X18939230Y-11524460D01*
X19148754Y-11533984D02*
X19129706Y-11524460D01*
X19129706Y-11524460D02*
X19120182Y-11505412D01*
X19120182Y-11505412D02*
X19120182Y-11333984D01*
X19310658Y-11533984D02*
X19310658Y-11429222D01*
X19310658Y-11429222D02*
X19301135Y-11410174D01*
X19301135Y-11410174D02*
X19282087Y-11400650D01*
X19282087Y-11400650D02*
X19243992Y-11400650D01*
X19243992Y-11400650D02*
X19224944Y-11410174D01*
X19310658Y-11524460D02*
X19291611Y-11533984D01*
X19291611Y-11533984D02*
X19243992Y-11533984D01*
X19243992Y-11533984D02*
X19224944Y-11524460D01*
X19224944Y-11524460D02*
X19215420Y-11505412D01*
X19215420Y-11505412D02*
X19215420Y-11486365D01*
X19215420Y-11486365D02*
X19224944Y-11467317D01*
X19224944Y-11467317D02*
X19243992Y-11457793D01*
X19243992Y-11457793D02*
X19291611Y-11457793D01*
X19291611Y-11457793D02*
X19310658Y-11448269D01*
X19377325Y-11400650D02*
X19453515Y-11400650D01*
X19405896Y-11333984D02*
X19405896Y-11505412D01*
X19405896Y-11505412D02*
X19415420Y-11524460D01*
X19415420Y-11524460D02*
X19434468Y-11533984D01*
X19434468Y-11533984D02*
X19453515Y-11533984D01*
X19596373Y-11524460D02*
X19577325Y-11533984D01*
X19577325Y-11533984D02*
X19539230Y-11533984D01*
X19539230Y-11533984D02*
X19520182Y-11524460D01*
X19520182Y-11524460D02*
X19510658Y-11505412D01*
X19510658Y-11505412D02*
X19510658Y-11429222D01*
X19510658Y-11429222D02*
X19520182Y-11410174D01*
X19520182Y-11410174D02*
X19539230Y-11400650D01*
X19539230Y-11400650D02*
X19577325Y-11400650D01*
X19577325Y-11400650D02*
X19596373Y-11410174D01*
X19596373Y-11410174D02*
X19605896Y-11429222D01*
X19605896Y-11429222D02*
X19605896Y-11448269D01*
X19605896Y-11448269D02*
X19510658Y-11467317D01*
X19777325Y-11533984D02*
X19777325Y-11333984D01*
X19777325Y-11524460D02*
X19758277Y-11533984D01*
X19758277Y-11533984D02*
X19720182Y-11533984D01*
X19720182Y-11533984D02*
X19701135Y-11524460D01*
X19701135Y-11524460D02*
X19691611Y-11514936D01*
X19691611Y-11514936D02*
X19682087Y-11495888D01*
X19682087Y-11495888D02*
X19682087Y-11438746D01*
X19682087Y-11438746D02*
X19691611Y-11419698D01*
X19691611Y-11419698D02*
X19701135Y-11410174D01*
X19701135Y-11410174D02*
X19720182Y-11400650D01*
X19720182Y-11400650D02*
X19758277Y-11400650D01*
X19758277Y-11400650D02*
X19777325Y-11410174D01*
X19853516Y-11610174D02*
X19863039Y-11600650D01*
X19863039Y-11600650D02*
X19882087Y-11572079D01*
X19882087Y-11572079D02*
X19891611Y-11553031D01*
X19891611Y-11553031D02*
X19901135Y-11524460D01*
X19901135Y-11524460D02*
X19910658Y-11476841D01*
X19910658Y-11476841D02*
X19910658Y-11438746D01*
X19910658Y-11438746D02*
X19901135Y-11391127D01*
X19901135Y-11391127D02*
X19891611Y-11362555D01*
X19891611Y-11362555D02*
X19882087Y-11343508D01*
X19882087Y-11343508D02*
X19863039Y-11314936D01*
X19863039Y-11314936D02*
X19853516Y-11305412D01*
M02*
