G04 #@! TF.GenerationSoftware,KiCad,Pcbnew,8.0.7*
G04 #@! TF.CreationDate,2025-04-19T00:44:46-07:00*
G04 #@! TF.ProjectId,Hardware,48617264-7761-4726-952e-6b696361645f,rev?*
G04 #@! TF.SameCoordinates,Original*
G04 #@! TF.FileFunction,Paste,Top*
G04 #@! TF.FilePolarity,Positive*
%FSLAX46Y46*%
G04 Gerber Fmt 4.6, Leading zero omitted, Abs format (unit mm)*
G04 Created by KiCad (PCBNEW 8.0.7) date 2025-04-19 00:44:46*
%MOMM*%
%LPD*%
G01*
G04 APERTURE LIST*
G04 Aperture macros list*
%AMRoundRect*
0 Rectangle with rounded corners*
0 $1 Rounding radius*
0 $2 $3 $4 $5 $6 $7 $8 $9 X,Y pos of 4 corners*
0 Add a 4 corners polygon primitive as box body*
4,1,4,$2,$3,$4,$5,$6,$7,$8,$9,$2,$3,0*
0 Add four circle primitives for the rounded corners*
1,1,$1+$1,$2,$3*
1,1,$1+$1,$4,$5*
1,1,$1+$1,$6,$7*
1,1,$1+$1,$8,$9*
0 Add four rect primitives between the rounded corners*
20,1,$1+$1,$2,$3,$4,$5,0*
20,1,$1+$1,$4,$5,$6,$7,0*
20,1,$1+$1,$6,$7,$8,$9,0*
20,1,$1+$1,$8,$9,$2,$3,0*%
G04 Aperture macros list end*
%ADD10RoundRect,0.225000X-0.225000X-0.250000X0.225000X-0.250000X0.225000X0.250000X-0.225000X0.250000X0*%
%ADD11RoundRect,0.200000X0.200000X0.275000X-0.200000X0.275000X-0.200000X-0.275000X0.200000X-0.275000X0*%
%ADD12RoundRect,0.200000X0.275000X-0.200000X0.275000X0.200000X-0.275000X0.200000X-0.275000X-0.200000X0*%
%ADD13RoundRect,0.200000X-0.200000X-0.275000X0.200000X-0.275000X0.200000X0.275000X-0.200000X0.275000X0*%
%ADD14RoundRect,1.250000X-1.250000X-1.500000X1.250000X-1.500000X1.250000X1.500000X-1.250000X1.500000X0*%
%ADD15RoundRect,1.250000X1.250000X1.500000X-1.250000X1.500000X-1.250000X-1.500000X1.250000X-1.500000X0*%
%ADD16RoundRect,0.150000X0.512500X0.150000X-0.512500X0.150000X-0.512500X-0.150000X0.512500X-0.150000X0*%
%ADD17RoundRect,0.250000X-0.475000X0.250000X-0.475000X-0.250000X0.475000X-0.250000X0.475000X0.250000X0*%
%ADD18RoundRect,0.243750X0.243750X0.456250X-0.243750X0.456250X-0.243750X-0.456250X0.243750X-0.456250X0*%
%ADD19RoundRect,0.250000X0.475000X-0.250000X0.475000X0.250000X-0.475000X0.250000X-0.475000X-0.250000X0*%
%ADD20RoundRect,0.225000X0.225000X0.250000X-0.225000X0.250000X-0.225000X-0.250000X0.225000X-0.250000X0*%
%ADD21R,1.700000X1.700000*%
%ADD22RoundRect,0.150000X0.587500X0.150000X-0.587500X0.150000X-0.587500X-0.150000X0.587500X-0.150000X0*%
%ADD23RoundRect,0.150000X0.475000X-0.150000X0.475000X0.150000X-0.475000X0.150000X-0.475000X-0.150000X0*%
%ADD24RoundRect,0.375000X0.475000X-0.375000X0.475000X0.375000X-0.475000X0.375000X-0.475000X-0.375000X0*%
%ADD25R,3.500000X2.950000*%
%ADD26RoundRect,1.250000X-1.500000X1.250000X-1.500000X-1.250000X1.500000X-1.250000X1.500000X1.250000X0*%
%ADD27RoundRect,0.200000X-0.275000X0.200000X-0.275000X-0.200000X0.275000X-0.200000X0.275000X0.200000X0*%
%ADD28RoundRect,1.250000X1.500000X-1.250000X1.500000X1.250000X-1.500000X1.250000X-1.500000X-1.250000X0*%
%ADD29RoundRect,0.150000X-0.150000X0.512500X-0.150000X-0.512500X0.150000X-0.512500X0.150000X0.512500X0*%
G04 APERTURE END LIST*
D10*
X188550000Y-81750000D03*
X190100000Y-81750000D03*
D11*
X175350000Y-81750000D03*
X173700000Y-81750000D03*
D12*
X169140000Y-49300000D03*
X169140000Y-47650000D03*
D13*
X152000000Y-55300000D03*
X153650000Y-55300000D03*
D11*
X157100000Y-57000000D03*
X155450000Y-57000000D03*
D14*
X158500000Y-41750000D03*
D15*
X173500000Y-41750000D03*
D16*
X173575000Y-49550000D03*
X173575000Y-48600000D03*
X173575000Y-47650000D03*
X171300000Y-47650000D03*
X171300000Y-48600000D03*
X171300000Y-49550000D03*
D17*
X177400000Y-47600000D03*
X177400000Y-49500000D03*
X179775000Y-47600000D03*
X179775000Y-49500000D03*
D11*
X167275000Y-54107500D03*
X165625000Y-54107500D03*
D18*
X162500000Y-56142500D03*
X160625000Y-56142500D03*
X167500000Y-56142500D03*
X165625000Y-56142500D03*
D19*
X179375000Y-55000000D03*
X179375000Y-53100000D03*
D20*
X146950000Y-48237500D03*
X145400000Y-48237500D03*
X157125000Y-59100000D03*
X155575000Y-59100000D03*
D21*
X154315000Y-48275000D03*
X151775000Y-48275000D03*
D19*
X177000000Y-55000000D03*
X177000000Y-53100000D03*
D13*
X177025000Y-81750000D03*
X178675000Y-81750000D03*
D22*
X153650000Y-53000000D03*
X153650000Y-51100000D03*
X151775000Y-52050000D03*
D11*
X162275000Y-54107500D03*
X160625000Y-54107500D03*
D23*
X188410000Y-91000000D03*
X188410000Y-90000000D03*
X188410000Y-89000000D03*
X188410000Y-88000000D03*
X188410000Y-87000000D03*
X188410000Y-86000000D03*
D24*
X191535000Y-92450000D03*
X191535000Y-84550000D03*
D25*
X184660000Y-48575000D03*
X184660000Y-54025000D03*
D15*
X145250000Y-42000000D03*
D26*
X135000000Y-52250000D03*
D13*
X152000000Y-57000000D03*
X153650000Y-57000000D03*
D11*
X141800000Y-54750000D03*
X140150000Y-54750000D03*
D20*
X172850000Y-51550000D03*
X171300000Y-51550000D03*
D10*
X145400000Y-57000000D03*
X146950000Y-57000000D03*
D26*
X135000000Y-93750000D03*
D14*
X145250000Y-104000000D03*
D27*
X167140000Y-47650000D03*
X167140000Y-49300000D03*
D13*
X155450000Y-55300000D03*
X157100000Y-55300000D03*
D28*
X197000000Y-52250000D03*
D15*
X186750000Y-42000000D03*
D20*
X146950000Y-54537500D03*
X145400000Y-54537500D03*
D14*
X187250000Y-104500000D03*
D28*
X197500000Y-94250000D03*
D29*
X146950000Y-50225000D03*
X146000000Y-50225000D03*
X145050000Y-50225000D03*
X145050000Y-52500000D03*
X146950000Y-52500000D03*
D18*
X142025000Y-56750000D03*
X140150000Y-56750000D03*
M02*
