G04 #@! TF.GenerationSoftware,KiCad,Pcbnew,8.0.7*
G04 #@! TF.CreationDate,2025-04-19T00:44:46-07:00*
G04 #@! TF.ProjectId,Hardware,48617264-7761-4726-952e-6b696361645f,rev?*
G04 #@! TF.SameCoordinates,Original*
G04 #@! TF.FileFunction,Copper,L3,Inr*
G04 #@! TF.FilePolarity,Positive*
%FSLAX46Y46*%
G04 Gerber Fmt 4.6, Leading zero omitted, Abs format (unit mm)*
G04 Created by KiCad (PCBNEW 8.0.7) date 2025-04-19 00:44:46*
%MOMM*%
%LPD*%
G01*
G04 APERTURE LIST*
G04 Aperture macros list*
%AMHorizOval*
0 Thick line with rounded ends*
0 $1 width*
0 $2 $3 position (X,Y) of the first rounded end (center of the circle)*
0 $4 $5 position (X,Y) of the second rounded end (center of the circle)*
0 Add line between two ends*
20,1,$1,$2,$3,$4,$5,0*
0 Add two circle primitives to create the rounded ends*
1,1,$1,$2,$3*
1,1,$1,$4,$5*%
%AMRotRect*
0 Rectangle, with rotation*
0 The origin of the aperture is its center*
0 $1 length*
0 $2 width*
0 $3 Rotation angle, in degrees counterclockwise*
0 Add horizontal line*
21,1,$1,$2,0,0,$3*%
G04 Aperture macros list end*
G04 #@! TA.AperFunction,ComponentPad*
%ADD10C,2.000000*%
G04 #@! TD*
G04 #@! TA.AperFunction,ComponentPad*
%ADD11R,2.000000X2.000000*%
G04 #@! TD*
G04 #@! TA.AperFunction,ComponentPad*
%ADD12RotRect,1.700000X1.700000X135.000000*%
G04 #@! TD*
G04 #@! TA.AperFunction,ComponentPad*
%ADD13HorizOval,1.700000X0.000000X0.000000X0.000000X0.000000X0*%
G04 #@! TD*
G04 #@! TA.AperFunction,ComponentPad*
%ADD14RotRect,1.700000X1.700000X315.000000*%
G04 #@! TD*
G04 #@! TA.AperFunction,ComponentPad*
%ADD15HorizOval,1.700000X0.000000X0.000000X0.000000X0.000000X0*%
G04 #@! TD*
G04 #@! TA.AperFunction,ComponentPad*
%ADD16R,1.700000X1.700000*%
G04 #@! TD*
G04 #@! TA.AperFunction,ComponentPad*
%ADD17O,1.700000X1.700000*%
G04 #@! TD*
G04 #@! TA.AperFunction,ComponentPad*
%ADD18RotRect,1.700000X1.700000X225.000000*%
G04 #@! TD*
G04 #@! TA.AperFunction,ComponentPad*
%ADD19HorizOval,1.700000X0.000000X0.000000X0.000000X0.000000X0*%
G04 #@! TD*
G04 #@! TA.AperFunction,ComponentPad*
%ADD20RotRect,1.700000X1.700000X45.000000*%
G04 #@! TD*
G04 #@! TA.AperFunction,ComponentPad*
%ADD21HorizOval,1.700000X0.000000X0.000000X0.000000X0.000000X0*%
G04 #@! TD*
G04 #@! TA.AperFunction,ViaPad*
%ADD22C,0.700000*%
G04 #@! TD*
G04 #@! TA.AperFunction,Conductor*
%ADD23C,0.750000*%
G04 #@! TD*
G04 #@! TA.AperFunction,Conductor*
%ADD24C,0.500000*%
G04 #@! TD*
G04 #@! TA.AperFunction,Conductor*
%ADD25C,0.900000*%
G04 #@! TD*
G04 APERTURE END LIST*
D10*
X169640000Y-97870000D03*
X172180000Y-97870000D03*
X174720000Y-97870000D03*
X177260000Y-97870000D03*
X179800000Y-97870000D03*
X182340000Y-97870000D03*
X190110000Y-61750000D03*
X187570000Y-61750000D03*
X185030000Y-61750000D03*
X182490000Y-61750000D03*
X179950000Y-61750000D03*
X177410000Y-61750000D03*
X174870000Y-61750000D03*
X172330000Y-61750000D03*
X169790000Y-61750000D03*
X167250000Y-61750000D03*
X164710000Y-61750000D03*
X162170000Y-61750000D03*
X159630000Y-61750000D03*
X157090000Y-61750000D03*
X154550000Y-61750000D03*
X152010000Y-61750000D03*
X149470000Y-61750000D03*
X146930000Y-61750000D03*
X144390000Y-61750000D03*
D11*
X141850000Y-61750000D03*
D10*
X190110000Y-76990000D03*
X187570000Y-76990000D03*
X185030000Y-76990000D03*
X182490000Y-76990000D03*
X179950000Y-76990000D03*
X177410000Y-76990000D03*
X174870000Y-76990000D03*
X172330000Y-76990000D03*
X169790000Y-76990000D03*
X167250000Y-76990000D03*
X164710000Y-76990000D03*
X162170000Y-76990000D03*
X159630000Y-76990000D03*
X157090000Y-76990000D03*
X154550000Y-76990000D03*
X152010000Y-76990000D03*
X149470000Y-76990000D03*
X146930000Y-76990000D03*
X144390000Y-76990000D03*
D11*
X141850000Y-76990000D03*
D10*
X164990000Y-83702500D03*
X162450000Y-83702500D03*
X159910000Y-83702500D03*
X157370000Y-83702500D03*
X154830000Y-83702500D03*
X152290000Y-83702500D03*
X149750000Y-83702500D03*
X147210000Y-83702500D03*
X144670000Y-83702500D03*
X142130000Y-83702500D03*
D12*
X193453949Y-104046051D03*
D13*
X195250000Y-102250000D03*
X197046051Y-100453949D03*
D14*
X138535445Y-41964555D03*
D15*
X136739394Y-43760606D03*
X134943343Y-45556657D03*
D16*
X158925000Y-48250000D03*
D17*
X161465000Y-48250000D03*
X164005000Y-48250000D03*
D18*
X197035445Y-45535445D03*
D19*
X195239394Y-43739394D03*
X193443343Y-41943343D03*
D20*
X134953949Y-100453949D03*
D21*
X136750000Y-102250000D03*
X138546051Y-104046051D03*
D22*
X172250000Y-56500000D03*
X167150000Y-50350000D03*
X173500000Y-56500000D03*
X161465000Y-50200000D03*
X148700000Y-48400000D03*
X174250000Y-55000000D03*
X165000000Y-81500000D03*
X148700000Y-47350000D03*
X171000000Y-56500000D03*
X191400000Y-78750000D03*
X186000000Y-86050000D03*
X173250000Y-55000000D03*
X156800000Y-49200000D03*
X147800000Y-47300000D03*
X175250000Y-55000000D03*
X144175000Y-57000000D03*
X173260000Y-72650000D03*
X176500000Y-52100000D03*
X189630000Y-53020000D03*
X199100000Y-95600000D03*
X185400000Y-43500000D03*
X158240000Y-101860000D03*
X154250000Y-59050000D03*
X188150000Y-42000000D03*
X136500000Y-50800000D03*
X135000000Y-50750000D03*
X193550000Y-93940000D03*
X133500000Y-53600000D03*
X151670000Y-41530000D03*
X155900000Y-73030000D03*
X150230000Y-69320000D03*
X187990000Y-54920000D03*
X141260000Y-39520000D03*
X164720000Y-43910000D03*
X185410000Y-68880000D03*
X186800000Y-43500000D03*
X184780000Y-64410000D03*
X199790000Y-97810000D03*
X141590000Y-71230000D03*
X191070000Y-102770000D03*
X182160000Y-39280000D03*
X171570000Y-101860000D03*
X159950000Y-41700000D03*
X155390000Y-64540000D03*
X141540000Y-68090000D03*
X184170000Y-94310000D03*
X168420000Y-81810000D03*
X196100000Y-92800000D03*
X151740000Y-43880000D03*
X132470000Y-48260000D03*
X180260000Y-81910000D03*
X151810000Y-39270000D03*
X186750000Y-42000000D03*
X160000000Y-40200000D03*
X155400000Y-93600000D03*
X154660000Y-98520000D03*
X192080000Y-95290000D03*
X158550000Y-41700000D03*
X164810000Y-41530000D03*
X170500000Y-53000000D03*
X188200000Y-40500000D03*
X142575000Y-58425000D03*
X191360000Y-86130000D03*
X188200000Y-43500000D03*
X143850000Y-103900000D03*
X191590000Y-106680000D03*
X173575000Y-50300000D03*
X177040000Y-68940000D03*
X173380000Y-88260000D03*
X169200000Y-50350000D03*
X198140000Y-103190000D03*
X184340000Y-72400000D03*
X181300000Y-95100000D03*
X152260000Y-101750000D03*
X176100000Y-88260000D03*
X164880000Y-38970000D03*
X197600000Y-95550000D03*
X179120000Y-64600000D03*
X164040000Y-54910000D03*
X159800000Y-98650000D03*
X146460000Y-64540000D03*
X196100000Y-94200000D03*
X181870000Y-44650000D03*
X190130000Y-88150000D03*
X177280000Y-101910000D03*
X133500000Y-50800000D03*
X157200000Y-40200000D03*
X183230000Y-82380000D03*
X145250000Y-103900000D03*
X189070000Y-99880000D03*
X171680000Y-85810000D03*
X177500000Y-52100000D03*
X180150000Y-74520000D03*
X146700000Y-105400000D03*
X169380000Y-92860000D03*
X164000000Y-50000000D03*
X171750000Y-53000000D03*
X135000000Y-52150000D03*
X190960000Y-39490000D03*
X197600000Y-92750000D03*
X158600000Y-40200000D03*
X180420000Y-40460000D03*
X149100000Y-72810000D03*
X155450000Y-58025000D03*
X141320000Y-91190000D03*
X164080000Y-73160000D03*
X138600000Y-50200000D03*
X134940000Y-41600000D03*
X190050000Y-67040000D03*
X145300000Y-105400000D03*
X179900000Y-52150000D03*
X196100000Y-95600000D03*
X162630000Y-64600000D03*
X160510000Y-93640000D03*
X197120000Y-48200000D03*
X165660000Y-90770000D03*
X150760000Y-93640000D03*
X146700000Y-102400000D03*
X190800000Y-43600000D03*
X172790000Y-92810000D03*
X146650000Y-103900000D03*
X191550000Y-81660000D03*
X178660000Y-39160000D03*
X184800000Y-45600000D03*
X136500000Y-52200000D03*
X190100000Y-64330000D03*
X157200000Y-43200000D03*
X180250000Y-50500000D03*
X171770000Y-81810000D03*
X168250000Y-85760000D03*
X190660000Y-50770000D03*
X189960000Y-74300000D03*
X155650000Y-53050000D03*
X158600000Y-43200000D03*
X195350000Y-105780000D03*
X179350000Y-50500000D03*
X135940000Y-97430000D03*
X188550000Y-82950000D03*
X143900000Y-102400000D03*
X157150000Y-41700000D03*
X143900000Y-105400000D03*
X190050000Y-71040000D03*
X165730000Y-88710000D03*
X140950000Y-106550000D03*
X169200000Y-53000000D03*
X177900000Y-50500000D03*
X176950000Y-50500000D03*
X144175000Y-54525000D03*
X197410000Y-41810000D03*
X184170000Y-88310000D03*
X185400000Y-40500000D03*
X141370000Y-42850000D03*
X151990000Y-54110000D03*
X140420000Y-101110000D03*
X199320000Y-48250000D03*
X141600000Y-73010000D03*
X178850000Y-52150000D03*
X199100000Y-94200000D03*
X179090000Y-92870000D03*
X135000000Y-53550000D03*
X186891000Y-85450000D03*
X162480000Y-81800000D03*
X167790000Y-69130000D03*
X181820000Y-42170000D03*
X136670000Y-48420000D03*
X134760000Y-104310000D03*
X138710000Y-52070000D03*
X197600000Y-94150000D03*
X145400000Y-46875000D03*
X171000000Y-64410000D03*
X186800000Y-40500000D03*
X161190000Y-52960000D03*
X155480000Y-89660000D03*
X144850000Y-91240000D03*
X199100000Y-92800000D03*
X180520000Y-85460000D03*
X143570000Y-88730000D03*
X136500000Y-53600000D03*
X141690000Y-64010000D03*
X132580000Y-97380000D03*
X145300000Y-102400000D03*
X133500000Y-52200000D03*
X185350000Y-42000000D03*
X164800000Y-101910000D03*
X182430000Y-101860000D03*
X149280000Y-98520000D03*
X157910000Y-69380000D03*
X160470000Y-89570000D03*
X160000000Y-43200000D03*
X197000000Y-52250000D03*
X187300000Y-103000000D03*
X136500000Y-92400000D03*
X145300000Y-43400000D03*
X173550000Y-41700000D03*
X143900000Y-43400000D03*
X146650000Y-41900000D03*
X173600000Y-40200000D03*
X187250000Y-104500000D03*
X195500000Y-53700000D03*
X146700000Y-43400000D03*
X188650000Y-104500000D03*
X175000000Y-43200000D03*
X135000000Y-93750000D03*
X175000000Y-40200000D03*
X133500000Y-92400000D03*
X185900000Y-106000000D03*
X155450000Y-54125000D03*
X172200000Y-43200000D03*
X145250000Y-41900000D03*
X187300000Y-106000000D03*
X197000000Y-50850000D03*
X172200000Y-40200000D03*
X188700000Y-103000000D03*
X133500000Y-95200000D03*
X185850000Y-104500000D03*
X135000000Y-92350000D03*
X135000000Y-95150000D03*
X198500000Y-53700000D03*
X136500000Y-93800000D03*
X146700000Y-40400000D03*
X133500000Y-93800000D03*
X145300000Y-40400000D03*
X198500000Y-52300000D03*
X136500000Y-95200000D03*
X197000000Y-53650000D03*
X198500000Y-50900000D03*
X143900000Y-40400000D03*
X195500000Y-52300000D03*
X174950000Y-41700000D03*
X173600000Y-43200000D03*
X172150000Y-41700000D03*
X185900000Y-103000000D03*
X143850000Y-41900000D03*
X188700000Y-106000000D03*
X195500000Y-50900000D03*
X184660000Y-47600000D03*
X185775000Y-48575000D03*
X175000000Y-48700000D03*
X183525000Y-48575000D03*
X183525000Y-47600000D03*
X175900000Y-48700000D03*
X184660000Y-48575000D03*
X175900000Y-49500000D03*
X184660000Y-49575000D03*
X173950000Y-51550000D03*
X175000000Y-49500000D03*
X185775000Y-47600000D03*
X185775000Y-49575000D03*
X183525000Y-49575000D03*
X144000000Y-55700000D03*
X190125000Y-83000000D03*
X177025000Y-83100000D03*
X145950000Y-55700000D03*
X164500000Y-53182500D03*
X175375000Y-83050000D03*
X145000000Y-55700000D03*
X163575000Y-53182500D03*
X159150000Y-81625000D03*
X144700000Y-78700000D03*
X184500000Y-81921000D03*
X181950000Y-81921000D03*
D23*
X191400000Y-78750000D02*
X189679000Y-80471000D01*
X189679000Y-80471000D02*
X186000000Y-80471000D01*
D24*
X176200000Y-86925000D02*
X167200000Y-86925000D01*
X186000000Y-86050000D02*
X186000000Y-80471000D01*
D25*
X147800000Y-47300000D02*
X148650000Y-47300000D01*
D23*
X148700000Y-48400000D02*
X148700000Y-49200000D01*
D24*
X161465000Y-50200000D02*
X161465000Y-51365000D01*
D23*
X171000000Y-56500000D02*
X172250000Y-56500000D01*
X172250000Y-56500000D02*
X173500000Y-56500000D01*
X169950000Y-56500000D02*
X171000000Y-56500000D01*
X166029000Y-80471000D02*
X165000000Y-81500000D01*
D24*
X156800000Y-49200000D02*
X156800000Y-51400000D01*
D23*
X148700000Y-49200000D02*
X150900000Y-51400000D01*
D24*
X161465000Y-51365000D02*
X161500000Y-51400000D01*
D23*
X148700000Y-48400000D02*
X148700000Y-47350000D01*
X163450000Y-51400000D02*
X164850000Y-51400000D01*
X150900000Y-51400000D02*
X156800000Y-51400000D01*
D24*
X161500000Y-51400000D02*
X163450000Y-51400000D01*
D23*
X156800000Y-51400000D02*
X163450000Y-51400000D01*
X164850000Y-51400000D02*
X169950000Y-56500000D01*
X186000000Y-80471000D02*
X166029000Y-80471000D01*
D24*
X158375000Y-54950000D02*
X158375000Y-57575000D01*
X155450000Y-54125000D02*
X157550000Y-54125000D01*
X157550000Y-54125000D02*
X158375000Y-54950000D01*
X175000000Y-49500000D02*
X175100000Y-49500000D01*
X175000000Y-48700000D02*
X175100000Y-48700000D01*
X168787500Y-95412500D02*
X167950000Y-94575000D01*
X187425000Y-86925000D02*
X176200000Y-86925000D01*
X176975000Y-83050000D02*
X177025000Y-83100000D01*
X176687500Y-83437500D02*
X176200000Y-83437500D01*
X167200000Y-93825000D02*
X167200000Y-86925000D01*
X176200000Y-83437500D02*
X176200000Y-86925000D01*
X141025000Y-86925000D02*
X167200000Y-86925000D01*
X168787500Y-95412500D02*
X169625000Y-94575000D01*
X176200000Y-83437500D02*
X175762500Y-83437500D01*
X177025000Y-83100000D02*
X176687500Y-83437500D01*
X190125000Y-84225000D02*
X187425000Y-86925000D01*
X169640000Y-96265000D02*
X168787500Y-95412500D01*
X175762500Y-83437500D02*
X175375000Y-83050000D01*
X179800000Y-96125000D02*
X178250000Y-94575000D01*
D23*
X144000000Y-55700000D02*
X145950000Y-55700000D01*
D24*
X144000000Y-55700000D02*
X140100000Y-59600000D01*
X169625000Y-94575000D02*
X178250000Y-94575000D01*
X169640000Y-97870000D02*
X169640000Y-96265000D01*
X140100000Y-86000000D02*
X141025000Y-86925000D01*
X140100000Y-59600000D02*
X140100000Y-86000000D01*
X167950000Y-94575000D02*
X167200000Y-93825000D01*
X179800000Y-97870000D02*
X179800000Y-96125000D01*
X190125000Y-83000000D02*
X190125000Y-84225000D01*
G04 #@! TA.AperFunction,Conductor*
G36*
X140110703Y-86931095D02*
G01*
X140117181Y-86937127D01*
X140610325Y-87430272D01*
X140610331Y-87430277D01*
X140716874Y-87501466D01*
X140786221Y-87530189D01*
X140835256Y-87550501D01*
X140835259Y-87550501D01*
X140835260Y-87550502D01*
X140960928Y-87575500D01*
X140960931Y-87575500D01*
X141089069Y-87575500D01*
X166425500Y-87575500D01*
X166492539Y-87595185D01*
X166538294Y-87647989D01*
X166549500Y-87699500D01*
X166549500Y-93889070D01*
X166560369Y-93943708D01*
X166560369Y-93943710D01*
X166574497Y-94014736D01*
X166574499Y-94014744D01*
X166623534Y-94133125D01*
X166694726Y-94239673D01*
X166694727Y-94239674D01*
X167440382Y-94985327D01*
X167440403Y-94985350D01*
X168282223Y-95827169D01*
X168933654Y-96478600D01*
X168967139Y-96539923D01*
X168962155Y-96609615D01*
X168920283Y-96665548D01*
X168904994Y-96675334D01*
X168871376Y-96693528D01*
X168871365Y-96693535D01*
X168688222Y-96836081D01*
X168688219Y-96836084D01*
X168688216Y-96836086D01*
X168688216Y-96836087D01*
X168631541Y-96897653D01*
X168531016Y-97006852D01*
X168404075Y-97201151D01*
X168310842Y-97413699D01*
X168253866Y-97638691D01*
X168253864Y-97638702D01*
X168234700Y-97869993D01*
X168234700Y-97870006D01*
X168253864Y-98101297D01*
X168253866Y-98101308D01*
X168310842Y-98326300D01*
X168404075Y-98538848D01*
X168531016Y-98733147D01*
X168531019Y-98733151D01*
X168531021Y-98733153D01*
X168688216Y-98903913D01*
X168688219Y-98903915D01*
X168688222Y-98903918D01*
X168871365Y-99046464D01*
X168871371Y-99046468D01*
X168871374Y-99046470D01*
X169075497Y-99156936D01*
X169128017Y-99174966D01*
X169295015Y-99232297D01*
X169295017Y-99232297D01*
X169295019Y-99232298D01*
X169523951Y-99270500D01*
X169523952Y-99270500D01*
X169756048Y-99270500D01*
X169756049Y-99270500D01*
X169984981Y-99232298D01*
X170204503Y-99156936D01*
X170408626Y-99046470D01*
X170591784Y-98903913D01*
X170748979Y-98733153D01*
X170865164Y-98555318D01*
X170918308Y-98509963D01*
X170987539Y-98500539D01*
X171050875Y-98530041D01*
X171070545Y-98552017D01*
X171100973Y-98595472D01*
X171100974Y-98595472D01*
X171697037Y-97999408D01*
X171714075Y-98062993D01*
X171779901Y-98177007D01*
X171872993Y-98270099D01*
X171987007Y-98335925D01*
X172050590Y-98352962D01*
X171454526Y-98949025D01*
X171527513Y-99000132D01*
X171527521Y-99000136D01*
X171733668Y-99096264D01*
X171733682Y-99096269D01*
X171953389Y-99155139D01*
X171953400Y-99155141D01*
X172179998Y-99174966D01*
X172180002Y-99174966D01*
X172406599Y-99155141D01*
X172406610Y-99155139D01*
X172626317Y-99096269D01*
X172626331Y-99096264D01*
X172832478Y-99000136D01*
X172905471Y-98949024D01*
X172309409Y-98352962D01*
X172372993Y-98335925D01*
X172487007Y-98270099D01*
X172580099Y-98177007D01*
X172645925Y-98062993D01*
X172662962Y-97999409D01*
X173259024Y-98595471D01*
X173289454Y-98552016D01*
X173344032Y-98508392D01*
X173413530Y-98501200D01*
X173475885Y-98532723D01*
X173494837Y-98555320D01*
X173611016Y-98733147D01*
X173611019Y-98733151D01*
X173611021Y-98733153D01*
X173768216Y-98903913D01*
X173768219Y-98903915D01*
X173768222Y-98903918D01*
X173951365Y-99046464D01*
X173951371Y-99046468D01*
X173951374Y-99046470D01*
X174155497Y-99156936D01*
X174208017Y-99174966D01*
X174375015Y-99232297D01*
X174375017Y-99232297D01*
X174375019Y-99232298D01*
X174603951Y-99270500D01*
X174603952Y-99270500D01*
X174836048Y-99270500D01*
X174836049Y-99270500D01*
X175064981Y-99232298D01*
X175284503Y-99156936D01*
X175488626Y-99046470D01*
X175671784Y-98903913D01*
X175828979Y-98733153D01*
X175886191Y-98645582D01*
X175939337Y-98600226D01*
X176008568Y-98590802D01*
X176071904Y-98620304D01*
X176093807Y-98645581D01*
X176099501Y-98654296D01*
X176151016Y-98733147D01*
X176151019Y-98733151D01*
X176151021Y-98733153D01*
X176308216Y-98903913D01*
X176308219Y-98903915D01*
X176308222Y-98903918D01*
X176491365Y-99046464D01*
X176491371Y-99046468D01*
X176491374Y-99046470D01*
X176695497Y-99156936D01*
X176748017Y-99174966D01*
X176915015Y-99232297D01*
X176915017Y-99232297D01*
X176915019Y-99232298D01*
X177143951Y-99270500D01*
X177143952Y-99270500D01*
X177376048Y-99270500D01*
X177376049Y-99270500D01*
X177604981Y-99232298D01*
X177824503Y-99156936D01*
X178028626Y-99046470D01*
X178211784Y-98903913D01*
X178368979Y-98733153D01*
X178426191Y-98645582D01*
X178479337Y-98600226D01*
X178548568Y-98590802D01*
X178611904Y-98620304D01*
X178633807Y-98645581D01*
X178639501Y-98654296D01*
X178691016Y-98733147D01*
X178691019Y-98733151D01*
X178691021Y-98733153D01*
X178848216Y-98903913D01*
X178848219Y-98903915D01*
X178848222Y-98903918D01*
X179031365Y-99046464D01*
X179031371Y-99046468D01*
X179031374Y-99046470D01*
X179235497Y-99156936D01*
X179288017Y-99174966D01*
X179455015Y-99232297D01*
X179455017Y-99232297D01*
X179455019Y-99232298D01*
X179683951Y-99270500D01*
X179683952Y-99270500D01*
X179916048Y-99270500D01*
X179916049Y-99270500D01*
X180144981Y-99232298D01*
X180364503Y-99156936D01*
X180568626Y-99046470D01*
X180751784Y-98903913D01*
X180908979Y-98733153D01*
X181025164Y-98555318D01*
X181078308Y-98509963D01*
X181147539Y-98500539D01*
X181210875Y-98530041D01*
X181230545Y-98552017D01*
X181260973Y-98595472D01*
X181260974Y-98595472D01*
X181857037Y-97999409D01*
X181874075Y-98062993D01*
X181939901Y-98177007D01*
X182032993Y-98270099D01*
X182147007Y-98335925D01*
X182210590Y-98352962D01*
X181614526Y-98949025D01*
X181687513Y-99000132D01*
X181687521Y-99000136D01*
X181893668Y-99096264D01*
X181893682Y-99096269D01*
X182113389Y-99155139D01*
X182113400Y-99155141D01*
X182339998Y-99174966D01*
X182340002Y-99174966D01*
X182566599Y-99155141D01*
X182566610Y-99155139D01*
X182786317Y-99096269D01*
X182786331Y-99096264D01*
X182992478Y-99000136D01*
X183065471Y-98949024D01*
X182469409Y-98352962D01*
X182532993Y-98335925D01*
X182647007Y-98270099D01*
X182740099Y-98177007D01*
X182805925Y-98062993D01*
X182822962Y-97999409D01*
X183419024Y-98595471D01*
X183459693Y-98591914D01*
X183528193Y-98605681D01*
X183578376Y-98654296D01*
X183594500Y-98715442D01*
X183594500Y-102375500D01*
X183574815Y-102442539D01*
X183522011Y-102488294D01*
X183470500Y-102499500D01*
X148434108Y-102499500D01*
X148306812Y-102533608D01*
X148192686Y-102599500D01*
X148192683Y-102599502D01*
X148099502Y-102692683D01*
X148099500Y-102692686D01*
X148033608Y-102806812D01*
X147999500Y-102934108D01*
X147999500Y-107375500D01*
X147979815Y-107442539D01*
X147927011Y-107488294D01*
X147875500Y-107499500D01*
X141001954Y-107499500D01*
X140998059Y-107499439D01*
X140407417Y-107480877D01*
X140399643Y-107480388D01*
X139813267Y-107424959D01*
X139805538Y-107423982D01*
X139223830Y-107331849D01*
X139216178Y-107330390D01*
X138641361Y-107201903D01*
X138633816Y-107199965D01*
X138068234Y-107035648D01*
X138060840Y-107033246D01*
X137506676Y-106833735D01*
X137499434Y-106830868D01*
X136958886Y-106596952D01*
X136951837Y-106593635D01*
X136427048Y-106326241D01*
X136420222Y-106322488D01*
X135913265Y-106022675D01*
X135906688Y-106018501D01*
X135419553Y-105687444D01*
X135413251Y-105682865D01*
X134947881Y-105321887D01*
X134941878Y-105316922D01*
X134500059Y-104927406D01*
X134494381Y-104922073D01*
X134077926Y-104505618D01*
X134072593Y-104499940D01*
X133683077Y-104058121D01*
X133678112Y-104052118D01*
X133317134Y-103586748D01*
X133312555Y-103580446D01*
X132981498Y-103093311D01*
X132977324Y-103086734D01*
X132947125Y-103035671D01*
X132736382Y-102679322D01*
X132677511Y-102579777D01*
X132673758Y-102572951D01*
X132406364Y-102048162D01*
X132403047Y-102041113D01*
X132399114Y-102032024D01*
X132169129Y-101500561D01*
X132166270Y-101493338D01*
X131966746Y-100939139D01*
X131964358Y-100931789D01*
X131807102Y-100390512D01*
X133351368Y-100390512D01*
X133351368Y-100517385D01*
X133380770Y-100607874D01*
X133390571Y-100638039D01*
X133390572Y-100638041D01*
X133390574Y-100638044D01*
X133446379Y-100714851D01*
X133446386Y-100714860D01*
X134693039Y-101961513D01*
X134769853Y-102017323D01*
X134769859Y-102017327D01*
X134862693Y-102047490D01*
X134890512Y-102056529D01*
X134890513Y-102056529D01*
X134890516Y-102056530D01*
X134890519Y-102056530D01*
X135017379Y-102056530D01*
X135017382Y-102056530D01*
X135138039Y-102017327D01*
X135214858Y-101961514D01*
X135321791Y-101854580D01*
X135383110Y-101821098D01*
X135452802Y-101826082D01*
X135508736Y-101867953D01*
X135533153Y-101933417D01*
X135529244Y-101974356D01*
X135513794Y-102032017D01*
X135513793Y-102032024D01*
X135494723Y-102249997D01*
X135494723Y-102250002D01*
X135513793Y-102467975D01*
X135513793Y-102467979D01*
X135570422Y-102679322D01*
X135570424Y-102679326D01*
X135570425Y-102679330D01*
X135571138Y-102680858D01*
X135662897Y-102877638D01*
X135662898Y-102877639D01*
X135788402Y-103056877D01*
X135943123Y-103211598D01*
X136122361Y-103337102D01*
X136320670Y-103429575D01*
X136532023Y-103486207D01*
X136714926Y-103502208D01*
X136749998Y-103505277D01*
X136750000Y-103505277D01*
X136750002Y-103505277D01*
X136778254Y-103502805D01*
X136967977Y-103486207D01*
X137179330Y-103429575D01*
X137364431Y-103343260D01*
X137433506Y-103332769D01*
X137497290Y-103361289D01*
X137535530Y-103419765D01*
X137536085Y-103489632D01*
X137527835Y-103510914D01*
X137469114Y-103628843D01*
X137469109Y-103628854D01*
X137410789Y-103833831D01*
X137410788Y-103833834D01*
X137391124Y-104046050D01*
X137391124Y-104046051D01*
X137410788Y-104258267D01*
X137410789Y-104258270D01*
X137469109Y-104463247D01*
X137469117Y-104463267D01*
X137564112Y-104654043D01*
X137564113Y-104654044D01*
X137572885Y-104665661D01*
X138063088Y-104175459D01*
X138080126Y-104239044D01*
X138145952Y-104353058D01*
X138239044Y-104446150D01*
X138353058Y-104511976D01*
X138416641Y-104529013D01*
X137929042Y-105016610D01*
X138031255Y-105079898D01*
X138031259Y-105079900D01*
X138229987Y-105156887D01*
X138229992Y-105156888D01*
X138439490Y-105196051D01*
X138652612Y-105196051D01*
X138862109Y-105156888D01*
X138862114Y-105156887D01*
X139060842Y-105079900D01*
X139060849Y-105079897D01*
X139163057Y-105016611D01*
X139163057Y-105016610D01*
X138675461Y-104529013D01*
X138739044Y-104511976D01*
X138853058Y-104446150D01*
X138946150Y-104353058D01*
X139011976Y-104239044D01*
X139029013Y-104175460D01*
X139519214Y-104665661D01*
X139527986Y-104654047D01*
X139527989Y-104654042D01*
X139622986Y-104463262D01*
X139622992Y-104463247D01*
X139681312Y-104258270D01*
X139681313Y-104258267D01*
X139700978Y-104046051D01*
X139700978Y-104046050D01*
X139681313Y-103833834D01*
X139681312Y-103833831D01*
X139622992Y-103628854D01*
X139622984Y-103628834D01*
X139527991Y-103438061D01*
X139519214Y-103426439D01*
X139029013Y-103916640D01*
X139011976Y-103853058D01*
X138946150Y-103739044D01*
X138853058Y-103645952D01*
X138739044Y-103580126D01*
X138675459Y-103563088D01*
X139163058Y-103075490D01*
X139060844Y-103012202D01*
X139060840Y-103012200D01*
X138862114Y-102935214D01*
X138862109Y-102935213D01*
X138652612Y-102896051D01*
X138439490Y-102896051D01*
X138229992Y-102935213D01*
X138229987Y-102935214D01*
X138031261Y-103012200D01*
X138031246Y-103012208D01*
X138023312Y-103017120D01*
X137955950Y-103035671D01*
X137889252Y-103014859D01*
X137844395Y-102961290D01*
X137835619Y-102891974D01*
X137845657Y-102859290D01*
X137929575Y-102679330D01*
X137986207Y-102467977D01*
X138005277Y-102250000D01*
X137986207Y-102032023D01*
X137951548Y-101902675D01*
X137929577Y-101820677D01*
X137929576Y-101820676D01*
X137929575Y-101820670D01*
X137837102Y-101622362D01*
X137837100Y-101622359D01*
X137837099Y-101622357D01*
X137711599Y-101443124D01*
X137650385Y-101381910D01*
X137556877Y-101288402D01*
X137377639Y-101162898D01*
X137377640Y-101162898D01*
X137377638Y-101162897D01*
X137267821Y-101111689D01*
X137179330Y-101070425D01*
X137179326Y-101070424D01*
X137179322Y-101070422D01*
X136967977Y-101013793D01*
X136750002Y-100994723D01*
X136749998Y-100994723D01*
X136604682Y-101007436D01*
X136532023Y-101013793D01*
X136532021Y-101013793D01*
X136532017Y-101013794D01*
X136474356Y-101029244D01*
X136404507Y-101027581D01*
X136346644Y-100988418D01*
X136319141Y-100924189D01*
X136330728Y-100855287D01*
X136354580Y-100821790D01*
X136461513Y-100714858D01*
X136517327Y-100638039D01*
X136556530Y-100517382D01*
X136556530Y-100390516D01*
X136555752Y-100388123D01*
X136546172Y-100358638D01*
X136517327Y-100269859D01*
X136461514Y-100193040D01*
X135849148Y-99580674D01*
X135214858Y-98946384D01*
X135138041Y-98890572D01*
X135138039Y-98890571D01*
X135107874Y-98880770D01*
X135017385Y-98851368D01*
X135017382Y-98851368D01*
X134890516Y-98851368D01*
X134890512Y-98851368D01*
X134769859Y-98890571D01*
X134769853Y-98890574D01*
X134693046Y-98946379D01*
X134693037Y-98946386D01*
X133446384Y-100193039D01*
X133390572Y-100269856D01*
X133390571Y-100269859D01*
X133351368Y-100390512D01*
X131807102Y-100390512D01*
X131800031Y-100366172D01*
X131798096Y-100358638D01*
X131778251Y-100269856D01*
X131669605Y-99783802D01*
X131668153Y-99776188D01*
X131576016Y-99194459D01*
X131575040Y-99186732D01*
X131572224Y-99156938D01*
X131519610Y-98600340D01*
X131519123Y-98592598D01*
X131500561Y-98001941D01*
X131500500Y-97998046D01*
X131500500Y-97029500D01*
X131520185Y-96962461D01*
X131572989Y-96916706D01*
X131624500Y-96905500D01*
X139375331Y-96905500D01*
X139375336Y-96905500D01*
X139454713Y-96897655D01*
X139502315Y-96888153D01*
X139578168Y-96865110D01*
X139578641Y-96864914D01*
X139617747Y-96846200D01*
X139640725Y-96833653D01*
X139667591Y-96817608D01*
X139761785Y-96732619D01*
X139770971Y-96721252D01*
X139805698Y-96678276D01*
X139813710Y-96664768D01*
X139865194Y-96577964D01*
X139865389Y-96577491D01*
X139888153Y-96502315D01*
X139897655Y-96454713D01*
X139905500Y-96375336D01*
X139905500Y-94781211D01*
X141549500Y-94781211D01*
X141549500Y-95023788D01*
X141581161Y-95264285D01*
X141643947Y-95498604D01*
X141731646Y-95710328D01*
X141736776Y-95722712D01*
X141858064Y-95932789D01*
X141858066Y-95932792D01*
X141858067Y-95932793D01*
X142005733Y-96125236D01*
X142005739Y-96125243D01*
X142177256Y-96296760D01*
X142177262Y-96296765D01*
X142369711Y-96444436D01*
X142579788Y-96565724D01*
X142803900Y-96658554D01*
X143038211Y-96721338D01*
X143178925Y-96739863D01*
X143278711Y-96753000D01*
X143278712Y-96753000D01*
X143521289Y-96753000D01*
X143569388Y-96746667D01*
X143761789Y-96721338D01*
X143996100Y-96658554D01*
X144220212Y-96565724D01*
X144430289Y-96444436D01*
X144622738Y-96296765D01*
X144794265Y-96125238D01*
X144941936Y-95932789D01*
X145063224Y-95722712D01*
X145156054Y-95498600D01*
X145218838Y-95264289D01*
X145250500Y-95023788D01*
X145250500Y-94781212D01*
X145250500Y-94781211D01*
X161869500Y-94781211D01*
X161869500Y-95023788D01*
X161901161Y-95264285D01*
X161963947Y-95498604D01*
X162051646Y-95710328D01*
X162056776Y-95722712D01*
X162178064Y-95932789D01*
X162178066Y-95932792D01*
X162178067Y-95932793D01*
X162325733Y-96125236D01*
X162325739Y-96125243D01*
X162497256Y-96296760D01*
X162497262Y-96296765D01*
X162689711Y-96444436D01*
X162899788Y-96565724D01*
X163123900Y-96658554D01*
X163358211Y-96721338D01*
X163498925Y-96739863D01*
X163598711Y-96753000D01*
X163598712Y-96753000D01*
X163841289Y-96753000D01*
X163889388Y-96746667D01*
X164081789Y-96721338D01*
X164316100Y-96658554D01*
X164540212Y-96565724D01*
X164750289Y-96444436D01*
X164942738Y-96296765D01*
X165114265Y-96125238D01*
X165261936Y-95932789D01*
X165383224Y-95722712D01*
X165476054Y-95498600D01*
X165538838Y-95264289D01*
X165570500Y-95023788D01*
X165570500Y-94781212D01*
X165538838Y-94540711D01*
X165476054Y-94306400D01*
X165383224Y-94082288D01*
X165261936Y-93872211D01*
X165114265Y-93679762D01*
X165114260Y-93679756D01*
X164942743Y-93508239D01*
X164942736Y-93508233D01*
X164750293Y-93360567D01*
X164750292Y-93360566D01*
X164750289Y-93360564D01*
X164540212Y-93239276D01*
X164540205Y-93239273D01*
X164316104Y-93146447D01*
X164081785Y-93083661D01*
X163841289Y-93052000D01*
X163841288Y-93052000D01*
X163598712Y-93052000D01*
X163598711Y-93052000D01*
X163358214Y-93083661D01*
X163123895Y-93146447D01*
X162899794Y-93239273D01*
X162899785Y-93239277D01*
X162689706Y-93360567D01*
X162497263Y-93508233D01*
X162497256Y-93508239D01*
X162325739Y-93679756D01*
X162325733Y-93679763D01*
X162178067Y-93872206D01*
X162056777Y-94082285D01*
X162056773Y-94082294D01*
X161963947Y-94306395D01*
X161901161Y-94540714D01*
X161869500Y-94781211D01*
X145250500Y-94781211D01*
X145218838Y-94540711D01*
X145156054Y-94306400D01*
X145063224Y-94082288D01*
X144941936Y-93872211D01*
X144794265Y-93679762D01*
X144794260Y-93679756D01*
X144622743Y-93508239D01*
X144622736Y-93508233D01*
X144430293Y-93360567D01*
X144430292Y-93360566D01*
X144430289Y-93360564D01*
X144220212Y-93239276D01*
X144220205Y-93239273D01*
X143996104Y-93146447D01*
X143761785Y-93083661D01*
X143521289Y-93052000D01*
X143521288Y-93052000D01*
X143278712Y-93052000D01*
X143278711Y-93052000D01*
X143038214Y-93083661D01*
X142803895Y-93146447D01*
X142579794Y-93239273D01*
X142579785Y-93239277D01*
X142369706Y-93360567D01*
X142177263Y-93508233D01*
X142177256Y-93508239D01*
X142005739Y-93679756D01*
X142005733Y-93679763D01*
X141858067Y-93872206D01*
X141736777Y-94082285D01*
X141736773Y-94082294D01*
X141643947Y-94306395D01*
X141581161Y-94540714D01*
X141549500Y-94781211D01*
X139905500Y-94781211D01*
X139905500Y-87024808D01*
X139925185Y-86957769D01*
X139977989Y-86912014D01*
X140047147Y-86902070D01*
X140110703Y-86931095D01*
G37*
G04 #@! TD.AperFunction*
G04 #@! TA.AperFunction,Conductor*
G36*
X195433905Y-90534610D02*
G01*
X195491120Y-90574714D01*
X195513996Y-90619993D01*
X195533608Y-90693186D01*
X195599500Y-90807314D01*
X195692686Y-90900500D01*
X195806814Y-90966392D01*
X195934108Y-91000500D01*
X196065892Y-91000500D01*
X200375500Y-91000500D01*
X200442539Y-91020185D01*
X200488294Y-91072989D01*
X200499500Y-91124500D01*
X200499500Y-97998046D01*
X200499439Y-98001941D01*
X200480877Y-98592582D01*
X200480388Y-98600356D01*
X200424959Y-99186732D01*
X200423982Y-99194461D01*
X200331849Y-99776169D01*
X200330390Y-99783821D01*
X200201903Y-100358638D01*
X200199965Y-100366183D01*
X200035648Y-100931765D01*
X200033242Y-100939168D01*
X199989041Y-101061945D01*
X199833735Y-101493323D01*
X199830868Y-101500565D01*
X199596952Y-102041113D01*
X199593635Y-102048162D01*
X199326241Y-102572951D01*
X199322488Y-102579777D01*
X199022675Y-103086734D01*
X199018501Y-103093311D01*
X198687444Y-103580446D01*
X198682865Y-103586748D01*
X198321887Y-104052118D01*
X198316922Y-104058121D01*
X197927406Y-104499940D01*
X197922073Y-104505618D01*
X197505618Y-104922073D01*
X197499940Y-104927406D01*
X197058121Y-105316922D01*
X197052118Y-105321887D01*
X196586748Y-105682865D01*
X196580446Y-105687444D01*
X196093311Y-106018501D01*
X196086734Y-106022675D01*
X195579777Y-106322488D01*
X195572951Y-106326241D01*
X195048162Y-106593635D01*
X195041113Y-106596952D01*
X194500565Y-106830868D01*
X194493323Y-106833735D01*
X194111504Y-106971198D01*
X193939168Y-107033242D01*
X193931765Y-107035648D01*
X193366183Y-107199965D01*
X193358638Y-107201903D01*
X192783821Y-107330390D01*
X192776169Y-107331849D01*
X192194461Y-107423982D01*
X192186732Y-107424959D01*
X191600356Y-107480388D01*
X191592582Y-107480877D01*
X191001941Y-107499439D01*
X190998046Y-107499500D01*
X190529500Y-107499500D01*
X190462461Y-107479815D01*
X190416706Y-107427011D01*
X190405500Y-107375500D01*
X190405500Y-103982614D01*
X191851368Y-103982614D01*
X191851368Y-104109487D01*
X191880770Y-104199976D01*
X191890571Y-104230141D01*
X191890572Y-104230143D01*
X191890574Y-104230146D01*
X191946379Y-104306953D01*
X191946386Y-104306962D01*
X193193039Y-105553615D01*
X193269853Y-105609425D01*
X193269859Y-105609429D01*
X193362693Y-105639592D01*
X193390512Y-105648631D01*
X193390513Y-105648631D01*
X193390516Y-105648632D01*
X193390519Y-105648632D01*
X193517379Y-105648632D01*
X193517382Y-105648632D01*
X193638039Y-105609429D01*
X193714858Y-105553616D01*
X194961513Y-104306960D01*
X195017327Y-104230141D01*
X195056530Y-104109484D01*
X195056530Y-103982618D01*
X195055752Y-103980225D01*
X195047490Y-103954795D01*
X195017327Y-103861961D01*
X194961514Y-103785142D01*
X194854583Y-103678211D01*
X194821098Y-103616888D01*
X194826082Y-103547196D01*
X194867954Y-103491263D01*
X194933418Y-103466846D01*
X194974354Y-103470754D01*
X195032023Y-103486207D01*
X195219787Y-103502633D01*
X195249998Y-103505277D01*
X195250000Y-103505277D01*
X195250002Y-103505277D01*
X195278254Y-103502805D01*
X195467977Y-103486207D01*
X195679330Y-103429575D01*
X195877639Y-103337102D01*
X196056877Y-103211598D01*
X196211598Y-103056877D01*
X196337102Y-102877639D01*
X196429575Y-102679330D01*
X196486207Y-102467977D01*
X196505277Y-102250000D01*
X196486207Y-102032023D01*
X196451548Y-101902675D01*
X196429577Y-101820677D01*
X196429574Y-101820668D01*
X196345658Y-101640711D01*
X196335167Y-101571637D01*
X196363686Y-101507853D01*
X196422163Y-101469613D01*
X196492030Y-101469058D01*
X196523319Y-101482883D01*
X196531250Y-101487793D01*
X196531261Y-101487799D01*
X196729987Y-101564785D01*
X196729992Y-101564786D01*
X196939490Y-101603949D01*
X197152612Y-101603949D01*
X197362109Y-101564786D01*
X197362114Y-101564785D01*
X197560842Y-101487798D01*
X197560849Y-101487795D01*
X197663057Y-101424509D01*
X197663057Y-101424508D01*
X197175460Y-100936911D01*
X197239044Y-100919874D01*
X197353058Y-100854048D01*
X197446150Y-100760956D01*
X197511976Y-100646942D01*
X197529013Y-100583358D01*
X198019214Y-101073559D01*
X198027986Y-101061945D01*
X198027989Y-101061940D01*
X198122986Y-100871160D01*
X198122992Y-100871145D01*
X198181312Y-100666168D01*
X198181313Y-100666165D01*
X198200978Y-100453949D01*
X198200978Y-100453948D01*
X198181313Y-100241732D01*
X198181312Y-100241729D01*
X198122992Y-100036752D01*
X198122984Y-100036732D01*
X198027991Y-99845959D01*
X198019214Y-99834337D01*
X197529013Y-100324538D01*
X197511976Y-100260956D01*
X197446150Y-100146942D01*
X197353058Y-100053850D01*
X197239044Y-99988024D01*
X197175460Y-99970986D01*
X197663058Y-99483388D01*
X197560844Y-99420100D01*
X197560840Y-99420098D01*
X197362114Y-99343112D01*
X197362109Y-99343111D01*
X197152612Y-99303949D01*
X196939490Y-99303949D01*
X196729992Y-99343111D01*
X196729987Y-99343112D01*
X196531261Y-99420098D01*
X196531252Y-99420103D01*
X196429043Y-99483387D01*
X196429042Y-99483388D01*
X196916641Y-99970986D01*
X196853058Y-99988024D01*
X196739044Y-100053850D01*
X196645952Y-100146942D01*
X196580126Y-100260956D01*
X196563088Y-100324540D01*
X196072886Y-99834338D01*
X196064107Y-99845964D01*
X195969117Y-100036732D01*
X195969109Y-100036752D01*
X195910789Y-100241729D01*
X195910788Y-100241732D01*
X195891124Y-100453948D01*
X195891124Y-100453949D01*
X195910788Y-100666165D01*
X195910789Y-100666168D01*
X195969109Y-100871145D01*
X195969117Y-100871165D01*
X196027834Y-100989085D01*
X196040095Y-101057870D01*
X196013222Y-101122365D01*
X195955746Y-101162093D01*
X195885915Y-101164439D01*
X195864429Y-101156738D01*
X195817280Y-101134752D01*
X195679330Y-101070425D01*
X195679326Y-101070424D01*
X195679322Y-101070422D01*
X195467977Y-101013793D01*
X195250002Y-100994723D01*
X195249998Y-100994723D01*
X195104682Y-101007436D01*
X195032023Y-101013793D01*
X195032020Y-101013793D01*
X194820677Y-101070422D01*
X194820668Y-101070426D01*
X194622361Y-101162898D01*
X194622357Y-101162900D01*
X194443121Y-101288402D01*
X194288402Y-101443121D01*
X194162900Y-101622357D01*
X194162898Y-101622361D01*
X194070426Y-101820668D01*
X194070422Y-101820677D01*
X194013793Y-102032020D01*
X194013793Y-102032024D01*
X193994723Y-102249997D01*
X193994723Y-102250002D01*
X194013793Y-102467975D01*
X194013793Y-102467979D01*
X194029244Y-102525642D01*
X194027581Y-102595492D01*
X193988418Y-102653354D01*
X193924189Y-102680858D01*
X193855287Y-102669271D01*
X193821788Y-102645416D01*
X193714858Y-102538486D01*
X193638041Y-102482674D01*
X193638039Y-102482673D01*
X193592815Y-102467979D01*
X193517385Y-102443470D01*
X193517382Y-102443470D01*
X193390516Y-102443470D01*
X193390512Y-102443470D01*
X193269859Y-102482673D01*
X193269853Y-102482676D01*
X193193046Y-102538481D01*
X193193037Y-102538488D01*
X191946384Y-103785141D01*
X191890572Y-103861958D01*
X191890571Y-103861961D01*
X191851368Y-103982614D01*
X190405500Y-103982614D01*
X190405500Y-101624667D01*
X190405500Y-101624663D01*
X190397656Y-101545292D01*
X190388155Y-101497691D01*
X190365131Y-101421880D01*
X190365130Y-101421877D01*
X190365128Y-101421871D01*
X190364937Y-101421412D01*
X190364934Y-101421405D01*
X190364933Y-101421402D01*
X190346017Y-101381915D01*
X190333343Y-101358756D01*
X190317076Y-101331604D01*
X190277953Y-101288402D01*
X190231921Y-101237569D01*
X190177494Y-101193752D01*
X190177488Y-101193747D01*
X190078320Y-101134951D01*
X190078312Y-101134948D01*
X190077849Y-101134756D01*
X190077838Y-101134752D01*
X190001751Y-101111689D01*
X190001741Y-101111686D01*
X190001739Y-101111686D01*
X190001735Y-101111685D01*
X190001730Y-101111684D01*
X189954359Y-101102273D01*
X189954343Y-101102271D01*
X189875336Y-101094500D01*
X189875331Y-101094500D01*
X188529500Y-101094500D01*
X188462461Y-101074815D01*
X188416706Y-101022011D01*
X188405500Y-100970500D01*
X188405500Y-99128711D01*
X190399500Y-99128711D01*
X190399500Y-99371288D01*
X190431161Y-99611785D01*
X190493947Y-99846104D01*
X190572908Y-100036732D01*
X190586776Y-100070212D01*
X190708064Y-100280289D01*
X190708066Y-100280292D01*
X190708067Y-100280293D01*
X190855733Y-100472736D01*
X190855739Y-100472743D01*
X191027256Y-100644260D01*
X191027263Y-100644266D01*
X191119252Y-100714851D01*
X191219711Y-100791936D01*
X191429788Y-100913224D01*
X191653900Y-101006054D01*
X191888211Y-101068838D01*
X192068586Y-101092584D01*
X192128711Y-101100500D01*
X192128712Y-101100500D01*
X192371289Y-101100500D01*
X192419388Y-101094167D01*
X192611789Y-101068838D01*
X192846100Y-101006054D01*
X193070212Y-100913224D01*
X193280289Y-100791936D01*
X193472738Y-100644265D01*
X193644265Y-100472738D01*
X193791936Y-100280289D01*
X193913224Y-100070212D01*
X194006054Y-99846100D01*
X194068838Y-99611789D01*
X194100500Y-99371288D01*
X194100500Y-99128712D01*
X194068838Y-98888211D01*
X194006054Y-98653900D01*
X193913224Y-98429788D01*
X193791936Y-98219711D01*
X193644265Y-98027262D01*
X193644260Y-98027256D01*
X193472743Y-97855739D01*
X193472736Y-97855733D01*
X193280293Y-97708067D01*
X193280292Y-97708066D01*
X193280289Y-97708064D01*
X193070212Y-97586776D01*
X193012795Y-97562993D01*
X192846104Y-97493947D01*
X192611785Y-97431161D01*
X192371289Y-97399500D01*
X192371288Y-97399500D01*
X192128712Y-97399500D01*
X192128711Y-97399500D01*
X191888214Y-97431161D01*
X191653895Y-97493947D01*
X191429794Y-97586773D01*
X191429785Y-97586777D01*
X191219706Y-97708067D01*
X191027263Y-97855733D01*
X191027256Y-97855739D01*
X190855739Y-98027256D01*
X190855733Y-98027263D01*
X190708067Y-98219706D01*
X190586777Y-98429785D01*
X190586773Y-98429794D01*
X190493947Y-98653895D01*
X190431161Y-98888214D01*
X190399500Y-99128711D01*
X188405500Y-99128711D01*
X188405500Y-97959696D01*
X188425185Y-97892657D01*
X188439119Y-97874800D01*
X189497304Y-96748347D01*
X195303846Y-90567187D01*
X195364092Y-90531805D01*
X195433905Y-90534610D01*
G37*
G04 #@! TD.AperFunction*
G04 #@! TA.AperFunction,Conductor*
G36*
X177996231Y-95245185D02*
G01*
X178016873Y-95261819D01*
X179113181Y-96358127D01*
X179146666Y-96419450D01*
X179149500Y-96445808D01*
X179149500Y-96555714D01*
X179129815Y-96622753D01*
X179084519Y-96664768D01*
X179031376Y-96693528D01*
X179031365Y-96693535D01*
X178848222Y-96836081D01*
X178848219Y-96836084D01*
X178848216Y-96836086D01*
X178848216Y-96836087D01*
X178791541Y-96897653D01*
X178691016Y-97006852D01*
X178633809Y-97094416D01*
X178580662Y-97139773D01*
X178511431Y-97149197D01*
X178448095Y-97119695D01*
X178426191Y-97094416D01*
X178368983Y-97006852D01*
X178368980Y-97006849D01*
X178368979Y-97006847D01*
X178211784Y-96836087D01*
X178211779Y-96836083D01*
X178211777Y-96836081D01*
X178028634Y-96693535D01*
X178028628Y-96693531D01*
X177824504Y-96583064D01*
X177824495Y-96583061D01*
X177604984Y-96507702D01*
X177430582Y-96478600D01*
X177376049Y-96469500D01*
X177143951Y-96469500D01*
X177098164Y-96477140D01*
X176915015Y-96507702D01*
X176695504Y-96583061D01*
X176695495Y-96583064D01*
X176491371Y-96693531D01*
X176491365Y-96693535D01*
X176308222Y-96836081D01*
X176308219Y-96836084D01*
X176308216Y-96836086D01*
X176308216Y-96836087D01*
X176251541Y-96897653D01*
X176151016Y-97006852D01*
X176093809Y-97094416D01*
X176040662Y-97139773D01*
X175971431Y-97149197D01*
X175908095Y-97119695D01*
X175886191Y-97094416D01*
X175828983Y-97006852D01*
X175828980Y-97006849D01*
X175828979Y-97006847D01*
X175671784Y-96836087D01*
X175671779Y-96836083D01*
X175671777Y-96836081D01*
X175488634Y-96693535D01*
X175488628Y-96693531D01*
X175284504Y-96583064D01*
X175284495Y-96583061D01*
X175064984Y-96507702D01*
X174890582Y-96478600D01*
X174836049Y-96469500D01*
X174603951Y-96469500D01*
X174558164Y-96477140D01*
X174375015Y-96507702D01*
X174155504Y-96583061D01*
X174155495Y-96583064D01*
X173951371Y-96693531D01*
X173951365Y-96693535D01*
X173768222Y-96836081D01*
X173768219Y-96836084D01*
X173768216Y-96836086D01*
X173768216Y-96836087D01*
X173711541Y-96897653D01*
X173611018Y-97006850D01*
X173494837Y-97184680D01*
X173441690Y-97230036D01*
X173372459Y-97239460D01*
X173309123Y-97209958D01*
X173289454Y-97187982D01*
X173259025Y-97144526D01*
X172662962Y-97740589D01*
X172645925Y-97677007D01*
X172580099Y-97562993D01*
X172487007Y-97469901D01*
X172372993Y-97404075D01*
X172309408Y-97387037D01*
X172905472Y-96790974D01*
X172832478Y-96739863D01*
X172626331Y-96643735D01*
X172626317Y-96643730D01*
X172406610Y-96584860D01*
X172406599Y-96584858D01*
X172180002Y-96565034D01*
X172179998Y-96565034D01*
X171953400Y-96584858D01*
X171953389Y-96584860D01*
X171733682Y-96643730D01*
X171733673Y-96643734D01*
X171527516Y-96739866D01*
X171527512Y-96739868D01*
X171454526Y-96790973D01*
X171454526Y-96790974D01*
X172050590Y-97387037D01*
X171987007Y-97404075D01*
X171872993Y-97469901D01*
X171779901Y-97562993D01*
X171714075Y-97677007D01*
X171697037Y-97740590D01*
X171100974Y-97144526D01*
X171100973Y-97144526D01*
X171070546Y-97187982D01*
X171015969Y-97231606D01*
X170946470Y-97238799D01*
X170884116Y-97207277D01*
X170865162Y-97184679D01*
X170748983Y-97006852D01*
X170748980Y-97006849D01*
X170748979Y-97006847D01*
X170591784Y-96836087D01*
X170591779Y-96836083D01*
X170591777Y-96836081D01*
X170408634Y-96693535D01*
X170408623Y-96693528D01*
X170355481Y-96664768D01*
X170305891Y-96615548D01*
X170290500Y-96555714D01*
X170290500Y-96200928D01*
X170265502Y-96075261D01*
X170265501Y-96075260D01*
X170265501Y-96075256D01*
X170216465Y-95956873D01*
X170181971Y-95905249D01*
X170145277Y-95850331D01*
X169795127Y-95500181D01*
X169761642Y-95438858D01*
X169766626Y-95369166D01*
X169795127Y-95324819D01*
X169858127Y-95261819D01*
X169919450Y-95228334D01*
X169945808Y-95225500D01*
X177929192Y-95225500D01*
X177996231Y-95245185D01*
G37*
G04 #@! TD.AperFunction*
G04 #@! TA.AperFunction,Conductor*
G36*
X192013834Y-79335403D02*
G01*
X192069767Y-79377275D01*
X192094184Y-79442739D01*
X192094500Y-79451585D01*
X192094500Y-87297696D01*
X192074815Y-87364735D01*
X192062910Y-87380379D01*
X190410820Y-89226833D01*
X183730843Y-96692689D01*
X183707534Y-96721252D01*
X183694114Y-96739315D01*
X183694104Y-96739330D01*
X183673383Y-96770062D01*
X183672313Y-96771816D01*
X183639723Y-96838218D01*
X183639720Y-96838224D01*
X183623629Y-96880340D01*
X183603663Y-96951447D01*
X183603660Y-96951463D01*
X183603282Y-96953511D01*
X183602051Y-96962461D01*
X183598223Y-96990279D01*
X183596176Y-97012714D01*
X183595377Y-97030283D01*
X183572664Y-97096358D01*
X183517834Y-97139664D01*
X183460699Y-97148172D01*
X183419025Y-97144526D01*
X182822962Y-97740589D01*
X182805925Y-97677007D01*
X182740099Y-97562993D01*
X182647007Y-97469901D01*
X182532993Y-97404075D01*
X182469408Y-97387037D01*
X183065472Y-96790974D01*
X182992478Y-96739863D01*
X182786331Y-96643735D01*
X182786317Y-96643730D01*
X182566610Y-96584860D01*
X182566599Y-96584858D01*
X182340002Y-96565034D01*
X182339998Y-96565034D01*
X182113400Y-96584858D01*
X182113389Y-96584860D01*
X181893682Y-96643730D01*
X181893673Y-96643734D01*
X181687516Y-96739866D01*
X181687512Y-96739868D01*
X181614526Y-96790973D01*
X181614526Y-96790974D01*
X182210590Y-97387037D01*
X182147007Y-97404075D01*
X182032993Y-97469901D01*
X181939901Y-97562993D01*
X181874075Y-97677007D01*
X181857037Y-97740590D01*
X181260974Y-97144526D01*
X181260973Y-97144526D01*
X181230546Y-97187982D01*
X181175969Y-97231606D01*
X181106470Y-97238799D01*
X181044116Y-97207277D01*
X181025162Y-97184679D01*
X180908983Y-97006852D01*
X180908980Y-97006849D01*
X180908979Y-97006847D01*
X180751784Y-96836087D01*
X180751779Y-96836083D01*
X180751777Y-96836081D01*
X180568634Y-96693535D01*
X180568623Y-96693528D01*
X180515481Y-96664768D01*
X180465891Y-96615548D01*
X180450500Y-96555714D01*
X180450500Y-96060928D01*
X180425502Y-95935261D01*
X180425501Y-95935260D01*
X180425501Y-95935256D01*
X180376465Y-95816873D01*
X180358828Y-95790477D01*
X180305277Y-95710331D01*
X180305275Y-95710328D01*
X178664673Y-94069726D01*
X178664666Y-94069721D01*
X178558127Y-93998535D01*
X178439744Y-93949499D01*
X178439738Y-93949497D01*
X178314071Y-93924500D01*
X178314069Y-93924500D01*
X169560931Y-93924500D01*
X169560929Y-93924500D01*
X169435261Y-93949497D01*
X169435255Y-93949499D01*
X169316874Y-93998534D01*
X169210326Y-94069726D01*
X168875180Y-94404872D01*
X168813857Y-94438357D01*
X168744165Y-94433373D01*
X168699818Y-94404872D01*
X168360350Y-94065403D01*
X168360327Y-94065382D01*
X167886819Y-93591873D01*
X167853334Y-93530550D01*
X167850500Y-93504192D01*
X167850500Y-90128711D01*
X169059500Y-90128711D01*
X169059500Y-90371288D01*
X169091161Y-90611785D01*
X169153947Y-90846104D01*
X169176479Y-90900500D01*
X169246776Y-91070212D01*
X169368064Y-91280289D01*
X169368066Y-91280292D01*
X169368067Y-91280293D01*
X169515733Y-91472736D01*
X169515739Y-91472743D01*
X169687256Y-91644260D01*
X169687262Y-91644265D01*
X169879711Y-91791936D01*
X170089788Y-91913224D01*
X170313900Y-92006054D01*
X170548211Y-92068838D01*
X170728586Y-92092584D01*
X170788711Y-92100500D01*
X170788712Y-92100500D01*
X171031289Y-92100500D01*
X171079388Y-92094167D01*
X171271789Y-92068838D01*
X171506100Y-92006054D01*
X171730212Y-91913224D01*
X171940289Y-91791936D01*
X172132738Y-91644265D01*
X172304265Y-91472738D01*
X172451936Y-91280289D01*
X172573224Y-91070212D01*
X172666054Y-90846100D01*
X172728838Y-90611789D01*
X172760500Y-90371288D01*
X172760500Y-90128712D01*
X172760500Y-90128711D01*
X179219500Y-90128711D01*
X179219500Y-90371288D01*
X179251161Y-90611785D01*
X179313947Y-90846104D01*
X179336479Y-90900500D01*
X179406776Y-91070212D01*
X179528064Y-91280289D01*
X179528066Y-91280292D01*
X179528067Y-91280293D01*
X179675733Y-91472736D01*
X179675739Y-91472743D01*
X179847256Y-91644260D01*
X179847262Y-91644265D01*
X180039711Y-91791936D01*
X180249788Y-91913224D01*
X180473900Y-92006054D01*
X180708211Y-92068838D01*
X180888586Y-92092584D01*
X180948711Y-92100500D01*
X180948712Y-92100500D01*
X181191289Y-92100500D01*
X181239388Y-92094167D01*
X181431789Y-92068838D01*
X181666100Y-92006054D01*
X181890212Y-91913224D01*
X182100289Y-91791936D01*
X182292738Y-91644265D01*
X182464265Y-91472738D01*
X182611936Y-91280289D01*
X182733224Y-91070212D01*
X182826054Y-90846100D01*
X182888838Y-90611789D01*
X182920500Y-90371288D01*
X182920500Y-90128712D01*
X182888838Y-89888211D01*
X182826054Y-89653900D01*
X182733224Y-89429788D01*
X182611936Y-89219711D01*
X182464265Y-89027262D01*
X182464260Y-89027256D01*
X182292743Y-88855739D01*
X182292736Y-88855733D01*
X182100293Y-88708067D01*
X182100292Y-88708066D01*
X182100289Y-88708064D01*
X181890212Y-88586776D01*
X181890205Y-88586773D01*
X181666104Y-88493947D01*
X181431785Y-88431161D01*
X181191289Y-88399500D01*
X181191288Y-88399500D01*
X180948712Y-88399500D01*
X180948711Y-88399500D01*
X180708214Y-88431161D01*
X180473895Y-88493947D01*
X180249794Y-88586773D01*
X180249785Y-88586777D01*
X180039706Y-88708067D01*
X179847263Y-88855733D01*
X179847256Y-88855739D01*
X179675739Y-89027256D01*
X179675733Y-89027263D01*
X179528067Y-89219706D01*
X179406777Y-89429785D01*
X179406773Y-89429794D01*
X179313947Y-89653895D01*
X179251161Y-89888214D01*
X179219500Y-90128711D01*
X172760500Y-90128711D01*
X172728838Y-89888211D01*
X172666054Y-89653900D01*
X172573224Y-89429788D01*
X172451936Y-89219711D01*
X172304265Y-89027262D01*
X172304260Y-89027256D01*
X172132743Y-88855739D01*
X172132736Y-88855733D01*
X171940293Y-88708067D01*
X171940292Y-88708066D01*
X171940289Y-88708064D01*
X171730212Y-88586776D01*
X171730205Y-88586773D01*
X171506104Y-88493947D01*
X171271785Y-88431161D01*
X171031289Y-88399500D01*
X171031288Y-88399500D01*
X170788712Y-88399500D01*
X170788711Y-88399500D01*
X170548214Y-88431161D01*
X170313895Y-88493947D01*
X170089794Y-88586773D01*
X170089785Y-88586777D01*
X169879706Y-88708067D01*
X169687263Y-88855733D01*
X169687256Y-88855739D01*
X169515739Y-89027256D01*
X169515733Y-89027263D01*
X169368067Y-89219706D01*
X169246777Y-89429785D01*
X169246773Y-89429794D01*
X169153947Y-89653895D01*
X169091161Y-89888214D01*
X169059500Y-90128711D01*
X167850500Y-90128711D01*
X167850500Y-87699500D01*
X167870185Y-87632461D01*
X167922989Y-87586706D01*
X167974500Y-87575500D01*
X187489071Y-87575500D01*
X187573615Y-87558682D01*
X187614744Y-87550501D01*
X187733127Y-87501465D01*
X187839669Y-87430277D01*
X190630277Y-84639669D01*
X190701466Y-84533126D01*
X190750501Y-84414743D01*
X190766754Y-84333039D01*
X190775500Y-84289071D01*
X190775500Y-83411087D01*
X190794506Y-83345115D01*
X190805456Y-83327690D01*
X190861313Y-83168059D01*
X190875767Y-83039777D01*
X190880249Y-83000002D01*
X190880249Y-82999997D01*
X190861314Y-82831943D01*
X190805454Y-82672305D01*
X190805452Y-82672302D01*
X190715481Y-82529115D01*
X190715476Y-82529109D01*
X190595890Y-82409523D01*
X190595884Y-82409518D01*
X190452697Y-82319547D01*
X190452694Y-82319545D01*
X190293056Y-82263685D01*
X190125003Y-82244751D01*
X190124997Y-82244751D01*
X189956943Y-82263685D01*
X189797305Y-82319545D01*
X189797302Y-82319547D01*
X189654115Y-82409518D01*
X189654109Y-82409523D01*
X189534523Y-82529109D01*
X189534518Y-82529115D01*
X189444547Y-82672302D01*
X189444545Y-82672305D01*
X189388685Y-82831943D01*
X189369751Y-82999997D01*
X189369751Y-83000002D01*
X189388686Y-83168057D01*
X189444542Y-83327687D01*
X189444544Y-83327690D01*
X189455493Y-83345115D01*
X189474500Y-83411087D01*
X189474500Y-83904192D01*
X189454815Y-83971231D01*
X189438181Y-83991873D01*
X187191873Y-86238181D01*
X187130550Y-86271666D01*
X187104192Y-86274500D01*
X186868710Y-86274500D01*
X186801671Y-86254815D01*
X186755916Y-86202011D01*
X186745490Y-86136616D01*
X186755249Y-86050002D01*
X186755249Y-86049997D01*
X186736314Y-85881943D01*
X186696049Y-85766873D01*
X186680456Y-85722310D01*
X186669504Y-85704881D01*
X186650500Y-85638911D01*
X186650500Y-81370500D01*
X186670185Y-81303461D01*
X186722989Y-81257706D01*
X186774500Y-81246500D01*
X189755381Y-81246500D01*
X189755382Y-81246499D01*
X189905205Y-81216698D01*
X190046337Y-81158239D01*
X190173352Y-81073370D01*
X190376971Y-80869751D01*
X191882819Y-79363904D01*
X191944142Y-79330419D01*
X192013834Y-79335403D01*
G37*
G04 #@! TD.AperFunction*
G04 #@! TA.AperFunction,Conductor*
G36*
X181331447Y-81266185D02*
G01*
X181377202Y-81318989D01*
X181387146Y-81388147D01*
X181362977Y-81444057D01*
X181363227Y-81444214D01*
X181362212Y-81445829D01*
X181361355Y-81447812D01*
X181359521Y-81450110D01*
X181269547Y-81593302D01*
X181269545Y-81593305D01*
X181213685Y-81752943D01*
X181194751Y-81920997D01*
X181194751Y-81921002D01*
X181213685Y-82089056D01*
X181269545Y-82248694D01*
X181269547Y-82248697D01*
X181359518Y-82391884D01*
X181359523Y-82391890D01*
X181479109Y-82511476D01*
X181479115Y-82511481D01*
X181622302Y-82601452D01*
X181622305Y-82601454D01*
X181622309Y-82601455D01*
X181622310Y-82601456D01*
X181685231Y-82623473D01*
X181781943Y-82657314D01*
X181949997Y-82676249D01*
X181950000Y-82676249D01*
X181950003Y-82676249D01*
X182118056Y-82657314D01*
X182118059Y-82657313D01*
X182277690Y-82601456D01*
X182277692Y-82601454D01*
X182277694Y-82601454D01*
X182277697Y-82601452D01*
X182420884Y-82511481D01*
X182420885Y-82511480D01*
X182420890Y-82511477D01*
X182540477Y-82391890D01*
X182540481Y-82391884D01*
X182630452Y-82248697D01*
X182630454Y-82248694D01*
X182630454Y-82248692D01*
X182630456Y-82248690D01*
X182686313Y-82089059D01*
X182686313Y-82089058D01*
X182686314Y-82089056D01*
X182705249Y-81921002D01*
X182705249Y-81920997D01*
X182686314Y-81752943D01*
X182630454Y-81593305D01*
X182630452Y-81593302D01*
X182540478Y-81450110D01*
X182538645Y-81447812D01*
X182537923Y-81446045D01*
X182536773Y-81444214D01*
X182537093Y-81444012D01*
X182512236Y-81383126D01*
X182524993Y-81314430D01*
X182572864Y-81263537D01*
X182635592Y-81246500D01*
X183814408Y-81246500D01*
X183881447Y-81266185D01*
X183927202Y-81318989D01*
X183937146Y-81388147D01*
X183912977Y-81444057D01*
X183913227Y-81444214D01*
X183912212Y-81445829D01*
X183911355Y-81447812D01*
X183909521Y-81450110D01*
X183819547Y-81593302D01*
X183819545Y-81593305D01*
X183763685Y-81752943D01*
X183744751Y-81920997D01*
X183744751Y-81921002D01*
X183763685Y-82089056D01*
X183819545Y-82248694D01*
X183819547Y-82248697D01*
X183909518Y-82391884D01*
X183909523Y-82391890D01*
X184029109Y-82511476D01*
X184029115Y-82511481D01*
X184172302Y-82601452D01*
X184172305Y-82601454D01*
X184172309Y-82601455D01*
X184172310Y-82601456D01*
X184235231Y-82623473D01*
X184331943Y-82657314D01*
X184499997Y-82676249D01*
X184500000Y-82676249D01*
X184500003Y-82676249D01*
X184668056Y-82657314D01*
X184668059Y-82657313D01*
X184827690Y-82601456D01*
X184827692Y-82601454D01*
X184827694Y-82601454D01*
X184827697Y-82601452D01*
X184970884Y-82511481D01*
X184970885Y-82511480D01*
X184970890Y-82511477D01*
X185090477Y-82391890D01*
X185120506Y-82344098D01*
X185172841Y-82297808D01*
X185241895Y-82287160D01*
X185305743Y-82315535D01*
X185344115Y-82373925D01*
X185349500Y-82410071D01*
X185349500Y-85638911D01*
X185330495Y-85704882D01*
X185319544Y-85722310D01*
X185263685Y-85881943D01*
X185244751Y-86049997D01*
X185244751Y-86050002D01*
X185254510Y-86136616D01*
X185242456Y-86205438D01*
X185195107Y-86256818D01*
X185131290Y-86274500D01*
X176974500Y-86274500D01*
X176907461Y-86254815D01*
X176861706Y-86202011D01*
X176850500Y-86150500D01*
X176850500Y-84156933D01*
X176870185Y-84089894D01*
X176922989Y-84044139D01*
X176927047Y-84042372D01*
X176937178Y-84038175D01*
X176995627Y-84013965D01*
X177102169Y-83942777D01*
X177197002Y-83847942D01*
X177243730Y-83818582D01*
X177302714Y-83797943D01*
X177352690Y-83780456D01*
X177352692Y-83780455D01*
X177352697Y-83780452D01*
X177495884Y-83690481D01*
X177495885Y-83690480D01*
X177495890Y-83690477D01*
X177615477Y-83570890D01*
X177615481Y-83570884D01*
X177705452Y-83427697D01*
X177705454Y-83427694D01*
X177705454Y-83427692D01*
X177705456Y-83427690D01*
X177761313Y-83268059D01*
X177761313Y-83268058D01*
X177761314Y-83268056D01*
X177780249Y-83100002D01*
X177780249Y-83099997D01*
X177761314Y-82931943D01*
X177705454Y-82772305D01*
X177705452Y-82772302D01*
X177615481Y-82629115D01*
X177615476Y-82629109D01*
X177495890Y-82509523D01*
X177495884Y-82509518D01*
X177352697Y-82419547D01*
X177352694Y-82419545D01*
X177193056Y-82363685D01*
X177025003Y-82344751D01*
X177024997Y-82344751D01*
X176856943Y-82363685D01*
X176697305Y-82419545D01*
X176697302Y-82419547D01*
X176554115Y-82509518D01*
X176554109Y-82509523D01*
X176434523Y-82629109D01*
X176416802Y-82657313D01*
X176371774Y-82728973D01*
X176319441Y-82775263D01*
X176266782Y-82787000D01*
X176164524Y-82787000D01*
X176097485Y-82767315D01*
X176061556Y-82726701D01*
X176059162Y-82728206D01*
X175965481Y-82579115D01*
X175965476Y-82579109D01*
X175845890Y-82459523D01*
X175845884Y-82459518D01*
X175702697Y-82369547D01*
X175702694Y-82369545D01*
X175543056Y-82313685D01*
X175375003Y-82294751D01*
X175374997Y-82294751D01*
X175206943Y-82313685D01*
X175047305Y-82369545D01*
X175047302Y-82369547D01*
X174904115Y-82459518D01*
X174904109Y-82459523D01*
X174784523Y-82579109D01*
X174784518Y-82579115D01*
X174694547Y-82722302D01*
X174694545Y-82722305D01*
X174638685Y-82881943D01*
X174619751Y-83049997D01*
X174619751Y-83050002D01*
X174638685Y-83218056D01*
X174694545Y-83377694D01*
X174694547Y-83377697D01*
X174784518Y-83520884D01*
X174784523Y-83520890D01*
X174904109Y-83640476D01*
X174904115Y-83640481D01*
X175047302Y-83730452D01*
X175047307Y-83730455D01*
X175047310Y-83730456D01*
X175156271Y-83768582D01*
X175202995Y-83797941D01*
X175347831Y-83942777D01*
X175454373Y-84013965D01*
X175472953Y-84021661D01*
X175527355Y-84065501D01*
X175549421Y-84131795D01*
X175549500Y-84136222D01*
X175549500Y-86150500D01*
X175529815Y-86217539D01*
X175477011Y-86263294D01*
X175425500Y-86274500D01*
X141345808Y-86274500D01*
X141278769Y-86254815D01*
X141258127Y-86238181D01*
X140786819Y-85766873D01*
X140753334Y-85705550D01*
X140750500Y-85679192D01*
X140750500Y-84568098D01*
X140770185Y-84501059D01*
X140822989Y-84455304D01*
X140892147Y-84445360D01*
X140955703Y-84474385D01*
X140978309Y-84500277D01*
X141021016Y-84565647D01*
X141021019Y-84565651D01*
X141021021Y-84565653D01*
X141178216Y-84736413D01*
X141178219Y-84736415D01*
X141178222Y-84736418D01*
X141361365Y-84878964D01*
X141361371Y-84878968D01*
X141361374Y-84878970D01*
X141565497Y-84989436D01*
X141618017Y-85007466D01*
X141785015Y-85064797D01*
X141785017Y-85064797D01*
X141785019Y-85064798D01*
X142013951Y-85103000D01*
X142013952Y-85103000D01*
X142246048Y-85103000D01*
X142246049Y-85103000D01*
X142474981Y-85064798D01*
X142694503Y-84989436D01*
X142898626Y-84878970D01*
X143081784Y-84736413D01*
X143238979Y-84565653D01*
X143296191Y-84478082D01*
X143349337Y-84432726D01*
X143418568Y-84423302D01*
X143481904Y-84452804D01*
X143503809Y-84478083D01*
X143561016Y-84565647D01*
X143561019Y-84565651D01*
X143561021Y-84565653D01*
X143718216Y-84736413D01*
X143718219Y-84736415D01*
X143718222Y-84736418D01*
X143901365Y-84878964D01*
X143901371Y-84878968D01*
X143901374Y-84878970D01*
X144105497Y-84989436D01*
X144158017Y-85007466D01*
X144325015Y-85064797D01*
X144325017Y-85064797D01*
X144325019Y-85064798D01*
X144553951Y-85103000D01*
X144553952Y-85103000D01*
X144786048Y-85103000D01*
X144786049Y-85103000D01*
X145014981Y-85064798D01*
X145234503Y-84989436D01*
X145438626Y-84878970D01*
X145621784Y-84736413D01*
X145778979Y-84565653D01*
X145836191Y-84478082D01*
X145889337Y-84432726D01*
X145958568Y-84423302D01*
X146021904Y-84452804D01*
X146043809Y-84478083D01*
X146101016Y-84565647D01*
X146101019Y-84565651D01*
X146101021Y-84565653D01*
X146258216Y-84736413D01*
X146258219Y-84736415D01*
X146258222Y-84736418D01*
X146441365Y-84878964D01*
X146441371Y-84878968D01*
X146441374Y-84878970D01*
X146645497Y-84989436D01*
X146698017Y-85007466D01*
X146865015Y-85064797D01*
X146865017Y-85064797D01*
X146865019Y-85064798D01*
X147093951Y-85103000D01*
X147093952Y-85103000D01*
X147326048Y-85103000D01*
X147326049Y-85103000D01*
X147554981Y-85064798D01*
X147774503Y-84989436D01*
X147978626Y-84878970D01*
X148161784Y-84736413D01*
X148318979Y-84565653D01*
X148376191Y-84478082D01*
X148429337Y-84432726D01*
X148498568Y-84423302D01*
X148561904Y-84452804D01*
X148583809Y-84478083D01*
X148641016Y-84565647D01*
X148641019Y-84565651D01*
X148641021Y-84565653D01*
X148798216Y-84736413D01*
X148798219Y-84736415D01*
X148798222Y-84736418D01*
X148981365Y-84878964D01*
X148981371Y-84878968D01*
X148981374Y-84878970D01*
X149185497Y-84989436D01*
X149238017Y-85007466D01*
X149405015Y-85064797D01*
X149405017Y-85064797D01*
X149405019Y-85064798D01*
X149633951Y-85103000D01*
X149633952Y-85103000D01*
X149866048Y-85103000D01*
X149866049Y-85103000D01*
X150094981Y-85064798D01*
X150314503Y-84989436D01*
X150518626Y-84878970D01*
X150701784Y-84736413D01*
X150858979Y-84565653D01*
X150916191Y-84478082D01*
X150969337Y-84432726D01*
X151038568Y-84423302D01*
X151101904Y-84452804D01*
X151123809Y-84478083D01*
X151181016Y-84565647D01*
X151181019Y-84565651D01*
X151181021Y-84565653D01*
X151338216Y-84736413D01*
X151338219Y-84736415D01*
X151338222Y-84736418D01*
X151521365Y-84878964D01*
X151521371Y-84878968D01*
X151521374Y-84878970D01*
X151725497Y-84989436D01*
X151778017Y-85007466D01*
X151945015Y-85064797D01*
X151945017Y-85064797D01*
X151945019Y-85064798D01*
X152173951Y-85103000D01*
X152173952Y-85103000D01*
X152406048Y-85103000D01*
X152406049Y-85103000D01*
X152634981Y-85064798D01*
X152854503Y-84989436D01*
X153058626Y-84878970D01*
X153241784Y-84736413D01*
X153398979Y-84565653D01*
X153456191Y-84478082D01*
X153509337Y-84432726D01*
X153578568Y-84423302D01*
X153641904Y-84452804D01*
X153663809Y-84478083D01*
X153721016Y-84565647D01*
X153721019Y-84565651D01*
X153721021Y-84565653D01*
X153878216Y-84736413D01*
X153878219Y-84736415D01*
X153878222Y-84736418D01*
X154061365Y-84878964D01*
X154061371Y-84878968D01*
X154061374Y-84878970D01*
X154265497Y-84989436D01*
X154318017Y-85007466D01*
X154485015Y-85064797D01*
X154485017Y-85064797D01*
X154485019Y-85064798D01*
X154713951Y-85103000D01*
X154713952Y-85103000D01*
X154946048Y-85103000D01*
X154946049Y-85103000D01*
X155174981Y-85064798D01*
X155394503Y-84989436D01*
X155598626Y-84878970D01*
X155781784Y-84736413D01*
X155938979Y-84565653D01*
X155996191Y-84478082D01*
X156049337Y-84432726D01*
X156118568Y-84423302D01*
X156181904Y-84452804D01*
X156203809Y-84478083D01*
X156261016Y-84565647D01*
X156261019Y-84565651D01*
X156261021Y-84565653D01*
X156418216Y-84736413D01*
X156418219Y-84736415D01*
X156418222Y-84736418D01*
X156601365Y-84878964D01*
X156601371Y-84878968D01*
X156601374Y-84878970D01*
X156805497Y-84989436D01*
X156858017Y-85007466D01*
X157025015Y-85064797D01*
X157025017Y-85064797D01*
X157025019Y-85064798D01*
X157253951Y-85103000D01*
X157253952Y-85103000D01*
X157486048Y-85103000D01*
X157486049Y-85103000D01*
X157714981Y-85064798D01*
X157934503Y-84989436D01*
X158138626Y-84878970D01*
X158321784Y-84736413D01*
X158478979Y-84565653D01*
X158536191Y-84478082D01*
X158589337Y-84432726D01*
X158658568Y-84423302D01*
X158721904Y-84452804D01*
X158743809Y-84478083D01*
X158801016Y-84565647D01*
X158801019Y-84565651D01*
X158801021Y-84565653D01*
X158958216Y-84736413D01*
X158958219Y-84736415D01*
X158958222Y-84736418D01*
X159141365Y-84878964D01*
X159141371Y-84878968D01*
X159141374Y-84878970D01*
X159345497Y-84989436D01*
X159398017Y-85007466D01*
X159565015Y-85064797D01*
X159565017Y-85064797D01*
X159565019Y-85064798D01*
X159793951Y-85103000D01*
X159793952Y-85103000D01*
X160026048Y-85103000D01*
X160026049Y-85103000D01*
X160254981Y-85064798D01*
X160474503Y-84989436D01*
X160678626Y-84878970D01*
X160861784Y-84736413D01*
X161018979Y-84565653D01*
X161135164Y-84387818D01*
X161188308Y-84342463D01*
X161257539Y-84333039D01*
X161320875Y-84362541D01*
X161340545Y-84384517D01*
X161370973Y-84427972D01*
X161370974Y-84427972D01*
X161967037Y-83831909D01*
X161984075Y-83895493D01*
X162049901Y-84009507D01*
X162142993Y-84102599D01*
X162257007Y-84168425D01*
X162320590Y-84185462D01*
X161724526Y-84781525D01*
X161797513Y-84832632D01*
X161797521Y-84832636D01*
X162003668Y-84928764D01*
X162003682Y-84928769D01*
X162223389Y-84987639D01*
X162223400Y-84987641D01*
X162449998Y-85007466D01*
X162450002Y-85007466D01*
X162676599Y-84987641D01*
X162676610Y-84987639D01*
X162896317Y-84928769D01*
X162896331Y-84928764D01*
X163102478Y-84832636D01*
X163175471Y-84781524D01*
X162579409Y-84185462D01*
X162642993Y-84168425D01*
X162757007Y-84102599D01*
X162850099Y-84009507D01*
X162915925Y-83895493D01*
X162932962Y-83831909D01*
X163529024Y-84427971D01*
X163559454Y-84384516D01*
X163614032Y-84340892D01*
X163683530Y-84333700D01*
X163745885Y-84365223D01*
X163764837Y-84387820D01*
X163881016Y-84565647D01*
X163881019Y-84565651D01*
X163881021Y-84565653D01*
X164038216Y-84736413D01*
X164038219Y-84736415D01*
X164038222Y-84736418D01*
X164221365Y-84878964D01*
X164221371Y-84878968D01*
X164221374Y-84878970D01*
X164425497Y-84989436D01*
X164478017Y-85007466D01*
X164645015Y-85064797D01*
X164645017Y-85064797D01*
X164645019Y-85064798D01*
X164873951Y-85103000D01*
X164873952Y-85103000D01*
X165106048Y-85103000D01*
X165106049Y-85103000D01*
X165334981Y-85064798D01*
X165554503Y-84989436D01*
X165758626Y-84878970D01*
X165941784Y-84736413D01*
X166098979Y-84565653D01*
X166225924Y-84371349D01*
X166319157Y-84158800D01*
X166376134Y-83933805D01*
X166384907Y-83827930D01*
X166395300Y-83702506D01*
X166395300Y-83702493D01*
X166376135Y-83471202D01*
X166376133Y-83471191D01*
X166319157Y-83246199D01*
X166225924Y-83033651D01*
X166098983Y-82839352D01*
X166098980Y-82839349D01*
X166098979Y-82839347D01*
X165941784Y-82668587D01*
X165941779Y-82668583D01*
X165941777Y-82668581D01*
X165758634Y-82526035D01*
X165758628Y-82526031D01*
X165554504Y-82415564D01*
X165554495Y-82415561D01*
X165441922Y-82376914D01*
X165384906Y-82336528D01*
X165358776Y-82271729D01*
X165371828Y-82203089D01*
X165413293Y-82156531D01*
X165494352Y-82102370D01*
X166313903Y-81282819D01*
X166375226Y-81249334D01*
X166401584Y-81246500D01*
X181264408Y-81246500D01*
X181331447Y-81266185D01*
G37*
G04 #@! TD.AperFunction*
G04 #@! TA.AperFunction,Conductor*
G36*
X187104075Y-77182993D02*
G01*
X187169901Y-77297007D01*
X187262993Y-77390099D01*
X187377007Y-77455925D01*
X187440590Y-77472962D01*
X186844526Y-78069025D01*
X186917513Y-78120132D01*
X186917521Y-78120136D01*
X187123668Y-78216264D01*
X187123682Y-78216269D01*
X187343389Y-78275139D01*
X187343400Y-78275141D01*
X187569998Y-78294966D01*
X187570002Y-78294966D01*
X187796599Y-78275141D01*
X187796610Y-78275139D01*
X188016317Y-78216269D01*
X188016331Y-78216264D01*
X188222478Y-78120136D01*
X188295471Y-78069024D01*
X187699409Y-77472962D01*
X187762993Y-77455925D01*
X187877007Y-77390099D01*
X187970099Y-77297007D01*
X188035925Y-77182993D01*
X188052962Y-77119409D01*
X188649024Y-77715471D01*
X188679454Y-77672016D01*
X188734032Y-77628392D01*
X188803530Y-77621200D01*
X188865885Y-77652723D01*
X188884837Y-77675320D01*
X189001016Y-77853147D01*
X189001019Y-77853151D01*
X189001021Y-77853153D01*
X189158216Y-78023913D01*
X189158219Y-78023915D01*
X189158222Y-78023918D01*
X189341365Y-78166464D01*
X189341371Y-78166468D01*
X189341374Y-78166470D01*
X189545497Y-78276936D01*
X189598017Y-78294966D01*
X189765015Y-78352297D01*
X189765017Y-78352297D01*
X189765019Y-78352298D01*
X189993951Y-78390500D01*
X189993952Y-78390500D01*
X190226048Y-78390500D01*
X190226049Y-78390500D01*
X190368462Y-78366735D01*
X190437825Y-78375117D01*
X190491647Y-78419669D01*
X190512838Y-78486248D01*
X190494671Y-78553714D01*
X190476551Y-78576725D01*
X189394097Y-79659181D01*
X189332774Y-79692666D01*
X189306416Y-79695500D01*
X165952615Y-79695500D01*
X165802802Y-79725300D01*
X165802794Y-79725302D01*
X165661665Y-79783759D01*
X165661656Y-79783764D01*
X165534648Y-79868629D01*
X165534644Y-79868632D01*
X164397632Y-81005644D01*
X164397629Y-81005648D01*
X164312764Y-81132656D01*
X164312759Y-81132665D01*
X164254302Y-81273794D01*
X164254300Y-81273802D01*
X164224500Y-81423615D01*
X164224500Y-81576384D01*
X164254300Y-81726197D01*
X164254302Y-81726205D01*
X164312759Y-81867334D01*
X164312764Y-81867343D01*
X164397629Y-81994351D01*
X164397632Y-81994355D01*
X164505644Y-82102367D01*
X164505652Y-82102373D01*
X164579916Y-82151995D01*
X164624722Y-82205607D01*
X164633429Y-82274932D01*
X164603275Y-82337959D01*
X164551290Y-82372378D01*
X164425501Y-82415562D01*
X164425495Y-82415564D01*
X164221371Y-82526031D01*
X164221365Y-82526035D01*
X164038222Y-82668581D01*
X164038219Y-82668584D01*
X164038216Y-82668586D01*
X164038216Y-82668587D01*
X164034789Y-82672310D01*
X163881018Y-82839350D01*
X163764837Y-83017180D01*
X163711690Y-83062536D01*
X163642459Y-83071960D01*
X163579123Y-83042458D01*
X163559454Y-83020482D01*
X163529025Y-82977026D01*
X162932962Y-83573089D01*
X162915925Y-83509507D01*
X162850099Y-83395493D01*
X162757007Y-83302401D01*
X162642993Y-83236575D01*
X162579408Y-83219537D01*
X163175472Y-82623474D01*
X163102478Y-82572363D01*
X162896331Y-82476235D01*
X162896317Y-82476230D01*
X162676610Y-82417360D01*
X162676599Y-82417358D01*
X162450002Y-82397534D01*
X162449998Y-82397534D01*
X162223400Y-82417358D01*
X162223389Y-82417360D01*
X162003682Y-82476230D01*
X162003673Y-82476234D01*
X161797516Y-82572366D01*
X161797512Y-82572368D01*
X161724526Y-82623473D01*
X161724526Y-82623474D01*
X162320590Y-83219537D01*
X162257007Y-83236575D01*
X162142993Y-83302401D01*
X162049901Y-83395493D01*
X161984075Y-83509507D01*
X161967037Y-83573090D01*
X161370974Y-82977026D01*
X161370973Y-82977026D01*
X161340546Y-83020482D01*
X161285969Y-83064106D01*
X161216470Y-83071299D01*
X161154116Y-83039777D01*
X161135162Y-83017179D01*
X161018983Y-82839352D01*
X161018980Y-82839349D01*
X161018979Y-82839347D01*
X160861784Y-82668587D01*
X160861779Y-82668583D01*
X160861777Y-82668581D01*
X160678634Y-82526035D01*
X160678628Y-82526031D01*
X160474504Y-82415564D01*
X160474495Y-82415561D01*
X160254984Y-82340202D01*
X160083282Y-82311550D01*
X160026049Y-82302000D01*
X159833598Y-82302000D01*
X159766559Y-82282315D01*
X159720804Y-82229511D01*
X159710860Y-82160353D01*
X159736652Y-82100686D01*
X159740473Y-82095893D01*
X159740477Y-82095890D01*
X159830452Y-81952697D01*
X159830454Y-81952694D01*
X159830454Y-81952692D01*
X159830456Y-81952690D01*
X159886313Y-81793059D01*
X159886313Y-81793058D01*
X159886314Y-81793056D01*
X159905249Y-81625002D01*
X159905249Y-81624997D01*
X159886314Y-81456943D01*
X159838042Y-81318989D01*
X159830456Y-81297310D01*
X159830455Y-81297309D01*
X159830454Y-81297305D01*
X159830452Y-81297302D01*
X159740481Y-81154115D01*
X159740476Y-81154109D01*
X159620890Y-81034523D01*
X159620884Y-81034518D01*
X159477697Y-80944547D01*
X159477694Y-80944545D01*
X159318056Y-80888685D01*
X159150003Y-80869751D01*
X159149997Y-80869751D01*
X158981943Y-80888685D01*
X158822305Y-80944545D01*
X158822302Y-80944547D01*
X158679115Y-81034518D01*
X158679109Y-81034523D01*
X158559523Y-81154109D01*
X158559518Y-81154115D01*
X158469547Y-81297302D01*
X158469545Y-81297305D01*
X158413685Y-81456943D01*
X158394751Y-81624997D01*
X158394751Y-81625002D01*
X158413685Y-81793056D01*
X158469545Y-81952694D01*
X158469547Y-81952697D01*
X158559518Y-82095884D01*
X158559523Y-82095890D01*
X158679109Y-82215476D01*
X158679115Y-82215481D01*
X158822302Y-82305452D01*
X158822305Y-82305454D01*
X158822309Y-82305455D01*
X158822310Y-82305456D01*
X158981941Y-82361313D01*
X158981944Y-82361314D01*
X159003556Y-82363749D01*
X159067970Y-82390815D01*
X159107526Y-82448409D01*
X159109665Y-82518246D01*
X159073707Y-82578153D01*
X159065837Y-82584822D01*
X158958218Y-82668585D01*
X158958216Y-82668586D01*
X158958216Y-82668587D01*
X158954789Y-82672310D01*
X158801016Y-82839352D01*
X158743809Y-82926916D01*
X158690662Y-82972273D01*
X158621431Y-82981697D01*
X158558095Y-82952195D01*
X158536191Y-82926916D01*
X158478983Y-82839352D01*
X158478980Y-82839349D01*
X158478979Y-82839347D01*
X158321784Y-82668587D01*
X158321779Y-82668583D01*
X158321777Y-82668581D01*
X158138634Y-82526035D01*
X158138628Y-82526031D01*
X157934504Y-82415564D01*
X157934495Y-82415561D01*
X157714984Y-82340202D01*
X157543282Y-82311550D01*
X157486049Y-82302000D01*
X157253951Y-82302000D01*
X157208164Y-82309640D01*
X157025015Y-82340202D01*
X156805504Y-82415561D01*
X156805495Y-82415564D01*
X156601371Y-82526031D01*
X156601365Y-82526035D01*
X156418222Y-82668581D01*
X156418219Y-82668584D01*
X156418216Y-82668586D01*
X156418216Y-82668587D01*
X156414789Y-82672310D01*
X156261016Y-82839352D01*
X156203809Y-82926916D01*
X156150662Y-82972273D01*
X156081431Y-82981697D01*
X156018095Y-82952195D01*
X155996191Y-82926916D01*
X155938983Y-82839352D01*
X155938980Y-82839349D01*
X155938979Y-82839347D01*
X155781784Y-82668587D01*
X155781779Y-82668583D01*
X155781777Y-82668581D01*
X155598634Y-82526035D01*
X155598628Y-82526031D01*
X155394504Y-82415564D01*
X155394495Y-82415561D01*
X155174984Y-82340202D01*
X155003282Y-82311550D01*
X154946049Y-82302000D01*
X154713951Y-82302000D01*
X154668164Y-82309640D01*
X154485015Y-82340202D01*
X154265504Y-82415561D01*
X154265495Y-82415564D01*
X154061371Y-82526031D01*
X154061365Y-82526035D01*
X153878222Y-82668581D01*
X153878219Y-82668584D01*
X153878216Y-82668586D01*
X153878216Y-82668587D01*
X153874789Y-82672310D01*
X153721016Y-82839352D01*
X153663809Y-82926916D01*
X153610662Y-82972273D01*
X153541431Y-82981697D01*
X153478095Y-82952195D01*
X153456191Y-82926916D01*
X153398983Y-82839352D01*
X153398980Y-82839349D01*
X153398979Y-82839347D01*
X153241784Y-82668587D01*
X153241779Y-82668583D01*
X153241777Y-82668581D01*
X153058634Y-82526035D01*
X153058628Y-82526031D01*
X152854504Y-82415564D01*
X152854495Y-82415561D01*
X152634984Y-82340202D01*
X152463282Y-82311550D01*
X152406049Y-82302000D01*
X152173951Y-82302000D01*
X152128164Y-82309640D01*
X151945015Y-82340202D01*
X151725504Y-82415561D01*
X151725495Y-82415564D01*
X151521371Y-82526031D01*
X151521365Y-82526035D01*
X151338222Y-82668581D01*
X151338219Y-82668584D01*
X151338216Y-82668586D01*
X151338216Y-82668587D01*
X151334789Y-82672310D01*
X151181016Y-82839352D01*
X151123809Y-82926916D01*
X151070662Y-82972273D01*
X151001431Y-82981697D01*
X150938095Y-82952195D01*
X150916191Y-82926916D01*
X150858983Y-82839352D01*
X150858980Y-82839349D01*
X150858979Y-82839347D01*
X150701784Y-82668587D01*
X150701779Y-82668583D01*
X150701777Y-82668581D01*
X150518634Y-82526035D01*
X150518628Y-82526031D01*
X150314504Y-82415564D01*
X150314495Y-82415561D01*
X150094984Y-82340202D01*
X149923282Y-82311550D01*
X149866049Y-82302000D01*
X149633951Y-82302000D01*
X149588164Y-82309640D01*
X149405015Y-82340202D01*
X149185504Y-82415561D01*
X149185495Y-82415564D01*
X148981371Y-82526031D01*
X148981365Y-82526035D01*
X148798222Y-82668581D01*
X148798219Y-82668584D01*
X148798216Y-82668586D01*
X148798216Y-82668587D01*
X148794789Y-82672310D01*
X148641016Y-82839352D01*
X148583809Y-82926916D01*
X148530662Y-82972273D01*
X148461431Y-82981697D01*
X148398095Y-82952195D01*
X148376191Y-82926916D01*
X148318983Y-82839352D01*
X148318980Y-82839349D01*
X148318979Y-82839347D01*
X148161784Y-82668587D01*
X148161779Y-82668583D01*
X148161777Y-82668581D01*
X147978634Y-82526035D01*
X147978628Y-82526031D01*
X147774504Y-82415564D01*
X147774495Y-82415561D01*
X147554984Y-82340202D01*
X147383282Y-82311550D01*
X147326049Y-82302000D01*
X147093951Y-82302000D01*
X147048164Y-82309640D01*
X146865015Y-82340202D01*
X146645504Y-82415561D01*
X146645495Y-82415564D01*
X146441371Y-82526031D01*
X146441365Y-82526035D01*
X146258222Y-82668581D01*
X146258219Y-82668584D01*
X146258216Y-82668586D01*
X146258216Y-82668587D01*
X146254789Y-82672310D01*
X146101016Y-82839352D01*
X146043809Y-82926916D01*
X145990662Y-82972273D01*
X145921431Y-82981697D01*
X145858095Y-82952195D01*
X145836191Y-82926916D01*
X145778983Y-82839352D01*
X145778980Y-82839349D01*
X145778979Y-82839347D01*
X145621784Y-82668587D01*
X145621779Y-82668583D01*
X145621777Y-82668581D01*
X145438634Y-82526035D01*
X145438628Y-82526031D01*
X145234504Y-82415564D01*
X145234495Y-82415561D01*
X145014984Y-82340202D01*
X144843282Y-82311550D01*
X144786049Y-82302000D01*
X144553951Y-82302000D01*
X144508164Y-82309640D01*
X144325015Y-82340202D01*
X144105504Y-82415561D01*
X144105495Y-82415564D01*
X143901371Y-82526031D01*
X143901365Y-82526035D01*
X143718222Y-82668581D01*
X143718219Y-82668584D01*
X143718216Y-82668586D01*
X143718216Y-82668587D01*
X143714789Y-82672310D01*
X143561016Y-82839352D01*
X143503809Y-82926916D01*
X143450662Y-82972273D01*
X143381431Y-82981697D01*
X143318095Y-82952195D01*
X143296191Y-82926916D01*
X143238983Y-82839352D01*
X143238980Y-82839349D01*
X143238979Y-82839347D01*
X143081784Y-82668587D01*
X143081779Y-82668583D01*
X143081777Y-82668581D01*
X142898634Y-82526035D01*
X142898628Y-82526031D01*
X142694504Y-82415564D01*
X142694495Y-82415561D01*
X142474984Y-82340202D01*
X142303282Y-82311550D01*
X142246049Y-82302000D01*
X142013951Y-82302000D01*
X141968164Y-82309640D01*
X141785015Y-82340202D01*
X141565504Y-82415561D01*
X141565495Y-82415564D01*
X141361371Y-82526031D01*
X141361365Y-82526035D01*
X141178222Y-82668581D01*
X141178219Y-82668584D01*
X141178216Y-82668586D01*
X141178216Y-82668587D01*
X141174789Y-82672310D01*
X141021018Y-82839350D01*
X140978309Y-82904723D01*
X140925162Y-82950079D01*
X140855931Y-82959503D01*
X140792595Y-82930001D01*
X140755264Y-82870941D01*
X140750500Y-82836901D01*
X140750500Y-78514499D01*
X140770185Y-78447460D01*
X140822989Y-78401705D01*
X140874495Y-78390499D01*
X142881518Y-78390499D01*
X142975304Y-78375646D01*
X143088342Y-78318050D01*
X143178050Y-78228342D01*
X143235646Y-78115304D01*
X143237901Y-78101062D01*
X143267830Y-78037929D01*
X143327141Y-78000997D01*
X143397003Y-78001993D01*
X143436537Y-78022606D01*
X143438215Y-78023912D01*
X143438216Y-78023913D01*
X143621374Y-78166470D01*
X143825497Y-78276936D01*
X143910552Y-78306135D01*
X143967566Y-78346520D01*
X143993697Y-78411319D01*
X143987330Y-78464370D01*
X143963686Y-78531942D01*
X143944751Y-78699997D01*
X143944751Y-78700002D01*
X143963685Y-78868056D01*
X144019545Y-79027694D01*
X144019547Y-79027697D01*
X144109518Y-79170884D01*
X144109523Y-79170890D01*
X144229109Y-79290476D01*
X144229115Y-79290481D01*
X144372302Y-79380452D01*
X144372305Y-79380454D01*
X144372309Y-79380455D01*
X144372310Y-79380456D01*
X144444913Y-79405860D01*
X144531943Y-79436314D01*
X144699997Y-79455249D01*
X144700000Y-79455249D01*
X144700003Y-79455249D01*
X144868056Y-79436314D01*
X144868059Y-79436313D01*
X145027690Y-79380456D01*
X145027692Y-79380454D01*
X145027694Y-79380454D01*
X145027697Y-79380452D01*
X145170884Y-79290481D01*
X145170885Y-79290480D01*
X145170890Y-79290477D01*
X145290477Y-79170890D01*
X145324127Y-79117337D01*
X145380452Y-79027697D01*
X145380454Y-79027694D01*
X145380454Y-79027692D01*
X145380456Y-79027690D01*
X145436313Y-78868059D01*
X145436313Y-78868058D01*
X145436314Y-78868056D01*
X145455249Y-78700002D01*
X145455249Y-78699997D01*
X145436314Y-78531943D01*
X145405860Y-78444913D01*
X145380456Y-78372310D01*
X145380455Y-78372309D01*
X145380454Y-78372305D01*
X145380452Y-78372302D01*
X145290478Y-78229110D01*
X145287389Y-78225237D01*
X145260980Y-78160551D01*
X145273737Y-78091855D01*
X145308173Y-78050073D01*
X145341784Y-78023913D01*
X145498979Y-77853153D01*
X145556191Y-77765582D01*
X145609337Y-77720226D01*
X145678568Y-77710802D01*
X145741904Y-77740304D01*
X145763809Y-77765583D01*
X145821016Y-77853147D01*
X145821019Y-77853151D01*
X145821021Y-77853153D01*
X145978216Y-78023913D01*
X145978219Y-78023915D01*
X145978222Y-78023918D01*
X146161365Y-78166464D01*
X146161371Y-78166468D01*
X146161374Y-78166470D01*
X146365497Y-78276936D01*
X146418017Y-78294966D01*
X146585015Y-78352297D01*
X146585017Y-78352297D01*
X146585019Y-78352298D01*
X146813951Y-78390500D01*
X146813952Y-78390500D01*
X147046048Y-78390500D01*
X147046049Y-78390500D01*
X147274981Y-78352298D01*
X147494503Y-78276936D01*
X147698626Y-78166470D01*
X147881784Y-78023913D01*
X148038979Y-77853153D01*
X148096191Y-77765582D01*
X148149337Y-77720226D01*
X148218568Y-77710802D01*
X148281904Y-77740304D01*
X148303809Y-77765583D01*
X148361016Y-77853147D01*
X148361019Y-77853151D01*
X148361021Y-77853153D01*
X148518216Y-78023913D01*
X148518219Y-78023915D01*
X148518222Y-78023918D01*
X148701365Y-78166464D01*
X148701371Y-78166468D01*
X148701374Y-78166470D01*
X148905497Y-78276936D01*
X148958017Y-78294966D01*
X149125015Y-78352297D01*
X149125017Y-78352297D01*
X149125019Y-78352298D01*
X149353951Y-78390500D01*
X149353952Y-78390500D01*
X149586048Y-78390500D01*
X149586049Y-78390500D01*
X149814981Y-78352298D01*
X150034503Y-78276936D01*
X150238626Y-78166470D01*
X150421784Y-78023913D01*
X150578979Y-77853153D01*
X150636191Y-77765582D01*
X150689337Y-77720226D01*
X150758568Y-77710802D01*
X150821904Y-77740304D01*
X150843809Y-77765583D01*
X150901016Y-77853147D01*
X150901019Y-77853151D01*
X150901021Y-77853153D01*
X151058216Y-78023913D01*
X151058219Y-78023915D01*
X151058222Y-78023918D01*
X151241365Y-78166464D01*
X151241371Y-78166468D01*
X151241374Y-78166470D01*
X151445497Y-78276936D01*
X151498017Y-78294966D01*
X151665015Y-78352297D01*
X151665017Y-78352297D01*
X151665019Y-78352298D01*
X151893951Y-78390500D01*
X151893952Y-78390500D01*
X152126048Y-78390500D01*
X152126049Y-78390500D01*
X152354981Y-78352298D01*
X152574503Y-78276936D01*
X152778626Y-78166470D01*
X152961784Y-78023913D01*
X153118979Y-77853153D01*
X153176191Y-77765582D01*
X153229337Y-77720226D01*
X153298568Y-77710802D01*
X153361904Y-77740304D01*
X153383809Y-77765583D01*
X153441016Y-77853147D01*
X153441019Y-77853151D01*
X153441021Y-77853153D01*
X153598216Y-78023913D01*
X153598219Y-78023915D01*
X153598222Y-78023918D01*
X153781365Y-78166464D01*
X153781371Y-78166468D01*
X153781374Y-78166470D01*
X153985497Y-78276936D01*
X154038017Y-78294966D01*
X154205015Y-78352297D01*
X154205017Y-78352297D01*
X154205019Y-78352298D01*
X154433951Y-78390500D01*
X154433952Y-78390500D01*
X154666048Y-78390500D01*
X154666049Y-78390500D01*
X154894981Y-78352298D01*
X155114503Y-78276936D01*
X155318626Y-78166470D01*
X155501784Y-78023913D01*
X155658979Y-77853153D01*
X155716191Y-77765582D01*
X155769337Y-77720226D01*
X155838568Y-77710802D01*
X155901904Y-77740304D01*
X155923809Y-77765583D01*
X155981016Y-77853147D01*
X155981019Y-77853151D01*
X155981021Y-77853153D01*
X156138216Y-78023913D01*
X156138219Y-78023915D01*
X156138222Y-78023918D01*
X156321365Y-78166464D01*
X156321371Y-78166468D01*
X156321374Y-78166470D01*
X156525497Y-78276936D01*
X156578017Y-78294966D01*
X156745015Y-78352297D01*
X156745017Y-78352297D01*
X156745019Y-78352298D01*
X156973951Y-78390500D01*
X156973952Y-78390500D01*
X157206048Y-78390500D01*
X157206049Y-78390500D01*
X157434981Y-78352298D01*
X157654503Y-78276936D01*
X157858626Y-78166470D01*
X158041784Y-78023913D01*
X158198979Y-77853153D01*
X158256191Y-77765582D01*
X158309337Y-77720226D01*
X158378568Y-77710802D01*
X158441904Y-77740304D01*
X158463809Y-77765583D01*
X158521016Y-77853147D01*
X158521019Y-77853151D01*
X158521021Y-77853153D01*
X158678216Y-78023913D01*
X158678219Y-78023915D01*
X158678222Y-78023918D01*
X158861365Y-78166464D01*
X158861371Y-78166468D01*
X158861374Y-78166470D01*
X159065497Y-78276936D01*
X159118017Y-78294966D01*
X159285015Y-78352297D01*
X159285017Y-78352297D01*
X159285019Y-78352298D01*
X159513951Y-78390500D01*
X159513952Y-78390500D01*
X159746048Y-78390500D01*
X159746049Y-78390500D01*
X159974981Y-78352298D01*
X160194503Y-78276936D01*
X160398626Y-78166470D01*
X160581784Y-78023913D01*
X160738979Y-77853153D01*
X160796191Y-77765582D01*
X160849337Y-77720226D01*
X160918568Y-77710802D01*
X160981904Y-77740304D01*
X161003809Y-77765583D01*
X161061016Y-77853147D01*
X161061019Y-77853151D01*
X161061021Y-77853153D01*
X161218216Y-78023913D01*
X161218219Y-78023915D01*
X161218222Y-78023918D01*
X161401365Y-78166464D01*
X161401371Y-78166468D01*
X161401374Y-78166470D01*
X161605497Y-78276936D01*
X161658017Y-78294966D01*
X161825015Y-78352297D01*
X161825017Y-78352297D01*
X161825019Y-78352298D01*
X162053951Y-78390500D01*
X162053952Y-78390500D01*
X162286048Y-78390500D01*
X162286049Y-78390500D01*
X162514981Y-78352298D01*
X162734503Y-78276936D01*
X162938626Y-78166470D01*
X163121784Y-78023913D01*
X163278979Y-77853153D01*
X163336191Y-77765582D01*
X163389337Y-77720226D01*
X163458568Y-77710802D01*
X163521904Y-77740304D01*
X163543809Y-77765583D01*
X163601016Y-77853147D01*
X163601019Y-77853151D01*
X163601021Y-77853153D01*
X163758216Y-78023913D01*
X163758219Y-78023915D01*
X163758222Y-78023918D01*
X163941365Y-78166464D01*
X163941371Y-78166468D01*
X163941374Y-78166470D01*
X164145497Y-78276936D01*
X164198017Y-78294966D01*
X164365015Y-78352297D01*
X164365017Y-78352297D01*
X164365019Y-78352298D01*
X164593951Y-78390500D01*
X164593952Y-78390500D01*
X164826048Y-78390500D01*
X164826049Y-78390500D01*
X165054981Y-78352298D01*
X165274503Y-78276936D01*
X165478626Y-78166470D01*
X165661784Y-78023913D01*
X165818979Y-77853153D01*
X165876191Y-77765582D01*
X165929337Y-77720226D01*
X165998568Y-77710802D01*
X166061904Y-77740304D01*
X166083809Y-77765583D01*
X166141016Y-77853147D01*
X166141019Y-77853151D01*
X166141021Y-77853153D01*
X166298216Y-78023913D01*
X166298219Y-78023915D01*
X166298222Y-78023918D01*
X166481365Y-78166464D01*
X166481371Y-78166468D01*
X166481374Y-78166470D01*
X166685497Y-78276936D01*
X166738017Y-78294966D01*
X166905015Y-78352297D01*
X166905017Y-78352297D01*
X166905019Y-78352298D01*
X167133951Y-78390500D01*
X167133952Y-78390500D01*
X167366048Y-78390500D01*
X167366049Y-78390500D01*
X167594981Y-78352298D01*
X167814503Y-78276936D01*
X168018626Y-78166470D01*
X168201784Y-78023913D01*
X168358979Y-77853153D01*
X168416191Y-77765582D01*
X168469337Y-77720226D01*
X168538568Y-77710802D01*
X168601904Y-77740304D01*
X168623809Y-77765583D01*
X168681016Y-77853147D01*
X168681019Y-77853151D01*
X168681021Y-77853153D01*
X168838216Y-78023913D01*
X168838219Y-78023915D01*
X168838222Y-78023918D01*
X169021365Y-78166464D01*
X169021371Y-78166468D01*
X169021374Y-78166470D01*
X169225497Y-78276936D01*
X169278017Y-78294966D01*
X169445015Y-78352297D01*
X169445017Y-78352297D01*
X169445019Y-78352298D01*
X169673951Y-78390500D01*
X169673952Y-78390500D01*
X169906048Y-78390500D01*
X169906049Y-78390500D01*
X170134981Y-78352298D01*
X170354503Y-78276936D01*
X170558626Y-78166470D01*
X170741784Y-78023913D01*
X170898979Y-77853153D01*
X170956191Y-77765582D01*
X171009337Y-77720226D01*
X171078568Y-77710802D01*
X171141904Y-77740304D01*
X171163809Y-77765583D01*
X171221016Y-77853147D01*
X171221019Y-77853151D01*
X171221021Y-77853153D01*
X171378216Y-78023913D01*
X171378219Y-78023915D01*
X171378222Y-78023918D01*
X171561365Y-78166464D01*
X171561371Y-78166468D01*
X171561374Y-78166470D01*
X171765497Y-78276936D01*
X171818017Y-78294966D01*
X171985015Y-78352297D01*
X171985017Y-78352297D01*
X171985019Y-78352298D01*
X172213951Y-78390500D01*
X172213952Y-78390500D01*
X172446048Y-78390500D01*
X172446049Y-78390500D01*
X172674981Y-78352298D01*
X172894503Y-78276936D01*
X173098626Y-78166470D01*
X173281784Y-78023913D01*
X173438979Y-77853153D01*
X173496191Y-77765582D01*
X173549337Y-77720226D01*
X173618568Y-77710802D01*
X173681904Y-77740304D01*
X173703809Y-77765583D01*
X173761016Y-77853147D01*
X173761019Y-77853151D01*
X173761021Y-77853153D01*
X173918216Y-78023913D01*
X173918219Y-78023915D01*
X173918222Y-78023918D01*
X174101365Y-78166464D01*
X174101371Y-78166468D01*
X174101374Y-78166470D01*
X174305497Y-78276936D01*
X174358017Y-78294966D01*
X174525015Y-78352297D01*
X174525017Y-78352297D01*
X174525019Y-78352298D01*
X174753951Y-78390500D01*
X174753952Y-78390500D01*
X174986048Y-78390500D01*
X174986049Y-78390500D01*
X175214981Y-78352298D01*
X175434503Y-78276936D01*
X175638626Y-78166470D01*
X175821784Y-78023913D01*
X175978979Y-77853153D01*
X176036191Y-77765582D01*
X176089337Y-77720226D01*
X176158568Y-77710802D01*
X176221904Y-77740304D01*
X176243809Y-77765583D01*
X176301016Y-77853147D01*
X176301019Y-77853151D01*
X176301021Y-77853153D01*
X176458216Y-78023913D01*
X176458219Y-78023915D01*
X176458222Y-78023918D01*
X176641365Y-78166464D01*
X176641371Y-78166468D01*
X176641374Y-78166470D01*
X176845497Y-78276936D01*
X176898017Y-78294966D01*
X177065015Y-78352297D01*
X177065017Y-78352297D01*
X177065019Y-78352298D01*
X177293951Y-78390500D01*
X177293952Y-78390500D01*
X177526048Y-78390500D01*
X177526049Y-78390500D01*
X177754981Y-78352298D01*
X177974503Y-78276936D01*
X178178626Y-78166470D01*
X178361784Y-78023913D01*
X178518979Y-77853153D01*
X178576191Y-77765582D01*
X178629337Y-77720226D01*
X178698568Y-77710802D01*
X178761904Y-77740304D01*
X178783809Y-77765583D01*
X178841016Y-77853147D01*
X178841019Y-77853151D01*
X178841021Y-77853153D01*
X178998216Y-78023913D01*
X178998219Y-78023915D01*
X178998222Y-78023918D01*
X179181365Y-78166464D01*
X179181371Y-78166468D01*
X179181374Y-78166470D01*
X179385497Y-78276936D01*
X179438017Y-78294966D01*
X179605015Y-78352297D01*
X179605017Y-78352297D01*
X179605019Y-78352298D01*
X179833951Y-78390500D01*
X179833952Y-78390500D01*
X180066048Y-78390500D01*
X180066049Y-78390500D01*
X180294981Y-78352298D01*
X180514503Y-78276936D01*
X180718626Y-78166470D01*
X180901784Y-78023913D01*
X181058979Y-77853153D01*
X181116191Y-77765582D01*
X181169337Y-77720226D01*
X181238568Y-77710802D01*
X181301904Y-77740304D01*
X181323809Y-77765583D01*
X181381016Y-77853147D01*
X181381019Y-77853151D01*
X181381021Y-77853153D01*
X181538216Y-78023913D01*
X181538219Y-78023915D01*
X181538222Y-78023918D01*
X181721365Y-78166464D01*
X181721371Y-78166468D01*
X181721374Y-78166470D01*
X181925497Y-78276936D01*
X181978017Y-78294966D01*
X182145015Y-78352297D01*
X182145017Y-78352297D01*
X182145019Y-78352298D01*
X182373951Y-78390500D01*
X182373952Y-78390500D01*
X182606048Y-78390500D01*
X182606049Y-78390500D01*
X182834981Y-78352298D01*
X183054503Y-78276936D01*
X183258626Y-78166470D01*
X183441784Y-78023913D01*
X183598979Y-77853153D01*
X183656191Y-77765582D01*
X183709337Y-77720226D01*
X183778568Y-77710802D01*
X183841904Y-77740304D01*
X183863809Y-77765583D01*
X183921016Y-77853147D01*
X183921019Y-77853151D01*
X183921021Y-77853153D01*
X184078216Y-78023913D01*
X184078219Y-78023915D01*
X184078222Y-78023918D01*
X184261365Y-78166464D01*
X184261371Y-78166468D01*
X184261374Y-78166470D01*
X184465497Y-78276936D01*
X184518017Y-78294966D01*
X184685015Y-78352297D01*
X184685017Y-78352297D01*
X184685019Y-78352298D01*
X184913951Y-78390500D01*
X184913952Y-78390500D01*
X185146048Y-78390500D01*
X185146049Y-78390500D01*
X185374981Y-78352298D01*
X185594503Y-78276936D01*
X185798626Y-78166470D01*
X185981784Y-78023913D01*
X186138979Y-77853153D01*
X186255164Y-77675318D01*
X186308308Y-77629963D01*
X186377539Y-77620539D01*
X186440875Y-77650041D01*
X186460545Y-77672017D01*
X186490973Y-77715472D01*
X186490974Y-77715472D01*
X187087037Y-77119408D01*
X187104075Y-77182993D01*
G37*
G04 #@! TD.AperFunction*
G04 #@! TA.AperFunction,Conductor*
G36*
X192037539Y-60675185D02*
G01*
X192083294Y-60727989D01*
X192094500Y-60779500D01*
X192094500Y-78049710D01*
X192074815Y-78116749D01*
X192022011Y-78162504D01*
X191952853Y-78172448D01*
X191900506Y-78149385D01*
X191899418Y-78151014D01*
X191767339Y-78062761D01*
X191767337Y-78062760D01*
X191626206Y-78004302D01*
X191626197Y-78004299D01*
X191476384Y-77974500D01*
X191476381Y-77974500D01*
X191368831Y-77974500D01*
X191301792Y-77954815D01*
X191256037Y-77902011D01*
X191246093Y-77832853D01*
X191265021Y-77782680D01*
X191345924Y-77658849D01*
X191439157Y-77446300D01*
X191496134Y-77221305D01*
X191515300Y-76990000D01*
X191515300Y-76989999D01*
X191515300Y-76989993D01*
X191496135Y-76758702D01*
X191496133Y-76758691D01*
X191439157Y-76533699D01*
X191345924Y-76321151D01*
X191218983Y-76126852D01*
X191218980Y-76126849D01*
X191218979Y-76126847D01*
X191061784Y-75956087D01*
X191061779Y-75956083D01*
X191061777Y-75956081D01*
X190878634Y-75813535D01*
X190878628Y-75813531D01*
X190674504Y-75703064D01*
X190674495Y-75703061D01*
X190454984Y-75627702D01*
X190283282Y-75599050D01*
X190226049Y-75589500D01*
X189993951Y-75589500D01*
X189948164Y-75597140D01*
X189765015Y-75627702D01*
X189545504Y-75703061D01*
X189545495Y-75703064D01*
X189341371Y-75813531D01*
X189341365Y-75813535D01*
X189158222Y-75956081D01*
X189158219Y-75956084D01*
X189001018Y-76126850D01*
X188884837Y-76304680D01*
X188831690Y-76350036D01*
X188762459Y-76359460D01*
X188699123Y-76329958D01*
X188679454Y-76307982D01*
X188649025Y-76264526D01*
X188052962Y-76860589D01*
X188035925Y-76797007D01*
X187970099Y-76682993D01*
X187877007Y-76589901D01*
X187762993Y-76524075D01*
X187699408Y-76507037D01*
X188295472Y-75910974D01*
X188222478Y-75859863D01*
X188016331Y-75763735D01*
X188016317Y-75763730D01*
X187796610Y-75704860D01*
X187796599Y-75704858D01*
X187570002Y-75685034D01*
X187569998Y-75685034D01*
X187343400Y-75704858D01*
X187343389Y-75704860D01*
X187123682Y-75763730D01*
X187123673Y-75763734D01*
X186917516Y-75859866D01*
X186917512Y-75859868D01*
X186844526Y-75910973D01*
X186844526Y-75910974D01*
X187440590Y-76507037D01*
X187377007Y-76524075D01*
X187262993Y-76589901D01*
X187169901Y-76682993D01*
X187104075Y-76797007D01*
X187087037Y-76860590D01*
X186490974Y-76264526D01*
X186490973Y-76264526D01*
X186460546Y-76307982D01*
X186405969Y-76351606D01*
X186336470Y-76358799D01*
X186274116Y-76327277D01*
X186255162Y-76304679D01*
X186138983Y-76126852D01*
X186138980Y-76126849D01*
X186138979Y-76126847D01*
X185981784Y-75956087D01*
X185981779Y-75956083D01*
X185981777Y-75956081D01*
X185798634Y-75813535D01*
X185798628Y-75813531D01*
X185594504Y-75703064D01*
X185594495Y-75703061D01*
X185374984Y-75627702D01*
X185203282Y-75599050D01*
X185146049Y-75589500D01*
X184913951Y-75589500D01*
X184868164Y-75597140D01*
X184685015Y-75627702D01*
X184465504Y-75703061D01*
X184465495Y-75703064D01*
X184261371Y-75813531D01*
X184261365Y-75813535D01*
X184078222Y-75956081D01*
X184078219Y-75956084D01*
X183921016Y-76126852D01*
X183863809Y-76214416D01*
X183810662Y-76259773D01*
X183741431Y-76269197D01*
X183678095Y-76239695D01*
X183656191Y-76214416D01*
X183598983Y-76126852D01*
X183598980Y-76126849D01*
X183598979Y-76126847D01*
X183441784Y-75956087D01*
X183441779Y-75956083D01*
X183441777Y-75956081D01*
X183258634Y-75813535D01*
X183258628Y-75813531D01*
X183054504Y-75703064D01*
X183054495Y-75703061D01*
X182834984Y-75627702D01*
X182663282Y-75599050D01*
X182606049Y-75589500D01*
X182373951Y-75589500D01*
X182328164Y-75597140D01*
X182145015Y-75627702D01*
X181925504Y-75703061D01*
X181925495Y-75703064D01*
X181721371Y-75813531D01*
X181721365Y-75813535D01*
X181538222Y-75956081D01*
X181538219Y-75956084D01*
X181381016Y-76126852D01*
X181323809Y-76214416D01*
X181270662Y-76259773D01*
X181201431Y-76269197D01*
X181138095Y-76239695D01*
X181116191Y-76214416D01*
X181058983Y-76126852D01*
X181058980Y-76126849D01*
X181058979Y-76126847D01*
X180901784Y-75956087D01*
X180901779Y-75956083D01*
X180901777Y-75956081D01*
X180718634Y-75813535D01*
X180718628Y-75813531D01*
X180514504Y-75703064D01*
X180514495Y-75703061D01*
X180294984Y-75627702D01*
X180123282Y-75599050D01*
X180066049Y-75589500D01*
X179833951Y-75589500D01*
X179788164Y-75597140D01*
X179605015Y-75627702D01*
X179385504Y-75703061D01*
X179385495Y-75703064D01*
X179181371Y-75813531D01*
X179181365Y-75813535D01*
X178998222Y-75956081D01*
X178998219Y-75956084D01*
X178841016Y-76126852D01*
X178783809Y-76214416D01*
X178730662Y-76259773D01*
X178661431Y-76269197D01*
X178598095Y-76239695D01*
X178576191Y-76214416D01*
X178518983Y-76126852D01*
X178518980Y-76126849D01*
X178518979Y-76126847D01*
X178361784Y-75956087D01*
X178361779Y-75956083D01*
X178361777Y-75956081D01*
X178178634Y-75813535D01*
X178178628Y-75813531D01*
X177974504Y-75703064D01*
X177974495Y-75703061D01*
X177754984Y-75627702D01*
X177583282Y-75599050D01*
X177526049Y-75589500D01*
X177293951Y-75589500D01*
X177248164Y-75597140D01*
X177065015Y-75627702D01*
X176845504Y-75703061D01*
X176845495Y-75703064D01*
X176641371Y-75813531D01*
X176641365Y-75813535D01*
X176458222Y-75956081D01*
X176458219Y-75956084D01*
X176301016Y-76126852D01*
X176243809Y-76214416D01*
X176190662Y-76259773D01*
X176121431Y-76269197D01*
X176058095Y-76239695D01*
X176036191Y-76214416D01*
X175978983Y-76126852D01*
X175978980Y-76126849D01*
X175978979Y-76126847D01*
X175821784Y-75956087D01*
X175821779Y-75956083D01*
X175821777Y-75956081D01*
X175638634Y-75813535D01*
X175638628Y-75813531D01*
X175434504Y-75703064D01*
X175434495Y-75703061D01*
X175214984Y-75627702D01*
X175043282Y-75599050D01*
X174986049Y-75589500D01*
X174753951Y-75589500D01*
X174708164Y-75597140D01*
X174525015Y-75627702D01*
X174305504Y-75703061D01*
X174305495Y-75703064D01*
X174101371Y-75813531D01*
X174101365Y-75813535D01*
X173918222Y-75956081D01*
X173918219Y-75956084D01*
X173761016Y-76126852D01*
X173703809Y-76214416D01*
X173650662Y-76259773D01*
X173581431Y-76269197D01*
X173518095Y-76239695D01*
X173496191Y-76214416D01*
X173438983Y-76126852D01*
X173438980Y-76126849D01*
X173438979Y-76126847D01*
X173281784Y-75956087D01*
X173281779Y-75956083D01*
X173281777Y-75956081D01*
X173098634Y-75813535D01*
X173098628Y-75813531D01*
X172894504Y-75703064D01*
X172894495Y-75703061D01*
X172674984Y-75627702D01*
X172503282Y-75599050D01*
X172446049Y-75589500D01*
X172213951Y-75589500D01*
X172168164Y-75597140D01*
X171985015Y-75627702D01*
X171765504Y-75703061D01*
X171765495Y-75703064D01*
X171561371Y-75813531D01*
X171561365Y-75813535D01*
X171378222Y-75956081D01*
X171378219Y-75956084D01*
X171221016Y-76126852D01*
X171163809Y-76214416D01*
X171110662Y-76259773D01*
X171041431Y-76269197D01*
X170978095Y-76239695D01*
X170956191Y-76214416D01*
X170898983Y-76126852D01*
X170898980Y-76126849D01*
X170898979Y-76126847D01*
X170741784Y-75956087D01*
X170741779Y-75956083D01*
X170741777Y-75956081D01*
X170558634Y-75813535D01*
X170558628Y-75813531D01*
X170354504Y-75703064D01*
X170354495Y-75703061D01*
X170134984Y-75627702D01*
X169963282Y-75599050D01*
X169906049Y-75589500D01*
X169673951Y-75589500D01*
X169628164Y-75597140D01*
X169445015Y-75627702D01*
X169225504Y-75703061D01*
X169225495Y-75703064D01*
X169021371Y-75813531D01*
X169021365Y-75813535D01*
X168838222Y-75956081D01*
X168838219Y-75956084D01*
X168681016Y-76126852D01*
X168623809Y-76214416D01*
X168570662Y-76259773D01*
X168501431Y-76269197D01*
X168438095Y-76239695D01*
X168416191Y-76214416D01*
X168358983Y-76126852D01*
X168358980Y-76126849D01*
X168358979Y-76126847D01*
X168201784Y-75956087D01*
X168201779Y-75956083D01*
X168201777Y-75956081D01*
X168018634Y-75813535D01*
X168018628Y-75813531D01*
X167814504Y-75703064D01*
X167814495Y-75703061D01*
X167594984Y-75627702D01*
X167423282Y-75599050D01*
X167366049Y-75589500D01*
X167133951Y-75589500D01*
X167088164Y-75597140D01*
X166905015Y-75627702D01*
X166685504Y-75703061D01*
X166685495Y-75703064D01*
X166481371Y-75813531D01*
X166481365Y-75813535D01*
X166298222Y-75956081D01*
X166298219Y-75956084D01*
X166141016Y-76126852D01*
X166083809Y-76214416D01*
X166030662Y-76259773D01*
X165961431Y-76269197D01*
X165898095Y-76239695D01*
X165876191Y-76214416D01*
X165818983Y-76126852D01*
X165818980Y-76126849D01*
X165818979Y-76126847D01*
X165661784Y-75956087D01*
X165661779Y-75956083D01*
X165661777Y-75956081D01*
X165478634Y-75813535D01*
X165478628Y-75813531D01*
X165274504Y-75703064D01*
X165274495Y-75703061D01*
X165054984Y-75627702D01*
X164883282Y-75599050D01*
X164826049Y-75589500D01*
X164593951Y-75589500D01*
X164548164Y-75597140D01*
X164365015Y-75627702D01*
X164145504Y-75703061D01*
X164145495Y-75703064D01*
X163941371Y-75813531D01*
X163941365Y-75813535D01*
X163758222Y-75956081D01*
X163758219Y-75956084D01*
X163601016Y-76126852D01*
X163543809Y-76214416D01*
X163490662Y-76259773D01*
X163421431Y-76269197D01*
X163358095Y-76239695D01*
X163336191Y-76214416D01*
X163278983Y-76126852D01*
X163278980Y-76126849D01*
X163278979Y-76126847D01*
X163121784Y-75956087D01*
X163121779Y-75956083D01*
X163121777Y-75956081D01*
X162938634Y-75813535D01*
X162938628Y-75813531D01*
X162734504Y-75703064D01*
X162734495Y-75703061D01*
X162514984Y-75627702D01*
X162343282Y-75599050D01*
X162286049Y-75589500D01*
X162053951Y-75589500D01*
X162008164Y-75597140D01*
X161825015Y-75627702D01*
X161605504Y-75703061D01*
X161605495Y-75703064D01*
X161401371Y-75813531D01*
X161401365Y-75813535D01*
X161218222Y-75956081D01*
X161218219Y-75956084D01*
X161061016Y-76126852D01*
X161003809Y-76214416D01*
X160950662Y-76259773D01*
X160881431Y-76269197D01*
X160818095Y-76239695D01*
X160796191Y-76214416D01*
X160738983Y-76126852D01*
X160738980Y-76126849D01*
X160738979Y-76126847D01*
X160581784Y-75956087D01*
X160581779Y-75956083D01*
X160581777Y-75956081D01*
X160398634Y-75813535D01*
X160398628Y-75813531D01*
X160194504Y-75703064D01*
X160194495Y-75703061D01*
X159974984Y-75627702D01*
X159803282Y-75599050D01*
X159746049Y-75589500D01*
X159513951Y-75589500D01*
X159468164Y-75597140D01*
X159285015Y-75627702D01*
X159065504Y-75703061D01*
X159065495Y-75703064D01*
X158861371Y-75813531D01*
X158861365Y-75813535D01*
X158678222Y-75956081D01*
X158678219Y-75956084D01*
X158521016Y-76126852D01*
X158463809Y-76214416D01*
X158410662Y-76259773D01*
X158341431Y-76269197D01*
X158278095Y-76239695D01*
X158256191Y-76214416D01*
X158198983Y-76126852D01*
X158198980Y-76126849D01*
X158198979Y-76126847D01*
X158041784Y-75956087D01*
X158041779Y-75956083D01*
X158041777Y-75956081D01*
X157858634Y-75813535D01*
X157858628Y-75813531D01*
X157654504Y-75703064D01*
X157654495Y-75703061D01*
X157434984Y-75627702D01*
X157263282Y-75599050D01*
X157206049Y-75589500D01*
X156973951Y-75589500D01*
X156928164Y-75597140D01*
X156745015Y-75627702D01*
X156525504Y-75703061D01*
X156525495Y-75703064D01*
X156321371Y-75813531D01*
X156321365Y-75813535D01*
X156138222Y-75956081D01*
X156138219Y-75956084D01*
X155981016Y-76126852D01*
X155923809Y-76214416D01*
X155870662Y-76259773D01*
X155801431Y-76269197D01*
X155738095Y-76239695D01*
X155716191Y-76214416D01*
X155658983Y-76126852D01*
X155658980Y-76126849D01*
X155658979Y-76126847D01*
X155501784Y-75956087D01*
X155501779Y-75956083D01*
X155501777Y-75956081D01*
X155318634Y-75813535D01*
X155318628Y-75813531D01*
X155114504Y-75703064D01*
X155114495Y-75703061D01*
X154894984Y-75627702D01*
X154723282Y-75599050D01*
X154666049Y-75589500D01*
X154433951Y-75589500D01*
X154388164Y-75597140D01*
X154205015Y-75627702D01*
X153985504Y-75703061D01*
X153985495Y-75703064D01*
X153781371Y-75813531D01*
X153781365Y-75813535D01*
X153598222Y-75956081D01*
X153598219Y-75956084D01*
X153441016Y-76126852D01*
X153383809Y-76214416D01*
X153330662Y-76259773D01*
X153261431Y-76269197D01*
X153198095Y-76239695D01*
X153176191Y-76214416D01*
X153118983Y-76126852D01*
X153118980Y-76126849D01*
X153118979Y-76126847D01*
X152961784Y-75956087D01*
X152961779Y-75956083D01*
X152961777Y-75956081D01*
X152778634Y-75813535D01*
X152778628Y-75813531D01*
X152574504Y-75703064D01*
X152574495Y-75703061D01*
X152354984Y-75627702D01*
X152183282Y-75599050D01*
X152126049Y-75589500D01*
X151893951Y-75589500D01*
X151848164Y-75597140D01*
X151665015Y-75627702D01*
X151445504Y-75703061D01*
X151445495Y-75703064D01*
X151241371Y-75813531D01*
X151241365Y-75813535D01*
X151058222Y-75956081D01*
X151058219Y-75956084D01*
X150901016Y-76126852D01*
X150843809Y-76214416D01*
X150790662Y-76259773D01*
X150721431Y-76269197D01*
X150658095Y-76239695D01*
X150636191Y-76214416D01*
X150578983Y-76126852D01*
X150578980Y-76126849D01*
X150578979Y-76126847D01*
X150421784Y-75956087D01*
X150421779Y-75956083D01*
X150421777Y-75956081D01*
X150238634Y-75813535D01*
X150238628Y-75813531D01*
X150034504Y-75703064D01*
X150034495Y-75703061D01*
X149814984Y-75627702D01*
X149643282Y-75599050D01*
X149586049Y-75589500D01*
X149353951Y-75589500D01*
X149308164Y-75597140D01*
X149125015Y-75627702D01*
X148905504Y-75703061D01*
X148905495Y-75703064D01*
X148701371Y-75813531D01*
X148701365Y-75813535D01*
X148518222Y-75956081D01*
X148518219Y-75956084D01*
X148361016Y-76126852D01*
X148303809Y-76214416D01*
X148250662Y-76259773D01*
X148181431Y-76269197D01*
X148118095Y-76239695D01*
X148096191Y-76214416D01*
X148038983Y-76126852D01*
X148038980Y-76126849D01*
X148038979Y-76126847D01*
X147881784Y-75956087D01*
X147881779Y-75956083D01*
X147881777Y-75956081D01*
X147698634Y-75813535D01*
X147698628Y-75813531D01*
X147494504Y-75703064D01*
X147494495Y-75703061D01*
X147274984Y-75627702D01*
X147103282Y-75599050D01*
X147046049Y-75589500D01*
X146813951Y-75589500D01*
X146768164Y-75597140D01*
X146585015Y-75627702D01*
X146365504Y-75703061D01*
X146365495Y-75703064D01*
X146161371Y-75813531D01*
X146161365Y-75813535D01*
X145978222Y-75956081D01*
X145978219Y-75956084D01*
X145821016Y-76126852D01*
X145763809Y-76214416D01*
X145710662Y-76259773D01*
X145641431Y-76269197D01*
X145578095Y-76239695D01*
X145556191Y-76214416D01*
X145498983Y-76126852D01*
X145498980Y-76126849D01*
X145498979Y-76126847D01*
X145341784Y-75956087D01*
X145341779Y-75956083D01*
X145341777Y-75956081D01*
X145158634Y-75813535D01*
X145158628Y-75813531D01*
X144954504Y-75703064D01*
X144954495Y-75703061D01*
X144734984Y-75627702D01*
X144563282Y-75599050D01*
X144506049Y-75589500D01*
X144273951Y-75589500D01*
X144228164Y-75597140D01*
X144045015Y-75627702D01*
X143825504Y-75703061D01*
X143825495Y-75703064D01*
X143621372Y-75813531D01*
X143436537Y-75957394D01*
X143371543Y-75983036D01*
X143303003Y-75969469D01*
X143252678Y-75921001D01*
X143237901Y-75878937D01*
X143235646Y-75864696D01*
X143178050Y-75751658D01*
X143178046Y-75751654D01*
X143178045Y-75751652D01*
X143088347Y-75661954D01*
X143088344Y-75661952D01*
X143088342Y-75661950D01*
X143011517Y-75622805D01*
X142975301Y-75604352D01*
X142881524Y-75589500D01*
X140874500Y-75589500D01*
X140807461Y-75569815D01*
X140761706Y-75517011D01*
X140750500Y-75465500D01*
X140750500Y-63274499D01*
X140770185Y-63207460D01*
X140822989Y-63161705D01*
X140874495Y-63150499D01*
X142881518Y-63150499D01*
X142975304Y-63135646D01*
X143088342Y-63078050D01*
X143178050Y-62988342D01*
X143235646Y-62875304D01*
X143235646Y-62875302D01*
X143235647Y-62875301D01*
X143250120Y-62783918D01*
X143250500Y-62781519D01*
X143250499Y-62587306D01*
X143270183Y-62520270D01*
X143286818Y-62499628D01*
X143907037Y-61879408D01*
X143924075Y-61942993D01*
X143989901Y-62057007D01*
X144082993Y-62150099D01*
X144197007Y-62215925D01*
X144260590Y-62232962D01*
X143664526Y-62829025D01*
X143737513Y-62880132D01*
X143737521Y-62880136D01*
X143943668Y-62976264D01*
X143943682Y-62976269D01*
X144163389Y-63035139D01*
X144163400Y-63035141D01*
X144389998Y-63054966D01*
X144390002Y-63054966D01*
X144616599Y-63035141D01*
X144616610Y-63035139D01*
X144836317Y-62976269D01*
X144836331Y-62976264D01*
X145042478Y-62880136D01*
X145115471Y-62829024D01*
X144519409Y-62232962D01*
X144582993Y-62215925D01*
X144697007Y-62150099D01*
X144790099Y-62057007D01*
X144855925Y-61942993D01*
X144872962Y-61879409D01*
X145469024Y-62475471D01*
X145499454Y-62432016D01*
X145554032Y-62388392D01*
X145623530Y-62381200D01*
X145685885Y-62412723D01*
X145704837Y-62435320D01*
X145821016Y-62613147D01*
X145821019Y-62613151D01*
X145821021Y-62613153D01*
X145978216Y-62783913D01*
X145978219Y-62783915D01*
X145978222Y-62783918D01*
X146161365Y-62926464D01*
X146161371Y-62926468D01*
X146161374Y-62926470D01*
X146365497Y-63036936D01*
X146418017Y-63054966D01*
X146585015Y-63112297D01*
X146585017Y-63112297D01*
X146585019Y-63112298D01*
X146813951Y-63150500D01*
X146813952Y-63150500D01*
X147046048Y-63150500D01*
X147046049Y-63150500D01*
X147274981Y-63112298D01*
X147494503Y-63036936D01*
X147698626Y-62926470D01*
X147881784Y-62783913D01*
X148038979Y-62613153D01*
X148096191Y-62525582D01*
X148149337Y-62480226D01*
X148218568Y-62470802D01*
X148281904Y-62500304D01*
X148303809Y-62525583D01*
X148361016Y-62613147D01*
X148361019Y-62613151D01*
X148361021Y-62613153D01*
X148518216Y-62783913D01*
X148518219Y-62783915D01*
X148518222Y-62783918D01*
X148701365Y-62926464D01*
X148701371Y-62926468D01*
X148701374Y-62926470D01*
X148905497Y-63036936D01*
X148958017Y-63054966D01*
X149125015Y-63112297D01*
X149125017Y-63112297D01*
X149125019Y-63112298D01*
X149353951Y-63150500D01*
X149353952Y-63150500D01*
X149586048Y-63150500D01*
X149586049Y-63150500D01*
X149814981Y-63112298D01*
X150034503Y-63036936D01*
X150238626Y-62926470D01*
X150421784Y-62783913D01*
X150578979Y-62613153D01*
X150636191Y-62525582D01*
X150689337Y-62480226D01*
X150758568Y-62470802D01*
X150821904Y-62500304D01*
X150843809Y-62525583D01*
X150901016Y-62613147D01*
X150901019Y-62613151D01*
X150901021Y-62613153D01*
X151058216Y-62783913D01*
X151058219Y-62783915D01*
X151058222Y-62783918D01*
X151241365Y-62926464D01*
X151241371Y-62926468D01*
X151241374Y-62926470D01*
X151445497Y-63036936D01*
X151498017Y-63054966D01*
X151665015Y-63112297D01*
X151665017Y-63112297D01*
X151665019Y-63112298D01*
X151893951Y-63150500D01*
X151893952Y-63150500D01*
X152126048Y-63150500D01*
X152126049Y-63150500D01*
X152354981Y-63112298D01*
X152574503Y-63036936D01*
X152778626Y-62926470D01*
X152961784Y-62783913D01*
X153118979Y-62613153D01*
X153176191Y-62525582D01*
X153229337Y-62480226D01*
X153298568Y-62470802D01*
X153361904Y-62500304D01*
X153383809Y-62525583D01*
X153441016Y-62613147D01*
X153441019Y-62613151D01*
X153441021Y-62613153D01*
X153598216Y-62783913D01*
X153598219Y-62783915D01*
X153598222Y-62783918D01*
X153781365Y-62926464D01*
X153781371Y-62926468D01*
X153781374Y-62926470D01*
X153985497Y-63036936D01*
X154038017Y-63054966D01*
X154205015Y-63112297D01*
X154205017Y-63112297D01*
X154205019Y-63112298D01*
X154433951Y-63150500D01*
X154433952Y-63150500D01*
X154666048Y-63150500D01*
X154666049Y-63150500D01*
X154894981Y-63112298D01*
X155114503Y-63036936D01*
X155318626Y-62926470D01*
X155501784Y-62783913D01*
X155658979Y-62613153D01*
X155716191Y-62525582D01*
X155769337Y-62480226D01*
X155838568Y-62470802D01*
X155901904Y-62500304D01*
X155923809Y-62525583D01*
X155981016Y-62613147D01*
X155981019Y-62613151D01*
X155981021Y-62613153D01*
X156138216Y-62783913D01*
X156138219Y-62783915D01*
X156138222Y-62783918D01*
X156321365Y-62926464D01*
X156321371Y-62926468D01*
X156321374Y-62926470D01*
X156525497Y-63036936D01*
X156578017Y-63054966D01*
X156745015Y-63112297D01*
X156745017Y-63112297D01*
X156745019Y-63112298D01*
X156973951Y-63150500D01*
X156973952Y-63150500D01*
X157206048Y-63150500D01*
X157206049Y-63150500D01*
X157434981Y-63112298D01*
X157654503Y-63036936D01*
X157858626Y-62926470D01*
X158041784Y-62783913D01*
X158198979Y-62613153D01*
X158256191Y-62525582D01*
X158309337Y-62480226D01*
X158378568Y-62470802D01*
X158441904Y-62500304D01*
X158463809Y-62525583D01*
X158521016Y-62613147D01*
X158521019Y-62613151D01*
X158521021Y-62613153D01*
X158678216Y-62783913D01*
X158678219Y-62783915D01*
X158678222Y-62783918D01*
X158861365Y-62926464D01*
X158861371Y-62926468D01*
X158861374Y-62926470D01*
X159065497Y-63036936D01*
X159118017Y-63054966D01*
X159285015Y-63112297D01*
X159285017Y-63112297D01*
X159285019Y-63112298D01*
X159513951Y-63150500D01*
X159513952Y-63150500D01*
X159746048Y-63150500D01*
X159746049Y-63150500D01*
X159974981Y-63112298D01*
X160194503Y-63036936D01*
X160398626Y-62926470D01*
X160581784Y-62783913D01*
X160738979Y-62613153D01*
X160796191Y-62525582D01*
X160849337Y-62480226D01*
X160918568Y-62470802D01*
X160981904Y-62500304D01*
X161003809Y-62525583D01*
X161061016Y-62613147D01*
X161061019Y-62613151D01*
X161061021Y-62613153D01*
X161218216Y-62783913D01*
X161218219Y-62783915D01*
X161218222Y-62783918D01*
X161401365Y-62926464D01*
X161401371Y-62926468D01*
X161401374Y-62926470D01*
X161605497Y-63036936D01*
X161658017Y-63054966D01*
X161825015Y-63112297D01*
X161825017Y-63112297D01*
X161825019Y-63112298D01*
X162053951Y-63150500D01*
X162053952Y-63150500D01*
X162286048Y-63150500D01*
X162286049Y-63150500D01*
X162514981Y-63112298D01*
X162734503Y-63036936D01*
X162938626Y-62926470D01*
X163121784Y-62783913D01*
X163278979Y-62613153D01*
X163336191Y-62525582D01*
X163389337Y-62480226D01*
X163458568Y-62470802D01*
X163521904Y-62500304D01*
X163543809Y-62525583D01*
X163601016Y-62613147D01*
X163601019Y-62613151D01*
X163601021Y-62613153D01*
X163758216Y-62783913D01*
X163758219Y-62783915D01*
X163758222Y-62783918D01*
X163941365Y-62926464D01*
X163941371Y-62926468D01*
X163941374Y-62926470D01*
X164145497Y-63036936D01*
X164198017Y-63054966D01*
X164365015Y-63112297D01*
X164365017Y-63112297D01*
X164365019Y-63112298D01*
X164593951Y-63150500D01*
X164593952Y-63150500D01*
X164826048Y-63150500D01*
X164826049Y-63150500D01*
X165054981Y-63112298D01*
X165274503Y-63036936D01*
X165478626Y-62926470D01*
X165661784Y-62783913D01*
X165818979Y-62613153D01*
X165876191Y-62525582D01*
X165929337Y-62480226D01*
X165998568Y-62470802D01*
X166061904Y-62500304D01*
X166083809Y-62525583D01*
X166141016Y-62613147D01*
X166141019Y-62613151D01*
X166141021Y-62613153D01*
X166298216Y-62783913D01*
X166298219Y-62783915D01*
X166298222Y-62783918D01*
X166481365Y-62926464D01*
X166481371Y-62926468D01*
X166481374Y-62926470D01*
X166685497Y-63036936D01*
X166738017Y-63054966D01*
X166905015Y-63112297D01*
X166905017Y-63112297D01*
X166905019Y-63112298D01*
X167133951Y-63150500D01*
X167133952Y-63150500D01*
X167366048Y-63150500D01*
X167366049Y-63150500D01*
X167594981Y-63112298D01*
X167814503Y-63036936D01*
X168018626Y-62926470D01*
X168201784Y-62783913D01*
X168358979Y-62613153D01*
X168416191Y-62525582D01*
X168469337Y-62480226D01*
X168538568Y-62470802D01*
X168601904Y-62500304D01*
X168623809Y-62525583D01*
X168681016Y-62613147D01*
X168681019Y-62613151D01*
X168681021Y-62613153D01*
X168838216Y-62783913D01*
X168838219Y-62783915D01*
X168838222Y-62783918D01*
X169021365Y-62926464D01*
X169021371Y-62926468D01*
X169021374Y-62926470D01*
X169225497Y-63036936D01*
X169278017Y-63054966D01*
X169445015Y-63112297D01*
X169445017Y-63112297D01*
X169445019Y-63112298D01*
X169673951Y-63150500D01*
X169673952Y-63150500D01*
X169906048Y-63150500D01*
X169906049Y-63150500D01*
X170134981Y-63112298D01*
X170354503Y-63036936D01*
X170558626Y-62926470D01*
X170741784Y-62783913D01*
X170898979Y-62613153D01*
X170956191Y-62525582D01*
X171009337Y-62480226D01*
X171078568Y-62470802D01*
X171141904Y-62500304D01*
X171163809Y-62525583D01*
X171221016Y-62613147D01*
X171221019Y-62613151D01*
X171221021Y-62613153D01*
X171378216Y-62783913D01*
X171378219Y-62783915D01*
X171378222Y-62783918D01*
X171561365Y-62926464D01*
X171561371Y-62926468D01*
X171561374Y-62926470D01*
X171765497Y-63036936D01*
X171818017Y-63054966D01*
X171985015Y-63112297D01*
X171985017Y-63112297D01*
X171985019Y-63112298D01*
X172213951Y-63150500D01*
X172213952Y-63150500D01*
X172446048Y-63150500D01*
X172446049Y-63150500D01*
X172674981Y-63112298D01*
X172894503Y-63036936D01*
X173098626Y-62926470D01*
X173281784Y-62783913D01*
X173438979Y-62613153D01*
X173496191Y-62525582D01*
X173549337Y-62480226D01*
X173618568Y-62470802D01*
X173681904Y-62500304D01*
X173703809Y-62525583D01*
X173761016Y-62613147D01*
X173761019Y-62613151D01*
X173761021Y-62613153D01*
X173918216Y-62783913D01*
X173918219Y-62783915D01*
X173918222Y-62783918D01*
X174101365Y-62926464D01*
X174101371Y-62926468D01*
X174101374Y-62926470D01*
X174305497Y-63036936D01*
X174358017Y-63054966D01*
X174525015Y-63112297D01*
X174525017Y-63112297D01*
X174525019Y-63112298D01*
X174753951Y-63150500D01*
X174753952Y-63150500D01*
X174986048Y-63150500D01*
X174986049Y-63150500D01*
X175214981Y-63112298D01*
X175434503Y-63036936D01*
X175638626Y-62926470D01*
X175821784Y-62783913D01*
X175978979Y-62613153D01*
X176036191Y-62525582D01*
X176089337Y-62480226D01*
X176158568Y-62470802D01*
X176221904Y-62500304D01*
X176243809Y-62525583D01*
X176301016Y-62613147D01*
X176301019Y-62613151D01*
X176301021Y-62613153D01*
X176458216Y-62783913D01*
X176458219Y-62783915D01*
X176458222Y-62783918D01*
X176641365Y-62926464D01*
X176641371Y-62926468D01*
X176641374Y-62926470D01*
X176845497Y-63036936D01*
X176898017Y-63054966D01*
X177065015Y-63112297D01*
X177065017Y-63112297D01*
X177065019Y-63112298D01*
X177293951Y-63150500D01*
X177293952Y-63150500D01*
X177526048Y-63150500D01*
X177526049Y-63150500D01*
X177754981Y-63112298D01*
X177974503Y-63036936D01*
X178178626Y-62926470D01*
X178361784Y-62783913D01*
X178518979Y-62613153D01*
X178576191Y-62525582D01*
X178629337Y-62480226D01*
X178698568Y-62470802D01*
X178761904Y-62500304D01*
X178783809Y-62525583D01*
X178841016Y-62613147D01*
X178841019Y-62613151D01*
X178841021Y-62613153D01*
X178998216Y-62783913D01*
X178998219Y-62783915D01*
X178998222Y-62783918D01*
X179181365Y-62926464D01*
X179181371Y-62926468D01*
X179181374Y-62926470D01*
X179385497Y-63036936D01*
X179438017Y-63054966D01*
X179605015Y-63112297D01*
X179605017Y-63112297D01*
X179605019Y-63112298D01*
X179833951Y-63150500D01*
X179833952Y-63150500D01*
X180066048Y-63150500D01*
X180066049Y-63150500D01*
X180294981Y-63112298D01*
X180514503Y-63036936D01*
X180718626Y-62926470D01*
X180901784Y-62783913D01*
X181058979Y-62613153D01*
X181116191Y-62525582D01*
X181169337Y-62480226D01*
X181238568Y-62470802D01*
X181301904Y-62500304D01*
X181323809Y-62525583D01*
X181381016Y-62613147D01*
X181381019Y-62613151D01*
X181381021Y-62613153D01*
X181538216Y-62783913D01*
X181538219Y-62783915D01*
X181538222Y-62783918D01*
X181721365Y-62926464D01*
X181721371Y-62926468D01*
X181721374Y-62926470D01*
X181925497Y-63036936D01*
X181978017Y-63054966D01*
X182145015Y-63112297D01*
X182145017Y-63112297D01*
X182145019Y-63112298D01*
X182373951Y-63150500D01*
X182373952Y-63150500D01*
X182606048Y-63150500D01*
X182606049Y-63150500D01*
X182834981Y-63112298D01*
X183054503Y-63036936D01*
X183258626Y-62926470D01*
X183441784Y-62783913D01*
X183598979Y-62613153D01*
X183656191Y-62525582D01*
X183709337Y-62480226D01*
X183778568Y-62470802D01*
X183841904Y-62500304D01*
X183863809Y-62525583D01*
X183921016Y-62613147D01*
X183921019Y-62613151D01*
X183921021Y-62613153D01*
X184078216Y-62783913D01*
X184078219Y-62783915D01*
X184078222Y-62783918D01*
X184261365Y-62926464D01*
X184261371Y-62926468D01*
X184261374Y-62926470D01*
X184465497Y-63036936D01*
X184518017Y-63054966D01*
X184685015Y-63112297D01*
X184685017Y-63112297D01*
X184685019Y-63112298D01*
X184913951Y-63150500D01*
X184913952Y-63150500D01*
X185146048Y-63150500D01*
X185146049Y-63150500D01*
X185374981Y-63112298D01*
X185594503Y-63036936D01*
X185798626Y-62926470D01*
X185981784Y-62783913D01*
X186138979Y-62613153D01*
X186196191Y-62525582D01*
X186249337Y-62480226D01*
X186318568Y-62470802D01*
X186381904Y-62500304D01*
X186403809Y-62525583D01*
X186461016Y-62613147D01*
X186461019Y-62613151D01*
X186461021Y-62613153D01*
X186618216Y-62783913D01*
X186618219Y-62783915D01*
X186618222Y-62783918D01*
X186801365Y-62926464D01*
X186801371Y-62926468D01*
X186801374Y-62926470D01*
X187005497Y-63036936D01*
X187058017Y-63054966D01*
X187225015Y-63112297D01*
X187225017Y-63112297D01*
X187225019Y-63112298D01*
X187453951Y-63150500D01*
X187453952Y-63150500D01*
X187686048Y-63150500D01*
X187686049Y-63150500D01*
X187914981Y-63112298D01*
X188134503Y-63036936D01*
X188338626Y-62926470D01*
X188521784Y-62783913D01*
X188678979Y-62613153D01*
X188736191Y-62525582D01*
X188789337Y-62480226D01*
X188858568Y-62470802D01*
X188921904Y-62500304D01*
X188943809Y-62525583D01*
X189001016Y-62613147D01*
X189001019Y-62613151D01*
X189001021Y-62613153D01*
X189158216Y-62783913D01*
X189158219Y-62783915D01*
X189158222Y-62783918D01*
X189341365Y-62926464D01*
X189341371Y-62926468D01*
X189341374Y-62926470D01*
X189545497Y-63036936D01*
X189598017Y-63054966D01*
X189765015Y-63112297D01*
X189765017Y-63112297D01*
X189765019Y-63112298D01*
X189993951Y-63150500D01*
X189993952Y-63150500D01*
X190226048Y-63150500D01*
X190226049Y-63150500D01*
X190454981Y-63112298D01*
X190674503Y-63036936D01*
X190878626Y-62926470D01*
X191061784Y-62783913D01*
X191218979Y-62613153D01*
X191345924Y-62418849D01*
X191439157Y-62206300D01*
X191496134Y-61981305D01*
X191515300Y-61750000D01*
X191515300Y-61749999D01*
X191515300Y-61749993D01*
X191496135Y-61518702D01*
X191496133Y-61518691D01*
X191439157Y-61293699D01*
X191345924Y-61081151D01*
X191218981Y-60886849D01*
X191197470Y-60863482D01*
X191166548Y-60800828D01*
X191174409Y-60731402D01*
X191218556Y-60677246D01*
X191284973Y-60655556D01*
X191288700Y-60655500D01*
X191970500Y-60655500D01*
X192037539Y-60675185D01*
G37*
G04 #@! TD.AperFunction*
G04 #@! TA.AperFunction,Conductor*
G36*
X145818339Y-60675185D02*
G01*
X145864094Y-60727989D01*
X145874038Y-60797147D01*
X145845013Y-60860703D01*
X145842530Y-60863482D01*
X145821021Y-60886847D01*
X145704837Y-61064680D01*
X145651690Y-61110036D01*
X145582459Y-61119460D01*
X145519123Y-61089958D01*
X145499454Y-61067982D01*
X145469025Y-61024526D01*
X144872962Y-61620589D01*
X144855925Y-61557007D01*
X144790099Y-61442993D01*
X144697007Y-61349901D01*
X144582993Y-61284075D01*
X144519408Y-61267037D01*
X145094627Y-60691819D01*
X145155950Y-60658334D01*
X145182308Y-60655500D01*
X145751300Y-60655500D01*
X145818339Y-60675185D01*
G37*
G04 #@! TD.AperFunction*
G04 #@! TA.AperFunction,Conductor*
G36*
X154313368Y-58709955D02*
G01*
X154340438Y-58716134D01*
X154402354Y-58737799D01*
X154426066Y-58746096D01*
X154477373Y-58756710D01*
X154539034Y-58789567D01*
X154573144Y-58850545D01*
X154576092Y-58871813D01*
X154577037Y-58890318D01*
X154577037Y-58890321D01*
X154581342Y-58912254D01*
X154583222Y-58925685D01*
X154583362Y-58927349D01*
X154595618Y-59036119D01*
X154595618Y-59063885D01*
X154590043Y-59113365D01*
X154583865Y-59140436D01*
X154567414Y-59187451D01*
X154555366Y-59212469D01*
X154528873Y-59254632D01*
X154511560Y-59276341D01*
X154476341Y-59311560D01*
X154454633Y-59328872D01*
X154412474Y-59355364D01*
X154412472Y-59355365D01*
X154387450Y-59367414D01*
X154340433Y-59383865D01*
X154313364Y-59390043D01*
X154263882Y-59395618D01*
X154236116Y-59395618D01*
X154186635Y-59390043D01*
X154159566Y-59383865D01*
X154128848Y-59373117D01*
X154128841Y-59373115D01*
X154112539Y-59367410D01*
X154087526Y-59355364D01*
X154045367Y-59328874D01*
X154023658Y-59311561D01*
X153988437Y-59276340D01*
X153971124Y-59254631D01*
X153944631Y-59212468D01*
X153932586Y-59187455D01*
X153916132Y-59140434D01*
X153909957Y-59113380D01*
X153904379Y-59063871D01*
X153904379Y-59036126D01*
X153909957Y-58986615D01*
X153916132Y-58959565D01*
X153932587Y-58912538D01*
X153944627Y-58887536D01*
X153971128Y-58845360D01*
X153988433Y-58823661D01*
X154023661Y-58788433D01*
X154045360Y-58771128D01*
X154087536Y-58744627D01*
X154112538Y-58732587D01*
X154159565Y-58716132D01*
X154186616Y-58709957D01*
X154236128Y-58704379D01*
X154263883Y-58704379D01*
X154313368Y-58709955D01*
G37*
G04 #@! TD.AperFunction*
G04 #@! TA.AperFunction,Conductor*
G36*
X142667510Y-58054948D02*
G01*
X142710953Y-58082554D01*
X142713848Y-58085391D01*
X142772464Y-58135144D01*
X142779902Y-58141999D01*
X142836560Y-58198657D01*
X142853873Y-58220366D01*
X142880365Y-58262528D01*
X142892412Y-58287544D01*
X142908865Y-58334562D01*
X142915044Y-58361634D01*
X142920619Y-58411112D01*
X142920619Y-58438880D01*
X142915043Y-58488366D01*
X142908865Y-58515436D01*
X142892414Y-58562451D01*
X142880366Y-58587469D01*
X142853873Y-58629632D01*
X142836560Y-58651341D01*
X142801342Y-58686559D01*
X142779641Y-58703867D01*
X142769322Y-58710352D01*
X142769313Y-58710358D01*
X142737468Y-58730367D01*
X142712450Y-58742414D01*
X142665434Y-58758865D01*
X142638364Y-58765043D01*
X142588882Y-58770618D01*
X142561116Y-58770618D01*
X142511635Y-58765043D01*
X142484566Y-58758865D01*
X142453848Y-58748117D01*
X142453841Y-58748115D01*
X142437539Y-58742410D01*
X142412526Y-58730364D01*
X142380045Y-58709955D01*
X142370365Y-58703872D01*
X142348658Y-58686561D01*
X142311004Y-58648907D01*
X142296475Y-58631434D01*
X142295237Y-58629632D01*
X142292439Y-58625612D01*
X142230709Y-58562092D01*
X142198104Y-58500296D01*
X142204083Y-58430683D01*
X142231951Y-58387993D01*
X142536497Y-58083447D01*
X142597818Y-58049964D01*
X142667510Y-58054948D01*
G37*
G04 #@! TD.AperFunction*
G04 #@! TA.AperFunction,Conductor*
G36*
X155513380Y-57684957D02*
G01*
X155540434Y-57691132D01*
X155587455Y-57707586D01*
X155612465Y-57719629D01*
X155654631Y-57746124D01*
X155676340Y-57763437D01*
X155711561Y-57798658D01*
X155728870Y-57820362D01*
X155755369Y-57862533D01*
X155767412Y-57887542D01*
X155783866Y-57934564D01*
X155790043Y-57961630D01*
X155795619Y-58011111D01*
X155795619Y-58038882D01*
X155790043Y-58088365D01*
X155783865Y-58115435D01*
X155767413Y-58162452D01*
X155755368Y-58187464D01*
X155737726Y-58215544D01*
X155737725Y-58215543D01*
X155737718Y-58215556D01*
X155728873Y-58229632D01*
X155711562Y-58251339D01*
X155676342Y-58286559D01*
X155654634Y-58303871D01*
X155612468Y-58330366D01*
X155587448Y-58342415D01*
X155540435Y-58358865D01*
X155513365Y-58365043D01*
X155463884Y-58370618D01*
X155436117Y-58370618D01*
X155386629Y-58365042D01*
X155359560Y-58358864D01*
X155273936Y-58328904D01*
X155273937Y-58328904D01*
X155222624Y-58318289D01*
X155160962Y-58285431D01*
X155126853Y-58224453D01*
X155123905Y-58203184D01*
X155122962Y-58184688D01*
X155118878Y-58163882D01*
X155117338Y-58153890D01*
X155115998Y-58141999D01*
X155104379Y-58038881D01*
X155104379Y-58011128D01*
X155109957Y-57961614D01*
X155116132Y-57934565D01*
X155132587Y-57887538D01*
X155144627Y-57862536D01*
X155171128Y-57820360D01*
X155188433Y-57798661D01*
X155223661Y-57763433D01*
X155245360Y-57746128D01*
X155287536Y-57719627D01*
X155312538Y-57707587D01*
X155359565Y-57691132D01*
X155386615Y-57684957D01*
X155436126Y-57679379D01*
X155463872Y-57679379D01*
X155513380Y-57684957D01*
G37*
G04 #@! TD.AperFunction*
G04 #@! TA.AperFunction,Conductor*
G36*
X144371150Y-56495185D02*
G01*
X144416905Y-56547989D01*
X144427244Y-56584864D01*
X144441938Y-56708495D01*
X144460936Y-56775730D01*
X144464053Y-56782743D01*
X144467779Y-56792144D01*
X144508865Y-56909562D01*
X144515043Y-56936630D01*
X144520619Y-56986111D01*
X144520619Y-57013882D01*
X144515043Y-57063365D01*
X144508865Y-57090434D01*
X144492414Y-57137449D01*
X144480366Y-57162467D01*
X144453870Y-57204635D01*
X144436557Y-57226344D01*
X144401341Y-57261560D01*
X144379634Y-57278872D01*
X144337472Y-57305365D01*
X144312450Y-57317414D01*
X144265433Y-57333865D01*
X144238364Y-57340043D01*
X144188882Y-57345618D01*
X144161116Y-57345618D01*
X144111634Y-57340043D01*
X144084563Y-57333865D01*
X144037545Y-57317413D01*
X144012527Y-57305365D01*
X143970367Y-57278874D01*
X143948658Y-57261561D01*
X143913440Y-57226343D01*
X143896127Y-57204634D01*
X143842556Y-57119376D01*
X143839850Y-57115259D01*
X143833461Y-57105536D01*
X143827734Y-57097198D01*
X143824913Y-57093145D01*
X143763177Y-57029619D01*
X143730574Y-56967826D01*
X143736553Y-56898213D01*
X143764420Y-56855524D01*
X144108127Y-56511819D01*
X144169450Y-56478334D01*
X144195808Y-56475500D01*
X144304111Y-56475500D01*
X144371150Y-56495185D01*
G37*
G04 #@! TD.AperFunction*
G04 #@! TA.AperFunction,Conductor*
G36*
X164544455Y-52195185D02*
G01*
X164565097Y-52211819D01*
X164570049Y-52216771D01*
X164603534Y-52278094D01*
X164598550Y-52347786D01*
X164556678Y-52403719D01*
X164496252Y-52427672D01*
X164331944Y-52446185D01*
X164172305Y-52502045D01*
X164172304Y-52502046D01*
X164103471Y-52545297D01*
X164036235Y-52564297D01*
X163971529Y-52545297D01*
X163902695Y-52502046D01*
X163902694Y-52502045D01*
X163743056Y-52446185D01*
X163575003Y-52427251D01*
X163574997Y-52427251D01*
X163406943Y-52446185D01*
X163247305Y-52502045D01*
X163247302Y-52502047D01*
X163104115Y-52592018D01*
X163104109Y-52592023D01*
X162984523Y-52711609D01*
X162984518Y-52711615D01*
X162894547Y-52854802D01*
X162894545Y-52854805D01*
X162838685Y-53014443D01*
X162819751Y-53182497D01*
X162819751Y-53182502D01*
X162838685Y-53350556D01*
X162894545Y-53510194D01*
X162894547Y-53510197D01*
X162984518Y-53653384D01*
X162984523Y-53653390D01*
X163104109Y-53772976D01*
X163104115Y-53772981D01*
X163247302Y-53862952D01*
X163247305Y-53862954D01*
X163247309Y-53862955D01*
X163247310Y-53862956D01*
X163319913Y-53888360D01*
X163406943Y-53918814D01*
X163574997Y-53937749D01*
X163575000Y-53937749D01*
X163575003Y-53937749D01*
X163675835Y-53926387D01*
X163743059Y-53918813D01*
X163902690Y-53862956D01*
X163950929Y-53832644D01*
X163971528Y-53819702D01*
X164038764Y-53800701D01*
X164103472Y-53819702D01*
X164140275Y-53842827D01*
X164172310Y-53862956D01*
X164331941Y-53918813D01*
X164373955Y-53923547D01*
X164499997Y-53937749D01*
X164500000Y-53937749D01*
X164500003Y-53937749D01*
X164668056Y-53918814D01*
X164668059Y-53918813D01*
X164827690Y-53862956D01*
X164827692Y-53862954D01*
X164827694Y-53862954D01*
X164827697Y-53862952D01*
X164970884Y-53772981D01*
X164970885Y-53772980D01*
X164970890Y-53772977D01*
X165090477Y-53653390D01*
X165111630Y-53619726D01*
X165180452Y-53510197D01*
X165180454Y-53510194D01*
X165180454Y-53510192D01*
X165180456Y-53510190D01*
X165236313Y-53350559D01*
X165236313Y-53350557D01*
X165236314Y-53350555D01*
X165254827Y-53186248D01*
X165281893Y-53121834D01*
X165339488Y-53082278D01*
X165409325Y-53080141D01*
X165465727Y-53112449D01*
X166715805Y-54362528D01*
X167889713Y-55536436D01*
X167923198Y-55597759D01*
X167918214Y-55667451D01*
X167876342Y-55723384D01*
X167810878Y-55747801D01*
X167802853Y-55748114D01*
X159150321Y-55805415D01*
X159083153Y-55786175D01*
X159037049Y-55733675D01*
X159025500Y-55681418D01*
X159025500Y-54885928D01*
X159000502Y-54760261D01*
X159000501Y-54760260D01*
X159000501Y-54760256D01*
X158951465Y-54641873D01*
X158951464Y-54641872D01*
X158951461Y-54641866D01*
X158880277Y-54535332D01*
X158856058Y-54511113D01*
X158789669Y-54444724D01*
X158589696Y-54244751D01*
X157964674Y-53619727D01*
X157964673Y-53619726D01*
X157964669Y-53619723D01*
X157858127Y-53548535D01*
X157739744Y-53499499D01*
X157739738Y-53499497D01*
X157614071Y-53474500D01*
X157614069Y-53474500D01*
X155861088Y-53474500D01*
X155795117Y-53455494D01*
X155786168Y-53449871D01*
X155777690Y-53444544D01*
X155777689Y-53444543D01*
X155777688Y-53444543D01*
X155618057Y-53388686D01*
X155450003Y-53369751D01*
X155449997Y-53369751D01*
X155281943Y-53388685D01*
X155122305Y-53444545D01*
X155122302Y-53444547D01*
X154979115Y-53534518D01*
X154979109Y-53534523D01*
X154859523Y-53654109D01*
X154859518Y-53654115D01*
X154769547Y-53797302D01*
X154769545Y-53797305D01*
X154713685Y-53956943D01*
X154694751Y-54124997D01*
X154694751Y-54125002D01*
X154713685Y-54293056D01*
X154769545Y-54452694D01*
X154769547Y-54452697D01*
X154859518Y-54595884D01*
X154859523Y-54595890D01*
X154979109Y-54715476D01*
X154979115Y-54715481D01*
X155122302Y-54805452D01*
X155122305Y-54805454D01*
X155122309Y-54805455D01*
X155122310Y-54805456D01*
X155194913Y-54830860D01*
X155281943Y-54861314D01*
X155449997Y-54880249D01*
X155450000Y-54880249D01*
X155450003Y-54880249D01*
X155550835Y-54868887D01*
X155618059Y-54861313D01*
X155777690Y-54805456D01*
X155795117Y-54794506D01*
X155861088Y-54775500D01*
X157229192Y-54775500D01*
X157296231Y-54795185D01*
X157316873Y-54811819D01*
X157688181Y-55183126D01*
X157721666Y-55244449D01*
X157724500Y-55270807D01*
X157724500Y-55691676D01*
X157704815Y-55758715D01*
X157652011Y-55804470D01*
X157601321Y-55815673D01*
X155233532Y-55831355D01*
X153249181Y-55844497D01*
X153248360Y-55844500D01*
X151279500Y-55844500D01*
X151212461Y-55824815D01*
X151166706Y-55772011D01*
X151155500Y-55720500D01*
X151155500Y-52299500D01*
X151175185Y-52232461D01*
X151227989Y-52186706D01*
X151279500Y-52175500D01*
X156723620Y-52175500D01*
X163373620Y-52175500D01*
X164477416Y-52175500D01*
X164544455Y-52195185D01*
G37*
G04 #@! TD.AperFunction*
G04 #@! TA.AperFunction,Conductor*
G36*
X191001941Y-38500561D02*
G01*
X191592598Y-38519123D01*
X191600340Y-38519610D01*
X192186734Y-38575040D01*
X192194459Y-38576016D01*
X192776188Y-38668153D01*
X192783802Y-38669605D01*
X193358649Y-38798098D01*
X193366172Y-38800031D01*
X193931789Y-38964358D01*
X193939139Y-38966746D01*
X194493338Y-39166270D01*
X194500561Y-39169129D01*
X195041113Y-39403047D01*
X195048162Y-39406364D01*
X195572951Y-39673758D01*
X195579777Y-39677511D01*
X196086734Y-39977324D01*
X196093311Y-39981498D01*
X196580446Y-40312555D01*
X196586748Y-40317134D01*
X197052118Y-40678112D01*
X197058121Y-40683077D01*
X197499940Y-41072593D01*
X197505618Y-41077926D01*
X197922073Y-41494381D01*
X197927406Y-41500059D01*
X198316922Y-41941878D01*
X198321887Y-41947881D01*
X198682865Y-42413251D01*
X198687444Y-42419553D01*
X199018501Y-42906688D01*
X199022675Y-42913265D01*
X199322488Y-43420222D01*
X199326241Y-43427048D01*
X199593635Y-43951837D01*
X199596952Y-43958886D01*
X199830868Y-44499434D01*
X199833735Y-44506676D01*
X200033246Y-45060840D01*
X200035646Y-45068230D01*
X200064518Y-45167605D01*
X200199965Y-45633816D01*
X200201903Y-45641361D01*
X200330390Y-46216178D01*
X200331849Y-46223830D01*
X200423982Y-46805538D01*
X200424959Y-46813267D01*
X200480388Y-47399643D01*
X200480877Y-47407417D01*
X200499439Y-47998058D01*
X200499500Y-48001953D01*
X200499500Y-49020277D01*
X200479815Y-49087316D01*
X200427011Y-49133071D01*
X200357853Y-49143015D01*
X200330776Y-49135591D01*
X200330763Y-49135627D01*
X200330760Y-49135638D01*
X200330759Y-49135637D01*
X200330709Y-49135779D01*
X200328237Y-49134894D01*
X200328084Y-49134853D01*
X200327856Y-49134758D01*
X200327838Y-49134752D01*
X200251751Y-49111689D01*
X200251741Y-49111686D01*
X200251739Y-49111686D01*
X200251735Y-49111685D01*
X200251730Y-49111684D01*
X200204359Y-49102273D01*
X200204343Y-49102271D01*
X200125336Y-49094500D01*
X193800127Y-49094500D01*
X193762868Y-49096215D01*
X193762866Y-49096215D01*
X193762848Y-49096216D01*
X193762833Y-49096217D01*
X193740201Y-49098305D01*
X193740158Y-49098310D01*
X193703070Y-49103472D01*
X193703027Y-49103479D01*
X193700975Y-49103861D01*
X193700974Y-49103862D01*
X193629197Y-49124243D01*
X193586717Y-49140662D01*
X193586695Y-49140671D01*
X193519815Y-49173897D01*
X193519814Y-49173898D01*
X193518030Y-49174999D01*
X193518012Y-49175011D01*
X193487138Y-49196110D01*
X193487121Y-49196122D01*
X193468913Y-49209840D01*
X193468905Y-49209846D01*
X193440132Y-49233678D01*
X190769548Y-51661481D01*
X190769541Y-51661488D01*
X190739833Y-51691466D01*
X190739831Y-51691468D01*
X190722677Y-51710683D01*
X190722669Y-51710692D01*
X190722668Y-51710694D01*
X190716754Y-51718056D01*
X190696258Y-51743568D01*
X190696232Y-51743601D01*
X190694983Y-51745334D01*
X190694973Y-51745349D01*
X190653047Y-51818466D01*
X190632302Y-51865356D01*
X190632297Y-51865369D01*
X190606392Y-51945585D01*
X190605934Y-51947752D01*
X190599373Y-51989425D01*
X190596696Y-52015050D01*
X190596693Y-52015088D01*
X190594500Y-52057195D01*
X190594500Y-55473994D01*
X190574815Y-55541033D01*
X190522011Y-55586788D01*
X190471321Y-55597991D01*
X175917171Y-55694375D01*
X175850003Y-55675135D01*
X175803899Y-55622635D01*
X175793498Y-55553544D01*
X175822101Y-55489798D01*
X175828646Y-55482720D01*
X175840477Y-55470890D01*
X175930452Y-55327697D01*
X175930454Y-55327694D01*
X175930454Y-55327692D01*
X175930456Y-55327690D01*
X175986313Y-55168059D01*
X175986313Y-55168058D01*
X175986314Y-55168056D01*
X176005249Y-55000002D01*
X176005249Y-54999997D01*
X175986314Y-54831943D01*
X175944553Y-54712597D01*
X175930456Y-54672310D01*
X175930455Y-54672309D01*
X175930454Y-54672305D01*
X175930452Y-54672302D01*
X175840481Y-54529115D01*
X175840476Y-54529109D01*
X175720890Y-54409523D01*
X175720884Y-54409518D01*
X175577697Y-54319547D01*
X175577694Y-54319545D01*
X175418056Y-54263685D01*
X175250003Y-54244751D01*
X175249997Y-54244751D01*
X175081943Y-54263685D01*
X174922307Y-54319545D01*
X174815972Y-54386361D01*
X174748736Y-54405361D01*
X174684028Y-54386361D01*
X174577692Y-54319545D01*
X174577691Y-54319544D01*
X174577690Y-54319544D01*
X174539370Y-54306135D01*
X174418056Y-54263685D01*
X174250003Y-54244751D01*
X174249997Y-54244751D01*
X174081943Y-54263685D01*
X173922307Y-54319545D01*
X173815972Y-54386361D01*
X173748736Y-54405361D01*
X173684028Y-54386361D01*
X173577692Y-54319545D01*
X173577691Y-54319544D01*
X173577690Y-54319544D01*
X173539370Y-54306135D01*
X173418056Y-54263685D01*
X173250003Y-54244751D01*
X173249997Y-54244751D01*
X173081943Y-54263685D01*
X172922305Y-54319545D01*
X172922302Y-54319547D01*
X172779115Y-54409518D01*
X172779109Y-54409523D01*
X172659523Y-54529109D01*
X172659518Y-54529115D01*
X172569547Y-54672302D01*
X172569545Y-54672305D01*
X172513685Y-54831943D01*
X172494751Y-54999997D01*
X172494751Y-55000002D01*
X172513685Y-55168056D01*
X172569545Y-55327694D01*
X172569547Y-55327697D01*
X172659518Y-55470884D01*
X172659523Y-55470890D01*
X172701452Y-55512819D01*
X172734937Y-55574142D01*
X172729953Y-55643834D01*
X172688081Y-55699767D01*
X172622617Y-55724184D01*
X172613771Y-55724500D01*
X170322585Y-55724500D01*
X170255546Y-55704815D01*
X170234904Y-55688181D01*
X166096720Y-51549997D01*
X173194751Y-51549997D01*
X173194751Y-51550002D01*
X173213685Y-51718056D01*
X173269545Y-51877694D01*
X173269547Y-51877697D01*
X173359518Y-52020884D01*
X173359523Y-52020890D01*
X173479109Y-52140476D01*
X173479115Y-52140481D01*
X173622302Y-52230452D01*
X173622305Y-52230454D01*
X173622309Y-52230455D01*
X173622310Y-52230456D01*
X173694913Y-52255860D01*
X173781943Y-52286314D01*
X173949997Y-52305249D01*
X173950000Y-52305249D01*
X173950003Y-52305249D01*
X174118056Y-52286314D01*
X174118059Y-52286313D01*
X174277690Y-52230456D01*
X174277692Y-52230454D01*
X174277694Y-52230454D01*
X174277697Y-52230452D01*
X174420884Y-52140481D01*
X174420885Y-52140480D01*
X174420890Y-52140477D01*
X174540477Y-52020890D01*
X174544123Y-52015088D01*
X174630452Y-51877697D01*
X174630454Y-51877694D01*
X174630454Y-51877692D01*
X174630456Y-51877690D01*
X174686313Y-51718059D01*
X174686313Y-51718058D01*
X174686314Y-51718056D01*
X174705249Y-51550002D01*
X174705249Y-51549997D01*
X174686314Y-51381943D01*
X174630454Y-51222305D01*
X174630452Y-51222302D01*
X174540481Y-51079115D01*
X174540476Y-51079109D01*
X174420890Y-50959523D01*
X174420884Y-50959518D01*
X174277697Y-50869547D01*
X174277694Y-50869545D01*
X174118056Y-50813685D01*
X173950003Y-50794751D01*
X173949997Y-50794751D01*
X173781943Y-50813685D01*
X173622305Y-50869545D01*
X173622302Y-50869547D01*
X173479115Y-50959518D01*
X173479109Y-50959523D01*
X173359523Y-51079109D01*
X173359518Y-51079115D01*
X173269547Y-51222302D01*
X173269545Y-51222305D01*
X173213685Y-51381943D01*
X173194751Y-51549997D01*
X166096720Y-51549997D01*
X165344355Y-50797632D01*
X165344351Y-50797629D01*
X165217343Y-50712764D01*
X165217334Y-50712759D01*
X165076205Y-50654302D01*
X165076197Y-50654300D01*
X164926384Y-50624500D01*
X164926380Y-50624500D01*
X163526380Y-50624500D01*
X162286343Y-50624500D01*
X162219304Y-50604815D01*
X162173549Y-50552011D01*
X162163605Y-50482853D01*
X162169301Y-50459546D01*
X162182831Y-50420876D01*
X162201313Y-50368059D01*
X162203348Y-50349997D01*
X166394751Y-50349997D01*
X166394751Y-50350002D01*
X166413685Y-50518056D01*
X166469545Y-50677694D01*
X166469547Y-50677697D01*
X166559518Y-50820884D01*
X166559523Y-50820890D01*
X166679109Y-50940476D01*
X166679115Y-50940481D01*
X166822302Y-51030452D01*
X166822305Y-51030454D01*
X166822309Y-51030455D01*
X166822310Y-51030456D01*
X166894913Y-51055860D01*
X166981943Y-51086314D01*
X167149997Y-51105249D01*
X167150000Y-51105249D01*
X167150003Y-51105249D01*
X167318056Y-51086314D01*
X167318059Y-51086313D01*
X167477690Y-51030456D01*
X167477692Y-51030454D01*
X167477694Y-51030454D01*
X167477697Y-51030452D01*
X167620884Y-50940481D01*
X167620885Y-50940480D01*
X167620890Y-50940477D01*
X167740477Y-50820890D01*
X167755091Y-50797632D01*
X167830452Y-50677697D01*
X167830454Y-50677694D01*
X167830454Y-50677692D01*
X167830456Y-50677690D01*
X167886313Y-50518059D01*
X167886313Y-50518058D01*
X167886314Y-50518056D01*
X167905249Y-50350002D01*
X167905249Y-50349997D01*
X167886314Y-50181943D01*
X167834967Y-50035201D01*
X167830456Y-50022310D01*
X167830455Y-50022309D01*
X167830454Y-50022305D01*
X167830452Y-50022302D01*
X167740481Y-49879115D01*
X167740476Y-49879109D01*
X167620890Y-49759523D01*
X167620884Y-49759518D01*
X167477697Y-49669547D01*
X167477694Y-49669545D01*
X167318056Y-49613685D01*
X167150003Y-49594751D01*
X167149997Y-49594751D01*
X166981943Y-49613685D01*
X166822305Y-49669545D01*
X166822302Y-49669547D01*
X166679115Y-49759518D01*
X166679109Y-49759523D01*
X166559523Y-49879109D01*
X166559518Y-49879115D01*
X166469547Y-50022302D01*
X166469545Y-50022305D01*
X166413685Y-50181943D01*
X166394751Y-50349997D01*
X162203348Y-50349997D01*
X162216157Y-50236314D01*
X162220249Y-50200002D01*
X162220249Y-50199997D01*
X162201314Y-50031943D01*
X162145454Y-49872305D01*
X162145452Y-49872302D01*
X162055481Y-49729115D01*
X162055476Y-49729109D01*
X161935888Y-49609521D01*
X161934609Y-49608501D01*
X161933999Y-49607632D01*
X161930966Y-49604599D01*
X161931497Y-49604067D01*
X161894470Y-49551312D01*
X161891623Y-49481500D01*
X161926971Y-49421231D01*
X161959511Y-49399180D01*
X162092639Y-49337102D01*
X162271877Y-49211598D01*
X162426598Y-49056877D01*
X162552102Y-48877639D01*
X162644575Y-48679330D01*
X162667550Y-48593583D01*
X162703914Y-48533925D01*
X162766761Y-48503395D01*
X162836137Y-48511689D01*
X162890015Y-48556174D01*
X162906591Y-48591744D01*
X162928058Y-48667196D01*
X162928066Y-48667216D01*
X163023059Y-48857989D01*
X163151500Y-49028071D01*
X163309000Y-49171651D01*
X163309002Y-49171653D01*
X163490201Y-49283846D01*
X163490207Y-49283849D01*
X163688941Y-49360838D01*
X163755000Y-49373186D01*
X163755000Y-48683012D01*
X163812007Y-48715925D01*
X163939174Y-48750000D01*
X164070826Y-48750000D01*
X164197993Y-48715925D01*
X164255000Y-48683012D01*
X164255000Y-49373185D01*
X164321058Y-49360838D01*
X164519792Y-49283849D01*
X164519798Y-49283846D01*
X164700997Y-49171653D01*
X164700999Y-49171651D01*
X164858499Y-49028071D01*
X164973933Y-48875213D01*
X165030042Y-48833577D01*
X165099754Y-48828886D01*
X165126005Y-48837893D01*
X165192442Y-48869389D01*
X165259481Y-48889074D01*
X165259485Y-48889074D01*
X165259487Y-48889075D01*
X165275033Y-48891310D01*
X165373727Y-48905500D01*
X165373730Y-48905500D01*
X167936921Y-48905500D01*
X167936930Y-48905500D01*
X167983031Y-48902871D01*
X168011039Y-48899666D01*
X168056529Y-48891816D01*
X168058707Y-48891311D01*
X168145303Y-48860542D01*
X168145302Y-48860542D01*
X168145306Y-48860541D01*
X168195468Y-48836002D01*
X168272918Y-48786520D01*
X168274648Y-48785115D01*
X168308743Y-48754045D01*
X168328450Y-48733919D01*
X168358079Y-48699997D01*
X174244751Y-48699997D01*
X174244751Y-48700002D01*
X174263685Y-48868056D01*
X174280050Y-48914823D01*
X174319544Y-49027690D01*
X174320681Y-49029500D01*
X174323529Y-49034033D01*
X174342525Y-49101270D01*
X174323529Y-49165967D01*
X174323523Y-49165977D01*
X174319544Y-49172310D01*
X174318987Y-49173903D01*
X174263685Y-49331943D01*
X174244751Y-49499997D01*
X174244751Y-49500002D01*
X174263685Y-49668056D01*
X174319545Y-49827694D01*
X174319547Y-49827697D01*
X174409518Y-49970884D01*
X174409523Y-49970890D01*
X174529109Y-50090476D01*
X174529115Y-50090481D01*
X174672302Y-50180452D01*
X174672305Y-50180454D01*
X174672309Y-50180455D01*
X174672310Y-50180456D01*
X174676560Y-50181943D01*
X174831943Y-50236314D01*
X174999997Y-50255249D01*
X175000000Y-50255249D01*
X175000003Y-50255249D01*
X175168056Y-50236314D01*
X175185000Y-50230385D01*
X175327690Y-50180456D01*
X175384027Y-50145057D01*
X175451264Y-50126056D01*
X175515973Y-50145057D01*
X175572306Y-50180454D01*
X175572307Y-50180454D01*
X175572310Y-50180456D01*
X175628170Y-50200002D01*
X175731943Y-50236314D01*
X175899997Y-50255249D01*
X175900000Y-50255249D01*
X175900003Y-50255249D01*
X176068056Y-50236314D01*
X176085000Y-50230385D01*
X176227690Y-50180456D01*
X176227692Y-50180454D01*
X176227694Y-50180454D01*
X176227697Y-50180452D01*
X176370884Y-50090481D01*
X176370885Y-50090480D01*
X176370890Y-50090477D01*
X176490477Y-49970890D01*
X176490481Y-49970884D01*
X176580452Y-49827697D01*
X176580454Y-49827694D01*
X176580454Y-49827692D01*
X176580456Y-49827690D01*
X176636313Y-49668059D01*
X176636313Y-49668058D01*
X176636314Y-49668056D01*
X176655249Y-49500002D01*
X176655249Y-49499997D01*
X176636895Y-49337103D01*
X176636313Y-49331941D01*
X176603290Y-49237565D01*
X176580457Y-49172312D01*
X176580456Y-49172310D01*
X176576475Y-49165975D01*
X176557472Y-49098742D01*
X176576475Y-49034024D01*
X176580456Y-49027690D01*
X176636313Y-48868059D01*
X176645781Y-48784029D01*
X176655249Y-48700002D01*
X176655249Y-48699997D01*
X176636314Y-48531943D01*
X176602051Y-48434025D01*
X176580456Y-48372310D01*
X176580455Y-48372309D01*
X176580454Y-48372305D01*
X176580452Y-48372302D01*
X176490481Y-48229115D01*
X176490476Y-48229109D01*
X176370890Y-48109523D01*
X176370884Y-48109518D01*
X176227697Y-48019547D01*
X176227694Y-48019545D01*
X176068056Y-47963685D01*
X175900003Y-47944751D01*
X175899997Y-47944751D01*
X175731943Y-47963685D01*
X175572307Y-48019545D01*
X175515971Y-48054943D01*
X175448734Y-48073943D01*
X175384029Y-48054943D01*
X175327692Y-48019545D01*
X175327691Y-48019544D01*
X175327690Y-48019544D01*
X175277418Y-48001953D01*
X175168056Y-47963685D01*
X175000003Y-47944751D01*
X174999997Y-47944751D01*
X174831943Y-47963685D01*
X174672305Y-48019545D01*
X174672302Y-48019547D01*
X174529115Y-48109518D01*
X174529109Y-48109523D01*
X174409523Y-48229109D01*
X174409518Y-48229115D01*
X174319547Y-48372302D01*
X174319545Y-48372305D01*
X174263685Y-48531943D01*
X174244751Y-48699997D01*
X168358079Y-48699997D01*
X168358800Y-48699172D01*
X169213713Y-47599997D01*
X182769751Y-47599997D01*
X182769751Y-47600002D01*
X182788685Y-47768056D01*
X182844545Y-47927692D01*
X182903506Y-48021528D01*
X182922506Y-48088765D01*
X182903506Y-48153472D01*
X182844545Y-48247307D01*
X182788685Y-48406943D01*
X182769751Y-48574997D01*
X182769751Y-48575002D01*
X182788685Y-48743056D01*
X182829796Y-48860542D01*
X182840562Y-48891311D01*
X182844545Y-48902692D01*
X182911361Y-49009028D01*
X182930361Y-49076264D01*
X182911361Y-49140972D01*
X182844545Y-49247307D01*
X182788685Y-49406943D01*
X182769751Y-49574997D01*
X182769751Y-49575002D01*
X182788685Y-49743056D01*
X182844545Y-49902694D01*
X182844547Y-49902697D01*
X182934518Y-50045884D01*
X182934523Y-50045890D01*
X183054109Y-50165476D01*
X183054115Y-50165481D01*
X183197302Y-50255452D01*
X183197305Y-50255454D01*
X183197309Y-50255455D01*
X183197310Y-50255456D01*
X183238749Y-50269956D01*
X183356943Y-50311314D01*
X183524997Y-50330249D01*
X183525000Y-50330249D01*
X183525003Y-50330249D01*
X183693056Y-50311314D01*
X183693059Y-50311313D01*
X183852690Y-50255456D01*
X183852692Y-50255454D01*
X183852694Y-50255454D01*
X183852697Y-50255452D01*
X183995884Y-50165481D01*
X183995885Y-50165480D01*
X183995890Y-50165477D01*
X184004819Y-50156548D01*
X184066142Y-50123063D01*
X184135834Y-50128047D01*
X184180181Y-50156548D01*
X184189109Y-50165476D01*
X184189115Y-50165481D01*
X184332302Y-50255452D01*
X184332305Y-50255454D01*
X184332309Y-50255455D01*
X184332310Y-50255456D01*
X184373749Y-50269956D01*
X184491943Y-50311314D01*
X184659997Y-50330249D01*
X184660000Y-50330249D01*
X184660003Y-50330249D01*
X184828056Y-50311314D01*
X184828059Y-50311313D01*
X184987690Y-50255456D01*
X184987692Y-50255454D01*
X184987694Y-50255454D01*
X184987697Y-50255452D01*
X185130884Y-50165481D01*
X185130885Y-50165479D01*
X185130890Y-50165477D01*
X185130893Y-50165473D01*
X185136333Y-50161136D01*
X185137363Y-50162428D01*
X185191142Y-50133063D01*
X185260834Y-50138047D01*
X185298020Y-50161946D01*
X185298667Y-50161136D01*
X185304115Y-50165481D01*
X185447302Y-50255452D01*
X185447305Y-50255454D01*
X185447309Y-50255455D01*
X185447310Y-50255456D01*
X185488749Y-50269956D01*
X185606943Y-50311314D01*
X185774997Y-50330249D01*
X185775000Y-50330249D01*
X185775003Y-50330249D01*
X185943056Y-50311314D01*
X185943059Y-50311313D01*
X186102690Y-50255456D01*
X186102692Y-50255454D01*
X186102694Y-50255454D01*
X186102697Y-50255452D01*
X186245884Y-50165481D01*
X186245885Y-50165480D01*
X186245890Y-50165477D01*
X186365477Y-50045890D01*
X186372192Y-50035203D01*
X186455452Y-49902697D01*
X186455454Y-49902694D01*
X186455454Y-49902692D01*
X186455456Y-49902690D01*
X186511313Y-49743059D01*
X186511313Y-49743058D01*
X186511314Y-49743056D01*
X186530249Y-49575002D01*
X186530249Y-49574997D01*
X186511314Y-49406943D01*
X186486875Y-49337100D01*
X186455456Y-49247310D01*
X186455454Y-49247307D01*
X186455454Y-49247306D01*
X186410020Y-49175000D01*
X186388638Y-49140971D01*
X186369638Y-49073737D01*
X186388639Y-49009028D01*
X186455456Y-48902690D01*
X186511313Y-48743059D01*
X186511313Y-48743058D01*
X186511314Y-48743056D01*
X186530249Y-48575002D01*
X186530249Y-48574997D01*
X186511314Y-48406943D01*
X186481762Y-48322489D01*
X186455456Y-48247310D01*
X186455454Y-48247307D01*
X186455454Y-48247306D01*
X186396494Y-48153473D01*
X186377493Y-48086236D01*
X186396494Y-48021527D01*
X186455454Y-47927693D01*
X186455453Y-47927693D01*
X186455456Y-47927690D01*
X186511313Y-47768059D01*
X186511313Y-47768058D01*
X186511314Y-47768056D01*
X186530249Y-47600002D01*
X186530249Y-47599997D01*
X186511314Y-47431943D01*
X186455454Y-47272305D01*
X186455452Y-47272302D01*
X186365481Y-47129115D01*
X186365476Y-47129109D01*
X186365078Y-47128711D01*
X189899500Y-47128711D01*
X189899500Y-47371288D01*
X189931161Y-47611785D01*
X189993947Y-47846104D01*
X190086773Y-48070205D01*
X190086777Y-48070214D01*
X190101893Y-48096396D01*
X190208064Y-48280289D01*
X190208066Y-48280292D01*
X190208067Y-48280293D01*
X190355733Y-48472736D01*
X190355739Y-48472743D01*
X190527256Y-48644260D01*
X190527263Y-48644266D01*
X190599897Y-48700000D01*
X190719711Y-48791936D01*
X190929788Y-48913224D01*
X191153900Y-49006054D01*
X191388211Y-49068838D01*
X191528568Y-49087316D01*
X191628711Y-49100500D01*
X191628712Y-49100500D01*
X191871289Y-49100500D01*
X191919388Y-49094167D01*
X192111789Y-49068838D01*
X192346100Y-49006054D01*
X192570212Y-48913224D01*
X192780289Y-48791936D01*
X192972738Y-48644265D01*
X193144265Y-48472738D01*
X193291936Y-48280289D01*
X193413224Y-48070212D01*
X193506054Y-47846100D01*
X193568838Y-47611789D01*
X193600500Y-47371288D01*
X193600500Y-47128712D01*
X193597527Y-47106133D01*
X193577269Y-46952252D01*
X193568838Y-46888211D01*
X193506054Y-46653900D01*
X193413224Y-46429788D01*
X193291936Y-46219711D01*
X193144265Y-46027262D01*
X193144260Y-46027256D01*
X192972743Y-45855739D01*
X192972736Y-45855733D01*
X192780293Y-45708067D01*
X192780292Y-45708066D01*
X192780289Y-45708064D01*
X192608661Y-45608974D01*
X192570214Y-45586777D01*
X192570205Y-45586773D01*
X192346104Y-45493947D01*
X192111785Y-45431161D01*
X191871289Y-45399500D01*
X191871288Y-45399500D01*
X191628712Y-45399500D01*
X191628711Y-45399500D01*
X191388214Y-45431161D01*
X191153895Y-45493947D01*
X190929794Y-45586773D01*
X190929785Y-45586777D01*
X190719706Y-45708067D01*
X190527263Y-45855733D01*
X190527256Y-45855739D01*
X190355739Y-46027256D01*
X190355733Y-46027263D01*
X190208067Y-46219706D01*
X190086777Y-46429785D01*
X190086773Y-46429794D01*
X189993947Y-46653895D01*
X189931161Y-46888214D01*
X189899500Y-47128711D01*
X186365078Y-47128711D01*
X186245890Y-47009523D01*
X186245884Y-47009518D01*
X186102697Y-46919547D01*
X186102694Y-46919545D01*
X185943056Y-46863685D01*
X185775003Y-46844751D01*
X185774997Y-46844751D01*
X185606943Y-46863685D01*
X185447305Y-46919545D01*
X185447302Y-46919547D01*
X185304115Y-47009518D01*
X185298667Y-47013864D01*
X185297636Y-47012571D01*
X185243858Y-47041937D01*
X185174166Y-47036953D01*
X185136979Y-47013053D01*
X185136333Y-47013864D01*
X185130884Y-47009518D01*
X184987697Y-46919547D01*
X184987694Y-46919545D01*
X184828056Y-46863685D01*
X184660003Y-46844751D01*
X184659997Y-46844751D01*
X184491943Y-46863685D01*
X184332305Y-46919545D01*
X184332302Y-46919547D01*
X184189115Y-47009518D01*
X184189109Y-47009523D01*
X184180181Y-47018452D01*
X184118858Y-47051937D01*
X184049166Y-47046953D01*
X184004819Y-47018452D01*
X183995890Y-47009523D01*
X183995884Y-47009518D01*
X183852697Y-46919547D01*
X183852694Y-46919545D01*
X183693056Y-46863685D01*
X183525003Y-46844751D01*
X183524997Y-46844751D01*
X183356943Y-46863685D01*
X183197305Y-46919545D01*
X183197302Y-46919547D01*
X183054115Y-47009518D01*
X183054109Y-47009523D01*
X182934523Y-47129109D01*
X182934518Y-47129115D01*
X182844547Y-47272302D01*
X182844545Y-47272305D01*
X182788685Y-47431943D01*
X182769751Y-47599997D01*
X169213713Y-47599997D01*
X169911089Y-46703370D01*
X169967786Y-46662539D01*
X170008969Y-46655500D01*
X176375331Y-46655500D01*
X176375336Y-46655500D01*
X176454713Y-46647655D01*
X176502315Y-46638153D01*
X176578168Y-46615110D01*
X176578641Y-46614914D01*
X176617747Y-46596200D01*
X176640725Y-46583653D01*
X176667591Y-46567608D01*
X176761785Y-46482619D01*
X176805699Y-46428275D01*
X176865194Y-46327964D01*
X176865389Y-46327491D01*
X176888153Y-46252315D01*
X176897655Y-46204713D01*
X176905500Y-46125336D01*
X176905500Y-41943342D01*
X192288416Y-41943342D01*
X192288416Y-41943343D01*
X192308080Y-42155559D01*
X192308081Y-42155562D01*
X192366401Y-42360539D01*
X192366409Y-42360559D01*
X192461403Y-42551333D01*
X192470177Y-42562952D01*
X192470178Y-42562952D01*
X192960380Y-42072751D01*
X192977418Y-42136336D01*
X193043244Y-42250350D01*
X193136336Y-42343442D01*
X193250350Y-42409268D01*
X193313933Y-42426305D01*
X192826334Y-42913902D01*
X192928547Y-42977190D01*
X192928551Y-42977192D01*
X193127279Y-43054179D01*
X193127284Y-43054180D01*
X193336782Y-43093343D01*
X193549904Y-43093343D01*
X193759401Y-43054180D01*
X193759406Y-43054179D01*
X193958132Y-42977193D01*
X193958137Y-42977190D01*
X193966070Y-42972279D01*
X194033430Y-42953720D01*
X194100130Y-42974526D01*
X194144994Y-43028089D01*
X194153777Y-43097404D01*
X194143734Y-43130108D01*
X194059820Y-43310062D01*
X194059816Y-43310071D01*
X194003187Y-43521414D01*
X194003187Y-43521418D01*
X193984117Y-43739391D01*
X193984117Y-43739396D01*
X194003187Y-43957369D01*
X194003187Y-43957373D01*
X194059816Y-44168716D01*
X194059818Y-44168720D01*
X194059819Y-44168724D01*
X194069711Y-44189937D01*
X194152291Y-44367032D01*
X194152292Y-44367033D01*
X194277796Y-44546271D01*
X194432517Y-44700992D01*
X194611755Y-44826496D01*
X194810064Y-44918969D01*
X195021417Y-44975601D01*
X195204320Y-44991602D01*
X195239392Y-44994671D01*
X195239394Y-44994671D01*
X195239396Y-44994671D01*
X195326584Y-44987043D01*
X195457371Y-44975601D01*
X195515038Y-44960149D01*
X195584884Y-44961812D01*
X195642747Y-45000974D01*
X195670252Y-45065202D01*
X195658666Y-45134104D01*
X195634811Y-45167605D01*
X195527879Y-45274537D01*
X195472068Y-45351352D01*
X195472067Y-45351355D01*
X195432864Y-45472008D01*
X195432864Y-45598881D01*
X195446667Y-45641361D01*
X195472067Y-45719535D01*
X195472068Y-45719537D01*
X195472070Y-45719540D01*
X195527875Y-45796347D01*
X195527882Y-45796356D01*
X196774535Y-47043009D01*
X196851349Y-47098819D01*
X196851355Y-47098823D01*
X196943343Y-47128711D01*
X196972008Y-47138025D01*
X196972009Y-47138025D01*
X196972012Y-47138026D01*
X196972015Y-47138026D01*
X197098875Y-47138026D01*
X197098878Y-47138026D01*
X197219535Y-47098823D01*
X197296354Y-47043010D01*
X198543009Y-45796354D01*
X198598823Y-45719535D01*
X198638026Y-45598878D01*
X198638026Y-45472012D01*
X198598823Y-45351355D01*
X198543010Y-45274536D01*
X197969461Y-44700987D01*
X197296354Y-44027880D01*
X197219537Y-43972068D01*
X197219535Y-43972067D01*
X197189370Y-43962266D01*
X197098881Y-43932864D01*
X197098878Y-43932864D01*
X196972012Y-43932864D01*
X196972008Y-43932864D01*
X196851355Y-43972067D01*
X196851349Y-43972070D01*
X196774542Y-44027875D01*
X196774539Y-44027877D01*
X196667605Y-44134811D01*
X196606282Y-44168295D01*
X196536590Y-44163311D01*
X196480657Y-44121439D01*
X196456240Y-44055974D01*
X196460148Y-44015041D01*
X196475601Y-43957371D01*
X196494671Y-43739394D01*
X196475601Y-43521417D01*
X196418969Y-43310064D01*
X196326496Y-43111756D01*
X196326494Y-43111753D01*
X196326493Y-43111751D01*
X196200993Y-42932518D01*
X196175163Y-42906688D01*
X196046271Y-42777796D01*
X195897327Y-42673504D01*
X195867032Y-42652291D01*
X195714213Y-42581031D01*
X195668724Y-42559819D01*
X195668720Y-42559818D01*
X195668716Y-42559816D01*
X195457371Y-42503187D01*
X195239396Y-42484117D01*
X195239392Y-42484117D01*
X195094076Y-42496830D01*
X195021417Y-42503187D01*
X195021414Y-42503187D01*
X194810071Y-42559816D01*
X194810064Y-42559818D01*
X194810064Y-42559819D01*
X194764575Y-42581031D01*
X194624964Y-42646133D01*
X194555886Y-42656625D01*
X194492102Y-42628105D01*
X194453863Y-42569629D01*
X194453308Y-42499761D01*
X194461559Y-42478480D01*
X194520276Y-42360559D01*
X194520284Y-42360539D01*
X194578604Y-42155562D01*
X194578605Y-42155559D01*
X194598270Y-41943343D01*
X194598270Y-41943342D01*
X194578605Y-41731126D01*
X194578604Y-41731123D01*
X194520284Y-41526146D01*
X194520276Y-41526126D01*
X194425283Y-41335353D01*
X194416506Y-41323731D01*
X193926305Y-41813933D01*
X193909268Y-41750350D01*
X193843442Y-41636336D01*
X193750350Y-41543244D01*
X193636336Y-41477418D01*
X193572752Y-41460380D01*
X194060350Y-40972782D01*
X193958136Y-40909494D01*
X193958132Y-40909492D01*
X193759406Y-40832506D01*
X193759401Y-40832505D01*
X193549904Y-40793343D01*
X193336782Y-40793343D01*
X193127284Y-40832505D01*
X193127279Y-40832506D01*
X192928553Y-40909492D01*
X192928544Y-40909497D01*
X192826335Y-40972781D01*
X192826334Y-40972782D01*
X193313933Y-41460380D01*
X193250350Y-41477418D01*
X193136336Y-41543244D01*
X193043244Y-41636336D01*
X192977418Y-41750350D01*
X192960380Y-41813934D01*
X192470178Y-41323732D01*
X192461399Y-41335358D01*
X192366409Y-41526126D01*
X192366401Y-41526146D01*
X192308081Y-41731123D01*
X192308080Y-41731126D01*
X192288416Y-41943342D01*
X176905500Y-41943342D01*
X176905500Y-38874663D01*
X176897656Y-38795292D01*
X176888155Y-38747691D01*
X176865131Y-38671880D01*
X176865129Y-38671875D01*
X176865126Y-38671865D01*
X176864105Y-38669012D01*
X176864814Y-38668758D01*
X176857696Y-38602469D01*
X176888978Y-38539993D01*
X176949072Y-38504348D01*
X176979723Y-38500500D01*
X190934108Y-38500500D01*
X190998046Y-38500500D01*
X191001941Y-38500561D01*
G37*
G04 #@! TD.AperFunction*
G04 #@! TA.AperFunction,Conductor*
G36*
X142278427Y-38520185D02*
G01*
X142324182Y-38572989D01*
X142334126Y-38642147D01*
X142305101Y-38705703D01*
X142294625Y-38716410D01*
X142260084Y-38747691D01*
X142237563Y-38768085D01*
X142193754Y-38822499D01*
X142134884Y-38921842D01*
X142134883Y-38921844D01*
X142134693Y-38922303D01*
X142134687Y-38922319D01*
X142111687Y-38998258D01*
X142102274Y-39045640D01*
X142102269Y-39045670D01*
X142094500Y-39124655D01*
X142094500Y-44875341D01*
X142102271Y-44954345D01*
X142102272Y-44954350D01*
X142111686Y-45001736D01*
X142134710Y-45077737D01*
X142134896Y-45078185D01*
X142134902Y-45078199D01*
X142149048Y-45107806D01*
X142153603Y-45117338D01*
X142166305Y-45140631D01*
X142175821Y-45156558D01*
X142182614Y-45167928D01*
X142267675Y-45262057D01*
X142322052Y-45305929D01*
X142386961Y-45344440D01*
X142421719Y-45365063D01*
X142421721Y-45365063D01*
X142421723Y-45365065D01*
X142422197Y-45365261D01*
X142497922Y-45388219D01*
X142545438Y-45397685D01*
X142624664Y-45405500D01*
X143470500Y-45405500D01*
X143537539Y-45425185D01*
X143583294Y-45477989D01*
X143594500Y-45529500D01*
X143594500Y-49001994D01*
X143574815Y-49069033D01*
X143549883Y-49097253D01*
X136397329Y-55057714D01*
X136333226Y-55085510D01*
X136264272Y-55074236D01*
X136255946Y-55069842D01*
X136193189Y-55033609D01*
X136193186Y-55033608D01*
X136065892Y-54999500D01*
X136065891Y-54999500D01*
X131624500Y-54999500D01*
X131557461Y-54979815D01*
X131511706Y-54927011D01*
X131500500Y-54875500D01*
X131500500Y-48001953D01*
X131500561Y-47998058D01*
X131502236Y-47944751D01*
X131519123Y-47407399D01*
X131519609Y-47399661D01*
X131545221Y-47128711D01*
X138399500Y-47128711D01*
X138399500Y-47371288D01*
X138431161Y-47611785D01*
X138493947Y-47846104D01*
X138586773Y-48070205D01*
X138586777Y-48070214D01*
X138601893Y-48096396D01*
X138708064Y-48280289D01*
X138708066Y-48280292D01*
X138708067Y-48280293D01*
X138855733Y-48472736D01*
X138855739Y-48472743D01*
X139027256Y-48644260D01*
X139027263Y-48644266D01*
X139099897Y-48700000D01*
X139219711Y-48791936D01*
X139429788Y-48913224D01*
X139653900Y-49006054D01*
X139888211Y-49068838D01*
X140028568Y-49087316D01*
X140128711Y-49100500D01*
X140128712Y-49100500D01*
X140371289Y-49100500D01*
X140419388Y-49094167D01*
X140611789Y-49068838D01*
X140846100Y-49006054D01*
X141070212Y-48913224D01*
X141280289Y-48791936D01*
X141472738Y-48644265D01*
X141644265Y-48472738D01*
X141791936Y-48280289D01*
X141913224Y-48070212D01*
X142006054Y-47846100D01*
X142068838Y-47611789D01*
X142100500Y-47371288D01*
X142100500Y-47128712D01*
X142097527Y-47106133D01*
X142077269Y-46952252D01*
X142068838Y-46888211D01*
X142006054Y-46653900D01*
X141913224Y-46429788D01*
X141791936Y-46219711D01*
X141644265Y-46027262D01*
X141644260Y-46027256D01*
X141472743Y-45855739D01*
X141472736Y-45855733D01*
X141280293Y-45708067D01*
X141280292Y-45708066D01*
X141280289Y-45708064D01*
X141108661Y-45608974D01*
X141070214Y-45586777D01*
X141070205Y-45586773D01*
X140846104Y-45493947D01*
X140611785Y-45431161D01*
X140371289Y-45399500D01*
X140371288Y-45399500D01*
X140128712Y-45399500D01*
X140128711Y-45399500D01*
X139888214Y-45431161D01*
X139653895Y-45493947D01*
X139429794Y-45586773D01*
X139429785Y-45586777D01*
X139219706Y-45708067D01*
X139027263Y-45855733D01*
X139027256Y-45855739D01*
X138855739Y-46027256D01*
X138855733Y-46027263D01*
X138708067Y-46219706D01*
X138586777Y-46429785D01*
X138586773Y-46429794D01*
X138493947Y-46653895D01*
X138431161Y-46888214D01*
X138399500Y-47128711D01*
X131545221Y-47128711D01*
X131575040Y-46813261D01*
X131576017Y-46805538D01*
X131668154Y-46223805D01*
X131669604Y-46216203D01*
X131798100Y-45641342D01*
X131800029Y-45633835D01*
X131822452Y-45556656D01*
X133788416Y-45556656D01*
X133788416Y-45556657D01*
X133808080Y-45768873D01*
X133808081Y-45768876D01*
X133866401Y-45973853D01*
X133866409Y-45973873D01*
X133961403Y-46164647D01*
X133970177Y-46176266D01*
X133970178Y-46176266D01*
X134460380Y-45686065D01*
X134477418Y-45749650D01*
X134543244Y-45863664D01*
X134636336Y-45956756D01*
X134750350Y-46022582D01*
X134813933Y-46039619D01*
X134326334Y-46527216D01*
X134428547Y-46590504D01*
X134428551Y-46590506D01*
X134627279Y-46667493D01*
X134627284Y-46667494D01*
X134836782Y-46706657D01*
X135049904Y-46706657D01*
X135259401Y-46667494D01*
X135259406Y-46667493D01*
X135458134Y-46590506D01*
X135458141Y-46590503D01*
X135560349Y-46527217D01*
X135560349Y-46527216D01*
X135072753Y-46039619D01*
X135136336Y-46022582D01*
X135250350Y-45956756D01*
X135343442Y-45863664D01*
X135409268Y-45749650D01*
X135426305Y-45686066D01*
X135916506Y-46176267D01*
X135925278Y-46164653D01*
X135925281Y-46164648D01*
X136020278Y-45973868D01*
X136020284Y-45973853D01*
X136078604Y-45768876D01*
X136078605Y-45768873D01*
X136098270Y-45556657D01*
X136098270Y-45556656D01*
X136078605Y-45344440D01*
X136078604Y-45344437D01*
X136020284Y-45139460D01*
X136020276Y-45139440D01*
X135961559Y-45021520D01*
X135949298Y-44952735D01*
X135976171Y-44888240D01*
X136033647Y-44848513D01*
X136103477Y-44846165D01*
X136124959Y-44853865D01*
X136310064Y-44940181D01*
X136521417Y-44996813D01*
X136704320Y-45012814D01*
X136739392Y-45015883D01*
X136739394Y-45015883D01*
X136739396Y-45015883D01*
X136767648Y-45013411D01*
X136957371Y-44996813D01*
X137168724Y-44940181D01*
X137367033Y-44847708D01*
X137546271Y-44722204D01*
X137700992Y-44567483D01*
X137826496Y-44388245D01*
X137918969Y-44189936D01*
X137975601Y-43978583D01*
X137994671Y-43760606D01*
X137992815Y-43739396D01*
X137990963Y-43718224D01*
X137975601Y-43542629D01*
X137960149Y-43484961D01*
X137961812Y-43415114D01*
X138000974Y-43357252D01*
X138065202Y-43329747D01*
X138134105Y-43341333D01*
X138167605Y-43365189D01*
X138274535Y-43472119D01*
X138342388Y-43521418D01*
X138351355Y-43527933D01*
X138444189Y-43558096D01*
X138472008Y-43567135D01*
X138472009Y-43567135D01*
X138472012Y-43567136D01*
X138472015Y-43567136D01*
X138598875Y-43567136D01*
X138598878Y-43567136D01*
X138719535Y-43527933D01*
X138796354Y-43472120D01*
X140043009Y-42225464D01*
X140098823Y-42148645D01*
X140138026Y-42027988D01*
X140138026Y-41901122D01*
X140098823Y-41780465D01*
X140094060Y-41773910D01*
X140043014Y-41703652D01*
X140043010Y-41703646D01*
X139613741Y-41274377D01*
X138796354Y-40456990D01*
X138719537Y-40401178D01*
X138719535Y-40401177D01*
X138689370Y-40391376D01*
X138598881Y-40361974D01*
X138598878Y-40361974D01*
X138472012Y-40361974D01*
X138472008Y-40361974D01*
X138351355Y-40401177D01*
X138351349Y-40401180D01*
X138274542Y-40456985D01*
X138274533Y-40456992D01*
X137027880Y-41703645D01*
X136972068Y-41780462D01*
X136972067Y-41780465D01*
X136932864Y-41901118D01*
X136932864Y-42027991D01*
X136962266Y-42118480D01*
X136972067Y-42148645D01*
X136972068Y-42148647D01*
X136972070Y-42148650D01*
X137027875Y-42225457D01*
X137027882Y-42225466D01*
X137134810Y-42332394D01*
X137168295Y-42393717D01*
X137163311Y-42463409D01*
X137121439Y-42519342D01*
X137055975Y-42543759D01*
X137015036Y-42539850D01*
X136957371Y-42524399D01*
X136739396Y-42505329D01*
X136739392Y-42505329D01*
X136594076Y-42518042D01*
X136521417Y-42524399D01*
X136521414Y-42524399D01*
X136310071Y-42581028D01*
X136310062Y-42581032D01*
X136111755Y-42673504D01*
X136111751Y-42673506D01*
X135932515Y-42799008D01*
X135777796Y-42953727D01*
X135652294Y-43132963D01*
X135652292Y-43132967D01*
X135559820Y-43331274D01*
X135559816Y-43331283D01*
X135503187Y-43542626D01*
X135503187Y-43542630D01*
X135485973Y-43739396D01*
X135484117Y-43760606D01*
X135501331Y-43957373D01*
X135503187Y-43978581D01*
X135503187Y-43978585D01*
X135559816Y-44189928D01*
X135559818Y-44189932D01*
X135559819Y-44189936D01*
X135642400Y-44367032D01*
X135643733Y-44369890D01*
X135654225Y-44438968D01*
X135625705Y-44502752D01*
X135567229Y-44540991D01*
X135497361Y-44541546D01*
X135466077Y-44527724D01*
X135458141Y-44522811D01*
X135458132Y-44522806D01*
X135259406Y-44445820D01*
X135259401Y-44445819D01*
X135049904Y-44406657D01*
X134836782Y-44406657D01*
X134627284Y-44445819D01*
X134627279Y-44445820D01*
X134428553Y-44522806D01*
X134428544Y-44522811D01*
X134326335Y-44586095D01*
X134326334Y-44586096D01*
X134813933Y-45073694D01*
X134750350Y-45090732D01*
X134636336Y-45156558D01*
X134543244Y-45249650D01*
X134477418Y-45363664D01*
X134460380Y-45427248D01*
X133970178Y-44937046D01*
X133961399Y-44948672D01*
X133866409Y-45139440D01*
X133866401Y-45139460D01*
X133808081Y-45344437D01*
X133808080Y-45344440D01*
X133788416Y-45556656D01*
X131822452Y-45556656D01*
X131964361Y-45068200D01*
X131966743Y-45060869D01*
X132166274Y-44506650D01*
X132169124Y-44499449D01*
X132403053Y-43958872D01*
X132406356Y-43951852D01*
X132673764Y-43427036D01*
X132677504Y-43420234D01*
X132977333Y-42913250D01*
X132981488Y-42906703D01*
X133312560Y-42419545D01*
X133317134Y-42413251D01*
X133332287Y-42393717D01*
X133678114Y-41947878D01*
X133683077Y-41941878D01*
X134072608Y-41500042D01*
X134077910Y-41494397D01*
X134494397Y-41077910D01*
X134500042Y-41072608D01*
X134941880Y-40683074D01*
X134947881Y-40678112D01*
X135413259Y-40317127D01*
X135419545Y-40312560D01*
X135906703Y-39981488D01*
X135913250Y-39977333D01*
X136420234Y-39677504D01*
X136427036Y-39673764D01*
X136951852Y-39406356D01*
X136958872Y-39403053D01*
X137499449Y-39169124D01*
X137506650Y-39166274D01*
X138060869Y-38966743D01*
X138068200Y-38964361D01*
X138633835Y-38800029D01*
X138641342Y-38798100D01*
X139216203Y-38669604D01*
X139223805Y-38668154D01*
X139805544Y-38576016D01*
X139813261Y-38575040D01*
X140399661Y-38519609D01*
X140407399Y-38519123D01*
X140998059Y-38500561D01*
X141001954Y-38500500D01*
X141065892Y-38500500D01*
X142211388Y-38500500D01*
X142278427Y-38520185D01*
G37*
G04 #@! TD.AperFunction*
G04 #@! TA.AperFunction,Conductor*
G36*
X144238380Y-54184957D02*
G01*
X144265434Y-54191132D01*
X144312455Y-54207586D01*
X144337465Y-54219629D01*
X144379631Y-54246124D01*
X144401340Y-54263437D01*
X144436560Y-54298657D01*
X144453873Y-54320366D01*
X144480365Y-54362528D01*
X144492412Y-54387544D01*
X144508865Y-54434562D01*
X144515044Y-54461630D01*
X144520619Y-54511113D01*
X144520618Y-54538879D01*
X144515041Y-54588374D01*
X144508868Y-54615429D01*
X144505302Y-54625621D01*
X144494135Y-54663303D01*
X144488446Y-54686581D01*
X144482790Y-54713712D01*
X144481527Y-54802269D01*
X144460889Y-54869021D01*
X144407437Y-54914018D01*
X144357540Y-54924500D01*
X144056188Y-54924500D01*
X143989149Y-54904815D01*
X143943394Y-54852011D01*
X143936861Y-54834220D01*
X143932298Y-54818075D01*
X143932296Y-54818067D01*
X143885423Y-54712597D01*
X143885419Y-54712590D01*
X143869630Y-54687462D01*
X143857582Y-54662446D01*
X143852852Y-54648927D01*
X143852851Y-54648922D01*
X143841131Y-54615429D01*
X143834956Y-54588374D01*
X143829379Y-54538871D01*
X143829380Y-54511115D01*
X143834956Y-54461623D01*
X143841133Y-54434562D01*
X143857587Y-54387538D01*
X143869627Y-54362536D01*
X143896128Y-54320360D01*
X143913433Y-54298661D01*
X143948661Y-54263433D01*
X143970360Y-54246128D01*
X144012536Y-54219627D01*
X144037538Y-54207587D01*
X144084565Y-54191132D01*
X144111615Y-54184957D01*
X144161126Y-54179379D01*
X144188872Y-54179379D01*
X144238380Y-54184957D01*
G37*
G04 #@! TD.AperFunction*
G04 #@! TA.AperFunction,Conductor*
G36*
X145463380Y-46534957D02*
G01*
X145490434Y-46541132D01*
X145537455Y-46557586D01*
X145562465Y-46569629D01*
X145595690Y-46590506D01*
X145604631Y-46596124D01*
X145626340Y-46613437D01*
X145661560Y-46648657D01*
X145678873Y-46670366D01*
X145705365Y-46712528D01*
X145717412Y-46737544D01*
X145733865Y-46784562D01*
X145740044Y-46811634D01*
X145745619Y-46861112D01*
X145745619Y-46888880D01*
X145740043Y-46938366D01*
X145733865Y-46965434D01*
X145717414Y-47012451D01*
X145705367Y-47037468D01*
X145701883Y-47043014D01*
X145683256Y-47072659D01*
X145683248Y-47072672D01*
X145678866Y-47079644D01*
X145661561Y-47101340D01*
X145626341Y-47136560D01*
X145604634Y-47153872D01*
X145562472Y-47180365D01*
X145537450Y-47192414D01*
X145490433Y-47208865D01*
X145463364Y-47215043D01*
X145413881Y-47220618D01*
X145386115Y-47220618D01*
X145336632Y-47215043D01*
X145309563Y-47208865D01*
X145275081Y-47196800D01*
X145275081Y-47196798D01*
X145275069Y-47196796D01*
X145270144Y-47195073D01*
X145262536Y-47192410D01*
X145237529Y-47180366D01*
X145195367Y-47153874D01*
X145173658Y-47136561D01*
X145138437Y-47101340D01*
X145121124Y-47079631D01*
X145094629Y-47037465D01*
X145082586Y-47012455D01*
X145066132Y-46965434D01*
X145059956Y-46938378D01*
X145054379Y-46888871D01*
X145054380Y-46861115D01*
X145059956Y-46811623D01*
X145066133Y-46784562D01*
X145082587Y-46737538D01*
X145094627Y-46712536D01*
X145121128Y-46670360D01*
X145138433Y-46648661D01*
X145173661Y-46613433D01*
X145195360Y-46596128D01*
X145237536Y-46569627D01*
X145262538Y-46557587D01*
X145309565Y-46541132D01*
X145336615Y-46534957D01*
X145386126Y-46529379D01*
X145413872Y-46529379D01*
X145463380Y-46534957D01*
G37*
G04 #@! TD.AperFunction*
G04 #@! TA.AperFunction,Conductor*
G36*
X165337316Y-38520185D02*
G01*
X165383071Y-38572989D01*
X165393015Y-38642147D01*
X165385551Y-38669391D01*
X165385713Y-38669449D01*
X165384953Y-38671574D01*
X165384874Y-38671866D01*
X165384695Y-38672297D01*
X165384687Y-38672319D01*
X165361687Y-38748258D01*
X165352274Y-38795640D01*
X165352269Y-38795670D01*
X165344500Y-38874655D01*
X165344500Y-44470500D01*
X165324815Y-44537539D01*
X165272011Y-44583294D01*
X165220500Y-44594500D01*
X151279500Y-44594500D01*
X151212461Y-44574815D01*
X151166706Y-44522011D01*
X151155500Y-44470500D01*
X151155500Y-39124667D01*
X151147693Y-39045670D01*
X151147656Y-39045292D01*
X151138155Y-38997691D01*
X151115131Y-38921880D01*
X151115130Y-38921877D01*
X151115128Y-38921871D01*
X151114937Y-38921412D01*
X151114934Y-38921405D01*
X151114933Y-38921402D01*
X151096017Y-38881915D01*
X151083343Y-38858756D01*
X151067076Y-38831604D01*
X151034535Y-38795670D01*
X150981921Y-38737569D01*
X150961449Y-38721088D01*
X150921574Y-38663714D01*
X150919047Y-38593890D01*
X150954672Y-38533785D01*
X151017136Y-38502481D01*
X151039210Y-38500500D01*
X165270277Y-38500500D01*
X165337316Y-38520185D01*
G37*
G04 #@! TD.AperFunction*
G04 #@! TA.AperFunction,Conductor*
G36*
X176422732Y-38759415D02*
G01*
X176423203Y-38759610D01*
X176477627Y-38803425D01*
X176490301Y-38826584D01*
X176490499Y-38827062D01*
X176500000Y-38874663D01*
X176500000Y-46125336D01*
X176490498Y-46172938D01*
X176490303Y-46173411D01*
X176446389Y-46227755D01*
X176423411Y-46240302D01*
X176422938Y-46240498D01*
X176375336Y-46250000D01*
X169750000Y-46250000D01*
X169719972Y-46288605D01*
X169719972Y-46288606D01*
X168038718Y-48450219D01*
X168019011Y-48470345D01*
X168017281Y-48471750D01*
X167967116Y-48496290D01*
X167964938Y-48496795D01*
X167936930Y-48500000D01*
X165373727Y-48500000D01*
X165306688Y-48480315D01*
X165260933Y-48427511D01*
X165250199Y-48365193D01*
X165260277Y-48250001D01*
X165260277Y-48249997D01*
X165255903Y-48200000D01*
X165241207Y-48032023D01*
X165184575Y-47820670D01*
X165092102Y-47622362D01*
X165092100Y-47622359D01*
X165092099Y-47622357D01*
X164966599Y-47443124D01*
X164891950Y-47368475D01*
X164811877Y-47288402D01*
X164632639Y-47162898D01*
X164632640Y-47162898D01*
X164632638Y-47162897D01*
X164510906Y-47106133D01*
X164434330Y-47070425D01*
X164434326Y-47070424D01*
X164434322Y-47070422D01*
X164222977Y-47013793D01*
X164005002Y-46994723D01*
X164004998Y-46994723D01*
X163859682Y-47007436D01*
X163787023Y-47013793D01*
X163787020Y-47013793D01*
X163575677Y-47070422D01*
X163575670Y-47070424D01*
X163575670Y-47070425D01*
X163572391Y-47071954D01*
X163377361Y-47162898D01*
X163377357Y-47162900D01*
X163198121Y-47288402D01*
X163043402Y-47443121D01*
X162917900Y-47622357D01*
X162917898Y-47622361D01*
X162847382Y-47773583D01*
X162801209Y-47826022D01*
X162734016Y-47845174D01*
X162667135Y-47824958D01*
X162622618Y-47773583D01*
X162580242Y-47682708D01*
X162552102Y-47622362D01*
X162552100Y-47622359D01*
X162552099Y-47622357D01*
X162426599Y-47443124D01*
X162351950Y-47368475D01*
X162271877Y-47288402D01*
X162092639Y-47162898D01*
X162092640Y-47162898D01*
X162092638Y-47162897D01*
X161970906Y-47106133D01*
X161894330Y-47070425D01*
X161894326Y-47070424D01*
X161894322Y-47070422D01*
X161682977Y-47013793D01*
X161465002Y-46994723D01*
X161464998Y-46994723D01*
X161319682Y-47007436D01*
X161247023Y-47013793D01*
X161247020Y-47013793D01*
X161035677Y-47070422D01*
X161035670Y-47070424D01*
X161035670Y-47070425D01*
X161032391Y-47071954D01*
X160837361Y-47162898D01*
X160837357Y-47162900D01*
X160658121Y-47288402D01*
X160503402Y-47443121D01*
X160401074Y-47589262D01*
X160346497Y-47632887D01*
X160276999Y-47640081D01*
X160214644Y-47608558D01*
X160179230Y-47548328D01*
X160175499Y-47518139D01*
X160175499Y-47368482D01*
X160171920Y-47345884D01*
X160160646Y-47274696D01*
X160103050Y-47161658D01*
X160103046Y-47161654D01*
X160103045Y-47161652D01*
X160013347Y-47071954D01*
X160013344Y-47071952D01*
X160013342Y-47071950D01*
X159936517Y-47032805D01*
X159900301Y-47014352D01*
X159806524Y-46999500D01*
X158043482Y-46999500D01*
X157962519Y-47012323D01*
X157949696Y-47014354D01*
X157836658Y-47071950D01*
X157836657Y-47071951D01*
X157836652Y-47071954D01*
X157746954Y-47161652D01*
X157746951Y-47161657D01*
X157746950Y-47161658D01*
X157727751Y-47199337D01*
X157689352Y-47274698D01*
X157674500Y-47368475D01*
X157674500Y-47368480D01*
X157674500Y-47368481D01*
X157674500Y-48249997D01*
X157674501Y-48376000D01*
X157654817Y-48443039D01*
X157602013Y-48488794D01*
X157550501Y-48500000D01*
X157092905Y-48500000D01*
X157051950Y-48493041D01*
X156968060Y-48463686D01*
X156800003Y-48444751D01*
X156799997Y-48444751D01*
X156631940Y-48463686D01*
X156631938Y-48463686D01*
X156548050Y-48493041D01*
X156507095Y-48500000D01*
X150750000Y-48500000D01*
X150750000Y-48599998D01*
X150750000Y-49853916D01*
X150730315Y-49920955D01*
X150677511Y-49966710D01*
X150608353Y-49976654D01*
X150544797Y-49947629D01*
X150538319Y-49941597D01*
X149511819Y-48915097D01*
X149478334Y-48853774D01*
X149475500Y-48827416D01*
X149475500Y-47521662D01*
X149477883Y-47497470D01*
X149484603Y-47463687D01*
X149500500Y-47383767D01*
X149500500Y-47216233D01*
X149467816Y-47051918D01*
X149403703Y-46897137D01*
X149334030Y-46792864D01*
X149310626Y-46757837D01*
X149192162Y-46639373D01*
X149052860Y-46546295D01*
X148898082Y-46482184D01*
X148898074Y-46482182D01*
X148733771Y-46449500D01*
X148733767Y-46449500D01*
X147716233Y-46449500D01*
X147716228Y-46449500D01*
X147551925Y-46482182D01*
X147551917Y-46482184D01*
X147397139Y-46546295D01*
X147257837Y-46639373D01*
X147139373Y-46757837D01*
X147046295Y-46897139D01*
X146982184Y-47051917D01*
X146982182Y-47051925D01*
X146949500Y-47216228D01*
X146949500Y-47383771D01*
X146982182Y-47548074D01*
X146982184Y-47548082D01*
X147046295Y-47702860D01*
X147139373Y-47842162D01*
X147257837Y-47960626D01*
X147316765Y-48000000D01*
X147397137Y-48053703D01*
X147551918Y-48117816D01*
X147716228Y-48150499D01*
X147716232Y-48150500D01*
X147716233Y-48150500D01*
X147800500Y-48150500D01*
X147867539Y-48170185D01*
X147913294Y-48222989D01*
X147924500Y-48274500D01*
X147924500Y-49276384D01*
X147954300Y-49426197D01*
X147954302Y-49426205D01*
X148012759Y-49567334D01*
X148012764Y-49567343D01*
X148097629Y-49694351D01*
X148097632Y-49694355D01*
X150297630Y-51894352D01*
X150364806Y-51961528D01*
X150405649Y-52002371D01*
X150532656Y-52087235D01*
X150532662Y-52087238D01*
X150532663Y-52087239D01*
X150673453Y-52145556D01*
X150727856Y-52189397D01*
X150749921Y-52255691D01*
X150750000Y-52260117D01*
X150750000Y-56250000D01*
X153249638Y-56250000D01*
X153249669Y-56250000D01*
X153250000Y-56250000D01*
X153250277Y-56249998D01*
X153250331Y-56249998D01*
X153250463Y-56249997D01*
X153250507Y-56249997D01*
X155236217Y-56236846D01*
X168450428Y-56149335D01*
X168517593Y-56168574D01*
X168538927Y-56185650D01*
X169455643Y-57102367D01*
X169455651Y-57102373D01*
X169582660Y-57187238D01*
X169582665Y-57187240D01*
X169723795Y-57245698D01*
X169844718Y-57269751D01*
X169873615Y-57275499D01*
X169873619Y-57275500D01*
X169873620Y-57275500D01*
X173576381Y-57275500D01*
X173576382Y-57275499D01*
X173726205Y-57245698D01*
X173867337Y-57187239D01*
X173994352Y-57102370D01*
X174102370Y-56994352D01*
X174187239Y-56867337D01*
X174245698Y-56726205D01*
X174275500Y-56576380D01*
X174275500Y-56423620D01*
X174245698Y-56273795D01*
X174244600Y-56270174D01*
X174244582Y-56268183D01*
X174244510Y-56267820D01*
X174244578Y-56267806D01*
X174243976Y-56200307D01*
X174281223Y-56141194D01*
X174344517Y-56111603D01*
X174362415Y-56110182D01*
X190900662Y-56000658D01*
X190900662Y-56000657D01*
X191000000Y-56000000D01*
X191000000Y-52057197D01*
X191002678Y-52031563D01*
X191003131Y-52029419D01*
X191023877Y-51982525D01*
X191025157Y-51980750D01*
X191042318Y-51961528D01*
X193712912Y-49533715D01*
X193731126Y-49519993D01*
X193732902Y-49518896D01*
X193775382Y-49502477D01*
X193777434Y-49502094D01*
X193800127Y-49500000D01*
X200125336Y-49500000D01*
X200172732Y-49509415D01*
X200173203Y-49509610D01*
X200227627Y-49553425D01*
X200240301Y-49576584D01*
X200240499Y-49577062D01*
X200250000Y-49624663D01*
X200250000Y-54875336D01*
X200240544Y-54922830D01*
X200240476Y-54922994D01*
X200196615Y-54977382D01*
X200130313Y-54999423D01*
X200125932Y-54999500D01*
X195929813Y-54999500D01*
X195922184Y-55000000D01*
X195750000Y-55000000D01*
X195750000Y-55059639D01*
X195740544Y-55071372D01*
X195731835Y-55076896D01*
X195692688Y-55099498D01*
X195692686Y-55099499D01*
X195599500Y-55192686D01*
X195533608Y-55306812D01*
X195499500Y-55434108D01*
X195499500Y-89717553D01*
X195479815Y-89784592D01*
X195465877Y-89802453D01*
X189201756Y-96470711D01*
X188027115Y-97721135D01*
X188027113Y-97721136D01*
X188000000Y-97750000D01*
X188000000Y-101500000D01*
X189875336Y-101500000D01*
X189922732Y-101509415D01*
X189923203Y-101509610D01*
X189977627Y-101553425D01*
X189990301Y-101576584D01*
X189990499Y-101577062D01*
X190000000Y-101624663D01*
X190000000Y-107375336D01*
X189990544Y-107422830D01*
X189990476Y-107422994D01*
X189946615Y-107477382D01*
X189880313Y-107499423D01*
X189875932Y-107499500D01*
X184124500Y-107499500D01*
X184057461Y-107479815D01*
X184011706Y-107427011D01*
X184000500Y-107375500D01*
X184000500Y-102929815D01*
X184000000Y-102922185D01*
X184000000Y-97049550D01*
X184002047Y-97027111D01*
X184002425Y-97025063D01*
X184018520Y-96982936D01*
X184019606Y-96981155D01*
X184033038Y-96963075D01*
X190713015Y-89497218D01*
X192500000Y-87500000D01*
X192500000Y-60250000D01*
X192400001Y-60250000D01*
X140874500Y-60250000D01*
X140807461Y-60230315D01*
X140761706Y-60177511D01*
X140750500Y-60126000D01*
X140750500Y-59920807D01*
X140770185Y-59853768D01*
X140786814Y-59833130D01*
X141774067Y-58845877D01*
X141835388Y-58812394D01*
X141905079Y-58817378D01*
X141961013Y-58859250D01*
X141966735Y-58867580D01*
X141984519Y-58895884D01*
X141984523Y-58895890D01*
X142104109Y-59015476D01*
X142104115Y-59015481D01*
X142247302Y-59105452D01*
X142247305Y-59105454D01*
X142247309Y-59105455D01*
X142247310Y-59105456D01*
X142319913Y-59130860D01*
X142406943Y-59161314D01*
X142574997Y-59180249D01*
X142575000Y-59180249D01*
X142575003Y-59180249D01*
X142743056Y-59161314D01*
X142743059Y-59161313D01*
X142902690Y-59105456D01*
X142902692Y-59105454D01*
X142902694Y-59105454D01*
X142902697Y-59105452D01*
X142990952Y-59049997D01*
X153494751Y-59049997D01*
X153494751Y-59050002D01*
X153513685Y-59218056D01*
X153569545Y-59377694D01*
X153569547Y-59377697D01*
X153659518Y-59520884D01*
X153659523Y-59520890D01*
X153779109Y-59640476D01*
X153779115Y-59640481D01*
X153922302Y-59730452D01*
X153922305Y-59730454D01*
X153922309Y-59730455D01*
X153922310Y-59730456D01*
X153994913Y-59755860D01*
X154081943Y-59786314D01*
X154249997Y-59805249D01*
X154250000Y-59805249D01*
X154250003Y-59805249D01*
X154418056Y-59786314D01*
X154418059Y-59786313D01*
X154577690Y-59730456D01*
X154577692Y-59730454D01*
X154577694Y-59730454D01*
X154577697Y-59730452D01*
X154720884Y-59640481D01*
X154720885Y-59640480D01*
X154720890Y-59640477D01*
X154840477Y-59520890D01*
X154840481Y-59520884D01*
X154930452Y-59377697D01*
X154930454Y-59377694D01*
X154930454Y-59377692D01*
X154930456Y-59377690D01*
X154986313Y-59218059D01*
X154986313Y-59218058D01*
X154986314Y-59218056D01*
X155005249Y-59050002D01*
X155005249Y-59049997D01*
X154986313Y-58881943D01*
X154986313Y-58881941D01*
X154982010Y-58869646D01*
X154978448Y-58799868D01*
X155013176Y-58739240D01*
X155075168Y-58707012D01*
X155140007Y-58711649D01*
X155281939Y-58761313D01*
X155449997Y-58780249D01*
X155450000Y-58780249D01*
X155450003Y-58780249D01*
X155618056Y-58761314D01*
X155642682Y-58752697D01*
X155777690Y-58705456D01*
X155777692Y-58705454D01*
X155777694Y-58705454D01*
X155777697Y-58705452D01*
X155920884Y-58615481D01*
X155920885Y-58615480D01*
X155920890Y-58615477D01*
X156040477Y-58495890D01*
X156085019Y-58425002D01*
X156130452Y-58352697D01*
X156130454Y-58352694D01*
X156130454Y-58352692D01*
X156130456Y-58352690D01*
X156186313Y-58193059D01*
X156186313Y-58193058D01*
X156186314Y-58193056D01*
X156205249Y-58025002D01*
X156205249Y-58024997D01*
X156186314Y-57856943D01*
X156146984Y-57744544D01*
X156130456Y-57697310D01*
X156130455Y-57697309D01*
X156130454Y-57697305D01*
X156130452Y-57697302D01*
X156040481Y-57554115D01*
X156040476Y-57554109D01*
X155920890Y-57434523D01*
X155920884Y-57434518D01*
X155777697Y-57344547D01*
X155777694Y-57344545D01*
X155618056Y-57288685D01*
X155450003Y-57269751D01*
X155449997Y-57269751D01*
X155281943Y-57288685D01*
X155122305Y-57344545D01*
X155122302Y-57344547D01*
X154979115Y-57434518D01*
X154979109Y-57434523D01*
X154859523Y-57554109D01*
X154859518Y-57554115D01*
X154769547Y-57697302D01*
X154769545Y-57697305D01*
X154713685Y-57856943D01*
X154694751Y-58024997D01*
X154694751Y-58025002D01*
X154713686Y-58193057D01*
X154717989Y-58205355D01*
X154721550Y-58275134D01*
X154686821Y-58335761D01*
X154624827Y-58367988D01*
X154559993Y-58363351D01*
X154418057Y-58313686D01*
X154250003Y-58294751D01*
X154249997Y-58294751D01*
X154081943Y-58313685D01*
X153922305Y-58369545D01*
X153922302Y-58369547D01*
X153779115Y-58459518D01*
X153779109Y-58459523D01*
X153659523Y-58579109D01*
X153659518Y-58579115D01*
X153569547Y-58722302D01*
X153569545Y-58722305D01*
X153513685Y-58881943D01*
X153494751Y-59049997D01*
X142990952Y-59049997D01*
X143045884Y-59015481D01*
X143045885Y-59015480D01*
X143045890Y-59015477D01*
X143165477Y-58895890D01*
X143181967Y-58869647D01*
X143255452Y-58752697D01*
X143255454Y-58752694D01*
X143255454Y-58752692D01*
X143255456Y-58752690D01*
X143311313Y-58593059D01*
X143311313Y-58593058D01*
X143311314Y-58593056D01*
X143330249Y-58425002D01*
X143330249Y-58424997D01*
X143311314Y-58256943D01*
X143255454Y-58097305D01*
X143255452Y-58097302D01*
X143165481Y-57954115D01*
X143165476Y-57954109D01*
X143045890Y-57834523D01*
X143017587Y-57816739D01*
X142971297Y-57764405D01*
X142960649Y-57695352D01*
X142989024Y-57631503D01*
X142995867Y-57624077D01*
X143306538Y-57313406D01*
X143367859Y-57279923D01*
X143437551Y-57284907D01*
X143493484Y-57326779D01*
X143499211Y-57335117D01*
X143584523Y-57470890D01*
X143704109Y-57590476D01*
X143704115Y-57590481D01*
X143847302Y-57680452D01*
X143847305Y-57680454D01*
X143847309Y-57680455D01*
X143847310Y-57680456D01*
X143895462Y-57697305D01*
X144006943Y-57736314D01*
X144174997Y-57755249D01*
X144175000Y-57755249D01*
X144175003Y-57755249D01*
X144343056Y-57736314D01*
X144343059Y-57736313D01*
X144502690Y-57680456D01*
X144502692Y-57680454D01*
X144502694Y-57680454D01*
X144502697Y-57680452D01*
X144645884Y-57590481D01*
X144645885Y-57590480D01*
X144645890Y-57590477D01*
X144765477Y-57470890D01*
X144844864Y-57344547D01*
X144855452Y-57327697D01*
X144855454Y-57327694D01*
X144855454Y-57327692D01*
X144855456Y-57327690D01*
X144911313Y-57168059D01*
X144911313Y-57168058D01*
X144911314Y-57168056D01*
X144930249Y-57000002D01*
X144930249Y-56999997D01*
X144911314Y-56831943D01*
X144892694Y-56778730D01*
X144855456Y-56672310D01*
X144855454Y-56672307D01*
X144855454Y-56672306D01*
X144851159Y-56665470D01*
X144832160Y-56598233D01*
X144852529Y-56531398D01*
X144905798Y-56486185D01*
X144956154Y-56475500D01*
X146026381Y-56475500D01*
X146026382Y-56475499D01*
X146176205Y-56445698D01*
X146317337Y-56387239D01*
X146444352Y-56302370D01*
X146552370Y-56194352D01*
X146637239Y-56067337D01*
X146695698Y-55926205D01*
X146725500Y-55776380D01*
X146725500Y-55623620D01*
X146695698Y-55473795D01*
X146637239Y-55332663D01*
X146637238Y-55332662D01*
X146637235Y-55332656D01*
X146552370Y-55205648D01*
X146552367Y-55205644D01*
X146444355Y-55097632D01*
X146444351Y-55097629D01*
X146317343Y-55012764D01*
X146317334Y-55012759D01*
X146176205Y-54954302D01*
X146176197Y-54954300D01*
X146026384Y-54924500D01*
X146026380Y-54924500D01*
X145005091Y-54924500D01*
X144938052Y-54904815D01*
X144892297Y-54852011D01*
X144882353Y-54782853D01*
X144888049Y-54759546D01*
X144908717Y-54700477D01*
X144911313Y-54693059D01*
X144930249Y-54525000D01*
X144930249Y-54524997D01*
X144911314Y-54356943D01*
X144855454Y-54197305D01*
X144855452Y-54197302D01*
X144765481Y-54054115D01*
X144765476Y-54054109D01*
X144645890Y-53934523D01*
X144645884Y-53934518D01*
X144502697Y-53844547D01*
X144502694Y-53844545D01*
X144343056Y-53788685D01*
X144175003Y-53769751D01*
X144174997Y-53769751D01*
X144006943Y-53788685D01*
X143847305Y-53844545D01*
X143847302Y-53844547D01*
X143704115Y-53934518D01*
X143704109Y-53934523D01*
X143584523Y-54054109D01*
X143584518Y-54054115D01*
X143494547Y-54197302D01*
X143494545Y-54197305D01*
X143438685Y-54356943D01*
X143419751Y-54524997D01*
X143419751Y-54525002D01*
X143438685Y-54693056D01*
X143470107Y-54782853D01*
X143494306Y-54852011D01*
X143494545Y-54852692D01*
X143542077Y-54928338D01*
X143561077Y-54995574D01*
X143540710Y-55062410D01*
X143510005Y-55093352D01*
X143510350Y-55093772D01*
X143506258Y-55097129D01*
X143505985Y-55097405D01*
X143505648Y-55097630D01*
X143505641Y-55097636D01*
X143397632Y-55205644D01*
X143397629Y-55205648D01*
X143312764Y-55332656D01*
X143312759Y-55332665D01*
X143254301Y-55473796D01*
X143254301Y-55473797D01*
X143248738Y-55501763D01*
X143216352Y-55563673D01*
X143214802Y-55565250D01*
X139594726Y-59185326D01*
X139523534Y-59291874D01*
X139474499Y-59410255D01*
X139474497Y-59410261D01*
X139449500Y-59535928D01*
X139449500Y-86064069D01*
X139454199Y-86087690D01*
X139454199Y-86087692D01*
X139473816Y-86186313D01*
X139474499Y-86189744D01*
X139486227Y-86218059D01*
X139490561Y-86228520D01*
X139500000Y-86275973D01*
X139500000Y-96375336D01*
X139490498Y-96422938D01*
X139490303Y-96423411D01*
X139446389Y-96477755D01*
X139423411Y-96490302D01*
X139422938Y-96490498D01*
X139375336Y-96500000D01*
X131624664Y-96500000D01*
X131577171Y-96490544D01*
X131577005Y-96490475D01*
X131522618Y-96446615D01*
X131500577Y-96380313D01*
X131500500Y-96375932D01*
X131500500Y-91124500D01*
X131520185Y-91057461D01*
X131572989Y-91011706D01*
X131624500Y-91000500D01*
X136070187Y-91000500D01*
X136077816Y-91000000D01*
X136399998Y-91000000D01*
X136400000Y-91000000D01*
X136500000Y-91000000D01*
X136500000Y-90577816D01*
X136500500Y-90570186D01*
X136500500Y-55558281D01*
X136520185Y-55491242D01*
X136526286Y-55482584D01*
X136527632Y-55480839D01*
X136546447Y-55461293D01*
X143964018Y-49279985D01*
X144000000Y-49250000D01*
X144000000Y-46874997D01*
X144644751Y-46874997D01*
X144644751Y-46875002D01*
X144663685Y-47043056D01*
X144719545Y-47202694D01*
X144719547Y-47202697D01*
X144809518Y-47345884D01*
X144809523Y-47345890D01*
X144929109Y-47465476D01*
X144929115Y-47465481D01*
X145072302Y-47555452D01*
X145072305Y-47555454D01*
X145072309Y-47555455D01*
X145072310Y-47555456D01*
X145141150Y-47579544D01*
X145231943Y-47611314D01*
X145399997Y-47630249D01*
X145400000Y-47630249D01*
X145400003Y-47630249D01*
X145568056Y-47611314D01*
X145568059Y-47611313D01*
X145727690Y-47555456D01*
X145727692Y-47555454D01*
X145727694Y-47555454D01*
X145727697Y-47555452D01*
X145870884Y-47465481D01*
X145870885Y-47465480D01*
X145870890Y-47465477D01*
X145990477Y-47345890D01*
X146026599Y-47288403D01*
X146080452Y-47202697D01*
X146080454Y-47202694D01*
X146080454Y-47202692D01*
X146080456Y-47202690D01*
X146136313Y-47043059D01*
X146136313Y-47043058D01*
X146136314Y-47043056D01*
X146155249Y-46875002D01*
X146155249Y-46874997D01*
X146136314Y-46706943D01*
X146080454Y-46547305D01*
X146080452Y-46547302D01*
X145990481Y-46404115D01*
X145990476Y-46404109D01*
X145870890Y-46284523D01*
X145870884Y-46284518D01*
X145727697Y-46194547D01*
X145727694Y-46194545D01*
X145568056Y-46138685D01*
X145400003Y-46119751D01*
X145399997Y-46119751D01*
X145231943Y-46138685D01*
X145072305Y-46194545D01*
X145072302Y-46194547D01*
X144929115Y-46284518D01*
X144929109Y-46284523D01*
X144809523Y-46404109D01*
X144809518Y-46404115D01*
X144719547Y-46547302D01*
X144719545Y-46547305D01*
X144663685Y-46706943D01*
X144644751Y-46874997D01*
X144000000Y-46874997D01*
X144000000Y-45000000D01*
X143900001Y-45000000D01*
X142624664Y-45000000D01*
X142577148Y-44990534D01*
X142576674Y-44990338D01*
X142522297Y-44946466D01*
X142509610Y-44923202D01*
X142509416Y-44922733D01*
X142500000Y-44875336D01*
X142500000Y-39124663D01*
X142509415Y-39077268D01*
X142509611Y-39076794D01*
X142553425Y-39022372D01*
X142576873Y-39009579D01*
X142577355Y-39009379D01*
X142624664Y-39000000D01*
X150625336Y-39000000D01*
X150672732Y-39009415D01*
X150673203Y-39009610D01*
X150727627Y-39053425D01*
X150740301Y-39076584D01*
X150740499Y-39077062D01*
X150750000Y-39124663D01*
X150750000Y-45000000D01*
X165649998Y-45000000D01*
X165650000Y-45000000D01*
X165750000Y-45000000D01*
X165750000Y-38874663D01*
X165759415Y-38827268D01*
X165759611Y-38826794D01*
X165803425Y-38772372D01*
X165826873Y-38759579D01*
X165827355Y-38759379D01*
X165874664Y-38750000D01*
X176375336Y-38750000D01*
X176422732Y-38759415D01*
G37*
G04 #@! TD.AperFunction*
M02*
