G04 #@! TF.GenerationSoftware,KiCad,Pcbnew,8.0.7*
G04 #@! TF.CreationDate,2025-04-19T00:44:47-07:00*
G04 #@! TF.ProjectId,Hardware,48617264-7761-4726-952e-6b696361645f,rev?*
G04 #@! TF.SameCoordinates,Original*
G04 #@! TF.FileFunction,Legend,Bot*
G04 #@! TF.FilePolarity,Positive*
%FSLAX46Y46*%
G04 Gerber Fmt 4.6, Leading zero omitted, Abs format (unit mm)*
G04 Created by KiCad (PCBNEW 8.0.7) date 2025-04-19 00:44:47*
%MOMM*%
%LPD*%
G01*
G04 APERTURE LIST*
G04 Aperture macros list*
%AMHorizOval*
0 Thick line with rounded ends*
0 $1 width*
0 $2 $3 position (X,Y) of the first rounded end (center of the circle)*
0 $4 $5 position (X,Y) of the second rounded end (center of the circle)*
0 Add line between two ends*
20,1,$1,$2,$3,$4,$5,0*
0 Add two circle primitives to create the rounded ends*
1,1,$1,$2,$3*
1,1,$1,$4,$5*%
%AMRotRect*
0 Rectangle, with rotation*
0 The origin of the aperture is its center*
0 $1 length*
0 $2 width*
0 $3 Rotation angle, in degrees counterclockwise*
0 Add horizontal line*
21,1,$1,$2,0,0,$3*%
G04 Aperture macros list end*
%ADD10C,0.100000*%
%ADD11C,0.120000*%
%ADD12C,4.200000*%
%ADD13C,2.000000*%
%ADD14R,2.000000X2.000000*%
%ADD15RotRect,1.700000X1.700000X135.000000*%
%ADD16HorizOval,1.700000X0.000000X0.000000X0.000000X0.000000X0*%
%ADD17RotRect,1.700000X1.700000X315.000000*%
%ADD18HorizOval,1.700000X0.000000X0.000000X0.000000X0.000000X0*%
%ADD19R,1.700000X1.700000*%
%ADD20O,1.700000X1.700000*%
%ADD21RotRect,1.700000X1.700000X225.000000*%
%ADD22HorizOval,1.700000X0.000000X0.000000X0.000000X0.000000X0*%
%ADD23RotRect,1.700000X1.700000X45.000000*%
%ADD24HorizOval,1.700000X0.000000X0.000000X0.000000X0.000000X0*%
%ADD25C,1.000000*%
G04 APERTURE END LIST*
D10*
G36*
X154308163Y-58144463D02*
G01*
X154344307Y-58180608D01*
X154383019Y-58258031D01*
X154383019Y-58520138D01*
X154344307Y-58597561D01*
X154308161Y-58633708D01*
X154230740Y-58672419D01*
X154063871Y-58672419D01*
X154006829Y-58643898D01*
X154006829Y-58134272D01*
X154063871Y-58105752D01*
X154230740Y-58105752D01*
X154308163Y-58144463D01*
G37*
G36*
X163546258Y-58144463D02*
G01*
X163582402Y-58180608D01*
X163621114Y-58258031D01*
X163621114Y-58520138D01*
X163582402Y-58597561D01*
X163546256Y-58633708D01*
X163468835Y-58672419D01*
X163301966Y-58672419D01*
X163244924Y-58643898D01*
X163244924Y-58134272D01*
X163301966Y-58105752D01*
X163468835Y-58105752D01*
X163546258Y-58144463D01*
G37*
G36*
X186573495Y-58134272D02*
G01*
X186573495Y-58643898D01*
X186516454Y-58672419D01*
X186349585Y-58672419D01*
X186272162Y-58633708D01*
X186236016Y-58597561D01*
X186197305Y-58520139D01*
X186197305Y-58258031D01*
X186236016Y-58180607D01*
X186272161Y-58144463D01*
X186349585Y-58105752D01*
X186516454Y-58105752D01*
X186573495Y-58134272D01*
G37*
G36*
X167974830Y-58239701D02*
G01*
X168010974Y-58275846D01*
X168049686Y-58353269D01*
X168049686Y-58424900D01*
X168010974Y-58502323D01*
X167974830Y-58538468D01*
X167897407Y-58577180D01*
X167825776Y-58577180D01*
X167748352Y-58538468D01*
X167721115Y-58511231D01*
X167721115Y-58266938D01*
X167748352Y-58239701D01*
X167825776Y-58200990D01*
X167897407Y-58200990D01*
X167974830Y-58239701D01*
G37*
G36*
X155839230Y-58386187D02*
G01*
X155841645Y-58386848D01*
X155842457Y-58387660D01*
X155850318Y-58389223D01*
X155858046Y-58391340D01*
X155859134Y-58390977D01*
X155861591Y-58391466D01*
X156087883Y-58391466D01*
X156157656Y-58426352D01*
X156192543Y-58496126D01*
X156192543Y-58567757D01*
X156157656Y-58637532D01*
X156087883Y-58672419D01*
X155873395Y-58672419D01*
X155816353Y-58643898D01*
X155816353Y-58374748D01*
X155839230Y-58386187D01*
G37*
G36*
X159743991Y-58386187D02*
G01*
X159746406Y-58386848D01*
X159747218Y-58387660D01*
X159755079Y-58389223D01*
X159762807Y-58391340D01*
X159763895Y-58390977D01*
X159766352Y-58391466D01*
X159992644Y-58391466D01*
X160062417Y-58426352D01*
X160097304Y-58496126D01*
X160097304Y-58567757D01*
X160062417Y-58637532D01*
X159992644Y-58672419D01*
X159778156Y-58672419D01*
X159721114Y-58643898D01*
X159721114Y-58374748D01*
X159743991Y-58386187D01*
G37*
G36*
X162681465Y-58140638D02*
G01*
X162716352Y-58210412D01*
X162716352Y-58328094D01*
X162340162Y-58252856D01*
X162340162Y-58210412D01*
X162375048Y-58140638D01*
X162444823Y-58105752D01*
X162611692Y-58105752D01*
X162681465Y-58140638D01*
G37*
G36*
X165070068Y-58144463D02*
G01*
X165106212Y-58180608D01*
X165144924Y-58258031D01*
X165144924Y-58520138D01*
X165106212Y-58597561D01*
X165070066Y-58633708D01*
X164992645Y-58672419D01*
X164873395Y-58672419D01*
X164795972Y-58633708D01*
X164759826Y-58597561D01*
X164721115Y-58520139D01*
X164721115Y-58258031D01*
X164759826Y-58180607D01*
X164795971Y-58144463D01*
X164873395Y-58105752D01*
X164992645Y-58105752D01*
X165070068Y-58144463D01*
G37*
G36*
X165967180Y-58140638D02*
G01*
X166002067Y-58210412D01*
X166002067Y-58328094D01*
X165625877Y-58252856D01*
X165625877Y-58210412D01*
X165660763Y-58140638D01*
X165730538Y-58105752D01*
X165897407Y-58105752D01*
X165967180Y-58140638D01*
G37*
G36*
X171498639Y-58144463D02*
G01*
X171534783Y-58180608D01*
X171573495Y-58258031D01*
X171573495Y-58520138D01*
X171534783Y-58597561D01*
X171498637Y-58633708D01*
X171421216Y-58672419D01*
X171301966Y-58672419D01*
X171224543Y-58633708D01*
X171188397Y-58597561D01*
X171149686Y-58520139D01*
X171149686Y-58258031D01*
X171188397Y-58180607D01*
X171224542Y-58144463D01*
X171301966Y-58105752D01*
X171421216Y-58105752D01*
X171498639Y-58144463D01*
G37*
G36*
X173729084Y-58140638D02*
G01*
X173763971Y-58210412D01*
X173763971Y-58328094D01*
X173387781Y-58252856D01*
X173387781Y-58210412D01*
X173422667Y-58140638D01*
X173492442Y-58105752D01*
X173659311Y-58105752D01*
X173729084Y-58140638D01*
G37*
G36*
X174621114Y-58134272D02*
G01*
X174621114Y-58643898D01*
X174564073Y-58672419D01*
X174397204Y-58672419D01*
X174319781Y-58633708D01*
X174283635Y-58597561D01*
X174244924Y-58520139D01*
X174244924Y-58258031D01*
X174283635Y-58180607D01*
X174319780Y-58144463D01*
X174397204Y-58105752D01*
X174564073Y-58105752D01*
X174621114Y-58134272D01*
G37*
G36*
X177879592Y-58144463D02*
G01*
X177915736Y-58180608D01*
X177954448Y-58258031D01*
X177954448Y-58520138D01*
X177915736Y-58597561D01*
X177879590Y-58633708D01*
X177802169Y-58672419D01*
X177682919Y-58672419D01*
X177605496Y-58633708D01*
X177569350Y-58597561D01*
X177530639Y-58520139D01*
X177530639Y-58258031D01*
X177569350Y-58180607D01*
X177605495Y-58144463D01*
X177682919Y-58105752D01*
X177802169Y-58105752D01*
X177879592Y-58144463D01*
G37*
G36*
X188832226Y-59216863D02*
G01*
X153795718Y-59216863D01*
X153795718Y-58055752D01*
X153906829Y-58055752D01*
X153906829Y-58865276D01*
X153907317Y-58867732D01*
X153906955Y-58868821D01*
X153909071Y-58876548D01*
X153910635Y-58884410D01*
X153911446Y-58885221D01*
X153912108Y-58887637D01*
X153959726Y-58982874D01*
X153964641Y-58989207D01*
X153969093Y-58995869D01*
X154016711Y-59043488D01*
X154023377Y-59047942D01*
X154029706Y-59052854D01*
X154124944Y-59100473D01*
X154127359Y-59101134D01*
X154128171Y-59101946D01*
X154136032Y-59103509D01*
X154143760Y-59105626D01*
X154144848Y-59105263D01*
X154147305Y-59105752D01*
X154290162Y-59105752D01*
X154292618Y-59105263D01*
X154293707Y-59105626D01*
X154301434Y-59103509D01*
X154309296Y-59101946D01*
X154310107Y-59101134D01*
X154312523Y-59100473D01*
X154407760Y-59052855D01*
X154423172Y-59040893D01*
X154435274Y-59004589D01*
X154418160Y-58970361D01*
X154381855Y-58958259D01*
X154363039Y-58963412D01*
X154278359Y-59005752D01*
X154159109Y-59005752D01*
X154081685Y-58967040D01*
X154045540Y-58930896D01*
X154006829Y-58853473D01*
X154006829Y-58755701D01*
X154029706Y-58767140D01*
X154032121Y-58767801D01*
X154032933Y-58768613D01*
X154040794Y-58770176D01*
X154048522Y-58772293D01*
X154049610Y-58771930D01*
X154052067Y-58772419D01*
X154242543Y-58772419D01*
X154244999Y-58771930D01*
X154246088Y-58772293D01*
X154253815Y-58770176D01*
X154261677Y-58768613D01*
X154262488Y-58767801D01*
X154264904Y-58767140D01*
X154360141Y-58719522D01*
X154366468Y-58714611D01*
X154373137Y-58710155D01*
X154420756Y-58662535D01*
X154425209Y-58655869D01*
X154430121Y-58649541D01*
X154477740Y-58554303D01*
X154478401Y-58551887D01*
X154479213Y-58551076D01*
X154480776Y-58543214D01*
X154482893Y-58535487D01*
X154482530Y-58534398D01*
X154483019Y-58531942D01*
X154483019Y-58246228D01*
X154482530Y-58243771D01*
X154482893Y-58242683D01*
X154480776Y-58234955D01*
X154479213Y-58227094D01*
X154478401Y-58226282D01*
X154477740Y-58223867D01*
X154465111Y-58198609D01*
X154811591Y-58198609D01*
X154811591Y-58722419D01*
X154815397Y-58741553D01*
X154842457Y-58768613D01*
X154880725Y-58768613D01*
X154907785Y-58741553D01*
X154911591Y-58722419D01*
X154911591Y-58210412D01*
X154946477Y-58140638D01*
X155016252Y-58105752D01*
X155135502Y-58105752D01*
X155212925Y-58144463D01*
X155240162Y-58171700D01*
X155240162Y-58722419D01*
X155243968Y-58741553D01*
X155271028Y-58768613D01*
X155309296Y-58768613D01*
X155336356Y-58741553D01*
X155340162Y-58722419D01*
X155340162Y-58198609D01*
X155716353Y-58198609D01*
X155716353Y-58722419D01*
X155720159Y-58741553D01*
X155747219Y-58768613D01*
X155785487Y-58768613D01*
X155804383Y-58749716D01*
X155839230Y-58767140D01*
X155841645Y-58767801D01*
X155842457Y-58768613D01*
X155850318Y-58770176D01*
X155858046Y-58772293D01*
X155859134Y-58771930D01*
X155861591Y-58772419D01*
X156099686Y-58772419D01*
X156102142Y-58771930D01*
X156103231Y-58772293D01*
X156110958Y-58770176D01*
X156118820Y-58768613D01*
X156119631Y-58767801D01*
X156122047Y-58767140D01*
X156217284Y-58719522D01*
X156225150Y-58713416D01*
X156227684Y-58712572D01*
X156229873Y-58709750D01*
X156232696Y-58707560D01*
X156233541Y-58705025D01*
X156239645Y-58697160D01*
X156287264Y-58601922D01*
X156287925Y-58599506D01*
X156288737Y-58598695D01*
X156290300Y-58590833D01*
X156292417Y-58583106D01*
X156292054Y-58582017D01*
X156292543Y-58579561D01*
X156292543Y-58484323D01*
X156292054Y-58481866D01*
X156292417Y-58480778D01*
X156290300Y-58473050D01*
X156288737Y-58465189D01*
X156287925Y-58464377D01*
X156287264Y-58461962D01*
X156239645Y-58366724D01*
X156233540Y-58358858D01*
X156232696Y-58356325D01*
X156229875Y-58354135D01*
X156227684Y-58351312D01*
X156225148Y-58350466D01*
X156217284Y-58344363D01*
X156122047Y-58296745D01*
X156119631Y-58296083D01*
X156118820Y-58295272D01*
X156110958Y-58293708D01*
X156103231Y-58291592D01*
X156102142Y-58291954D01*
X156099686Y-58291466D01*
X155873395Y-58291466D01*
X155816353Y-58262945D01*
X155816353Y-58210412D01*
X155851239Y-58140638D01*
X155921014Y-58105752D01*
X156087883Y-58105752D01*
X156172563Y-58148092D01*
X156191379Y-58153245D01*
X156227684Y-58141143D01*
X156244798Y-58106915D01*
X156232696Y-58070611D01*
X156217284Y-58058649D01*
X156122047Y-58011031D01*
X156119631Y-58010369D01*
X156118820Y-58009558D01*
X156110958Y-58007994D01*
X156103231Y-58005878D01*
X156102142Y-58006240D01*
X156099686Y-58005752D01*
X155909210Y-58005752D01*
X155906753Y-58006240D01*
X155905665Y-58005878D01*
X155897937Y-58007994D01*
X155890076Y-58009558D01*
X155889264Y-58010369D01*
X155886849Y-58011031D01*
X155791611Y-58058650D01*
X155783745Y-58064754D01*
X155781212Y-58065599D01*
X155779022Y-58068419D01*
X155776199Y-58070611D01*
X155775353Y-58073146D01*
X155769250Y-58081011D01*
X155721632Y-58176248D01*
X155720970Y-58178663D01*
X155720159Y-58179475D01*
X155718595Y-58187336D01*
X155716479Y-58195064D01*
X155716841Y-58196152D01*
X155716353Y-58198609D01*
X155340162Y-58198609D01*
X155340162Y-58055752D01*
X155336356Y-58036618D01*
X155309296Y-58009558D01*
X155271028Y-58009558D01*
X155243968Y-58036618D01*
X155241875Y-58047135D01*
X155169666Y-58011031D01*
X155167250Y-58010369D01*
X155166439Y-58009558D01*
X155158577Y-58007994D01*
X155150850Y-58005878D01*
X155149761Y-58006240D01*
X155147305Y-58005752D01*
X155004448Y-58005752D01*
X155001991Y-58006240D01*
X155000903Y-58005878D01*
X154993175Y-58007994D01*
X154985314Y-58009558D01*
X154984502Y-58010369D01*
X154982087Y-58011031D01*
X154886849Y-58058650D01*
X154878983Y-58064754D01*
X154876450Y-58065599D01*
X154874260Y-58068419D01*
X154871437Y-58070611D01*
X154870591Y-58073146D01*
X154864488Y-58081011D01*
X154816870Y-58176248D01*
X154816208Y-58178663D01*
X154815397Y-58179475D01*
X154813833Y-58187336D01*
X154811717Y-58195064D01*
X154812079Y-58196152D01*
X154811591Y-58198609D01*
X154465111Y-58198609D01*
X154430121Y-58128629D01*
X154425209Y-58122300D01*
X154420755Y-58115634D01*
X154373136Y-58068016D01*
X154366474Y-58063564D01*
X154360141Y-58058649D01*
X154264904Y-58011031D01*
X154262488Y-58010369D01*
X154261677Y-58009558D01*
X154253815Y-58007994D01*
X154246088Y-58005878D01*
X154244999Y-58006240D01*
X154242543Y-58005752D01*
X154052067Y-58005752D01*
X154049610Y-58006240D01*
X154048522Y-58005878D01*
X154040794Y-58007994D01*
X154032933Y-58009558D01*
X154032121Y-58010369D01*
X154029706Y-58011031D01*
X153994859Y-58028454D01*
X153975963Y-58009558D01*
X153937695Y-58009558D01*
X153910635Y-58036618D01*
X153906829Y-58055752D01*
X153795718Y-58055752D01*
X153795718Y-57714505D01*
X156526507Y-57714505D01*
X156527237Y-57734000D01*
X156765332Y-58734000D01*
X156773466Y-58751732D01*
X156779835Y-58755651D01*
X156783582Y-58762123D01*
X156795527Y-58765308D01*
X156806058Y-58771789D01*
X156813333Y-58770056D01*
X156820557Y-58771983D01*
X156831255Y-58765789D01*
X156843285Y-58762925D01*
X156847204Y-58756555D01*
X156853676Y-58752809D01*
X156862284Y-58735302D01*
X157004448Y-58202186D01*
X157146612Y-58735302D01*
X157155220Y-58752810D01*
X157161692Y-58756557D01*
X157165611Y-58762925D01*
X157177637Y-58765788D01*
X157188339Y-58771984D01*
X157195564Y-58770057D01*
X157202838Y-58771789D01*
X157213367Y-58765308D01*
X157225314Y-58762123D01*
X157229060Y-58755651D01*
X157235430Y-58751732D01*
X157243564Y-58734000D01*
X157405051Y-58055752D01*
X157763971Y-58055752D01*
X157763971Y-58722419D01*
X157767777Y-58741553D01*
X157794837Y-58768613D01*
X157833105Y-58768613D01*
X157860165Y-58741553D01*
X157863971Y-58722419D01*
X157863971Y-58055752D01*
X158240161Y-58055752D01*
X158240161Y-58912895D01*
X158240649Y-58915351D01*
X158240287Y-58916440D01*
X158242403Y-58924167D01*
X158243967Y-58932029D01*
X158244778Y-58932840D01*
X158245440Y-58935256D01*
X158293058Y-59030493D01*
X158299161Y-59038357D01*
X158300007Y-59040893D01*
X158302830Y-59043084D01*
X158305020Y-59045905D01*
X158307553Y-59046749D01*
X158315419Y-59052854D01*
X158410657Y-59100473D01*
X158413072Y-59101134D01*
X158413884Y-59101946D01*
X158421745Y-59103509D01*
X158429473Y-59105626D01*
X158430561Y-59105263D01*
X158433018Y-59105752D01*
X158480637Y-59105752D01*
X158499771Y-59101946D01*
X158526831Y-59074886D01*
X158526831Y-59036618D01*
X158499771Y-59009558D01*
X158480637Y-59005752D01*
X158444822Y-59005752D01*
X158375047Y-58970865D01*
X158340161Y-58901092D01*
X158340161Y-58198609D01*
X158716352Y-58198609D01*
X158716352Y-58722419D01*
X158720158Y-58741553D01*
X158747218Y-58768613D01*
X158785486Y-58768613D01*
X158812546Y-58741553D01*
X158816352Y-58722419D01*
X158816352Y-58210412D01*
X158851238Y-58140638D01*
X158921013Y-58105752D01*
X159040263Y-58105752D01*
X159117686Y-58144463D01*
X159144923Y-58171700D01*
X159144923Y-58722419D01*
X159148729Y-58741553D01*
X159175789Y-58768613D01*
X159214057Y-58768613D01*
X159241117Y-58741553D01*
X159244923Y-58722419D01*
X159244923Y-58198609D01*
X159621114Y-58198609D01*
X159621114Y-58722419D01*
X159624920Y-58741553D01*
X159651980Y-58768613D01*
X159690248Y-58768613D01*
X159709144Y-58749716D01*
X159743991Y-58767140D01*
X159746406Y-58767801D01*
X159747218Y-58768613D01*
X159755079Y-58770176D01*
X159762807Y-58772293D01*
X159763895Y-58771930D01*
X159766352Y-58772419D01*
X160004447Y-58772419D01*
X160006903Y-58771930D01*
X160007992Y-58772293D01*
X160015719Y-58770176D01*
X160023581Y-58768613D01*
X160024392Y-58767801D01*
X160026808Y-58767140D01*
X160122045Y-58719522D01*
X160129911Y-58713416D01*
X160132445Y-58712572D01*
X160134634Y-58709750D01*
X160137457Y-58707560D01*
X160138302Y-58705025D01*
X160144406Y-58697160D01*
X160192025Y-58601922D01*
X160192686Y-58599506D01*
X160193498Y-58598695D01*
X160195061Y-58590833D01*
X160197178Y-58583106D01*
X160196815Y-58582017D01*
X160197304Y-58579561D01*
X160197304Y-58484323D01*
X160196815Y-58481866D01*
X160197178Y-58480778D01*
X160195061Y-58473050D01*
X160193498Y-58465189D01*
X160192686Y-58464377D01*
X160192025Y-58461962D01*
X160144406Y-58366724D01*
X160138301Y-58358858D01*
X160137457Y-58356325D01*
X160134636Y-58354135D01*
X160132445Y-58351312D01*
X160129909Y-58350466D01*
X160122045Y-58344363D01*
X160026808Y-58296745D01*
X160024392Y-58296083D01*
X160023581Y-58295272D01*
X160015719Y-58293708D01*
X160007992Y-58291592D01*
X160006903Y-58291954D01*
X160004447Y-58291466D01*
X159778156Y-58291466D01*
X159721114Y-58262945D01*
X159721114Y-58210412D01*
X159756000Y-58140638D01*
X159825775Y-58105752D01*
X159992644Y-58105752D01*
X160077324Y-58148092D01*
X160096140Y-58153245D01*
X160132445Y-58141143D01*
X160149559Y-58106915D01*
X160137457Y-58070611D01*
X160122045Y-58058649D01*
X160116251Y-58055752D01*
X160525876Y-58055752D01*
X160525876Y-58722419D01*
X160529682Y-58741553D01*
X160556742Y-58768613D01*
X160595010Y-58768613D01*
X160622070Y-58741553D01*
X160624162Y-58731035D01*
X160696372Y-58767140D01*
X160698787Y-58767801D01*
X160699599Y-58768613D01*
X160707460Y-58770176D01*
X160715188Y-58772293D01*
X160716276Y-58771930D01*
X160718733Y-58772419D01*
X160861590Y-58772419D01*
X160864046Y-58771930D01*
X160865135Y-58772293D01*
X160872862Y-58770176D01*
X160880724Y-58768613D01*
X160881535Y-58767801D01*
X160883951Y-58767140D01*
X160979188Y-58719522D01*
X160987054Y-58713416D01*
X160989588Y-58712572D01*
X160991777Y-58709750D01*
X160994600Y-58707560D01*
X160995445Y-58705025D01*
X161001549Y-58697160D01*
X161049168Y-58601922D01*
X161049829Y-58599506D01*
X161050641Y-58598695D01*
X161052204Y-58590833D01*
X161054321Y-58583106D01*
X161053958Y-58582017D01*
X161054447Y-58579561D01*
X161054447Y-58055752D01*
X161050641Y-58036618D01*
X161023581Y-58009558D01*
X160985313Y-58009558D01*
X160958253Y-58036618D01*
X160954447Y-58055752D01*
X160954447Y-58567757D01*
X160919560Y-58637532D01*
X160849787Y-58672419D01*
X160730537Y-58672419D01*
X160653114Y-58633708D01*
X160625876Y-58606469D01*
X160625876Y-58055752D01*
X160622070Y-58036618D01*
X160595010Y-58009558D01*
X160556742Y-58009558D01*
X160529682Y-58036618D01*
X160525876Y-58055752D01*
X160116251Y-58055752D01*
X160026808Y-58011031D01*
X160024392Y-58010369D01*
X160023581Y-58009558D01*
X160015719Y-58007994D01*
X160007992Y-58005878D01*
X160006903Y-58006240D01*
X160004447Y-58005752D01*
X159813971Y-58005752D01*
X159811514Y-58006240D01*
X159810426Y-58005878D01*
X159802698Y-58007994D01*
X159794837Y-58009558D01*
X159794025Y-58010369D01*
X159791610Y-58011031D01*
X159696372Y-58058650D01*
X159688506Y-58064754D01*
X159685973Y-58065599D01*
X159683783Y-58068419D01*
X159680960Y-58070611D01*
X159680114Y-58073146D01*
X159674011Y-58081011D01*
X159626393Y-58176248D01*
X159625731Y-58178663D01*
X159624920Y-58179475D01*
X159623356Y-58187336D01*
X159621240Y-58195064D01*
X159621602Y-58196152D01*
X159621114Y-58198609D01*
X159244923Y-58198609D01*
X159244923Y-58055752D01*
X159241117Y-58036618D01*
X159214057Y-58009558D01*
X159175789Y-58009558D01*
X159148729Y-58036618D01*
X159146636Y-58047135D01*
X159074427Y-58011031D01*
X159072011Y-58010369D01*
X159071200Y-58009558D01*
X159063338Y-58007994D01*
X159055611Y-58005878D01*
X159054522Y-58006240D01*
X159052066Y-58005752D01*
X158909209Y-58005752D01*
X158906752Y-58006240D01*
X158905664Y-58005878D01*
X158897936Y-58007994D01*
X158890075Y-58009558D01*
X158889263Y-58010369D01*
X158886848Y-58011031D01*
X158791610Y-58058650D01*
X158783744Y-58064754D01*
X158781211Y-58065599D01*
X158779021Y-58068419D01*
X158776198Y-58070611D01*
X158775352Y-58073146D01*
X158769249Y-58081011D01*
X158721631Y-58176248D01*
X158720969Y-58178663D01*
X158720158Y-58179475D01*
X158718594Y-58187336D01*
X158716478Y-58195064D01*
X158716840Y-58196152D01*
X158716352Y-58198609D01*
X158340161Y-58198609D01*
X158340161Y-58055752D01*
X158336355Y-58036618D01*
X158309295Y-58009558D01*
X158271027Y-58009558D01*
X158243967Y-58036618D01*
X158240161Y-58055752D01*
X157863971Y-58055752D01*
X157860165Y-58036618D01*
X157833105Y-58009558D01*
X157794837Y-58009558D01*
X157767777Y-58036618D01*
X157763971Y-58055752D01*
X157405051Y-58055752D01*
X157477634Y-57750904D01*
X157720158Y-57750904D01*
X157720158Y-57789172D01*
X157730997Y-57805393D01*
X157778615Y-57853012D01*
X157794836Y-57863851D01*
X157794837Y-57863851D01*
X157833105Y-57863851D01*
X157849326Y-57853012D01*
X157896945Y-57805394D01*
X157907784Y-57789173D01*
X157907784Y-57750904D01*
X158196348Y-57750904D01*
X158196348Y-57789172D01*
X158207187Y-57805393D01*
X158254805Y-57853012D01*
X158271026Y-57863851D01*
X158271027Y-57863851D01*
X158309295Y-57863851D01*
X158325516Y-57853012D01*
X158373135Y-57805394D01*
X158383974Y-57789173D01*
X158383974Y-57750904D01*
X158383974Y-57750903D01*
X158373135Y-57734682D01*
X158369530Y-57731077D01*
X161288536Y-57731077D01*
X161295598Y-57749263D01*
X161621114Y-58260788D01*
X161621114Y-58722419D01*
X161624920Y-58741553D01*
X161651980Y-58768613D01*
X161690248Y-58768613D01*
X161717308Y-58741553D01*
X161721114Y-58722419D01*
X161721114Y-58260788D01*
X161760682Y-58198609D01*
X162240162Y-58198609D01*
X162240162Y-58293847D01*
X162241603Y-58301095D01*
X162241113Y-58303550D01*
X162242508Y-58305643D01*
X162243968Y-58312981D01*
X162254264Y-58323277D01*
X162262340Y-58335391D01*
X162269248Y-58338261D01*
X162271028Y-58340041D01*
X162273532Y-58340041D01*
X162280356Y-58342876D01*
X162716352Y-58430075D01*
X162716352Y-58567757D01*
X162681465Y-58637532D01*
X162611692Y-58672419D01*
X162444823Y-58672419D01*
X162360142Y-58630079D01*
X162341326Y-58624926D01*
X162305021Y-58637027D01*
X162287907Y-58671255D01*
X162300008Y-58707560D01*
X162315420Y-58719521D01*
X162410658Y-58767140D01*
X162413073Y-58767801D01*
X162413885Y-58768613D01*
X162421746Y-58770176D01*
X162429474Y-58772293D01*
X162430562Y-58771930D01*
X162433019Y-58772419D01*
X162623495Y-58772419D01*
X162625951Y-58771930D01*
X162627040Y-58772293D01*
X162634767Y-58770176D01*
X162642629Y-58768613D01*
X162643440Y-58767801D01*
X162645856Y-58767140D01*
X162741093Y-58719522D01*
X162748959Y-58713416D01*
X162751493Y-58712572D01*
X162753682Y-58709750D01*
X162756505Y-58707560D01*
X162757350Y-58705025D01*
X162763454Y-58697160D01*
X162811073Y-58601922D01*
X162811734Y-58599506D01*
X162812546Y-58598695D01*
X162814109Y-58590833D01*
X162816226Y-58583106D01*
X162815863Y-58582017D01*
X162816352Y-58579561D01*
X162816352Y-58198609D01*
X162815863Y-58196152D01*
X162816226Y-58195064D01*
X162814109Y-58187336D01*
X162812546Y-58179475D01*
X162811734Y-58178663D01*
X162811073Y-58176248D01*
X162763454Y-58081010D01*
X162757349Y-58073144D01*
X162756505Y-58070611D01*
X162753684Y-58068421D01*
X162751493Y-58065598D01*
X162748957Y-58064752D01*
X162741093Y-58058649D01*
X162735299Y-58055752D01*
X163144924Y-58055752D01*
X163144924Y-58865276D01*
X163145412Y-58867732D01*
X163145050Y-58868821D01*
X163147166Y-58876548D01*
X163148730Y-58884410D01*
X163149541Y-58885221D01*
X163150203Y-58887637D01*
X163197821Y-58982874D01*
X163202736Y-58989207D01*
X163207188Y-58995869D01*
X163254806Y-59043488D01*
X163261472Y-59047942D01*
X163267801Y-59052854D01*
X163363039Y-59100473D01*
X163365454Y-59101134D01*
X163366266Y-59101946D01*
X163374127Y-59103509D01*
X163381855Y-59105626D01*
X163382943Y-59105263D01*
X163385400Y-59105752D01*
X163528257Y-59105752D01*
X163530713Y-59105263D01*
X163531802Y-59105626D01*
X163539529Y-59103509D01*
X163547391Y-59101946D01*
X163548202Y-59101134D01*
X163550618Y-59100473D01*
X163645855Y-59052855D01*
X163661267Y-59040893D01*
X163673369Y-59004589D01*
X163656255Y-58970361D01*
X163619950Y-58958259D01*
X163601134Y-58963412D01*
X163516454Y-59005752D01*
X163397204Y-59005752D01*
X163319780Y-58967040D01*
X163283635Y-58930896D01*
X163244924Y-58853473D01*
X163244924Y-58755701D01*
X163267801Y-58767140D01*
X163270216Y-58767801D01*
X163271028Y-58768613D01*
X163278889Y-58770176D01*
X163286617Y-58772293D01*
X163287705Y-58771930D01*
X163290162Y-58772419D01*
X163480638Y-58772419D01*
X163483094Y-58771930D01*
X163484183Y-58772293D01*
X163491910Y-58770176D01*
X163499772Y-58768613D01*
X163500583Y-58767801D01*
X163502999Y-58767140D01*
X163598236Y-58719522D01*
X163604563Y-58714611D01*
X163611232Y-58710155D01*
X163658851Y-58662535D01*
X163663304Y-58655869D01*
X163668216Y-58649541D01*
X163715835Y-58554303D01*
X163716496Y-58551887D01*
X163717308Y-58551076D01*
X163718871Y-58543214D01*
X163720988Y-58535487D01*
X163720625Y-58534398D01*
X163721114Y-58531942D01*
X163721114Y-58246228D01*
X163720625Y-58243771D01*
X163720988Y-58242683D01*
X163718871Y-58234955D01*
X163717308Y-58227094D01*
X163716496Y-58226282D01*
X163715835Y-58223867D01*
X163668216Y-58128629D01*
X163663304Y-58122300D01*
X163658850Y-58115634D01*
X163611231Y-58068016D01*
X163604569Y-58063564D01*
X163598236Y-58058649D01*
X163554174Y-58036618D01*
X163910635Y-58036618D01*
X163910635Y-58074886D01*
X163937695Y-58101946D01*
X163956829Y-58105752D01*
X164040264Y-58105752D01*
X164117687Y-58144463D01*
X164153831Y-58180608D01*
X164192543Y-58258031D01*
X164192543Y-58722419D01*
X164196349Y-58741553D01*
X164223409Y-58768613D01*
X164261677Y-58768613D01*
X164288737Y-58741553D01*
X164292543Y-58722419D01*
X164292543Y-58246228D01*
X164621115Y-58246228D01*
X164621115Y-58531942D01*
X164621603Y-58534398D01*
X164621241Y-58535487D01*
X164623357Y-58543214D01*
X164624921Y-58551076D01*
X164625732Y-58551887D01*
X164626394Y-58554303D01*
X164674012Y-58649540D01*
X164678923Y-58655868D01*
X164683378Y-58662535D01*
X164730997Y-58710155D01*
X164737663Y-58714609D01*
X164743992Y-58719521D01*
X164839230Y-58767140D01*
X164841645Y-58767801D01*
X164842457Y-58768613D01*
X164850318Y-58770176D01*
X164858046Y-58772293D01*
X164859134Y-58771930D01*
X164861591Y-58772419D01*
X165004448Y-58772419D01*
X165006904Y-58771930D01*
X165007993Y-58772293D01*
X165015720Y-58770176D01*
X165023582Y-58768613D01*
X165024393Y-58767801D01*
X165026809Y-58767140D01*
X165122046Y-58719522D01*
X165128373Y-58714611D01*
X165135042Y-58710155D01*
X165182661Y-58662535D01*
X165187114Y-58655869D01*
X165192026Y-58649541D01*
X165239645Y-58554303D01*
X165240306Y-58551887D01*
X165241118Y-58551076D01*
X165242681Y-58543214D01*
X165244798Y-58535487D01*
X165244435Y-58534398D01*
X165244924Y-58531942D01*
X165244924Y-58246228D01*
X165244435Y-58243771D01*
X165244798Y-58242683D01*
X165242681Y-58234955D01*
X165241118Y-58227094D01*
X165240306Y-58226282D01*
X165239645Y-58223867D01*
X165227016Y-58198609D01*
X165525877Y-58198609D01*
X165525877Y-58293847D01*
X165527318Y-58301095D01*
X165526828Y-58303550D01*
X165528223Y-58305643D01*
X165529683Y-58312981D01*
X165539979Y-58323277D01*
X165548055Y-58335391D01*
X165554963Y-58338261D01*
X165556743Y-58340041D01*
X165559247Y-58340041D01*
X165566071Y-58342876D01*
X166002067Y-58430075D01*
X166002067Y-58567757D01*
X165967180Y-58637532D01*
X165897407Y-58672419D01*
X165730538Y-58672419D01*
X165645857Y-58630079D01*
X165627041Y-58624926D01*
X165590736Y-58637027D01*
X165573622Y-58671255D01*
X165585723Y-58707560D01*
X165601135Y-58719521D01*
X165696373Y-58767140D01*
X165698788Y-58767801D01*
X165699600Y-58768613D01*
X165707461Y-58770176D01*
X165715189Y-58772293D01*
X165716277Y-58771930D01*
X165718734Y-58772419D01*
X165909210Y-58772419D01*
X165911666Y-58771930D01*
X165912755Y-58772293D01*
X165920482Y-58770176D01*
X165928344Y-58768613D01*
X165929155Y-58767801D01*
X165931571Y-58767140D01*
X166026808Y-58719522D01*
X166034674Y-58713416D01*
X166037208Y-58712572D01*
X166039397Y-58709750D01*
X166042220Y-58707560D01*
X166043065Y-58705025D01*
X166049169Y-58697160D01*
X166096788Y-58601922D01*
X166097449Y-58599506D01*
X166098261Y-58598695D01*
X166099824Y-58590833D01*
X166101941Y-58583106D01*
X166101578Y-58582017D01*
X166102067Y-58579561D01*
X166102067Y-58293847D01*
X166383020Y-58293847D01*
X166383020Y-58627180D01*
X166386826Y-58646314D01*
X166397664Y-58662535D01*
X166445283Y-58710155D01*
X166447365Y-58711546D01*
X166447879Y-58712573D01*
X166454837Y-58716539D01*
X166461504Y-58720994D01*
X166462653Y-58720994D01*
X166464828Y-58722234D01*
X166607684Y-58769853D01*
X166615634Y-58770855D01*
X166623496Y-58772419D01*
X166718734Y-58772419D01*
X166726596Y-58770855D01*
X166734545Y-58769853D01*
X166877402Y-58722234D01*
X166879577Y-58720994D01*
X166880726Y-58720994D01*
X166887396Y-58716536D01*
X166894350Y-58712573D01*
X166894862Y-58711547D01*
X166896947Y-58710155D01*
X166992185Y-58614916D01*
X166996638Y-58608250D01*
X167001550Y-58601922D01*
X167049169Y-58506684D01*
X167050615Y-58501402D01*
X167052955Y-58496450D01*
X167100574Y-58305974D01*
X167100871Y-58299856D01*
X167102067Y-58293847D01*
X167102067Y-58198609D01*
X167383019Y-58198609D01*
X167383019Y-58436704D01*
X167383507Y-58439160D01*
X167383145Y-58440249D01*
X167385261Y-58447976D01*
X167386825Y-58455838D01*
X167387636Y-58456649D01*
X167388298Y-58459065D01*
X167435916Y-58554302D01*
X167442021Y-58562168D01*
X167442866Y-58564702D01*
X167445687Y-58566891D01*
X167447878Y-58569714D01*
X167450412Y-58570559D01*
X167458278Y-58576663D01*
X167553516Y-58624282D01*
X167555931Y-58624943D01*
X167556743Y-58625755D01*
X167564604Y-58627318D01*
X167572332Y-58629435D01*
X167573420Y-58629072D01*
X167575877Y-58629561D01*
X167623496Y-58629561D01*
X167642630Y-58625755D01*
X167658851Y-58614916D01*
X167671114Y-58602652D01*
X167683378Y-58614916D01*
X167690044Y-58619370D01*
X167696373Y-58624282D01*
X167791611Y-58671901D01*
X167794026Y-58672562D01*
X167794838Y-58673374D01*
X167802699Y-58674937D01*
X167810427Y-58677054D01*
X167811515Y-58676691D01*
X167813972Y-58677180D01*
X167909210Y-58677180D01*
X167911666Y-58676691D01*
X167912755Y-58677054D01*
X167920482Y-58674937D01*
X167928344Y-58673374D01*
X167929155Y-58672562D01*
X167931571Y-58671901D01*
X168026808Y-58624283D01*
X168033141Y-58619367D01*
X168039803Y-58614916D01*
X168087422Y-58567298D01*
X168091876Y-58560631D01*
X168096788Y-58554303D01*
X168144407Y-58459065D01*
X168145068Y-58456649D01*
X168145880Y-58455838D01*
X168147443Y-58447976D01*
X168149560Y-58440249D01*
X168149197Y-58439160D01*
X168149686Y-58436704D01*
X168149686Y-58341466D01*
X168149197Y-58339009D01*
X168149560Y-58337921D01*
X168147443Y-58330193D01*
X168145880Y-58322332D01*
X168145068Y-58321520D01*
X168144407Y-58319105D01*
X168096788Y-58223867D01*
X168091876Y-58217538D01*
X168087422Y-58210872D01*
X168039803Y-58163254D01*
X168033141Y-58158802D01*
X168026808Y-58153887D01*
X167931571Y-58106269D01*
X167929155Y-58105607D01*
X167928344Y-58104796D01*
X167920482Y-58103232D01*
X167912755Y-58101116D01*
X167911666Y-58101478D01*
X167909210Y-58100990D01*
X167813972Y-58100990D01*
X167811515Y-58101478D01*
X167810427Y-58101116D01*
X167802699Y-58103232D01*
X167794838Y-58104796D01*
X167794026Y-58105607D01*
X167791611Y-58106269D01*
X167719401Y-58142373D01*
X167717309Y-58131856D01*
X167690249Y-58104796D01*
X167651981Y-58104796D01*
X167624921Y-58131856D01*
X167621115Y-58150990D01*
X167621115Y-58511231D01*
X167602786Y-58529561D01*
X167587681Y-58529561D01*
X167517905Y-58494674D01*
X167483019Y-58424901D01*
X167483019Y-58213747D01*
X167564311Y-58091808D01*
X167691642Y-58006920D01*
X167861591Y-57964433D01*
X168031536Y-58006920D01*
X168158868Y-58091807D01*
X168243755Y-58219136D01*
X168286242Y-58389085D01*
X168243755Y-58559033D01*
X168158868Y-58686363D01*
X168031536Y-58771250D01*
X167861591Y-58813737D01*
X167691642Y-58771250D01*
X167555993Y-58680816D01*
X167537961Y-58673370D01*
X167500436Y-58680875D01*
X167479209Y-58712716D01*
X167486714Y-58750241D01*
X167500523Y-58764022D01*
X167643380Y-58859260D01*
X167651280Y-58862522D01*
X167658988Y-58866164D01*
X167849464Y-58913783D01*
X167852933Y-58913951D01*
X167854232Y-58914731D01*
X167861591Y-58914372D01*
X167868950Y-58914731D01*
X167870248Y-58913951D01*
X167873718Y-58913783D01*
X168064194Y-58866164D01*
X168071909Y-58862519D01*
X168079802Y-58859260D01*
X168222659Y-58764021D01*
X168222709Y-58763970D01*
X168222746Y-58763963D01*
X168229720Y-58756974D01*
X168236468Y-58750241D01*
X168236474Y-58750206D01*
X168236527Y-58750154D01*
X168331765Y-58607296D01*
X168335027Y-58599395D01*
X168338669Y-58591688D01*
X168386288Y-58401212D01*
X168386456Y-58397742D01*
X168387236Y-58396444D01*
X168386877Y-58389085D01*
X168387236Y-58381726D01*
X168386456Y-58380427D01*
X168386288Y-58376958D01*
X168338669Y-58186482D01*
X168335027Y-58178774D01*
X168331765Y-58170874D01*
X168236527Y-58028017D01*
X168236474Y-58027964D01*
X168236468Y-58027930D01*
X168229720Y-58021196D01*
X168222746Y-58014208D01*
X168222709Y-58014200D01*
X168222659Y-58014150D01*
X168079802Y-57918911D01*
X168071909Y-57915651D01*
X168064194Y-57912007D01*
X167873718Y-57864388D01*
X167870248Y-57864219D01*
X167868950Y-57863440D01*
X167861591Y-57863798D01*
X167854232Y-57863440D01*
X167852933Y-57864219D01*
X167849464Y-57864388D01*
X167658988Y-57912007D01*
X167651280Y-57915648D01*
X167643380Y-57918911D01*
X167500523Y-58014149D01*
X167500470Y-58014201D01*
X167500436Y-58014208D01*
X167493642Y-58021016D01*
X167486714Y-58027930D01*
X167486707Y-58027964D01*
X167486655Y-58028017D01*
X167391417Y-58170874D01*
X167388596Y-58177703D01*
X167386825Y-58179475D01*
X167385859Y-58184331D01*
X167383970Y-58188905D01*
X167384460Y-58191359D01*
X167383019Y-58198609D01*
X167102067Y-58198609D01*
X167102067Y-58150990D01*
X167100871Y-58144980D01*
X167100574Y-58138863D01*
X167052955Y-57948387D01*
X167050615Y-57943434D01*
X167049169Y-57938153D01*
X167001550Y-57842915D01*
X166996634Y-57836580D01*
X166992184Y-57829921D01*
X166896946Y-57734683D01*
X166894863Y-57733291D01*
X166894350Y-57732265D01*
X166887389Y-57728297D01*
X166880725Y-57723844D01*
X166879577Y-57723844D01*
X166877402Y-57722604D01*
X166763099Y-57684503D01*
X168574447Y-57684503D01*
X168581893Y-57702535D01*
X169439036Y-58988249D01*
X169452816Y-59002059D01*
X169490342Y-59009564D01*
X169522183Y-58988336D01*
X169529688Y-58950811D01*
X169522241Y-58932779D01*
X169032795Y-58198609D01*
X169763971Y-58198609D01*
X169763971Y-58722419D01*
X169767777Y-58741553D01*
X169794837Y-58768613D01*
X169833105Y-58768613D01*
X169860165Y-58741553D01*
X169863971Y-58722419D01*
X169863971Y-58210412D01*
X169898857Y-58140638D01*
X169968633Y-58105752D01*
X170087883Y-58105752D01*
X170157656Y-58140638D01*
X170192543Y-58210412D01*
X170192543Y-58722419D01*
X170196349Y-58741553D01*
X170223409Y-58768613D01*
X170261677Y-58768613D01*
X170288737Y-58741553D01*
X170292543Y-58722419D01*
X170292543Y-58210412D01*
X170327429Y-58140638D01*
X170397204Y-58105752D01*
X170516454Y-58105752D01*
X170593877Y-58144463D01*
X170621114Y-58171700D01*
X170621114Y-58722419D01*
X170624920Y-58741553D01*
X170651980Y-58768613D01*
X170690248Y-58768613D01*
X170717308Y-58741553D01*
X170721114Y-58722419D01*
X170721114Y-58246228D01*
X171049686Y-58246228D01*
X171049686Y-58531942D01*
X171050174Y-58534398D01*
X171049812Y-58535487D01*
X171051928Y-58543214D01*
X171053492Y-58551076D01*
X171054303Y-58551887D01*
X171054965Y-58554303D01*
X171102583Y-58649540D01*
X171107494Y-58655868D01*
X171111949Y-58662535D01*
X171159568Y-58710155D01*
X171166234Y-58714609D01*
X171172563Y-58719521D01*
X171267801Y-58767140D01*
X171270216Y-58767801D01*
X171271028Y-58768613D01*
X171278889Y-58770176D01*
X171286617Y-58772293D01*
X171287705Y-58771930D01*
X171290162Y-58772419D01*
X171433019Y-58772419D01*
X171435475Y-58771930D01*
X171436564Y-58772293D01*
X171444291Y-58770176D01*
X171452153Y-58768613D01*
X171452964Y-58767801D01*
X171455380Y-58767140D01*
X171550617Y-58719522D01*
X171556944Y-58714611D01*
X171563613Y-58710155D01*
X171611232Y-58662535D01*
X171615685Y-58655869D01*
X171620597Y-58649541D01*
X171668216Y-58554303D01*
X171668877Y-58551887D01*
X171669689Y-58551076D01*
X171671252Y-58543214D01*
X171673369Y-58535487D01*
X171673006Y-58534398D01*
X171673495Y-58531942D01*
X171673495Y-58246228D01*
X171673006Y-58243771D01*
X171673369Y-58242683D01*
X171671252Y-58234955D01*
X171669689Y-58227094D01*
X171668877Y-58226282D01*
X171668216Y-58223867D01*
X171620597Y-58128629D01*
X171615685Y-58122300D01*
X171611231Y-58115634D01*
X171602513Y-58106916D01*
X171954574Y-58106916D01*
X171971688Y-58141144D01*
X172007993Y-58153245D01*
X172026809Y-58148092D01*
X172111490Y-58105752D01*
X172278359Y-58105752D01*
X172355782Y-58144463D01*
X172391926Y-58180608D01*
X172430638Y-58258031D01*
X172430638Y-58520138D01*
X172391926Y-58597561D01*
X172355780Y-58633708D01*
X172278359Y-58672419D01*
X172111490Y-58672419D01*
X172026809Y-58630079D01*
X172007993Y-58624926D01*
X171971688Y-58637027D01*
X171954574Y-58671255D01*
X171966675Y-58707560D01*
X171982087Y-58719521D01*
X172077325Y-58767140D01*
X172079740Y-58767801D01*
X172080552Y-58768613D01*
X172088413Y-58770176D01*
X172096141Y-58772293D01*
X172097229Y-58771930D01*
X172099686Y-58772419D01*
X172290162Y-58772419D01*
X172292618Y-58771930D01*
X172293707Y-58772293D01*
X172301434Y-58770176D01*
X172309296Y-58768613D01*
X172310107Y-58767801D01*
X172312523Y-58767140D01*
X172407760Y-58719522D01*
X172414087Y-58714611D01*
X172420756Y-58710155D01*
X172468375Y-58662535D01*
X172472828Y-58655869D01*
X172472986Y-58655666D01*
X172815396Y-58655666D01*
X172815396Y-58693935D01*
X172815398Y-58693937D01*
X172826235Y-58710155D01*
X172873853Y-58757774D01*
X172890074Y-58768613D01*
X172890075Y-58768613D01*
X172928343Y-58768613D01*
X172944564Y-58757774D01*
X172992183Y-58710156D01*
X173003022Y-58693935D01*
X173003022Y-58655666D01*
X172992184Y-58639445D01*
X172944565Y-58591825D01*
X172928344Y-58580986D01*
X172928343Y-58580986D01*
X172890074Y-58580986D01*
X172873853Y-58591825D01*
X172826234Y-58639445D01*
X172815396Y-58655666D01*
X172472986Y-58655666D01*
X172477740Y-58649541D01*
X172525359Y-58554303D01*
X172526020Y-58551887D01*
X172526832Y-58551076D01*
X172528395Y-58543214D01*
X172530512Y-58535487D01*
X172530149Y-58534398D01*
X172530638Y-58531942D01*
X172530638Y-58246228D01*
X172530149Y-58243771D01*
X172530512Y-58242683D01*
X172528395Y-58234955D01*
X172526832Y-58227094D01*
X172526020Y-58226282D01*
X172525359Y-58223867D01*
X172512730Y-58198609D01*
X173287781Y-58198609D01*
X173287781Y-58293847D01*
X173289222Y-58301095D01*
X173288732Y-58303550D01*
X173290127Y-58305643D01*
X173291587Y-58312981D01*
X173301883Y-58323277D01*
X173309959Y-58335391D01*
X173316867Y-58338261D01*
X173318647Y-58340041D01*
X173321151Y-58340041D01*
X173327975Y-58342876D01*
X173763971Y-58430075D01*
X173763971Y-58567757D01*
X173729084Y-58637532D01*
X173659311Y-58672419D01*
X173492442Y-58672419D01*
X173407761Y-58630079D01*
X173388945Y-58624926D01*
X173352640Y-58637027D01*
X173335526Y-58671255D01*
X173347627Y-58707560D01*
X173363039Y-58719521D01*
X173458277Y-58767140D01*
X173460692Y-58767801D01*
X173461504Y-58768613D01*
X173469365Y-58770176D01*
X173477093Y-58772293D01*
X173478181Y-58771930D01*
X173480638Y-58772419D01*
X173671114Y-58772419D01*
X173673570Y-58771930D01*
X173674659Y-58772293D01*
X173682386Y-58770176D01*
X173690248Y-58768613D01*
X173691059Y-58767801D01*
X173693475Y-58767140D01*
X173788712Y-58719522D01*
X173796578Y-58713416D01*
X173799112Y-58712572D01*
X173801301Y-58709750D01*
X173804124Y-58707560D01*
X173804969Y-58705025D01*
X173811073Y-58697160D01*
X173858692Y-58601922D01*
X173859353Y-58599506D01*
X173860165Y-58598695D01*
X173861728Y-58590833D01*
X173863845Y-58583106D01*
X173863482Y-58582017D01*
X173863971Y-58579561D01*
X173863971Y-58246228D01*
X174144924Y-58246228D01*
X174144924Y-58531942D01*
X174145412Y-58534398D01*
X174145050Y-58535487D01*
X174147166Y-58543214D01*
X174148730Y-58551076D01*
X174149541Y-58551887D01*
X174150203Y-58554303D01*
X174197821Y-58649540D01*
X174202732Y-58655868D01*
X174207187Y-58662535D01*
X174254806Y-58710155D01*
X174261472Y-58714609D01*
X174267801Y-58719521D01*
X174363039Y-58767140D01*
X174365454Y-58767801D01*
X174366266Y-58768613D01*
X174374127Y-58770176D01*
X174381855Y-58772293D01*
X174382943Y-58771930D01*
X174385400Y-58772419D01*
X174575876Y-58772419D01*
X174578332Y-58771930D01*
X174579421Y-58772293D01*
X174587148Y-58770176D01*
X174595010Y-58768613D01*
X174595821Y-58767801D01*
X174598237Y-58767140D01*
X174633083Y-58749716D01*
X174651980Y-58768613D01*
X174690248Y-58768613D01*
X174717308Y-58741553D01*
X174721114Y-58722419D01*
X174721114Y-58055752D01*
X175097305Y-58055752D01*
X175097305Y-58722419D01*
X175101111Y-58741553D01*
X175128171Y-58768613D01*
X175166439Y-58768613D01*
X175193499Y-58741553D01*
X175195591Y-58731035D01*
X175267801Y-58767140D01*
X175270216Y-58767801D01*
X175271028Y-58768613D01*
X175278889Y-58770176D01*
X175286617Y-58772293D01*
X175287705Y-58771930D01*
X175290162Y-58772419D01*
X175433019Y-58772419D01*
X175435475Y-58771930D01*
X175436564Y-58772293D01*
X175444291Y-58770176D01*
X175452153Y-58768613D01*
X175452964Y-58767801D01*
X175455380Y-58767140D01*
X175550617Y-58719522D01*
X175558483Y-58713416D01*
X175561017Y-58712572D01*
X175563206Y-58709750D01*
X175566029Y-58707560D01*
X175566874Y-58705025D01*
X175572978Y-58697160D01*
X175620597Y-58601922D01*
X175621258Y-58599506D01*
X175622070Y-58598695D01*
X175623633Y-58590833D01*
X175625750Y-58583106D01*
X175625387Y-58582017D01*
X175625876Y-58579561D01*
X175625876Y-58055752D01*
X175622070Y-58036618D01*
X175863016Y-58036618D01*
X175863016Y-58074886D01*
X175890076Y-58101946D01*
X175909210Y-58105752D01*
X176097305Y-58105752D01*
X176097305Y-58567757D01*
X176062418Y-58637532D01*
X175992645Y-58672419D01*
X175909210Y-58672419D01*
X175890076Y-58676225D01*
X175863016Y-58703285D01*
X175863016Y-58741553D01*
X175890076Y-58768613D01*
X175909210Y-58772419D01*
X176004448Y-58772419D01*
X176006904Y-58771930D01*
X176007993Y-58772293D01*
X176015720Y-58770176D01*
X176023582Y-58768613D01*
X176024393Y-58767801D01*
X176026809Y-58767140D01*
X176122046Y-58719522D01*
X176129912Y-58713416D01*
X176132446Y-58712572D01*
X176134635Y-58709750D01*
X176137458Y-58707560D01*
X176138303Y-58705025D01*
X176144407Y-58697160D01*
X176192026Y-58601922D01*
X176192687Y-58599506D01*
X176193499Y-58598695D01*
X176195062Y-58590833D01*
X176197179Y-58583106D01*
X176196816Y-58582017D01*
X176197305Y-58579561D01*
X176197305Y-58105752D01*
X176290162Y-58105752D01*
X176309296Y-58101946D01*
X176336356Y-58074886D01*
X176336356Y-58055752D01*
X176573496Y-58055752D01*
X176573496Y-58722419D01*
X176577302Y-58741553D01*
X176604362Y-58768613D01*
X176642630Y-58768613D01*
X176669690Y-58741553D01*
X176671782Y-58731035D01*
X176743992Y-58767140D01*
X176746407Y-58767801D01*
X176747219Y-58768613D01*
X176755080Y-58770176D01*
X176762808Y-58772293D01*
X176763896Y-58771930D01*
X176766353Y-58772419D01*
X176909210Y-58772419D01*
X176911666Y-58771930D01*
X176912755Y-58772293D01*
X176920482Y-58770176D01*
X176928344Y-58768613D01*
X176929155Y-58767801D01*
X176931571Y-58767140D01*
X177026808Y-58719522D01*
X177034674Y-58713416D01*
X177037208Y-58712572D01*
X177039397Y-58709750D01*
X177042220Y-58707560D01*
X177043065Y-58705025D01*
X177049169Y-58697160D01*
X177096788Y-58601922D01*
X177097449Y-58599506D01*
X177098261Y-58598695D01*
X177099824Y-58590833D01*
X177101941Y-58583106D01*
X177101578Y-58582017D01*
X177102067Y-58579561D01*
X177102067Y-58246228D01*
X177430639Y-58246228D01*
X177430639Y-58531942D01*
X177431127Y-58534398D01*
X177430765Y-58535487D01*
X177432881Y-58543214D01*
X177434445Y-58551076D01*
X177435256Y-58551887D01*
X177435918Y-58554303D01*
X177483536Y-58649540D01*
X177488447Y-58655868D01*
X177492902Y-58662535D01*
X177540521Y-58710155D01*
X177547187Y-58714609D01*
X177553516Y-58719521D01*
X177648754Y-58767140D01*
X177651169Y-58767801D01*
X177651981Y-58768613D01*
X177659842Y-58770176D01*
X177667570Y-58772293D01*
X177668658Y-58771930D01*
X177671115Y-58772419D01*
X177813972Y-58772419D01*
X177816428Y-58771930D01*
X177817517Y-58772293D01*
X177825244Y-58770176D01*
X177833106Y-58768613D01*
X177833917Y-58767801D01*
X177836333Y-58767140D01*
X177931570Y-58719522D01*
X177937897Y-58714611D01*
X177944566Y-58710155D01*
X177992185Y-58662535D01*
X177996638Y-58655869D01*
X178001550Y-58649541D01*
X178049169Y-58554303D01*
X178049830Y-58551887D01*
X178050642Y-58551076D01*
X178052205Y-58543214D01*
X178054322Y-58535487D01*
X178053959Y-58534398D01*
X178054448Y-58531942D01*
X178054448Y-58246228D01*
X178053959Y-58243771D01*
X178054322Y-58242683D01*
X178052205Y-58234955D01*
X178050642Y-58227094D01*
X178049830Y-58226282D01*
X178049169Y-58223867D01*
X178001550Y-58128629D01*
X177996638Y-58122300D01*
X177992184Y-58115634D01*
X177944565Y-58068016D01*
X177937903Y-58063564D01*
X177931570Y-58058649D01*
X177920810Y-58053269D01*
X178287844Y-58053269D01*
X178290695Y-58072569D01*
X178528790Y-58739236D01*
X178529278Y-58740052D01*
X178529453Y-58740989D01*
X178624691Y-58979083D01*
X178624921Y-58979436D01*
X178624921Y-58979648D01*
X178630169Y-58987502D01*
X178635331Y-58995435D01*
X178635525Y-58995518D01*
X178635760Y-58995869D01*
X178683378Y-59043488D01*
X178690044Y-59047942D01*
X178696373Y-59052854D01*
X178791611Y-59100473D01*
X178810427Y-59105626D01*
X178846732Y-59093524D01*
X178863846Y-59059296D01*
X178851744Y-59022992D01*
X178836332Y-59011030D01*
X178748352Y-58967040D01*
X178713728Y-58932417D01*
X178629328Y-58721416D01*
X178652810Y-58655666D01*
X179101111Y-58655666D01*
X179101111Y-58693935D01*
X179101113Y-58693937D01*
X179111950Y-58710155D01*
X179159568Y-58757774D01*
X179175789Y-58768613D01*
X179175790Y-58768613D01*
X179214058Y-58768613D01*
X179230279Y-58757774D01*
X179277898Y-58710156D01*
X179288737Y-58693935D01*
X179288737Y-58655666D01*
X179277899Y-58639445D01*
X179230280Y-58591825D01*
X179214059Y-58580986D01*
X179214058Y-58580986D01*
X179175789Y-58580986D01*
X179159568Y-58591825D01*
X179111949Y-58639445D01*
X179101111Y-58655666D01*
X178652810Y-58655666D01*
X178861059Y-58072569D01*
X178863910Y-58053270D01*
X178862382Y-58050045D01*
X179526204Y-58050045D01*
X179527801Y-58069488D01*
X179718277Y-58736155D01*
X179727193Y-58753507D01*
X179730115Y-58755130D01*
X179731432Y-58758203D01*
X179746481Y-58764222D01*
X179760646Y-58772092D01*
X179763859Y-58771173D01*
X179766962Y-58772415D01*
X179781855Y-58766032D01*
X179797441Y-58761579D01*
X179799064Y-58758656D01*
X179802137Y-58757340D01*
X179812777Y-58740989D01*
X179956829Y-58380858D01*
X180100881Y-58740988D01*
X180111521Y-58757340D01*
X180114593Y-58758656D01*
X180116217Y-58761579D01*
X180131800Y-58766031D01*
X180146695Y-58772415D01*
X180149798Y-58771173D01*
X180153012Y-58772092D01*
X180167177Y-58764222D01*
X180182226Y-58758203D01*
X180183542Y-58755130D01*
X180186465Y-58753507D01*
X180195381Y-58736155D01*
X180385857Y-58069488D01*
X180387454Y-58050045D01*
X180573823Y-58050045D01*
X180575420Y-58069488D01*
X180765896Y-58736155D01*
X180774812Y-58753507D01*
X180777734Y-58755130D01*
X180779051Y-58758203D01*
X180794100Y-58764222D01*
X180808265Y-58772092D01*
X180811478Y-58771173D01*
X180814581Y-58772415D01*
X180829474Y-58766032D01*
X180845060Y-58761579D01*
X180846683Y-58758656D01*
X180849756Y-58757340D01*
X180860396Y-58740989D01*
X181004448Y-58380858D01*
X181148500Y-58740988D01*
X181159140Y-58757340D01*
X181162212Y-58758656D01*
X181163836Y-58761579D01*
X181179419Y-58766031D01*
X181194314Y-58772415D01*
X181197417Y-58771173D01*
X181200631Y-58772092D01*
X181214796Y-58764222D01*
X181229845Y-58758203D01*
X181231161Y-58755130D01*
X181234084Y-58753507D01*
X181243000Y-58736155D01*
X181433476Y-58069488D01*
X181435073Y-58050045D01*
X181621442Y-58050045D01*
X181623039Y-58069488D01*
X181813515Y-58736155D01*
X181822431Y-58753507D01*
X181825353Y-58755130D01*
X181826670Y-58758203D01*
X181841719Y-58764222D01*
X181855884Y-58772092D01*
X181859097Y-58771173D01*
X181862200Y-58772415D01*
X181877093Y-58766032D01*
X181892679Y-58761579D01*
X181894302Y-58758656D01*
X181897375Y-58757340D01*
X181908015Y-58740989D01*
X182052067Y-58380858D01*
X182196119Y-58740988D01*
X182206759Y-58757340D01*
X182209831Y-58758656D01*
X182211455Y-58761579D01*
X182227038Y-58766031D01*
X182241933Y-58772415D01*
X182245036Y-58771173D01*
X182248250Y-58772092D01*
X182262415Y-58764222D01*
X182277464Y-58758203D01*
X182278780Y-58755130D01*
X182281703Y-58753507D01*
X182290619Y-58736155D01*
X182481095Y-58069488D01*
X182482692Y-58050045D01*
X182464107Y-58016592D01*
X182427312Y-58006079D01*
X182393859Y-58024664D01*
X182384943Y-58042016D01*
X182234647Y-58568050D01*
X182098491Y-58227658D01*
X182087851Y-58211307D01*
X182087246Y-58211048D01*
X182086988Y-58210444D01*
X182069734Y-58203542D01*
X182052676Y-58196232D01*
X182052066Y-58196475D01*
X182051457Y-58196232D01*
X182034398Y-58203543D01*
X182017146Y-58210444D01*
X182016887Y-58211048D01*
X182016283Y-58211307D01*
X182005643Y-58227659D01*
X181869486Y-58568050D01*
X181719191Y-58042016D01*
X181710275Y-58024664D01*
X181676822Y-58006079D01*
X181640027Y-58016592D01*
X181621442Y-58050045D01*
X181435073Y-58050045D01*
X181416488Y-58016592D01*
X181379693Y-58006079D01*
X181346240Y-58024664D01*
X181337324Y-58042016D01*
X181187028Y-58568050D01*
X181050872Y-58227658D01*
X181040232Y-58211307D01*
X181039627Y-58211048D01*
X181039369Y-58210444D01*
X181022115Y-58203542D01*
X181005057Y-58196232D01*
X181004447Y-58196475D01*
X181003838Y-58196232D01*
X180986779Y-58203543D01*
X180969527Y-58210444D01*
X180969268Y-58211048D01*
X180968664Y-58211307D01*
X180958024Y-58227659D01*
X180821867Y-58568050D01*
X180671572Y-58042016D01*
X180662656Y-58024664D01*
X180629203Y-58006079D01*
X180592408Y-58016592D01*
X180573823Y-58050045D01*
X180387454Y-58050045D01*
X180368869Y-58016592D01*
X180332074Y-58006079D01*
X180298621Y-58024664D01*
X180289705Y-58042016D01*
X180139409Y-58568050D01*
X180003253Y-58227658D01*
X179992613Y-58211307D01*
X179992008Y-58211048D01*
X179991750Y-58210444D01*
X179974496Y-58203542D01*
X179957438Y-58196232D01*
X179956828Y-58196475D01*
X179956219Y-58196232D01*
X179939160Y-58203543D01*
X179921908Y-58210444D01*
X179921649Y-58211048D01*
X179921045Y-58211307D01*
X179910405Y-58227659D01*
X179774248Y-58568050D01*
X179623953Y-58042016D01*
X179615037Y-58024664D01*
X179581584Y-58006079D01*
X179544789Y-58016592D01*
X179526204Y-58050045D01*
X178862382Y-58050045D01*
X178847528Y-58018685D01*
X178811489Y-58005814D01*
X178776905Y-58022196D01*
X178766885Y-58038935D01*
X178575877Y-58573758D01*
X178384869Y-58038935D01*
X178374849Y-58022196D01*
X178340265Y-58005814D01*
X178304226Y-58018685D01*
X178287844Y-58053269D01*
X177920810Y-58053269D01*
X177836333Y-58011031D01*
X177833917Y-58010369D01*
X177833106Y-58009558D01*
X177825244Y-58007994D01*
X177817517Y-58005878D01*
X177816428Y-58006240D01*
X177813972Y-58005752D01*
X177671115Y-58005752D01*
X177668658Y-58006240D01*
X177667570Y-58005878D01*
X177659842Y-58007994D01*
X177651981Y-58009558D01*
X177651169Y-58010369D01*
X177648754Y-58011031D01*
X177553516Y-58058650D01*
X177547187Y-58063561D01*
X177540521Y-58068016D01*
X177492903Y-58115635D01*
X177488451Y-58122296D01*
X177483536Y-58128630D01*
X177435918Y-58223867D01*
X177435256Y-58226282D01*
X177434445Y-58227094D01*
X177432881Y-58234955D01*
X177430765Y-58242683D01*
X177431127Y-58243771D01*
X177430639Y-58246228D01*
X177102067Y-58246228D01*
X177102067Y-58055752D01*
X177098261Y-58036618D01*
X177071201Y-58009558D01*
X177032933Y-58009558D01*
X177005873Y-58036618D01*
X177002067Y-58055752D01*
X177002067Y-58567757D01*
X176967180Y-58637532D01*
X176897407Y-58672419D01*
X176778157Y-58672419D01*
X176700734Y-58633708D01*
X176673496Y-58606469D01*
X176673496Y-58055752D01*
X176669690Y-58036618D01*
X176642630Y-58009558D01*
X176604362Y-58009558D01*
X176577302Y-58036618D01*
X176573496Y-58055752D01*
X176336356Y-58055752D01*
X176336356Y-58036618D01*
X176309296Y-58009558D01*
X176290162Y-58005752D01*
X176197305Y-58005752D01*
X176197305Y-57722419D01*
X176193499Y-57703285D01*
X176174717Y-57684503D01*
X182622066Y-57684503D01*
X182629512Y-57702535D01*
X183486655Y-58988249D01*
X183500435Y-59002059D01*
X183537961Y-59009564D01*
X183569802Y-58988336D01*
X183577307Y-58950811D01*
X183569860Y-58932779D01*
X182737677Y-57684503D01*
X183669685Y-57684503D01*
X183677131Y-57702535D01*
X184534274Y-58988249D01*
X184548054Y-59002059D01*
X184585580Y-59009564D01*
X184617421Y-58988336D01*
X184624926Y-58950811D01*
X184617479Y-58932779D01*
X184432737Y-58655666D01*
X184815396Y-58655666D01*
X184815396Y-58693935D01*
X184815398Y-58693937D01*
X184826235Y-58710155D01*
X184873853Y-58757774D01*
X184890074Y-58768613D01*
X184890075Y-58768613D01*
X184928343Y-58768613D01*
X184944564Y-58757774D01*
X184992183Y-58710156D01*
X185003022Y-58693935D01*
X185003022Y-58655666D01*
X184992184Y-58639445D01*
X184944565Y-58591825D01*
X184928344Y-58580986D01*
X184928343Y-58580986D01*
X184890074Y-58580986D01*
X184873853Y-58591825D01*
X184826234Y-58639445D01*
X184815396Y-58655666D01*
X184432737Y-58655666D01*
X184350254Y-58531942D01*
X185287781Y-58531942D01*
X185287781Y-58579561D01*
X185288269Y-58582017D01*
X185287907Y-58583105D01*
X185290022Y-58590829D01*
X185291587Y-58598695D01*
X185292398Y-58599506D01*
X185293060Y-58601921D01*
X185340678Y-58697160D01*
X185346781Y-58705024D01*
X185347627Y-58707560D01*
X185350450Y-58709751D01*
X185352640Y-58712572D01*
X185355173Y-58713416D01*
X185363039Y-58719521D01*
X185458277Y-58767140D01*
X185460692Y-58767801D01*
X185461504Y-58768613D01*
X185469365Y-58770176D01*
X185477093Y-58772293D01*
X185478181Y-58771930D01*
X185480638Y-58772419D01*
X185671114Y-58772419D01*
X185673570Y-58771930D01*
X185674659Y-58772293D01*
X185682386Y-58770176D01*
X185690248Y-58768613D01*
X185691059Y-58767801D01*
X185693475Y-58767140D01*
X185788712Y-58719522D01*
X185804124Y-58707560D01*
X185816226Y-58671256D01*
X185799112Y-58637028D01*
X185762807Y-58624926D01*
X185743991Y-58630079D01*
X185659311Y-58672419D01*
X185492442Y-58672419D01*
X185422667Y-58637532D01*
X185387781Y-58567759D01*
X185387781Y-58543745D01*
X185422667Y-58473971D01*
X185492442Y-58439085D01*
X185623495Y-58439085D01*
X185625951Y-58438596D01*
X185627040Y-58438959D01*
X185634767Y-58436842D01*
X185642629Y-58435279D01*
X185643440Y-58434467D01*
X185645856Y-58433806D01*
X185741093Y-58386188D01*
X185748957Y-58380084D01*
X185751493Y-58379239D01*
X185753684Y-58376415D01*
X185756505Y-58374226D01*
X185757349Y-58371692D01*
X185763454Y-58363827D01*
X185811073Y-58268589D01*
X185811734Y-58266173D01*
X185812546Y-58265362D01*
X185814109Y-58257500D01*
X185816226Y-58249773D01*
X185815863Y-58248684D01*
X185816352Y-58246228D01*
X186097305Y-58246228D01*
X186097305Y-58531942D01*
X186097793Y-58534398D01*
X186097431Y-58535487D01*
X186099547Y-58543214D01*
X186101111Y-58551076D01*
X186101922Y-58551887D01*
X186102584Y-58554303D01*
X186150202Y-58649540D01*
X186155113Y-58655868D01*
X186159568Y-58662535D01*
X186207187Y-58710155D01*
X186213853Y-58714609D01*
X186220182Y-58719521D01*
X186315420Y-58767140D01*
X186317835Y-58767801D01*
X186318647Y-58768613D01*
X186326508Y-58770176D01*
X186334236Y-58772293D01*
X186335324Y-58771930D01*
X186337781Y-58772419D01*
X186528257Y-58772419D01*
X186530713Y-58771930D01*
X186531802Y-58772293D01*
X186539529Y-58770176D01*
X186547391Y-58768613D01*
X186548202Y-58767801D01*
X186550618Y-58767140D01*
X186573495Y-58755701D01*
X186573495Y-59055752D01*
X186577301Y-59074886D01*
X186604361Y-59101946D01*
X186642629Y-59101946D01*
X186669689Y-59074886D01*
X186673495Y-59055752D01*
X186673495Y-58055752D01*
X186669689Y-58036618D01*
X186910635Y-58036618D01*
X186910635Y-58074886D01*
X186937695Y-58101946D01*
X186956829Y-58105752D01*
X187144924Y-58105752D01*
X187144924Y-58567757D01*
X187110037Y-58637532D01*
X187040264Y-58672419D01*
X186956829Y-58672419D01*
X186937695Y-58676225D01*
X186910635Y-58703285D01*
X186910635Y-58741553D01*
X186937695Y-58768613D01*
X186956829Y-58772419D01*
X187052067Y-58772419D01*
X187054523Y-58771930D01*
X187055612Y-58772293D01*
X187063339Y-58770176D01*
X187071201Y-58768613D01*
X187072012Y-58767801D01*
X187074428Y-58767140D01*
X187169665Y-58719522D01*
X187177531Y-58713416D01*
X187180065Y-58712572D01*
X187182254Y-58709750D01*
X187185077Y-58707560D01*
X187185922Y-58705025D01*
X187192026Y-58697160D01*
X187239645Y-58601922D01*
X187240306Y-58599506D01*
X187241118Y-58598695D01*
X187242681Y-58590833D01*
X187244798Y-58583106D01*
X187244435Y-58582017D01*
X187244924Y-58579561D01*
X187244924Y-58105752D01*
X187337781Y-58105752D01*
X187356915Y-58101946D01*
X187383975Y-58074886D01*
X187383975Y-58036618D01*
X187482064Y-58036618D01*
X187482064Y-58074886D01*
X187509124Y-58101946D01*
X187528258Y-58105752D01*
X187716353Y-58105752D01*
X187716353Y-58567757D01*
X187681466Y-58637532D01*
X187611693Y-58672419D01*
X187528258Y-58672419D01*
X187509124Y-58676225D01*
X187482064Y-58703285D01*
X187482064Y-58741553D01*
X187509124Y-58768613D01*
X187528258Y-58772419D01*
X187623496Y-58772419D01*
X187625952Y-58771930D01*
X187627041Y-58772293D01*
X187634768Y-58770176D01*
X187642630Y-58768613D01*
X187643441Y-58767801D01*
X187645857Y-58767140D01*
X187741094Y-58719522D01*
X187748960Y-58713416D01*
X187751494Y-58712572D01*
X187753683Y-58709750D01*
X187756506Y-58707560D01*
X187757351Y-58705025D01*
X187763455Y-58697160D01*
X187811074Y-58601922D01*
X187811735Y-58599506D01*
X187812547Y-58598695D01*
X187814110Y-58590833D01*
X187816227Y-58583106D01*
X187815864Y-58582017D01*
X187816353Y-58579561D01*
X187816353Y-58198609D01*
X188192544Y-58198609D01*
X188192544Y-58722419D01*
X188196350Y-58741553D01*
X188223410Y-58768613D01*
X188261678Y-58768613D01*
X188288738Y-58741553D01*
X188292544Y-58722419D01*
X188292544Y-58210412D01*
X188327430Y-58140638D01*
X188397205Y-58105752D01*
X188516455Y-58105752D01*
X188593878Y-58144463D01*
X188621115Y-58171700D01*
X188621115Y-58722419D01*
X188624921Y-58741553D01*
X188651981Y-58768613D01*
X188690249Y-58768613D01*
X188717309Y-58741553D01*
X188721115Y-58722419D01*
X188721115Y-57722419D01*
X188717309Y-57703285D01*
X188690249Y-57676225D01*
X188651981Y-57676225D01*
X188624921Y-57703285D01*
X188621115Y-57722419D01*
X188621115Y-58046278D01*
X188550619Y-58011031D01*
X188548203Y-58010369D01*
X188547392Y-58009558D01*
X188539530Y-58007994D01*
X188531803Y-58005878D01*
X188530714Y-58006240D01*
X188528258Y-58005752D01*
X188385401Y-58005752D01*
X188382944Y-58006240D01*
X188381856Y-58005878D01*
X188374128Y-58007994D01*
X188366267Y-58009558D01*
X188365455Y-58010369D01*
X188363040Y-58011031D01*
X188267802Y-58058650D01*
X188259936Y-58064754D01*
X188257403Y-58065599D01*
X188255213Y-58068419D01*
X188252390Y-58070611D01*
X188251544Y-58073146D01*
X188245441Y-58081011D01*
X188197823Y-58176248D01*
X188197161Y-58178663D01*
X188196350Y-58179475D01*
X188194786Y-58187336D01*
X188192670Y-58195064D01*
X188193032Y-58196152D01*
X188192544Y-58198609D01*
X187816353Y-58198609D01*
X187816353Y-58105752D01*
X187909210Y-58105752D01*
X187928344Y-58101946D01*
X187955404Y-58074886D01*
X187955404Y-58036618D01*
X187928344Y-58009558D01*
X187909210Y-58005752D01*
X187816353Y-58005752D01*
X187816353Y-57722419D01*
X187812547Y-57703285D01*
X187785487Y-57676225D01*
X187747219Y-57676225D01*
X187720159Y-57703285D01*
X187716353Y-57722419D01*
X187716353Y-58005752D01*
X187528258Y-58005752D01*
X187509124Y-58009558D01*
X187482064Y-58036618D01*
X187383975Y-58036618D01*
X187356915Y-58009558D01*
X187337781Y-58005752D01*
X187244924Y-58005752D01*
X187244924Y-57722419D01*
X187241118Y-57703285D01*
X187214058Y-57676225D01*
X187175790Y-57676225D01*
X187148730Y-57703285D01*
X187144924Y-57722419D01*
X187144924Y-58005752D01*
X186956829Y-58005752D01*
X186937695Y-58009558D01*
X186910635Y-58036618D01*
X186669689Y-58036618D01*
X186642629Y-58009558D01*
X186604361Y-58009558D01*
X186585464Y-58028454D01*
X186550618Y-58011031D01*
X186548202Y-58010369D01*
X186547391Y-58009558D01*
X186539529Y-58007994D01*
X186531802Y-58005878D01*
X186530713Y-58006240D01*
X186528257Y-58005752D01*
X186337781Y-58005752D01*
X186335324Y-58006240D01*
X186334236Y-58005878D01*
X186326508Y-58007994D01*
X186318647Y-58009558D01*
X186317835Y-58010369D01*
X186315420Y-58011031D01*
X186220182Y-58058650D01*
X186213853Y-58063561D01*
X186207187Y-58068016D01*
X186159569Y-58115635D01*
X186155117Y-58122296D01*
X186150202Y-58128630D01*
X186102584Y-58223867D01*
X186101922Y-58226282D01*
X186101111Y-58227094D01*
X186099547Y-58234955D01*
X186097431Y-58242683D01*
X186097793Y-58243771D01*
X186097305Y-58246228D01*
X185816352Y-58246228D01*
X185816352Y-58198609D01*
X185815863Y-58196152D01*
X185816226Y-58195064D01*
X185814109Y-58187336D01*
X185812546Y-58179475D01*
X185811734Y-58178663D01*
X185811073Y-58176248D01*
X185763454Y-58081010D01*
X185757349Y-58073144D01*
X185756505Y-58070611D01*
X185753684Y-58068421D01*
X185751493Y-58065598D01*
X185748957Y-58064752D01*
X185741093Y-58058649D01*
X185645856Y-58011031D01*
X185643440Y-58010369D01*
X185642629Y-58009558D01*
X185634767Y-58007994D01*
X185627040Y-58005878D01*
X185625951Y-58006240D01*
X185623495Y-58005752D01*
X185480638Y-58005752D01*
X185478181Y-58006240D01*
X185477093Y-58005878D01*
X185469365Y-58007994D01*
X185461504Y-58009558D01*
X185460692Y-58010369D01*
X185458277Y-58011031D01*
X185363039Y-58058650D01*
X185347627Y-58070611D01*
X185335526Y-58106916D01*
X185352640Y-58141144D01*
X185388945Y-58153245D01*
X185407761Y-58148092D01*
X185492442Y-58105752D01*
X185611692Y-58105752D01*
X185681465Y-58140638D01*
X185716352Y-58210412D01*
X185716352Y-58234424D01*
X185681465Y-58304198D01*
X185611692Y-58339085D01*
X185480638Y-58339085D01*
X185478181Y-58339573D01*
X185477093Y-58339211D01*
X185469365Y-58341327D01*
X185461504Y-58342891D01*
X185460692Y-58343702D01*
X185458277Y-58344364D01*
X185363039Y-58391983D01*
X185355173Y-58398087D01*
X185352640Y-58398932D01*
X185350450Y-58401752D01*
X185347627Y-58403944D01*
X185346781Y-58406479D01*
X185340678Y-58414344D01*
X185293060Y-58509581D01*
X185292398Y-58511996D01*
X185291587Y-58512808D01*
X185290023Y-58520669D01*
X185287907Y-58528397D01*
X185288269Y-58529485D01*
X185287781Y-58531942D01*
X184350254Y-58531942D01*
X184083531Y-58131856D01*
X184815396Y-58131856D01*
X184815396Y-58170124D01*
X184826235Y-58186345D01*
X184873853Y-58233964D01*
X184890074Y-58244803D01*
X184890075Y-58244803D01*
X184928343Y-58244803D01*
X184944564Y-58233964D01*
X184992183Y-58186346D01*
X185003022Y-58170125D01*
X185003022Y-58131856D01*
X185003022Y-58131855D01*
X184992183Y-58115634D01*
X184944564Y-58068016D01*
X184928343Y-58057177D01*
X184890074Y-58057177D01*
X184873853Y-58068016D01*
X184826235Y-58115635D01*
X184815397Y-58131855D01*
X184815396Y-58131856D01*
X184083531Y-58131856D01*
X183760337Y-57647065D01*
X183746556Y-57633256D01*
X183709031Y-57625751D01*
X183677190Y-57646978D01*
X183669685Y-57684503D01*
X182737677Y-57684503D01*
X182712718Y-57647065D01*
X182698937Y-57633256D01*
X182661412Y-57625751D01*
X182629571Y-57646978D01*
X182622066Y-57684503D01*
X176174717Y-57684503D01*
X176166439Y-57676225D01*
X176128171Y-57676225D01*
X176101111Y-57703285D01*
X176097305Y-57722419D01*
X176097305Y-58005752D01*
X175909210Y-58005752D01*
X175890076Y-58009558D01*
X175863016Y-58036618D01*
X175622070Y-58036618D01*
X175595010Y-58009558D01*
X175556742Y-58009558D01*
X175529682Y-58036618D01*
X175525876Y-58055752D01*
X175525876Y-58567757D01*
X175490989Y-58637532D01*
X175421216Y-58672419D01*
X175301966Y-58672419D01*
X175224543Y-58633708D01*
X175197305Y-58606469D01*
X175197305Y-58055752D01*
X175193499Y-58036618D01*
X175166439Y-58009558D01*
X175128171Y-58009558D01*
X175101111Y-58036618D01*
X175097305Y-58055752D01*
X174721114Y-58055752D01*
X174721114Y-57722419D01*
X174717308Y-57703285D01*
X174690248Y-57676225D01*
X174651980Y-57676225D01*
X174624920Y-57703285D01*
X174621114Y-57722419D01*
X174621114Y-58022469D01*
X174598237Y-58011031D01*
X174595821Y-58010369D01*
X174595010Y-58009558D01*
X174587148Y-58007994D01*
X174579421Y-58005878D01*
X174578332Y-58006240D01*
X174575876Y-58005752D01*
X174385400Y-58005752D01*
X174382943Y-58006240D01*
X174381855Y-58005878D01*
X174374127Y-58007994D01*
X174366266Y-58009558D01*
X174365454Y-58010369D01*
X174363039Y-58011031D01*
X174267801Y-58058650D01*
X174261472Y-58063561D01*
X174254806Y-58068016D01*
X174207188Y-58115635D01*
X174202736Y-58122296D01*
X174197821Y-58128630D01*
X174150203Y-58223867D01*
X174149541Y-58226282D01*
X174148730Y-58227094D01*
X174147166Y-58234955D01*
X174145050Y-58242683D01*
X174145412Y-58243771D01*
X174144924Y-58246228D01*
X173863971Y-58246228D01*
X173863971Y-58198609D01*
X173863482Y-58196152D01*
X173863845Y-58195064D01*
X173861728Y-58187336D01*
X173860165Y-58179475D01*
X173859353Y-58178663D01*
X173858692Y-58176248D01*
X173811073Y-58081010D01*
X173804968Y-58073144D01*
X173804124Y-58070611D01*
X173801303Y-58068421D01*
X173799112Y-58065598D01*
X173796576Y-58064752D01*
X173788712Y-58058649D01*
X173693475Y-58011031D01*
X173691059Y-58010369D01*
X173690248Y-58009558D01*
X173682386Y-58007994D01*
X173674659Y-58005878D01*
X173673570Y-58006240D01*
X173671114Y-58005752D01*
X173480638Y-58005752D01*
X173478181Y-58006240D01*
X173477093Y-58005878D01*
X173469365Y-58007994D01*
X173461504Y-58009558D01*
X173460692Y-58010369D01*
X173458277Y-58011031D01*
X173363039Y-58058650D01*
X173355173Y-58064754D01*
X173352640Y-58065599D01*
X173350450Y-58068419D01*
X173347627Y-58070611D01*
X173346781Y-58073146D01*
X173340678Y-58081011D01*
X173293060Y-58176248D01*
X173292398Y-58178663D01*
X173291587Y-58179475D01*
X173290023Y-58187336D01*
X173287907Y-58195064D01*
X173288269Y-58196152D01*
X173287781Y-58198609D01*
X172512730Y-58198609D01*
X172477740Y-58128629D01*
X172472828Y-58122300D01*
X172468374Y-58115634D01*
X172420755Y-58068016D01*
X172414093Y-58063564D01*
X172407760Y-58058649D01*
X172312523Y-58011031D01*
X172310107Y-58010369D01*
X172309296Y-58009558D01*
X172301434Y-58007994D01*
X172293707Y-58005878D01*
X172292618Y-58006240D01*
X172290162Y-58005752D01*
X172099686Y-58005752D01*
X172097229Y-58006240D01*
X172096141Y-58005878D01*
X172088413Y-58007994D01*
X172080552Y-58009558D01*
X172079740Y-58010369D01*
X172077325Y-58011031D01*
X171982087Y-58058650D01*
X171966675Y-58070611D01*
X171954574Y-58106916D01*
X171602513Y-58106916D01*
X171563612Y-58068016D01*
X171556950Y-58063564D01*
X171550617Y-58058649D01*
X171455380Y-58011031D01*
X171452964Y-58010369D01*
X171452153Y-58009558D01*
X171444291Y-58007994D01*
X171436564Y-58005878D01*
X171435475Y-58006240D01*
X171433019Y-58005752D01*
X171290162Y-58005752D01*
X171287705Y-58006240D01*
X171286617Y-58005878D01*
X171278889Y-58007994D01*
X171271028Y-58009558D01*
X171270216Y-58010369D01*
X171267801Y-58011031D01*
X171172563Y-58058650D01*
X171166234Y-58063561D01*
X171159568Y-58068016D01*
X171111950Y-58115635D01*
X171107498Y-58122296D01*
X171102583Y-58128630D01*
X171054965Y-58223867D01*
X171054303Y-58226282D01*
X171053492Y-58227094D01*
X171051928Y-58234955D01*
X171049812Y-58242683D01*
X171050174Y-58243771D01*
X171049686Y-58246228D01*
X170721114Y-58246228D01*
X170721114Y-58055752D01*
X170717308Y-58036618D01*
X170690248Y-58009558D01*
X170651980Y-58009558D01*
X170624920Y-58036618D01*
X170622827Y-58047135D01*
X170550618Y-58011031D01*
X170548202Y-58010369D01*
X170547391Y-58009558D01*
X170539529Y-58007994D01*
X170531802Y-58005878D01*
X170530713Y-58006240D01*
X170528257Y-58005752D01*
X170385400Y-58005752D01*
X170382943Y-58006240D01*
X170381855Y-58005878D01*
X170374127Y-58007994D01*
X170366266Y-58009558D01*
X170365454Y-58010369D01*
X170363039Y-58011031D01*
X170267801Y-58058650D01*
X170259935Y-58064754D01*
X170257402Y-58065599D01*
X170255212Y-58068419D01*
X170252389Y-58070611D01*
X170251543Y-58073146D01*
X170245440Y-58081011D01*
X170242542Y-58086805D01*
X170239645Y-58081010D01*
X170233540Y-58073144D01*
X170232696Y-58070611D01*
X170229875Y-58068421D01*
X170227684Y-58065598D01*
X170225148Y-58064752D01*
X170217284Y-58058649D01*
X170122047Y-58011031D01*
X170119631Y-58010369D01*
X170118820Y-58009558D01*
X170110958Y-58007994D01*
X170103231Y-58005878D01*
X170102142Y-58006240D01*
X170099686Y-58005752D01*
X169956829Y-58005752D01*
X169954372Y-58006240D01*
X169953284Y-58005878D01*
X169945556Y-58007994D01*
X169937695Y-58009558D01*
X169936883Y-58010369D01*
X169934468Y-58011031D01*
X169839230Y-58058650D01*
X169831364Y-58064753D01*
X169828830Y-58065599D01*
X169826639Y-58068421D01*
X169823818Y-58070611D01*
X169822973Y-58073144D01*
X169816868Y-58081011D01*
X169769250Y-58176248D01*
X169768588Y-58178663D01*
X169767777Y-58179475D01*
X169766213Y-58187336D01*
X169764097Y-58195064D01*
X169764459Y-58196152D01*
X169763971Y-58198609D01*
X169032795Y-58198609D01*
X168665099Y-57647065D01*
X168651318Y-57633256D01*
X168613793Y-57625751D01*
X168581952Y-57646978D01*
X168574447Y-57684503D01*
X166763099Y-57684503D01*
X166734545Y-57674985D01*
X166726596Y-57673982D01*
X166718734Y-57672419D01*
X166575877Y-57672419D01*
X166573420Y-57672907D01*
X166572332Y-57672545D01*
X166564604Y-57674661D01*
X166556743Y-57676225D01*
X166555931Y-57677036D01*
X166553516Y-57677698D01*
X166458278Y-57725317D01*
X166442866Y-57737278D01*
X166430765Y-57773583D01*
X166447879Y-57807811D01*
X166484184Y-57819912D01*
X166503000Y-57814759D01*
X166587681Y-57772419D01*
X166710621Y-57772419D01*
X166834582Y-57813739D01*
X166915735Y-57894892D01*
X166957272Y-57977966D01*
X167002067Y-58157145D01*
X167002067Y-58287692D01*
X166957272Y-58466870D01*
X166915735Y-58549944D01*
X166834581Y-58631098D01*
X166710621Y-58672419D01*
X166631609Y-58672419D01*
X166507649Y-58631099D01*
X166483020Y-58606469D01*
X166483020Y-58343847D01*
X166623496Y-58343847D01*
X166642630Y-58340041D01*
X166669690Y-58312981D01*
X166669690Y-58274713D01*
X166642630Y-58247653D01*
X166623496Y-58243847D01*
X166433020Y-58243847D01*
X166413886Y-58247653D01*
X166386826Y-58274713D01*
X166383020Y-58293847D01*
X166102067Y-58293847D01*
X166102067Y-58198609D01*
X166101578Y-58196152D01*
X166101941Y-58195064D01*
X166099824Y-58187336D01*
X166098261Y-58179475D01*
X166097449Y-58178663D01*
X166096788Y-58176248D01*
X166049169Y-58081010D01*
X166043064Y-58073144D01*
X166042220Y-58070611D01*
X166039399Y-58068421D01*
X166037208Y-58065598D01*
X166034672Y-58064752D01*
X166026808Y-58058649D01*
X165931571Y-58011031D01*
X165929155Y-58010369D01*
X165928344Y-58009558D01*
X165920482Y-58007994D01*
X165912755Y-58005878D01*
X165911666Y-58006240D01*
X165909210Y-58005752D01*
X165718734Y-58005752D01*
X165716277Y-58006240D01*
X165715189Y-58005878D01*
X165707461Y-58007994D01*
X165699600Y-58009558D01*
X165698788Y-58010369D01*
X165696373Y-58011031D01*
X165601135Y-58058650D01*
X165593269Y-58064754D01*
X165590736Y-58065599D01*
X165588546Y-58068419D01*
X165585723Y-58070611D01*
X165584877Y-58073146D01*
X165578774Y-58081011D01*
X165531156Y-58176248D01*
X165530494Y-58178663D01*
X165529683Y-58179475D01*
X165528119Y-58187336D01*
X165526003Y-58195064D01*
X165526365Y-58196152D01*
X165525877Y-58198609D01*
X165227016Y-58198609D01*
X165192026Y-58128629D01*
X165187114Y-58122300D01*
X165182660Y-58115634D01*
X165135041Y-58068016D01*
X165128379Y-58063564D01*
X165122046Y-58058649D01*
X165026809Y-58011031D01*
X165024393Y-58010369D01*
X165023582Y-58009558D01*
X165015720Y-58007994D01*
X165007993Y-58005878D01*
X165006904Y-58006240D01*
X165004448Y-58005752D01*
X164861591Y-58005752D01*
X164859134Y-58006240D01*
X164858046Y-58005878D01*
X164850318Y-58007994D01*
X164842457Y-58009558D01*
X164841645Y-58010369D01*
X164839230Y-58011031D01*
X164743992Y-58058650D01*
X164737663Y-58063561D01*
X164730997Y-58068016D01*
X164683379Y-58115635D01*
X164678927Y-58122296D01*
X164674012Y-58128630D01*
X164626394Y-58223867D01*
X164625732Y-58226282D01*
X164624921Y-58227094D01*
X164623357Y-58234955D01*
X164621241Y-58242683D01*
X164621603Y-58243771D01*
X164621115Y-58246228D01*
X164292543Y-58246228D01*
X164292543Y-58055752D01*
X164288737Y-58036618D01*
X164261677Y-58009558D01*
X164223409Y-58009558D01*
X164196349Y-58036618D01*
X164192543Y-58055752D01*
X164192543Y-58077898D01*
X164182660Y-58068016D01*
X164175998Y-58063564D01*
X164169665Y-58058649D01*
X164074428Y-58011031D01*
X164072012Y-58010369D01*
X164071201Y-58009558D01*
X164063339Y-58007994D01*
X164055612Y-58005878D01*
X164054523Y-58006240D01*
X164052067Y-58005752D01*
X163956829Y-58005752D01*
X163937695Y-58009558D01*
X163910635Y-58036618D01*
X163554174Y-58036618D01*
X163502999Y-58011031D01*
X163500583Y-58010369D01*
X163499772Y-58009558D01*
X163491910Y-58007994D01*
X163484183Y-58005878D01*
X163483094Y-58006240D01*
X163480638Y-58005752D01*
X163290162Y-58005752D01*
X163287705Y-58006240D01*
X163286617Y-58005878D01*
X163278889Y-58007994D01*
X163271028Y-58009558D01*
X163270216Y-58010369D01*
X163267801Y-58011031D01*
X163232954Y-58028454D01*
X163214058Y-58009558D01*
X163175790Y-58009558D01*
X163148730Y-58036618D01*
X163144924Y-58055752D01*
X162735299Y-58055752D01*
X162645856Y-58011031D01*
X162643440Y-58010369D01*
X162642629Y-58009558D01*
X162634767Y-58007994D01*
X162627040Y-58005878D01*
X162625951Y-58006240D01*
X162623495Y-58005752D01*
X162433019Y-58005752D01*
X162430562Y-58006240D01*
X162429474Y-58005878D01*
X162421746Y-58007994D01*
X162413885Y-58009558D01*
X162413073Y-58010369D01*
X162410658Y-58011031D01*
X162315420Y-58058650D01*
X162307554Y-58064754D01*
X162305021Y-58065599D01*
X162302831Y-58068419D01*
X162300008Y-58070611D01*
X162299162Y-58073146D01*
X162293059Y-58081011D01*
X162245441Y-58176248D01*
X162244779Y-58178663D01*
X162243968Y-58179475D01*
X162242404Y-58187336D01*
X162240288Y-58195064D01*
X162240650Y-58196152D01*
X162240162Y-58198609D01*
X161760682Y-58198609D01*
X162046630Y-57749263D01*
X162053692Y-57731077D01*
X162045390Y-57693719D01*
X162013105Y-57673174D01*
X161975748Y-57681476D01*
X161962264Y-57695575D01*
X161671114Y-58153096D01*
X161379964Y-57695575D01*
X161366481Y-57681476D01*
X161329123Y-57673174D01*
X161296838Y-57693719D01*
X161288536Y-57731077D01*
X158369530Y-57731077D01*
X158325516Y-57687064D01*
X158309295Y-57676225D01*
X158271026Y-57676225D01*
X158254805Y-57687064D01*
X158207187Y-57734683D01*
X158196349Y-57750903D01*
X158196348Y-57750904D01*
X157907784Y-57750904D01*
X157907784Y-57750903D01*
X157896945Y-57734682D01*
X157849326Y-57687064D01*
X157833105Y-57676225D01*
X157794836Y-57676225D01*
X157778615Y-57687064D01*
X157730997Y-57734683D01*
X157720159Y-57750903D01*
X157720158Y-57750904D01*
X157477634Y-57750904D01*
X157481659Y-57734000D01*
X157482389Y-57714505D01*
X157462332Y-57681913D01*
X157425105Y-57673049D01*
X157392513Y-57693106D01*
X157384379Y-57710838D01*
X157192179Y-58518075D01*
X157052760Y-57995250D01*
X157044152Y-57977743D01*
X157038253Y-57974327D01*
X157034838Y-57968429D01*
X157022278Y-57965079D01*
X157011033Y-57958569D01*
X157004449Y-57960324D01*
X156997863Y-57958568D01*
X156986613Y-57965080D01*
X156974058Y-57968429D01*
X156970643Y-57974326D01*
X156964744Y-57977742D01*
X156956136Y-57995250D01*
X156816716Y-58518075D01*
X156624517Y-57710838D01*
X156616383Y-57693106D01*
X156583791Y-57673049D01*
X156546564Y-57681913D01*
X156526507Y-57714505D01*
X153795718Y-57714505D01*
X153795718Y-57514640D01*
X188832226Y-57514640D01*
X188832226Y-59216863D01*
G37*
G36*
X158140306Y-66444463D02*
G01*
X158176450Y-66480608D01*
X158215162Y-66558031D01*
X158215162Y-66820138D01*
X158176450Y-66897561D01*
X158140304Y-66933708D01*
X158062883Y-66972419D01*
X157896014Y-66972419D01*
X157838972Y-66943898D01*
X157838972Y-66434272D01*
X157896014Y-66405752D01*
X158062883Y-66405752D01*
X158140306Y-66444463D01*
G37*
G36*
X169664115Y-66444463D02*
G01*
X169700259Y-66480608D01*
X169738971Y-66558031D01*
X169738971Y-66820138D01*
X169700259Y-66897561D01*
X169664113Y-66933708D01*
X169586692Y-66972419D01*
X169419823Y-66972419D01*
X169362781Y-66943898D01*
X169362781Y-66434272D01*
X169419823Y-66405752D01*
X169586692Y-66405752D01*
X169664115Y-66444463D01*
G37*
G36*
X172949830Y-66444463D02*
G01*
X172985974Y-66480608D01*
X173024686Y-66558031D01*
X173024686Y-66820138D01*
X172985974Y-66897561D01*
X172949828Y-66933708D01*
X172872407Y-66972419D01*
X172705538Y-66972419D01*
X172648496Y-66943898D01*
X172648496Y-66434272D01*
X172705538Y-66405752D01*
X172872407Y-66405752D01*
X172949830Y-66444463D01*
G37*
G36*
X182235544Y-66444463D02*
G01*
X182271688Y-66480608D01*
X182310400Y-66558031D01*
X182310400Y-66820138D01*
X182271688Y-66897561D01*
X182235542Y-66933708D01*
X182158121Y-66972419D01*
X181991252Y-66972419D01*
X181934210Y-66943898D01*
X181934210Y-66434272D01*
X181991252Y-66405752D01*
X182158121Y-66405752D01*
X182235544Y-66444463D01*
G37*
G36*
X186548495Y-66434272D02*
G01*
X186548495Y-66943898D01*
X186491454Y-66972419D01*
X186324585Y-66972419D01*
X186247162Y-66933708D01*
X186211016Y-66897561D01*
X186172305Y-66820139D01*
X186172305Y-66558031D01*
X186211016Y-66480607D01*
X186247161Y-66444463D01*
X186324585Y-66405752D01*
X186491454Y-66405752D01*
X186548495Y-66434272D01*
G37*
G36*
X159671373Y-66686187D02*
G01*
X159673788Y-66686848D01*
X159674600Y-66687660D01*
X159682461Y-66689223D01*
X159690189Y-66691340D01*
X159691277Y-66690977D01*
X159693734Y-66691466D01*
X159920026Y-66691466D01*
X159989799Y-66726352D01*
X160024686Y-66796126D01*
X160024686Y-66867757D01*
X159989799Y-66937532D01*
X159920026Y-66972419D01*
X159705538Y-66972419D01*
X159648496Y-66943898D01*
X159648496Y-66674748D01*
X159671373Y-66686187D01*
G37*
G36*
X164718991Y-66686187D02*
G01*
X164721406Y-66686848D01*
X164722218Y-66687660D01*
X164730079Y-66689223D01*
X164737807Y-66691340D01*
X164738895Y-66690977D01*
X164741352Y-66691466D01*
X164967644Y-66691466D01*
X165037417Y-66726352D01*
X165072304Y-66796126D01*
X165072304Y-66867757D01*
X165037417Y-66937532D01*
X164967644Y-66972419D01*
X164753156Y-66972419D01*
X164696114Y-66943898D01*
X164696114Y-66674748D01*
X164718991Y-66686187D01*
G37*
G36*
X168799322Y-66440638D02*
G01*
X168834209Y-66510412D01*
X168834209Y-66628094D01*
X168458019Y-66552856D01*
X168458019Y-66510412D01*
X168492905Y-66440638D01*
X168562680Y-66405752D01*
X168729549Y-66405752D01*
X168799322Y-66440638D01*
G37*
G36*
X171187925Y-66444463D02*
G01*
X171224069Y-66480608D01*
X171262781Y-66558031D01*
X171262781Y-66820138D01*
X171224069Y-66897561D01*
X171187923Y-66933708D01*
X171110502Y-66972419D01*
X170991252Y-66972419D01*
X170913829Y-66933708D01*
X170877683Y-66897561D01*
X170838972Y-66820139D01*
X170838972Y-66558031D01*
X170877683Y-66480607D01*
X170913828Y-66444463D01*
X170991252Y-66405752D01*
X171110502Y-66405752D01*
X171187925Y-66444463D01*
G37*
G36*
X172085037Y-66440638D02*
G01*
X172119924Y-66510412D01*
X172119924Y-66628094D01*
X171743734Y-66552856D01*
X171743734Y-66510412D01*
X171778620Y-66440638D01*
X171848395Y-66405752D01*
X172015264Y-66405752D01*
X172085037Y-66440638D01*
G37*
G36*
X176235544Y-66444463D02*
G01*
X176271688Y-66480608D01*
X176310400Y-66558031D01*
X176310400Y-66820138D01*
X176271688Y-66897561D01*
X176235542Y-66933708D01*
X176158121Y-66972419D01*
X176038871Y-66972419D01*
X175961448Y-66933708D01*
X175925302Y-66897561D01*
X175886591Y-66820139D01*
X175886591Y-66558031D01*
X175925302Y-66480607D01*
X175961447Y-66444463D01*
X176038871Y-66405752D01*
X176158121Y-66405752D01*
X176235544Y-66444463D01*
G37*
G36*
X178500876Y-66434272D02*
G01*
X178500876Y-66943898D01*
X178443835Y-66972419D01*
X178276966Y-66972419D01*
X178199543Y-66933708D01*
X178163397Y-66897561D01*
X178124686Y-66820139D01*
X178124686Y-66558031D01*
X178163397Y-66480607D01*
X178199542Y-66444463D01*
X178276966Y-66405752D01*
X178443835Y-66405752D01*
X178500876Y-66434272D01*
G37*
G36*
X188807226Y-67516863D02*
G01*
X157627861Y-67516863D01*
X157627861Y-66355752D01*
X157738972Y-66355752D01*
X157738972Y-67165276D01*
X157739460Y-67167732D01*
X157739098Y-67168821D01*
X157741214Y-67176548D01*
X157742778Y-67184410D01*
X157743589Y-67185221D01*
X157744251Y-67187637D01*
X157791869Y-67282874D01*
X157796784Y-67289207D01*
X157801236Y-67295869D01*
X157848854Y-67343488D01*
X157855520Y-67347942D01*
X157861849Y-67352854D01*
X157957087Y-67400473D01*
X157959502Y-67401134D01*
X157960314Y-67401946D01*
X157968175Y-67403509D01*
X157975903Y-67405626D01*
X157976991Y-67405263D01*
X157979448Y-67405752D01*
X158122305Y-67405752D01*
X158124761Y-67405263D01*
X158125850Y-67405626D01*
X158133577Y-67403509D01*
X158141439Y-67401946D01*
X158142250Y-67401134D01*
X158144666Y-67400473D01*
X158239903Y-67352855D01*
X158255315Y-67340893D01*
X158267417Y-67304589D01*
X158250303Y-67270361D01*
X158213998Y-67258259D01*
X158195182Y-67263412D01*
X158110502Y-67305752D01*
X157991252Y-67305752D01*
X157913828Y-67267040D01*
X157877683Y-67230896D01*
X157838972Y-67153473D01*
X157838972Y-67055701D01*
X157861849Y-67067140D01*
X157864264Y-67067801D01*
X157865076Y-67068613D01*
X157872937Y-67070176D01*
X157880665Y-67072293D01*
X157881753Y-67071930D01*
X157884210Y-67072419D01*
X158074686Y-67072419D01*
X158077142Y-67071930D01*
X158078231Y-67072293D01*
X158085958Y-67070176D01*
X158093820Y-67068613D01*
X158094631Y-67067801D01*
X158097047Y-67067140D01*
X158192284Y-67019522D01*
X158198611Y-67014611D01*
X158205280Y-67010155D01*
X158252899Y-66962535D01*
X158257352Y-66955869D01*
X158262264Y-66949541D01*
X158309883Y-66854303D01*
X158310544Y-66851887D01*
X158311356Y-66851076D01*
X158312919Y-66843214D01*
X158315036Y-66835487D01*
X158314673Y-66834398D01*
X158315162Y-66831942D01*
X158315162Y-66546228D01*
X158314673Y-66543771D01*
X158315036Y-66542683D01*
X158312919Y-66534955D01*
X158311356Y-66527094D01*
X158310544Y-66526282D01*
X158309883Y-66523867D01*
X158297254Y-66498609D01*
X158643734Y-66498609D01*
X158643734Y-67022419D01*
X158647540Y-67041553D01*
X158674600Y-67068613D01*
X158712868Y-67068613D01*
X158739928Y-67041553D01*
X158743734Y-67022419D01*
X158743734Y-66510412D01*
X158778620Y-66440638D01*
X158848395Y-66405752D01*
X158967645Y-66405752D01*
X159045068Y-66444463D01*
X159072305Y-66471700D01*
X159072305Y-67022419D01*
X159076111Y-67041553D01*
X159103171Y-67068613D01*
X159141439Y-67068613D01*
X159168499Y-67041553D01*
X159172305Y-67022419D01*
X159172305Y-66498609D01*
X159548496Y-66498609D01*
X159548496Y-67022419D01*
X159552302Y-67041553D01*
X159579362Y-67068613D01*
X159617630Y-67068613D01*
X159636526Y-67049716D01*
X159671373Y-67067140D01*
X159673788Y-67067801D01*
X159674600Y-67068613D01*
X159682461Y-67070176D01*
X159690189Y-67072293D01*
X159691277Y-67071930D01*
X159693734Y-67072419D01*
X159931829Y-67072419D01*
X159934285Y-67071930D01*
X159935374Y-67072293D01*
X159943101Y-67070176D01*
X159950963Y-67068613D01*
X159951774Y-67067801D01*
X159954190Y-67067140D01*
X160049427Y-67019522D01*
X160057293Y-67013416D01*
X160059827Y-67012572D01*
X160062016Y-67009750D01*
X160064839Y-67007560D01*
X160065684Y-67005025D01*
X160071788Y-66997160D01*
X160119407Y-66901922D01*
X160120068Y-66899506D01*
X160120880Y-66898695D01*
X160122443Y-66890833D01*
X160124560Y-66883106D01*
X160124197Y-66882017D01*
X160124686Y-66879561D01*
X160124686Y-66784323D01*
X160124197Y-66781866D01*
X160124560Y-66780778D01*
X160122443Y-66773050D01*
X160120880Y-66765189D01*
X160120068Y-66764377D01*
X160119407Y-66761962D01*
X160071788Y-66666724D01*
X160065683Y-66658858D01*
X160064839Y-66656325D01*
X160062018Y-66654135D01*
X160059827Y-66651312D01*
X160057291Y-66650466D01*
X160049427Y-66644363D01*
X159954190Y-66596745D01*
X159951774Y-66596083D01*
X159950963Y-66595272D01*
X159943101Y-66593708D01*
X159935374Y-66591592D01*
X159934285Y-66591954D01*
X159931829Y-66591466D01*
X159705538Y-66591466D01*
X159648496Y-66562945D01*
X159648496Y-66510412D01*
X159683382Y-66440638D01*
X159753157Y-66405752D01*
X159920026Y-66405752D01*
X160004706Y-66448092D01*
X160023522Y-66453245D01*
X160059827Y-66441143D01*
X160076941Y-66406915D01*
X160064839Y-66370611D01*
X160049427Y-66358649D01*
X160032219Y-66350045D01*
X160358347Y-66350045D01*
X160359944Y-66369488D01*
X160550420Y-67036155D01*
X160559336Y-67053507D01*
X160562258Y-67055130D01*
X160563575Y-67058203D01*
X160578624Y-67064222D01*
X160592789Y-67072092D01*
X160596002Y-67071173D01*
X160599105Y-67072415D01*
X160613998Y-67066032D01*
X160629584Y-67061579D01*
X160631207Y-67058656D01*
X160634280Y-67057340D01*
X160644920Y-67040989D01*
X160788972Y-66680858D01*
X160933024Y-67040988D01*
X160943664Y-67057340D01*
X160946736Y-67058656D01*
X160948360Y-67061579D01*
X160963943Y-67066031D01*
X160978838Y-67072415D01*
X160981941Y-67071173D01*
X160985155Y-67072092D01*
X160999320Y-67064222D01*
X161014369Y-67058203D01*
X161015685Y-67055130D01*
X161018608Y-67053507D01*
X161027524Y-67036155D01*
X161145759Y-66622332D01*
X161504683Y-66622332D01*
X161504683Y-66660600D01*
X161531743Y-66687660D01*
X161550877Y-66691466D01*
X162312781Y-66691466D01*
X162331915Y-66687660D01*
X162358975Y-66660600D01*
X162358975Y-66622332D01*
X162331915Y-66595272D01*
X162312781Y-66591466D01*
X161550877Y-66591466D01*
X161531743Y-66595272D01*
X161504683Y-66622332D01*
X161145759Y-66622332D01*
X161218000Y-66369488D01*
X161219128Y-66355752D01*
X162738971Y-66355752D01*
X162738971Y-67022419D01*
X162742777Y-67041553D01*
X162769837Y-67068613D01*
X162808105Y-67068613D01*
X162835165Y-67041553D01*
X162838971Y-67022419D01*
X162838971Y-66355752D01*
X163215161Y-66355752D01*
X163215161Y-67212895D01*
X163215649Y-67215351D01*
X163215287Y-67216440D01*
X163217403Y-67224167D01*
X163218967Y-67232029D01*
X163219778Y-67232840D01*
X163220440Y-67235256D01*
X163268058Y-67330493D01*
X163274161Y-67338357D01*
X163275007Y-67340893D01*
X163277830Y-67343084D01*
X163280020Y-67345905D01*
X163282553Y-67346749D01*
X163290419Y-67352854D01*
X163385657Y-67400473D01*
X163388072Y-67401134D01*
X163388884Y-67401946D01*
X163396745Y-67403509D01*
X163404473Y-67405626D01*
X163405561Y-67405263D01*
X163408018Y-67405752D01*
X163455637Y-67405752D01*
X163474771Y-67401946D01*
X163501831Y-67374886D01*
X163501831Y-67336618D01*
X163474771Y-67309558D01*
X163455637Y-67305752D01*
X163419822Y-67305752D01*
X163350047Y-67270865D01*
X163315161Y-67201092D01*
X163315161Y-66498609D01*
X163691352Y-66498609D01*
X163691352Y-67022419D01*
X163695158Y-67041553D01*
X163722218Y-67068613D01*
X163760486Y-67068613D01*
X163787546Y-67041553D01*
X163791352Y-67022419D01*
X163791352Y-66510412D01*
X163826238Y-66440638D01*
X163896013Y-66405752D01*
X164015263Y-66405752D01*
X164092686Y-66444463D01*
X164119923Y-66471700D01*
X164119923Y-67022419D01*
X164123729Y-67041553D01*
X164150789Y-67068613D01*
X164189057Y-67068613D01*
X164216117Y-67041553D01*
X164219923Y-67022419D01*
X164219923Y-66498609D01*
X164596114Y-66498609D01*
X164596114Y-67022419D01*
X164599920Y-67041553D01*
X164626980Y-67068613D01*
X164665248Y-67068613D01*
X164684144Y-67049716D01*
X164718991Y-67067140D01*
X164721406Y-67067801D01*
X164722218Y-67068613D01*
X164730079Y-67070176D01*
X164737807Y-67072293D01*
X164738895Y-67071930D01*
X164741352Y-67072419D01*
X164979447Y-67072419D01*
X164981903Y-67071930D01*
X164982992Y-67072293D01*
X164990719Y-67070176D01*
X164998581Y-67068613D01*
X164999392Y-67067801D01*
X165001808Y-67067140D01*
X165097045Y-67019522D01*
X165104911Y-67013416D01*
X165107445Y-67012572D01*
X165109634Y-67009750D01*
X165112457Y-67007560D01*
X165113302Y-67005025D01*
X165119406Y-66997160D01*
X165167025Y-66901922D01*
X165167686Y-66899506D01*
X165168498Y-66898695D01*
X165170061Y-66890833D01*
X165172178Y-66883106D01*
X165171815Y-66882017D01*
X165172304Y-66879561D01*
X165172304Y-66784323D01*
X165171815Y-66781866D01*
X165172178Y-66780778D01*
X165170061Y-66773050D01*
X165168498Y-66765189D01*
X165167686Y-66764377D01*
X165167025Y-66761962D01*
X165119406Y-66666724D01*
X165113301Y-66658858D01*
X165112457Y-66656325D01*
X165109636Y-66654135D01*
X165107445Y-66651312D01*
X165104909Y-66650466D01*
X165097045Y-66644363D01*
X165001808Y-66596745D01*
X164999392Y-66596083D01*
X164998581Y-66595272D01*
X164990719Y-66593708D01*
X164982992Y-66591592D01*
X164981903Y-66591954D01*
X164979447Y-66591466D01*
X164753156Y-66591466D01*
X164696114Y-66562945D01*
X164696114Y-66510412D01*
X164731000Y-66440638D01*
X164800775Y-66405752D01*
X164967644Y-66405752D01*
X165052324Y-66448092D01*
X165071140Y-66453245D01*
X165107445Y-66441143D01*
X165124559Y-66406915D01*
X165112457Y-66370611D01*
X165097045Y-66358649D01*
X165091251Y-66355752D01*
X165500876Y-66355752D01*
X165500876Y-67022419D01*
X165504682Y-67041553D01*
X165531742Y-67068613D01*
X165570010Y-67068613D01*
X165597070Y-67041553D01*
X165599162Y-67031035D01*
X165671372Y-67067140D01*
X165673787Y-67067801D01*
X165674599Y-67068613D01*
X165682460Y-67070176D01*
X165690188Y-67072293D01*
X165691276Y-67071930D01*
X165693733Y-67072419D01*
X165836590Y-67072419D01*
X165839046Y-67071930D01*
X165840135Y-67072293D01*
X165847862Y-67070176D01*
X165855724Y-67068613D01*
X165856535Y-67067801D01*
X165858951Y-67067140D01*
X165954188Y-67019522D01*
X165962054Y-67013416D01*
X165964588Y-67012572D01*
X165966777Y-67009750D01*
X165969600Y-67007560D01*
X165970445Y-67005025D01*
X165976549Y-66997160D01*
X166024168Y-66901922D01*
X166024829Y-66899506D01*
X166025641Y-66898695D01*
X166027204Y-66890833D01*
X166029321Y-66883106D01*
X166028958Y-66882017D01*
X166029447Y-66879561D01*
X166029447Y-66355752D01*
X166028953Y-66353269D01*
X166310462Y-66353269D01*
X166313313Y-66372569D01*
X166551408Y-67039236D01*
X166551896Y-67040052D01*
X166552071Y-67040989D01*
X166647309Y-67279083D01*
X166647539Y-67279436D01*
X166647539Y-67279648D01*
X166652787Y-67287502D01*
X166657949Y-67295435D01*
X166658143Y-67295518D01*
X166658378Y-67295869D01*
X166705996Y-67343488D01*
X166712662Y-67347942D01*
X166718991Y-67352854D01*
X166814229Y-67400473D01*
X166833045Y-67405626D01*
X166869350Y-67393524D01*
X166886464Y-67359296D01*
X166874362Y-67322992D01*
X166858950Y-67311030D01*
X166770970Y-67267040D01*
X166736346Y-67232417D01*
X166651946Y-67021416D01*
X166794476Y-66622332D01*
X167171349Y-66622332D01*
X167171349Y-66660600D01*
X167198409Y-66687660D01*
X167217543Y-66691466D01*
X167979447Y-66691466D01*
X167998581Y-66687660D01*
X168025641Y-66660600D01*
X168025641Y-66622332D01*
X167998581Y-66595272D01*
X167979447Y-66591466D01*
X167217543Y-66591466D01*
X167198409Y-66595272D01*
X167171349Y-66622332D01*
X166794476Y-66622332D01*
X166838663Y-66498609D01*
X168358019Y-66498609D01*
X168358019Y-66593847D01*
X168359460Y-66601095D01*
X168358970Y-66603550D01*
X168360365Y-66605643D01*
X168361825Y-66612981D01*
X168372121Y-66623277D01*
X168380197Y-66635391D01*
X168387105Y-66638261D01*
X168388885Y-66640041D01*
X168391389Y-66640041D01*
X168398213Y-66642876D01*
X168834209Y-66730075D01*
X168834209Y-66867757D01*
X168799322Y-66937532D01*
X168729549Y-66972419D01*
X168562680Y-66972419D01*
X168477999Y-66930079D01*
X168459183Y-66924926D01*
X168422878Y-66937027D01*
X168405764Y-66971255D01*
X168417865Y-67007560D01*
X168433277Y-67019521D01*
X168528515Y-67067140D01*
X168530930Y-67067801D01*
X168531742Y-67068613D01*
X168539603Y-67070176D01*
X168547331Y-67072293D01*
X168548419Y-67071930D01*
X168550876Y-67072419D01*
X168741352Y-67072419D01*
X168743808Y-67071930D01*
X168744897Y-67072293D01*
X168752624Y-67070176D01*
X168760486Y-67068613D01*
X168761297Y-67067801D01*
X168763713Y-67067140D01*
X168858950Y-67019522D01*
X168866816Y-67013416D01*
X168869350Y-67012572D01*
X168871539Y-67009750D01*
X168874362Y-67007560D01*
X168875207Y-67005025D01*
X168881311Y-66997160D01*
X168928930Y-66901922D01*
X168929591Y-66899506D01*
X168930403Y-66898695D01*
X168931966Y-66890833D01*
X168934083Y-66883106D01*
X168933720Y-66882017D01*
X168934209Y-66879561D01*
X168934209Y-66498609D01*
X168933720Y-66496152D01*
X168934083Y-66495064D01*
X168931966Y-66487336D01*
X168930403Y-66479475D01*
X168929591Y-66478663D01*
X168928930Y-66476248D01*
X168881311Y-66381010D01*
X168875206Y-66373144D01*
X168874362Y-66370611D01*
X168871541Y-66368421D01*
X168869350Y-66365598D01*
X168866814Y-66364752D01*
X168858950Y-66358649D01*
X168853156Y-66355752D01*
X169262781Y-66355752D01*
X169262781Y-67165276D01*
X169263269Y-67167732D01*
X169262907Y-67168821D01*
X169265023Y-67176548D01*
X169266587Y-67184410D01*
X169267398Y-67185221D01*
X169268060Y-67187637D01*
X169315678Y-67282874D01*
X169320593Y-67289207D01*
X169325045Y-67295869D01*
X169372663Y-67343488D01*
X169379329Y-67347942D01*
X169385658Y-67352854D01*
X169480896Y-67400473D01*
X169483311Y-67401134D01*
X169484123Y-67401946D01*
X169491984Y-67403509D01*
X169499712Y-67405626D01*
X169500800Y-67405263D01*
X169503257Y-67405752D01*
X169646114Y-67405752D01*
X169648570Y-67405263D01*
X169649659Y-67405626D01*
X169657386Y-67403509D01*
X169665248Y-67401946D01*
X169666059Y-67401134D01*
X169668475Y-67400473D01*
X169763712Y-67352855D01*
X169779124Y-67340893D01*
X169791226Y-67304589D01*
X169774112Y-67270361D01*
X169737807Y-67258259D01*
X169718991Y-67263412D01*
X169634311Y-67305752D01*
X169515061Y-67305752D01*
X169437637Y-67267040D01*
X169401492Y-67230896D01*
X169362781Y-67153473D01*
X169362781Y-67055701D01*
X169385658Y-67067140D01*
X169388073Y-67067801D01*
X169388885Y-67068613D01*
X169396746Y-67070176D01*
X169404474Y-67072293D01*
X169405562Y-67071930D01*
X169408019Y-67072419D01*
X169598495Y-67072419D01*
X169600951Y-67071930D01*
X169602040Y-67072293D01*
X169609767Y-67070176D01*
X169617629Y-67068613D01*
X169618440Y-67067801D01*
X169620856Y-67067140D01*
X169716093Y-67019522D01*
X169722420Y-67014611D01*
X169729089Y-67010155D01*
X169776708Y-66962535D01*
X169781161Y-66955869D01*
X169786073Y-66949541D01*
X169833692Y-66854303D01*
X169834353Y-66851887D01*
X169835165Y-66851076D01*
X169836728Y-66843214D01*
X169838845Y-66835487D01*
X169838482Y-66834398D01*
X169838971Y-66831942D01*
X169838971Y-66546228D01*
X169838482Y-66543771D01*
X169838845Y-66542683D01*
X169836728Y-66534955D01*
X169835165Y-66527094D01*
X169834353Y-66526282D01*
X169833692Y-66523867D01*
X169786073Y-66428629D01*
X169781161Y-66422300D01*
X169776707Y-66415634D01*
X169729088Y-66368016D01*
X169722426Y-66363564D01*
X169716093Y-66358649D01*
X169672031Y-66336618D01*
X170028492Y-66336618D01*
X170028492Y-66374886D01*
X170055552Y-66401946D01*
X170074686Y-66405752D01*
X170158121Y-66405752D01*
X170235544Y-66444463D01*
X170271688Y-66480608D01*
X170310400Y-66558031D01*
X170310400Y-67022419D01*
X170314206Y-67041553D01*
X170341266Y-67068613D01*
X170379534Y-67068613D01*
X170406594Y-67041553D01*
X170410400Y-67022419D01*
X170410400Y-66546228D01*
X170738972Y-66546228D01*
X170738972Y-66831942D01*
X170739460Y-66834398D01*
X170739098Y-66835487D01*
X170741214Y-66843214D01*
X170742778Y-66851076D01*
X170743589Y-66851887D01*
X170744251Y-66854303D01*
X170791869Y-66949540D01*
X170796780Y-66955868D01*
X170801235Y-66962535D01*
X170848854Y-67010155D01*
X170855520Y-67014609D01*
X170861849Y-67019521D01*
X170957087Y-67067140D01*
X170959502Y-67067801D01*
X170960314Y-67068613D01*
X170968175Y-67070176D01*
X170975903Y-67072293D01*
X170976991Y-67071930D01*
X170979448Y-67072419D01*
X171122305Y-67072419D01*
X171124761Y-67071930D01*
X171125850Y-67072293D01*
X171133577Y-67070176D01*
X171141439Y-67068613D01*
X171142250Y-67067801D01*
X171144666Y-67067140D01*
X171239903Y-67019522D01*
X171246230Y-67014611D01*
X171252899Y-67010155D01*
X171300518Y-66962535D01*
X171304971Y-66955869D01*
X171309883Y-66949541D01*
X171357502Y-66854303D01*
X171358163Y-66851887D01*
X171358975Y-66851076D01*
X171360538Y-66843214D01*
X171362655Y-66835487D01*
X171362292Y-66834398D01*
X171362781Y-66831942D01*
X171362781Y-66546228D01*
X171362292Y-66543771D01*
X171362655Y-66542683D01*
X171360538Y-66534955D01*
X171358975Y-66527094D01*
X171358163Y-66526282D01*
X171357502Y-66523867D01*
X171344873Y-66498609D01*
X171643734Y-66498609D01*
X171643734Y-66593847D01*
X171645175Y-66601095D01*
X171644685Y-66603550D01*
X171646080Y-66605643D01*
X171647540Y-66612981D01*
X171657836Y-66623277D01*
X171665912Y-66635391D01*
X171672820Y-66638261D01*
X171674600Y-66640041D01*
X171677104Y-66640041D01*
X171683928Y-66642876D01*
X172119924Y-66730075D01*
X172119924Y-66867757D01*
X172085037Y-66937532D01*
X172015264Y-66972419D01*
X171848395Y-66972419D01*
X171763714Y-66930079D01*
X171744898Y-66924926D01*
X171708593Y-66937027D01*
X171691479Y-66971255D01*
X171703580Y-67007560D01*
X171718992Y-67019521D01*
X171814230Y-67067140D01*
X171816645Y-67067801D01*
X171817457Y-67068613D01*
X171825318Y-67070176D01*
X171833046Y-67072293D01*
X171834134Y-67071930D01*
X171836591Y-67072419D01*
X172027067Y-67072419D01*
X172029523Y-67071930D01*
X172030612Y-67072293D01*
X172038339Y-67070176D01*
X172046201Y-67068613D01*
X172047012Y-67067801D01*
X172049428Y-67067140D01*
X172144665Y-67019522D01*
X172152531Y-67013416D01*
X172155065Y-67012572D01*
X172157254Y-67009750D01*
X172160077Y-67007560D01*
X172160922Y-67005025D01*
X172167026Y-66997160D01*
X172214645Y-66901922D01*
X172215306Y-66899506D01*
X172216118Y-66898695D01*
X172217681Y-66890833D01*
X172219798Y-66883106D01*
X172219435Y-66882017D01*
X172219924Y-66879561D01*
X172219924Y-66498609D01*
X172219435Y-66496152D01*
X172219798Y-66495064D01*
X172217681Y-66487336D01*
X172216118Y-66479475D01*
X172215306Y-66478663D01*
X172214645Y-66476248D01*
X172167026Y-66381010D01*
X172160921Y-66373144D01*
X172160077Y-66370611D01*
X172157256Y-66368421D01*
X172155065Y-66365598D01*
X172152529Y-66364752D01*
X172144665Y-66358649D01*
X172138871Y-66355752D01*
X172548496Y-66355752D01*
X172548496Y-67165276D01*
X172548984Y-67167732D01*
X172548622Y-67168821D01*
X172550738Y-67176548D01*
X172552302Y-67184410D01*
X172553113Y-67185221D01*
X172553775Y-67187637D01*
X172601393Y-67282874D01*
X172606308Y-67289207D01*
X172610760Y-67295869D01*
X172658378Y-67343488D01*
X172665044Y-67347942D01*
X172671373Y-67352854D01*
X172766611Y-67400473D01*
X172769026Y-67401134D01*
X172769838Y-67401946D01*
X172777699Y-67403509D01*
X172785427Y-67405626D01*
X172786515Y-67405263D01*
X172788972Y-67405752D01*
X172931829Y-67405752D01*
X172934285Y-67405263D01*
X172935374Y-67405626D01*
X172943101Y-67403509D01*
X172950963Y-67401946D01*
X172951774Y-67401134D01*
X172954190Y-67400473D01*
X173049427Y-67352855D01*
X173064839Y-67340893D01*
X173076941Y-67304589D01*
X173059827Y-67270361D01*
X173023522Y-67258259D01*
X173004706Y-67263412D01*
X172920026Y-67305752D01*
X172800776Y-67305752D01*
X172723352Y-67267040D01*
X172687207Y-67230896D01*
X172648496Y-67153473D01*
X172648496Y-67055701D01*
X172671373Y-67067140D01*
X172673788Y-67067801D01*
X172674600Y-67068613D01*
X172682461Y-67070176D01*
X172690189Y-67072293D01*
X172691277Y-67071930D01*
X172693734Y-67072419D01*
X172884210Y-67072419D01*
X172886666Y-67071930D01*
X172887755Y-67072293D01*
X172895482Y-67070176D01*
X172903344Y-67068613D01*
X172904155Y-67067801D01*
X172906571Y-67067140D01*
X173001808Y-67019522D01*
X173008135Y-67014611D01*
X173014804Y-67010155D01*
X173062423Y-66962535D01*
X173066876Y-66955869D01*
X173071788Y-66949541D01*
X173119407Y-66854303D01*
X173120068Y-66851887D01*
X173120880Y-66851076D01*
X173122443Y-66843214D01*
X173124560Y-66835487D01*
X173124197Y-66834398D01*
X173124686Y-66831942D01*
X173124686Y-66546228D01*
X173124197Y-66543771D01*
X173124560Y-66542683D01*
X173122443Y-66534955D01*
X173120880Y-66527094D01*
X173120068Y-66526282D01*
X173119407Y-66523867D01*
X173071788Y-66428629D01*
X173066876Y-66422300D01*
X173062422Y-66415634D01*
X173014803Y-66368016D01*
X173008141Y-66363564D01*
X173001808Y-66358649D01*
X172906571Y-66311031D01*
X172904155Y-66310369D01*
X172903344Y-66309558D01*
X172895482Y-66307994D01*
X172887755Y-66305878D01*
X172886666Y-66306240D01*
X172884210Y-66305752D01*
X172693734Y-66305752D01*
X172691277Y-66306240D01*
X172690189Y-66305878D01*
X172682461Y-66307994D01*
X172674600Y-66309558D01*
X172673788Y-66310369D01*
X172671373Y-66311031D01*
X172636526Y-66328454D01*
X172617630Y-66309558D01*
X172579362Y-66309558D01*
X172552302Y-66336618D01*
X172548496Y-66355752D01*
X172138871Y-66355752D01*
X172049428Y-66311031D01*
X172047012Y-66310369D01*
X172046201Y-66309558D01*
X172038339Y-66307994D01*
X172030612Y-66305878D01*
X172029523Y-66306240D01*
X172027067Y-66305752D01*
X171836591Y-66305752D01*
X171834134Y-66306240D01*
X171833046Y-66305878D01*
X171825318Y-66307994D01*
X171817457Y-66309558D01*
X171816645Y-66310369D01*
X171814230Y-66311031D01*
X171718992Y-66358650D01*
X171711126Y-66364754D01*
X171708593Y-66365599D01*
X171706403Y-66368419D01*
X171703580Y-66370611D01*
X171702734Y-66373146D01*
X171696631Y-66381011D01*
X171649013Y-66476248D01*
X171648351Y-66478663D01*
X171647540Y-66479475D01*
X171645976Y-66487336D01*
X171643860Y-66495064D01*
X171644222Y-66496152D01*
X171643734Y-66498609D01*
X171344873Y-66498609D01*
X171309883Y-66428629D01*
X171304971Y-66422300D01*
X171300517Y-66415634D01*
X171252898Y-66368016D01*
X171246236Y-66363564D01*
X171239903Y-66358649D01*
X171144666Y-66311031D01*
X171142250Y-66310369D01*
X171141439Y-66309558D01*
X171133577Y-66307994D01*
X171125850Y-66305878D01*
X171124761Y-66306240D01*
X171122305Y-66305752D01*
X170979448Y-66305752D01*
X170976991Y-66306240D01*
X170975903Y-66305878D01*
X170968175Y-66307994D01*
X170960314Y-66309558D01*
X170959502Y-66310369D01*
X170957087Y-66311031D01*
X170861849Y-66358650D01*
X170855520Y-66363561D01*
X170848854Y-66368016D01*
X170801236Y-66415635D01*
X170796784Y-66422296D01*
X170791869Y-66428630D01*
X170744251Y-66523867D01*
X170743589Y-66526282D01*
X170742778Y-66527094D01*
X170741214Y-66534955D01*
X170739098Y-66542683D01*
X170739460Y-66543771D01*
X170738972Y-66546228D01*
X170410400Y-66546228D01*
X170410400Y-66355752D01*
X170406594Y-66336618D01*
X170379534Y-66309558D01*
X170341266Y-66309558D01*
X170314206Y-66336618D01*
X170310400Y-66355752D01*
X170310400Y-66377898D01*
X170300517Y-66368016D01*
X170293855Y-66363564D01*
X170287522Y-66358649D01*
X170192285Y-66311031D01*
X170189869Y-66310369D01*
X170189058Y-66309558D01*
X170181196Y-66307994D01*
X170173469Y-66305878D01*
X170172380Y-66306240D01*
X170169924Y-66305752D01*
X170074686Y-66305752D01*
X170055552Y-66309558D01*
X170028492Y-66336618D01*
X169672031Y-66336618D01*
X169620856Y-66311031D01*
X169618440Y-66310369D01*
X169617629Y-66309558D01*
X169609767Y-66307994D01*
X169602040Y-66305878D01*
X169600951Y-66306240D01*
X169598495Y-66305752D01*
X169408019Y-66305752D01*
X169405562Y-66306240D01*
X169404474Y-66305878D01*
X169396746Y-66307994D01*
X169388885Y-66309558D01*
X169388073Y-66310369D01*
X169385658Y-66311031D01*
X169350811Y-66328454D01*
X169331915Y-66309558D01*
X169293647Y-66309558D01*
X169266587Y-66336618D01*
X169262781Y-66355752D01*
X168853156Y-66355752D01*
X168763713Y-66311031D01*
X168761297Y-66310369D01*
X168760486Y-66309558D01*
X168752624Y-66307994D01*
X168744897Y-66305878D01*
X168743808Y-66306240D01*
X168741352Y-66305752D01*
X168550876Y-66305752D01*
X168548419Y-66306240D01*
X168547331Y-66305878D01*
X168539603Y-66307994D01*
X168531742Y-66309558D01*
X168530930Y-66310369D01*
X168528515Y-66311031D01*
X168433277Y-66358650D01*
X168425411Y-66364754D01*
X168422878Y-66365599D01*
X168420688Y-66368419D01*
X168417865Y-66370611D01*
X168417019Y-66373146D01*
X168410916Y-66381011D01*
X168363298Y-66476248D01*
X168362636Y-66478663D01*
X168361825Y-66479475D01*
X168360261Y-66487336D01*
X168358145Y-66495064D01*
X168358507Y-66496152D01*
X168358019Y-66498609D01*
X166838663Y-66498609D01*
X166883677Y-66372569D01*
X166886528Y-66353270D01*
X166870146Y-66318685D01*
X166834107Y-66305814D01*
X166799523Y-66322196D01*
X166789503Y-66338935D01*
X166598495Y-66873758D01*
X166407487Y-66338935D01*
X166397467Y-66322196D01*
X166362883Y-66305814D01*
X166326844Y-66318685D01*
X166310462Y-66353269D01*
X166028953Y-66353269D01*
X166025641Y-66336618D01*
X165998581Y-66309558D01*
X165960313Y-66309558D01*
X165933253Y-66336618D01*
X165929447Y-66355752D01*
X165929447Y-66867757D01*
X165894560Y-66937532D01*
X165824787Y-66972419D01*
X165705537Y-66972419D01*
X165628114Y-66933708D01*
X165600876Y-66906469D01*
X165600876Y-66355752D01*
X165597070Y-66336618D01*
X165570010Y-66309558D01*
X165531742Y-66309558D01*
X165504682Y-66336618D01*
X165500876Y-66355752D01*
X165091251Y-66355752D01*
X165001808Y-66311031D01*
X164999392Y-66310369D01*
X164998581Y-66309558D01*
X164990719Y-66307994D01*
X164982992Y-66305878D01*
X164981903Y-66306240D01*
X164979447Y-66305752D01*
X164788971Y-66305752D01*
X164786514Y-66306240D01*
X164785426Y-66305878D01*
X164777698Y-66307994D01*
X164769837Y-66309558D01*
X164769025Y-66310369D01*
X164766610Y-66311031D01*
X164671372Y-66358650D01*
X164663506Y-66364754D01*
X164660973Y-66365599D01*
X164658783Y-66368419D01*
X164655960Y-66370611D01*
X164655114Y-66373146D01*
X164649011Y-66381011D01*
X164601393Y-66476248D01*
X164600731Y-66478663D01*
X164599920Y-66479475D01*
X164598356Y-66487336D01*
X164596240Y-66495064D01*
X164596602Y-66496152D01*
X164596114Y-66498609D01*
X164219923Y-66498609D01*
X164219923Y-66355752D01*
X164216117Y-66336618D01*
X164189057Y-66309558D01*
X164150789Y-66309558D01*
X164123729Y-66336618D01*
X164121636Y-66347135D01*
X164049427Y-66311031D01*
X164047011Y-66310369D01*
X164046200Y-66309558D01*
X164038338Y-66307994D01*
X164030611Y-66305878D01*
X164029522Y-66306240D01*
X164027066Y-66305752D01*
X163884209Y-66305752D01*
X163881752Y-66306240D01*
X163880664Y-66305878D01*
X163872936Y-66307994D01*
X163865075Y-66309558D01*
X163864263Y-66310369D01*
X163861848Y-66311031D01*
X163766610Y-66358650D01*
X163758744Y-66364754D01*
X163756211Y-66365599D01*
X163754021Y-66368419D01*
X163751198Y-66370611D01*
X163750352Y-66373146D01*
X163744249Y-66381011D01*
X163696631Y-66476248D01*
X163695969Y-66478663D01*
X163695158Y-66479475D01*
X163693594Y-66487336D01*
X163691478Y-66495064D01*
X163691840Y-66496152D01*
X163691352Y-66498609D01*
X163315161Y-66498609D01*
X163315161Y-66355752D01*
X163311355Y-66336618D01*
X163284295Y-66309558D01*
X163246027Y-66309558D01*
X163218967Y-66336618D01*
X163215161Y-66355752D01*
X162838971Y-66355752D01*
X162835165Y-66336618D01*
X162808105Y-66309558D01*
X162769837Y-66309558D01*
X162742777Y-66336618D01*
X162738971Y-66355752D01*
X161219128Y-66355752D01*
X161219597Y-66350045D01*
X161201012Y-66316592D01*
X161164217Y-66306079D01*
X161130764Y-66324664D01*
X161121848Y-66342016D01*
X160971552Y-66868050D01*
X160835396Y-66527658D01*
X160824756Y-66511307D01*
X160824151Y-66511048D01*
X160823893Y-66510444D01*
X160806639Y-66503542D01*
X160789581Y-66496232D01*
X160788971Y-66496475D01*
X160788362Y-66496232D01*
X160771303Y-66503543D01*
X160754051Y-66510444D01*
X160753792Y-66511048D01*
X160753188Y-66511307D01*
X160742548Y-66527659D01*
X160606391Y-66868050D01*
X160456096Y-66342016D01*
X160447180Y-66324664D01*
X160413727Y-66306079D01*
X160376932Y-66316592D01*
X160358347Y-66350045D01*
X160032219Y-66350045D01*
X159954190Y-66311031D01*
X159951774Y-66310369D01*
X159950963Y-66309558D01*
X159943101Y-66307994D01*
X159935374Y-66305878D01*
X159934285Y-66306240D01*
X159931829Y-66305752D01*
X159741353Y-66305752D01*
X159738896Y-66306240D01*
X159737808Y-66305878D01*
X159730080Y-66307994D01*
X159722219Y-66309558D01*
X159721407Y-66310369D01*
X159718992Y-66311031D01*
X159623754Y-66358650D01*
X159615888Y-66364754D01*
X159613355Y-66365599D01*
X159611165Y-66368419D01*
X159608342Y-66370611D01*
X159607496Y-66373146D01*
X159601393Y-66381011D01*
X159553775Y-66476248D01*
X159553113Y-66478663D01*
X159552302Y-66479475D01*
X159550738Y-66487336D01*
X159548622Y-66495064D01*
X159548984Y-66496152D01*
X159548496Y-66498609D01*
X159172305Y-66498609D01*
X159172305Y-66355752D01*
X159168499Y-66336618D01*
X159141439Y-66309558D01*
X159103171Y-66309558D01*
X159076111Y-66336618D01*
X159074018Y-66347135D01*
X159001809Y-66311031D01*
X158999393Y-66310369D01*
X158998582Y-66309558D01*
X158990720Y-66307994D01*
X158982993Y-66305878D01*
X158981904Y-66306240D01*
X158979448Y-66305752D01*
X158836591Y-66305752D01*
X158834134Y-66306240D01*
X158833046Y-66305878D01*
X158825318Y-66307994D01*
X158817457Y-66309558D01*
X158816645Y-66310369D01*
X158814230Y-66311031D01*
X158718992Y-66358650D01*
X158711126Y-66364754D01*
X158708593Y-66365599D01*
X158706403Y-66368419D01*
X158703580Y-66370611D01*
X158702734Y-66373146D01*
X158696631Y-66381011D01*
X158649013Y-66476248D01*
X158648351Y-66478663D01*
X158647540Y-66479475D01*
X158645976Y-66487336D01*
X158643860Y-66495064D01*
X158644222Y-66496152D01*
X158643734Y-66498609D01*
X158297254Y-66498609D01*
X158262264Y-66428629D01*
X158257352Y-66422300D01*
X158252898Y-66415634D01*
X158205279Y-66368016D01*
X158198617Y-66363564D01*
X158192284Y-66358649D01*
X158097047Y-66311031D01*
X158094631Y-66310369D01*
X158093820Y-66309558D01*
X158085958Y-66307994D01*
X158078231Y-66305878D01*
X158077142Y-66306240D01*
X158074686Y-66305752D01*
X157884210Y-66305752D01*
X157881753Y-66306240D01*
X157880665Y-66305878D01*
X157872937Y-66307994D01*
X157865076Y-66309558D01*
X157864264Y-66310369D01*
X157861849Y-66311031D01*
X157827002Y-66328454D01*
X157808106Y-66309558D01*
X157769838Y-66309558D01*
X157742778Y-66336618D01*
X157738972Y-66355752D01*
X157627861Y-66355752D01*
X157627861Y-66050904D01*
X162695158Y-66050904D01*
X162695158Y-66089172D01*
X162705997Y-66105393D01*
X162753615Y-66153012D01*
X162769836Y-66163851D01*
X162769837Y-66163851D01*
X162808105Y-66163851D01*
X162824326Y-66153012D01*
X162871945Y-66105394D01*
X162882784Y-66089173D01*
X162882784Y-66050904D01*
X163171348Y-66050904D01*
X163171348Y-66089172D01*
X163182187Y-66105393D01*
X163229805Y-66153012D01*
X163246026Y-66163851D01*
X163246027Y-66163851D01*
X163284295Y-66163851D01*
X163300516Y-66153012D01*
X163348135Y-66105394D01*
X163358974Y-66089173D01*
X163358974Y-66050904D01*
X163358974Y-66050903D01*
X163348135Y-66034682D01*
X163300516Y-65987064D01*
X163296683Y-65984503D01*
X173311352Y-65984503D01*
X173318798Y-66002535D01*
X174175941Y-67288249D01*
X174189721Y-67302059D01*
X174227247Y-67309564D01*
X174259088Y-67288336D01*
X174266593Y-67250811D01*
X174259146Y-67232779D01*
X173769700Y-66498609D01*
X174500876Y-66498609D01*
X174500876Y-67022419D01*
X174504682Y-67041553D01*
X174531742Y-67068613D01*
X174570010Y-67068613D01*
X174597070Y-67041553D01*
X174600876Y-67022419D01*
X174600876Y-66510412D01*
X174635762Y-66440638D01*
X174705538Y-66405752D01*
X174824788Y-66405752D01*
X174894561Y-66440638D01*
X174929448Y-66510412D01*
X174929448Y-67022419D01*
X174933254Y-67041553D01*
X174960314Y-67068613D01*
X174998582Y-67068613D01*
X175025642Y-67041553D01*
X175029448Y-67022419D01*
X175029448Y-66510412D01*
X175064334Y-66440638D01*
X175134109Y-66405752D01*
X175253359Y-66405752D01*
X175330782Y-66444463D01*
X175358019Y-66471700D01*
X175358019Y-67022419D01*
X175361825Y-67041553D01*
X175388885Y-67068613D01*
X175427153Y-67068613D01*
X175454213Y-67041553D01*
X175458019Y-67022419D01*
X175458019Y-66546228D01*
X175786591Y-66546228D01*
X175786591Y-66831942D01*
X175787079Y-66834398D01*
X175786717Y-66835487D01*
X175788833Y-66843214D01*
X175790397Y-66851076D01*
X175791208Y-66851887D01*
X175791870Y-66854303D01*
X175839488Y-66949540D01*
X175844399Y-66955868D01*
X175848854Y-66962535D01*
X175896473Y-67010155D01*
X175903139Y-67014609D01*
X175909468Y-67019521D01*
X176004706Y-67067140D01*
X176007121Y-67067801D01*
X176007933Y-67068613D01*
X176015794Y-67070176D01*
X176023522Y-67072293D01*
X176024610Y-67071930D01*
X176027067Y-67072419D01*
X176169924Y-67072419D01*
X176172380Y-67071930D01*
X176173469Y-67072293D01*
X176181196Y-67070176D01*
X176189058Y-67068613D01*
X176189869Y-67067801D01*
X176192285Y-67067140D01*
X176287522Y-67019522D01*
X176293849Y-67014611D01*
X176300518Y-67010155D01*
X176348137Y-66962535D01*
X176352590Y-66955869D01*
X176357502Y-66949541D01*
X176405121Y-66854303D01*
X176405782Y-66851887D01*
X176406594Y-66851076D01*
X176408157Y-66843214D01*
X176410274Y-66835487D01*
X176409911Y-66834398D01*
X176410400Y-66831942D01*
X176410400Y-66546228D01*
X176409911Y-66543771D01*
X176410274Y-66542683D01*
X176408157Y-66534955D01*
X176406594Y-66527094D01*
X176405782Y-66526282D01*
X176405121Y-66523867D01*
X176357502Y-66428629D01*
X176352590Y-66422300D01*
X176348136Y-66415634D01*
X176339418Y-66406916D01*
X176691479Y-66406916D01*
X176708593Y-66441144D01*
X176744898Y-66453245D01*
X176763714Y-66448092D01*
X176848395Y-66405752D01*
X177015264Y-66405752D01*
X177092687Y-66444463D01*
X177128831Y-66480608D01*
X177167543Y-66558031D01*
X177167543Y-66820138D01*
X177128831Y-66897561D01*
X177092685Y-66933708D01*
X177015264Y-66972419D01*
X176848395Y-66972419D01*
X176763714Y-66930079D01*
X176744898Y-66924926D01*
X176708593Y-66937027D01*
X176691479Y-66971255D01*
X176703580Y-67007560D01*
X176718992Y-67019521D01*
X176814230Y-67067140D01*
X176816645Y-67067801D01*
X176817457Y-67068613D01*
X176825318Y-67070176D01*
X176833046Y-67072293D01*
X176834134Y-67071930D01*
X176836591Y-67072419D01*
X177027067Y-67072419D01*
X177029523Y-67071930D01*
X177030612Y-67072293D01*
X177038339Y-67070176D01*
X177046201Y-67068613D01*
X177047012Y-67067801D01*
X177049428Y-67067140D01*
X177144665Y-67019522D01*
X177150992Y-67014611D01*
X177157661Y-67010155D01*
X177205280Y-66962535D01*
X177209733Y-66955869D01*
X177209891Y-66955666D01*
X177552301Y-66955666D01*
X177552301Y-66993935D01*
X177552303Y-66993937D01*
X177563140Y-67010155D01*
X177610758Y-67057774D01*
X177626979Y-67068613D01*
X177626980Y-67068613D01*
X177665248Y-67068613D01*
X177681469Y-67057774D01*
X177729088Y-67010156D01*
X177739927Y-66993935D01*
X177739927Y-66955666D01*
X177729089Y-66939445D01*
X177681470Y-66891825D01*
X177665249Y-66880986D01*
X177665248Y-66880986D01*
X177626979Y-66880986D01*
X177610758Y-66891825D01*
X177563139Y-66939445D01*
X177552301Y-66955666D01*
X177209891Y-66955666D01*
X177214645Y-66949541D01*
X177262264Y-66854303D01*
X177262925Y-66851887D01*
X177263737Y-66851076D01*
X177265300Y-66843214D01*
X177267417Y-66835487D01*
X177267054Y-66834398D01*
X177267543Y-66831942D01*
X177267543Y-66546228D01*
X178024686Y-66546228D01*
X178024686Y-66831942D01*
X178025174Y-66834398D01*
X178024812Y-66835487D01*
X178026928Y-66843214D01*
X178028492Y-66851076D01*
X178029303Y-66851887D01*
X178029965Y-66854303D01*
X178077583Y-66949540D01*
X178082494Y-66955868D01*
X178086949Y-66962535D01*
X178134568Y-67010155D01*
X178141234Y-67014609D01*
X178147563Y-67019521D01*
X178242801Y-67067140D01*
X178245216Y-67067801D01*
X178246028Y-67068613D01*
X178253889Y-67070176D01*
X178261617Y-67072293D01*
X178262705Y-67071930D01*
X178265162Y-67072419D01*
X178455638Y-67072419D01*
X178458094Y-67071930D01*
X178459183Y-67072293D01*
X178466910Y-67070176D01*
X178474772Y-67068613D01*
X178475583Y-67067801D01*
X178477999Y-67067140D01*
X178512845Y-67049716D01*
X178531742Y-67068613D01*
X178570010Y-67068613D01*
X178597070Y-67041553D01*
X178600876Y-67022419D01*
X178600876Y-66355752D01*
X178977067Y-66355752D01*
X178977067Y-67022419D01*
X178980873Y-67041553D01*
X179007933Y-67068613D01*
X179046201Y-67068613D01*
X179073261Y-67041553D01*
X179075353Y-67031035D01*
X179147563Y-67067140D01*
X179149978Y-67067801D01*
X179150790Y-67068613D01*
X179158651Y-67070176D01*
X179166379Y-67072293D01*
X179167467Y-67071930D01*
X179169924Y-67072419D01*
X179312781Y-67072419D01*
X179315237Y-67071930D01*
X179316326Y-67072293D01*
X179324053Y-67070176D01*
X179331915Y-67068613D01*
X179332726Y-67067801D01*
X179335142Y-67067140D01*
X179430379Y-67019522D01*
X179438245Y-67013416D01*
X179440779Y-67012572D01*
X179442968Y-67009750D01*
X179445791Y-67007560D01*
X179446636Y-67005025D01*
X179452740Y-66997160D01*
X179500359Y-66901922D01*
X179501020Y-66899506D01*
X179501832Y-66898695D01*
X179503395Y-66890833D01*
X179505512Y-66883106D01*
X179505149Y-66882017D01*
X179505638Y-66879561D01*
X179505638Y-66498609D01*
X179881829Y-66498609D01*
X179881829Y-67022419D01*
X179885635Y-67041553D01*
X179912695Y-67068613D01*
X179950963Y-67068613D01*
X179978023Y-67041553D01*
X179981829Y-67022419D01*
X179981829Y-66510412D01*
X180016715Y-66440638D01*
X180086490Y-66405752D01*
X180205740Y-66405752D01*
X180283163Y-66444463D01*
X180310400Y-66471700D01*
X180310400Y-67022419D01*
X180314206Y-67041553D01*
X180341266Y-67068613D01*
X180379534Y-67068613D01*
X180406594Y-67041553D01*
X180410400Y-67022419D01*
X180410400Y-66336618D01*
X180647540Y-66336618D01*
X180647540Y-66374886D01*
X180674600Y-66401946D01*
X180693734Y-66405752D01*
X180881829Y-66405752D01*
X180881829Y-66867757D01*
X180846942Y-66937532D01*
X180777169Y-66972419D01*
X180693734Y-66972419D01*
X180674600Y-66976225D01*
X180647540Y-67003285D01*
X180647540Y-67041553D01*
X180674600Y-67068613D01*
X180693734Y-67072419D01*
X180788972Y-67072419D01*
X180791428Y-67071930D01*
X180792517Y-67072293D01*
X180800244Y-67070176D01*
X180808106Y-67068613D01*
X180808917Y-67067801D01*
X180811333Y-67067140D01*
X180906570Y-67019522D01*
X180914436Y-67013416D01*
X180916970Y-67012572D01*
X180919159Y-67009750D01*
X180921982Y-67007560D01*
X180922827Y-67005025D01*
X180928931Y-66997160D01*
X180976550Y-66901922D01*
X180977211Y-66899506D01*
X180978023Y-66898695D01*
X180979586Y-66890833D01*
X180981703Y-66883106D01*
X180981340Y-66882017D01*
X180981829Y-66879561D01*
X180981829Y-66405752D01*
X181074686Y-66405752D01*
X181093820Y-66401946D01*
X181120880Y-66374886D01*
X181120880Y-66355752D01*
X181358019Y-66355752D01*
X181358019Y-67022419D01*
X181361825Y-67041553D01*
X181388885Y-67068613D01*
X181427153Y-67068613D01*
X181454213Y-67041553D01*
X181458019Y-67022419D01*
X181458019Y-66355752D01*
X181834210Y-66355752D01*
X181834210Y-67165276D01*
X181834698Y-67167732D01*
X181834336Y-67168821D01*
X181836452Y-67176548D01*
X181838016Y-67184410D01*
X181838827Y-67185221D01*
X181839489Y-67187637D01*
X181887107Y-67282874D01*
X181892022Y-67289207D01*
X181896474Y-67295869D01*
X181944092Y-67343488D01*
X181950758Y-67347942D01*
X181957087Y-67352854D01*
X182052325Y-67400473D01*
X182054740Y-67401134D01*
X182055552Y-67401946D01*
X182063413Y-67403509D01*
X182071141Y-67405626D01*
X182072229Y-67405263D01*
X182074686Y-67405752D01*
X182217543Y-67405752D01*
X182219999Y-67405263D01*
X182221088Y-67405626D01*
X182228815Y-67403509D01*
X182236677Y-67401946D01*
X182237488Y-67401134D01*
X182239904Y-67400473D01*
X182335141Y-67352855D01*
X182350553Y-67340893D01*
X182362655Y-67304589D01*
X182345541Y-67270361D01*
X182309236Y-67258259D01*
X182290420Y-67263412D01*
X182205740Y-67305752D01*
X182086490Y-67305752D01*
X182009066Y-67267040D01*
X181972921Y-67230896D01*
X181934210Y-67153473D01*
X181934210Y-67055701D01*
X181957087Y-67067140D01*
X181959502Y-67067801D01*
X181960314Y-67068613D01*
X181968175Y-67070176D01*
X181975903Y-67072293D01*
X181976991Y-67071930D01*
X181979448Y-67072419D01*
X182169924Y-67072419D01*
X182172380Y-67071930D01*
X182173469Y-67072293D01*
X182181196Y-67070176D01*
X182189058Y-67068613D01*
X182189869Y-67067801D01*
X182192285Y-67067140D01*
X182287522Y-67019522D01*
X182293849Y-67014611D01*
X182300518Y-67010155D01*
X182348137Y-66962535D01*
X182352590Y-66955869D01*
X182357502Y-66949541D01*
X182405121Y-66854303D01*
X182405782Y-66851887D01*
X182406594Y-66851076D01*
X182408157Y-66843214D01*
X182410274Y-66835487D01*
X182409911Y-66834398D01*
X182410400Y-66831942D01*
X182410400Y-66546228D01*
X182409911Y-66543771D01*
X182410274Y-66542683D01*
X182408157Y-66534955D01*
X182406594Y-66527094D01*
X182405782Y-66526282D01*
X182405121Y-66523867D01*
X182357502Y-66428629D01*
X182352590Y-66422300D01*
X182348136Y-66415634D01*
X182300517Y-66368016D01*
X182293855Y-66363564D01*
X182287522Y-66358649D01*
X182192285Y-66311031D01*
X182189869Y-66310369D01*
X182189058Y-66309558D01*
X182181196Y-66307994D01*
X182173469Y-66305878D01*
X182172380Y-66306240D01*
X182169924Y-66305752D01*
X181979448Y-66305752D01*
X181976991Y-66306240D01*
X181975903Y-66305878D01*
X181968175Y-66307994D01*
X181960314Y-66309558D01*
X181959502Y-66310369D01*
X181957087Y-66311031D01*
X181922240Y-66328454D01*
X181903344Y-66309558D01*
X181865076Y-66309558D01*
X181838016Y-66336618D01*
X181834210Y-66355752D01*
X181458019Y-66355752D01*
X181454213Y-66336618D01*
X181427153Y-66309558D01*
X181388885Y-66309558D01*
X181361825Y-66336618D01*
X181358019Y-66355752D01*
X181120880Y-66355752D01*
X181120880Y-66336618D01*
X181093820Y-66309558D01*
X181074686Y-66305752D01*
X180981829Y-66305752D01*
X180981829Y-66050904D01*
X181314206Y-66050904D01*
X181314206Y-66089172D01*
X181325045Y-66105393D01*
X181372663Y-66153012D01*
X181388884Y-66163851D01*
X181388885Y-66163851D01*
X181427153Y-66163851D01*
X181443374Y-66153012D01*
X181490993Y-66105394D01*
X181501832Y-66089173D01*
X181501832Y-66050904D01*
X181501832Y-66050903D01*
X181490993Y-66034682D01*
X181443374Y-65987064D01*
X181439541Y-65984503D01*
X182597066Y-65984503D01*
X182604512Y-66002535D01*
X183461655Y-67288249D01*
X183475435Y-67302059D01*
X183512961Y-67309564D01*
X183544802Y-67288336D01*
X183552307Y-67250811D01*
X183544860Y-67232779D01*
X182712677Y-65984503D01*
X183644685Y-65984503D01*
X183652131Y-66002535D01*
X184509274Y-67288249D01*
X184523054Y-67302059D01*
X184560580Y-67309564D01*
X184592421Y-67288336D01*
X184599926Y-67250811D01*
X184592479Y-67232779D01*
X184407737Y-66955666D01*
X184790396Y-66955666D01*
X184790396Y-66993935D01*
X184790398Y-66993937D01*
X184801235Y-67010155D01*
X184848853Y-67057774D01*
X184865074Y-67068613D01*
X184865075Y-67068613D01*
X184903343Y-67068613D01*
X184919564Y-67057774D01*
X184967183Y-67010156D01*
X184978022Y-66993935D01*
X184978022Y-66955666D01*
X184967184Y-66939445D01*
X184919565Y-66891825D01*
X184903344Y-66880986D01*
X184903343Y-66880986D01*
X184865074Y-66880986D01*
X184848853Y-66891825D01*
X184801234Y-66939445D01*
X184790396Y-66955666D01*
X184407737Y-66955666D01*
X184325254Y-66831942D01*
X185262781Y-66831942D01*
X185262781Y-66879561D01*
X185263269Y-66882017D01*
X185262907Y-66883105D01*
X185265022Y-66890829D01*
X185266587Y-66898695D01*
X185267398Y-66899506D01*
X185268060Y-66901921D01*
X185315678Y-66997160D01*
X185321781Y-67005024D01*
X185322627Y-67007560D01*
X185325450Y-67009751D01*
X185327640Y-67012572D01*
X185330173Y-67013416D01*
X185338039Y-67019521D01*
X185433277Y-67067140D01*
X185435692Y-67067801D01*
X185436504Y-67068613D01*
X185444365Y-67070176D01*
X185452093Y-67072293D01*
X185453181Y-67071930D01*
X185455638Y-67072419D01*
X185646114Y-67072419D01*
X185648570Y-67071930D01*
X185649659Y-67072293D01*
X185657386Y-67070176D01*
X185665248Y-67068613D01*
X185666059Y-67067801D01*
X185668475Y-67067140D01*
X185763712Y-67019522D01*
X185779124Y-67007560D01*
X185791226Y-66971256D01*
X185774112Y-66937028D01*
X185737807Y-66924926D01*
X185718991Y-66930079D01*
X185634311Y-66972419D01*
X185467442Y-66972419D01*
X185397667Y-66937532D01*
X185362781Y-66867759D01*
X185362781Y-66843745D01*
X185397667Y-66773971D01*
X185467442Y-66739085D01*
X185598495Y-66739085D01*
X185600951Y-66738596D01*
X185602040Y-66738959D01*
X185609767Y-66736842D01*
X185617629Y-66735279D01*
X185618440Y-66734467D01*
X185620856Y-66733806D01*
X185716093Y-66686188D01*
X185723957Y-66680084D01*
X185726493Y-66679239D01*
X185728684Y-66676415D01*
X185731505Y-66674226D01*
X185732349Y-66671692D01*
X185738454Y-66663827D01*
X185786073Y-66568589D01*
X185786734Y-66566173D01*
X185787546Y-66565362D01*
X185789109Y-66557500D01*
X185791226Y-66549773D01*
X185790863Y-66548684D01*
X185791352Y-66546228D01*
X186072305Y-66546228D01*
X186072305Y-66831942D01*
X186072793Y-66834398D01*
X186072431Y-66835487D01*
X186074547Y-66843214D01*
X186076111Y-66851076D01*
X186076922Y-66851887D01*
X186077584Y-66854303D01*
X186125202Y-66949540D01*
X186130113Y-66955868D01*
X186134568Y-66962535D01*
X186182187Y-67010155D01*
X186188853Y-67014609D01*
X186195182Y-67019521D01*
X186290420Y-67067140D01*
X186292835Y-67067801D01*
X186293647Y-67068613D01*
X186301508Y-67070176D01*
X186309236Y-67072293D01*
X186310324Y-67071930D01*
X186312781Y-67072419D01*
X186503257Y-67072419D01*
X186505713Y-67071930D01*
X186506802Y-67072293D01*
X186514529Y-67070176D01*
X186522391Y-67068613D01*
X186523202Y-67067801D01*
X186525618Y-67067140D01*
X186548495Y-67055701D01*
X186548495Y-67355752D01*
X186552301Y-67374886D01*
X186579361Y-67401946D01*
X186617629Y-67401946D01*
X186644689Y-67374886D01*
X186648495Y-67355752D01*
X186648495Y-66355752D01*
X186644689Y-66336618D01*
X186885635Y-66336618D01*
X186885635Y-66374886D01*
X186912695Y-66401946D01*
X186931829Y-66405752D01*
X187119924Y-66405752D01*
X187119924Y-66867757D01*
X187085037Y-66937532D01*
X187015264Y-66972419D01*
X186931829Y-66972419D01*
X186912695Y-66976225D01*
X186885635Y-67003285D01*
X186885635Y-67041553D01*
X186912695Y-67068613D01*
X186931829Y-67072419D01*
X187027067Y-67072419D01*
X187029523Y-67071930D01*
X187030612Y-67072293D01*
X187038339Y-67070176D01*
X187046201Y-67068613D01*
X187047012Y-67067801D01*
X187049428Y-67067140D01*
X187144665Y-67019522D01*
X187152531Y-67013416D01*
X187155065Y-67012572D01*
X187157254Y-67009750D01*
X187160077Y-67007560D01*
X187160922Y-67005025D01*
X187167026Y-66997160D01*
X187214645Y-66901922D01*
X187215306Y-66899506D01*
X187216118Y-66898695D01*
X187217681Y-66890833D01*
X187219798Y-66883106D01*
X187219435Y-66882017D01*
X187219924Y-66879561D01*
X187219924Y-66405752D01*
X187312781Y-66405752D01*
X187331915Y-66401946D01*
X187358975Y-66374886D01*
X187358975Y-66336618D01*
X187457064Y-66336618D01*
X187457064Y-66374886D01*
X187484124Y-66401946D01*
X187503258Y-66405752D01*
X187691353Y-66405752D01*
X187691353Y-66867757D01*
X187656466Y-66937532D01*
X187586693Y-66972419D01*
X187503258Y-66972419D01*
X187484124Y-66976225D01*
X187457064Y-67003285D01*
X187457064Y-67041553D01*
X187484124Y-67068613D01*
X187503258Y-67072419D01*
X187598496Y-67072419D01*
X187600952Y-67071930D01*
X187602041Y-67072293D01*
X187609768Y-67070176D01*
X187617630Y-67068613D01*
X187618441Y-67067801D01*
X187620857Y-67067140D01*
X187716094Y-67019522D01*
X187723960Y-67013416D01*
X187726494Y-67012572D01*
X187728683Y-67009750D01*
X187731506Y-67007560D01*
X187732351Y-67005025D01*
X187738455Y-66997160D01*
X187786074Y-66901922D01*
X187786735Y-66899506D01*
X187787547Y-66898695D01*
X187789110Y-66890833D01*
X187791227Y-66883106D01*
X187790864Y-66882017D01*
X187791353Y-66879561D01*
X187791353Y-66498609D01*
X188167544Y-66498609D01*
X188167544Y-67022419D01*
X188171350Y-67041553D01*
X188198410Y-67068613D01*
X188236678Y-67068613D01*
X188263738Y-67041553D01*
X188267544Y-67022419D01*
X188267544Y-66510412D01*
X188302430Y-66440638D01*
X188372205Y-66405752D01*
X188491455Y-66405752D01*
X188568878Y-66444463D01*
X188596115Y-66471700D01*
X188596115Y-67022419D01*
X188599921Y-67041553D01*
X188626981Y-67068613D01*
X188665249Y-67068613D01*
X188692309Y-67041553D01*
X188696115Y-67022419D01*
X188696115Y-66022419D01*
X188692309Y-66003285D01*
X188665249Y-65976225D01*
X188626981Y-65976225D01*
X188599921Y-66003285D01*
X188596115Y-66022419D01*
X188596115Y-66346278D01*
X188525619Y-66311031D01*
X188523203Y-66310369D01*
X188522392Y-66309558D01*
X188514530Y-66307994D01*
X188506803Y-66305878D01*
X188505714Y-66306240D01*
X188503258Y-66305752D01*
X188360401Y-66305752D01*
X188357944Y-66306240D01*
X188356856Y-66305878D01*
X188349128Y-66307994D01*
X188341267Y-66309558D01*
X188340455Y-66310369D01*
X188338040Y-66311031D01*
X188242802Y-66358650D01*
X188234936Y-66364754D01*
X188232403Y-66365599D01*
X188230213Y-66368419D01*
X188227390Y-66370611D01*
X188226544Y-66373146D01*
X188220441Y-66381011D01*
X188172823Y-66476248D01*
X188172161Y-66478663D01*
X188171350Y-66479475D01*
X188169786Y-66487336D01*
X188167670Y-66495064D01*
X188168032Y-66496152D01*
X188167544Y-66498609D01*
X187791353Y-66498609D01*
X187791353Y-66405752D01*
X187884210Y-66405752D01*
X187903344Y-66401946D01*
X187930404Y-66374886D01*
X187930404Y-66336618D01*
X187903344Y-66309558D01*
X187884210Y-66305752D01*
X187791353Y-66305752D01*
X187791353Y-66022419D01*
X187787547Y-66003285D01*
X187760487Y-65976225D01*
X187722219Y-65976225D01*
X187695159Y-66003285D01*
X187691353Y-66022419D01*
X187691353Y-66305752D01*
X187503258Y-66305752D01*
X187484124Y-66309558D01*
X187457064Y-66336618D01*
X187358975Y-66336618D01*
X187331915Y-66309558D01*
X187312781Y-66305752D01*
X187219924Y-66305752D01*
X187219924Y-66022419D01*
X187216118Y-66003285D01*
X187189058Y-65976225D01*
X187150790Y-65976225D01*
X187123730Y-66003285D01*
X187119924Y-66022419D01*
X187119924Y-66305752D01*
X186931829Y-66305752D01*
X186912695Y-66309558D01*
X186885635Y-66336618D01*
X186644689Y-66336618D01*
X186617629Y-66309558D01*
X186579361Y-66309558D01*
X186560464Y-66328454D01*
X186525618Y-66311031D01*
X186523202Y-66310369D01*
X186522391Y-66309558D01*
X186514529Y-66307994D01*
X186506802Y-66305878D01*
X186505713Y-66306240D01*
X186503257Y-66305752D01*
X186312781Y-66305752D01*
X186310324Y-66306240D01*
X186309236Y-66305878D01*
X186301508Y-66307994D01*
X186293647Y-66309558D01*
X186292835Y-66310369D01*
X186290420Y-66311031D01*
X186195182Y-66358650D01*
X186188853Y-66363561D01*
X186182187Y-66368016D01*
X186134569Y-66415635D01*
X186130117Y-66422296D01*
X186125202Y-66428630D01*
X186077584Y-66523867D01*
X186076922Y-66526282D01*
X186076111Y-66527094D01*
X186074547Y-66534955D01*
X186072431Y-66542683D01*
X186072793Y-66543771D01*
X186072305Y-66546228D01*
X185791352Y-66546228D01*
X185791352Y-66498609D01*
X185790863Y-66496152D01*
X185791226Y-66495064D01*
X185789109Y-66487336D01*
X185787546Y-66479475D01*
X185786734Y-66478663D01*
X185786073Y-66476248D01*
X185738454Y-66381010D01*
X185732349Y-66373144D01*
X185731505Y-66370611D01*
X185728684Y-66368421D01*
X185726493Y-66365598D01*
X185723957Y-66364752D01*
X185716093Y-66358649D01*
X185620856Y-66311031D01*
X185618440Y-66310369D01*
X185617629Y-66309558D01*
X185609767Y-66307994D01*
X185602040Y-66305878D01*
X185600951Y-66306240D01*
X185598495Y-66305752D01*
X185455638Y-66305752D01*
X185453181Y-66306240D01*
X185452093Y-66305878D01*
X185444365Y-66307994D01*
X185436504Y-66309558D01*
X185435692Y-66310369D01*
X185433277Y-66311031D01*
X185338039Y-66358650D01*
X185322627Y-66370611D01*
X185310526Y-66406916D01*
X185327640Y-66441144D01*
X185363945Y-66453245D01*
X185382761Y-66448092D01*
X185467442Y-66405752D01*
X185586692Y-66405752D01*
X185656465Y-66440638D01*
X185691352Y-66510412D01*
X185691352Y-66534424D01*
X185656465Y-66604198D01*
X185586692Y-66639085D01*
X185455638Y-66639085D01*
X185453181Y-66639573D01*
X185452093Y-66639211D01*
X185444365Y-66641327D01*
X185436504Y-66642891D01*
X185435692Y-66643702D01*
X185433277Y-66644364D01*
X185338039Y-66691983D01*
X185330173Y-66698087D01*
X185327640Y-66698932D01*
X185325450Y-66701752D01*
X185322627Y-66703944D01*
X185321781Y-66706479D01*
X185315678Y-66714344D01*
X185268060Y-66809581D01*
X185267398Y-66811996D01*
X185266587Y-66812808D01*
X185265023Y-66820669D01*
X185262907Y-66828397D01*
X185263269Y-66829485D01*
X185262781Y-66831942D01*
X184325254Y-66831942D01*
X184058531Y-66431856D01*
X184790396Y-66431856D01*
X184790396Y-66470124D01*
X184801235Y-66486345D01*
X184848853Y-66533964D01*
X184865074Y-66544803D01*
X184865075Y-66544803D01*
X184903343Y-66544803D01*
X184919564Y-66533964D01*
X184967183Y-66486346D01*
X184978022Y-66470125D01*
X184978022Y-66431856D01*
X184978022Y-66431855D01*
X184967183Y-66415634D01*
X184919564Y-66368016D01*
X184903343Y-66357177D01*
X184865074Y-66357177D01*
X184848853Y-66368016D01*
X184801235Y-66415635D01*
X184790397Y-66431855D01*
X184790396Y-66431856D01*
X184058531Y-66431856D01*
X183735337Y-65947065D01*
X183721556Y-65933256D01*
X183684031Y-65925751D01*
X183652190Y-65946978D01*
X183644685Y-65984503D01*
X182712677Y-65984503D01*
X182687718Y-65947065D01*
X182673937Y-65933256D01*
X182636412Y-65925751D01*
X182604571Y-65946978D01*
X182597066Y-65984503D01*
X181439541Y-65984503D01*
X181427153Y-65976225D01*
X181388884Y-65976225D01*
X181372663Y-65987064D01*
X181325045Y-66034683D01*
X181314207Y-66050903D01*
X181314206Y-66050904D01*
X180981829Y-66050904D01*
X180981829Y-66022419D01*
X180978023Y-66003285D01*
X180950963Y-65976225D01*
X180912695Y-65976225D01*
X180885635Y-66003285D01*
X180881829Y-66022419D01*
X180881829Y-66305752D01*
X180693734Y-66305752D01*
X180674600Y-66309558D01*
X180647540Y-66336618D01*
X180410400Y-66336618D01*
X180410400Y-66022419D01*
X180406594Y-66003285D01*
X180379534Y-65976225D01*
X180341266Y-65976225D01*
X180314206Y-66003285D01*
X180310400Y-66022419D01*
X180310400Y-66346278D01*
X180239904Y-66311031D01*
X180237488Y-66310369D01*
X180236677Y-66309558D01*
X180228815Y-66307994D01*
X180221088Y-66305878D01*
X180219999Y-66306240D01*
X180217543Y-66305752D01*
X180074686Y-66305752D01*
X180072229Y-66306240D01*
X180071141Y-66305878D01*
X180063413Y-66307994D01*
X180055552Y-66309558D01*
X180054740Y-66310369D01*
X180052325Y-66311031D01*
X179957087Y-66358650D01*
X179949221Y-66364754D01*
X179946688Y-66365599D01*
X179944498Y-66368419D01*
X179941675Y-66370611D01*
X179940829Y-66373146D01*
X179934726Y-66381011D01*
X179887108Y-66476248D01*
X179886446Y-66478663D01*
X179885635Y-66479475D01*
X179884071Y-66487336D01*
X179881955Y-66495064D01*
X179882317Y-66496152D01*
X179881829Y-66498609D01*
X179505638Y-66498609D01*
X179505638Y-66355752D01*
X179501832Y-66336618D01*
X179474772Y-66309558D01*
X179436504Y-66309558D01*
X179409444Y-66336618D01*
X179405638Y-66355752D01*
X179405638Y-66867757D01*
X179370751Y-66937532D01*
X179300978Y-66972419D01*
X179181728Y-66972419D01*
X179104305Y-66933708D01*
X179077067Y-66906469D01*
X179077067Y-66355752D01*
X179073261Y-66336618D01*
X179046201Y-66309558D01*
X179007933Y-66309558D01*
X178980873Y-66336618D01*
X178977067Y-66355752D01*
X178600876Y-66355752D01*
X178600876Y-66022419D01*
X178597070Y-66003285D01*
X178570010Y-65976225D01*
X178531742Y-65976225D01*
X178504682Y-66003285D01*
X178500876Y-66022419D01*
X178500876Y-66322469D01*
X178477999Y-66311031D01*
X178475583Y-66310369D01*
X178474772Y-66309558D01*
X178466910Y-66307994D01*
X178459183Y-66305878D01*
X178458094Y-66306240D01*
X178455638Y-66305752D01*
X178265162Y-66305752D01*
X178262705Y-66306240D01*
X178261617Y-66305878D01*
X178253889Y-66307994D01*
X178246028Y-66309558D01*
X178245216Y-66310369D01*
X178242801Y-66311031D01*
X178147563Y-66358650D01*
X178141234Y-66363561D01*
X178134568Y-66368016D01*
X178086950Y-66415635D01*
X178082498Y-66422296D01*
X178077583Y-66428630D01*
X178029965Y-66523867D01*
X178029303Y-66526282D01*
X178028492Y-66527094D01*
X178026928Y-66534955D01*
X178024812Y-66542683D01*
X178025174Y-66543771D01*
X178024686Y-66546228D01*
X177267543Y-66546228D01*
X177267054Y-66543771D01*
X177267417Y-66542683D01*
X177265300Y-66534955D01*
X177263737Y-66527094D01*
X177262925Y-66526282D01*
X177262264Y-66523867D01*
X177214645Y-66428629D01*
X177209733Y-66422300D01*
X177205279Y-66415634D01*
X177157660Y-66368016D01*
X177150998Y-66363564D01*
X177144665Y-66358649D01*
X177049428Y-66311031D01*
X177047012Y-66310369D01*
X177046201Y-66309558D01*
X177038339Y-66307994D01*
X177030612Y-66305878D01*
X177029523Y-66306240D01*
X177027067Y-66305752D01*
X176836591Y-66305752D01*
X176834134Y-66306240D01*
X176833046Y-66305878D01*
X176825318Y-66307994D01*
X176817457Y-66309558D01*
X176816645Y-66310369D01*
X176814230Y-66311031D01*
X176718992Y-66358650D01*
X176703580Y-66370611D01*
X176691479Y-66406916D01*
X176339418Y-66406916D01*
X176300517Y-66368016D01*
X176293855Y-66363564D01*
X176287522Y-66358649D01*
X176192285Y-66311031D01*
X176189869Y-66310369D01*
X176189058Y-66309558D01*
X176181196Y-66307994D01*
X176173469Y-66305878D01*
X176172380Y-66306240D01*
X176169924Y-66305752D01*
X176027067Y-66305752D01*
X176024610Y-66306240D01*
X176023522Y-66305878D01*
X176015794Y-66307994D01*
X176007933Y-66309558D01*
X176007121Y-66310369D01*
X176004706Y-66311031D01*
X175909468Y-66358650D01*
X175903139Y-66363561D01*
X175896473Y-66368016D01*
X175848855Y-66415635D01*
X175844403Y-66422296D01*
X175839488Y-66428630D01*
X175791870Y-66523867D01*
X175791208Y-66526282D01*
X175790397Y-66527094D01*
X175788833Y-66534955D01*
X175786717Y-66542683D01*
X175787079Y-66543771D01*
X175786591Y-66546228D01*
X175458019Y-66546228D01*
X175458019Y-66355752D01*
X175454213Y-66336618D01*
X175427153Y-66309558D01*
X175388885Y-66309558D01*
X175361825Y-66336618D01*
X175359732Y-66347135D01*
X175287523Y-66311031D01*
X175285107Y-66310369D01*
X175284296Y-66309558D01*
X175276434Y-66307994D01*
X175268707Y-66305878D01*
X175267618Y-66306240D01*
X175265162Y-66305752D01*
X175122305Y-66305752D01*
X175119848Y-66306240D01*
X175118760Y-66305878D01*
X175111032Y-66307994D01*
X175103171Y-66309558D01*
X175102359Y-66310369D01*
X175099944Y-66311031D01*
X175004706Y-66358650D01*
X174996840Y-66364754D01*
X174994307Y-66365599D01*
X174992117Y-66368419D01*
X174989294Y-66370611D01*
X174988448Y-66373146D01*
X174982345Y-66381011D01*
X174979447Y-66386805D01*
X174976550Y-66381010D01*
X174970445Y-66373144D01*
X174969601Y-66370611D01*
X174966780Y-66368421D01*
X174964589Y-66365598D01*
X174962053Y-66364752D01*
X174954189Y-66358649D01*
X174858952Y-66311031D01*
X174856536Y-66310369D01*
X174855725Y-66309558D01*
X174847863Y-66307994D01*
X174840136Y-66305878D01*
X174839047Y-66306240D01*
X174836591Y-66305752D01*
X174693734Y-66305752D01*
X174691277Y-66306240D01*
X174690189Y-66305878D01*
X174682461Y-66307994D01*
X174674600Y-66309558D01*
X174673788Y-66310369D01*
X174671373Y-66311031D01*
X174576135Y-66358650D01*
X174568269Y-66364753D01*
X174565735Y-66365599D01*
X174563544Y-66368421D01*
X174560723Y-66370611D01*
X174559878Y-66373144D01*
X174553773Y-66381011D01*
X174506155Y-66476248D01*
X174505493Y-66478663D01*
X174504682Y-66479475D01*
X174503118Y-66487336D01*
X174501002Y-66495064D01*
X174501364Y-66496152D01*
X174500876Y-66498609D01*
X173769700Y-66498609D01*
X173402004Y-65947065D01*
X173388223Y-65933256D01*
X173350698Y-65925751D01*
X173318857Y-65946978D01*
X173311352Y-65984503D01*
X163296683Y-65984503D01*
X163284295Y-65976225D01*
X163246026Y-65976225D01*
X163229805Y-65987064D01*
X163182187Y-66034683D01*
X163171349Y-66050903D01*
X163171348Y-66050904D01*
X162882784Y-66050904D01*
X162882784Y-66050903D01*
X162871945Y-66034682D01*
X162824326Y-65987064D01*
X162808105Y-65976225D01*
X162769836Y-65976225D01*
X162753615Y-65987064D01*
X162705997Y-66034683D01*
X162695159Y-66050903D01*
X162695158Y-66050904D01*
X157627861Y-66050904D01*
X157627861Y-65814640D01*
X188807226Y-65814640D01*
X188807226Y-67516863D01*
G37*
G36*
X169210543Y-70419463D02*
G01*
X169246687Y-70455608D01*
X169285399Y-70533031D01*
X169285399Y-70795138D01*
X169246687Y-70872561D01*
X169210541Y-70908708D01*
X169133120Y-70947419D01*
X168966251Y-70947419D01*
X168909209Y-70918898D01*
X168909209Y-70409272D01*
X168966251Y-70380752D01*
X169133120Y-70380752D01*
X169210543Y-70419463D01*
G37*
G36*
X174686734Y-70419463D02*
G01*
X174722878Y-70455608D01*
X174761590Y-70533031D01*
X174761590Y-70795138D01*
X174722878Y-70872561D01*
X174686732Y-70908708D01*
X174609311Y-70947419D01*
X174442442Y-70947419D01*
X174385400Y-70918898D01*
X174385400Y-70409272D01*
X174442442Y-70380752D01*
X174609311Y-70380752D01*
X174686734Y-70419463D01*
G37*
G36*
X185401021Y-70419463D02*
G01*
X185437165Y-70455608D01*
X185475877Y-70533031D01*
X185475877Y-70795138D01*
X185437165Y-70872561D01*
X185401019Y-70908708D01*
X185323598Y-70947419D01*
X185156729Y-70947419D01*
X185099687Y-70918898D01*
X185099687Y-70409272D01*
X185156729Y-70380752D01*
X185323598Y-70380752D01*
X185401021Y-70419463D01*
G37*
G36*
X170741610Y-70661187D02*
G01*
X170744025Y-70661848D01*
X170744837Y-70662660D01*
X170752698Y-70664223D01*
X170760426Y-70666340D01*
X170761514Y-70665977D01*
X170763971Y-70666466D01*
X170990263Y-70666466D01*
X171060036Y-70701352D01*
X171094923Y-70771126D01*
X171094923Y-70842757D01*
X171060036Y-70912532D01*
X170990263Y-70947419D01*
X170775775Y-70947419D01*
X170718733Y-70918898D01*
X170718733Y-70649748D01*
X170741610Y-70661187D01*
G37*
G36*
X173821941Y-70415638D02*
G01*
X173856828Y-70485412D01*
X173856828Y-70603094D01*
X173480638Y-70527856D01*
X173480638Y-70485412D01*
X173515524Y-70415638D01*
X173585299Y-70380752D01*
X173752168Y-70380752D01*
X173821941Y-70415638D01*
G37*
G36*
X176210544Y-70419463D02*
G01*
X176246688Y-70455608D01*
X176285400Y-70533031D01*
X176285400Y-70795138D01*
X176246688Y-70872561D01*
X176210542Y-70908708D01*
X176133121Y-70947419D01*
X176013871Y-70947419D01*
X175936448Y-70908708D01*
X175900302Y-70872561D01*
X175861591Y-70795139D01*
X175861591Y-70533031D01*
X175900302Y-70455607D01*
X175936447Y-70419463D01*
X176013871Y-70380752D01*
X176133121Y-70380752D01*
X176210544Y-70419463D01*
G37*
G36*
X177107656Y-70415638D02*
G01*
X177142543Y-70485412D01*
X177142543Y-70603094D01*
X176766353Y-70527856D01*
X176766353Y-70485412D01*
X176801239Y-70415638D01*
X176871014Y-70380752D01*
X177037883Y-70380752D01*
X177107656Y-70415638D01*
G37*
G36*
X181094924Y-70947419D02*
G01*
X180775776Y-70947419D01*
X180698353Y-70908708D01*
X180662207Y-70872561D01*
X180623496Y-70795139D01*
X180623496Y-70675888D01*
X180662207Y-70598464D01*
X180695743Y-70564929D01*
X180819704Y-70523609D01*
X181094924Y-70523609D01*
X181094924Y-70947419D01*
G37*
G36*
X181094924Y-70423609D02*
G01*
X180823395Y-70423609D01*
X180745971Y-70384897D01*
X180709826Y-70348753D01*
X180671115Y-70271330D01*
X180671115Y-70199698D01*
X180709826Y-70122274D01*
X180745971Y-70086130D01*
X180823395Y-70047419D01*
X181094924Y-70047419D01*
X181094924Y-70423609D01*
G37*
G36*
X182734354Y-70419463D02*
G01*
X182770498Y-70455608D01*
X182809210Y-70533031D01*
X182809210Y-70795138D01*
X182770498Y-70872561D01*
X182734352Y-70908708D01*
X182656931Y-70947419D01*
X182490062Y-70947419D01*
X182433020Y-70918898D01*
X182433020Y-70409272D01*
X182490062Y-70380752D01*
X182656931Y-70380752D01*
X182734354Y-70419463D01*
G37*
G36*
X183631466Y-70415638D02*
G01*
X183666353Y-70485412D01*
X183666353Y-70603094D01*
X183290163Y-70527856D01*
X183290163Y-70485412D01*
X183325049Y-70415638D01*
X183394824Y-70380752D01*
X183561693Y-70380752D01*
X183631466Y-70415638D01*
G37*
G36*
X187583847Y-70415638D02*
G01*
X187618734Y-70485412D01*
X187618734Y-70603094D01*
X187242544Y-70527856D01*
X187242544Y-70485412D01*
X187277430Y-70415638D01*
X187347205Y-70380752D01*
X187514074Y-70380752D01*
X187583847Y-70415638D01*
G37*
G36*
X188571115Y-70947419D02*
G01*
X188391133Y-70947419D01*
X188267173Y-70906099D01*
X188186017Y-70824942D01*
X188144482Y-70741872D01*
X188099687Y-70562692D01*
X188099687Y-70432145D01*
X188144482Y-70252965D01*
X188186018Y-70169893D01*
X188267171Y-70088739D01*
X188391133Y-70047419D01*
X188571115Y-70047419D01*
X188571115Y-70947419D01*
G37*
G36*
X188782226Y-71491863D02*
G01*
X168698098Y-71491863D01*
X168698098Y-70330752D01*
X168809209Y-70330752D01*
X168809209Y-71140276D01*
X168809697Y-71142732D01*
X168809335Y-71143821D01*
X168811451Y-71151548D01*
X168813015Y-71159410D01*
X168813826Y-71160221D01*
X168814488Y-71162637D01*
X168862106Y-71257874D01*
X168867021Y-71264207D01*
X168871473Y-71270869D01*
X168919091Y-71318488D01*
X168925757Y-71322942D01*
X168932086Y-71327854D01*
X169027324Y-71375473D01*
X169029739Y-71376134D01*
X169030551Y-71376946D01*
X169038412Y-71378509D01*
X169046140Y-71380626D01*
X169047228Y-71380263D01*
X169049685Y-71380752D01*
X169192542Y-71380752D01*
X169194998Y-71380263D01*
X169196087Y-71380626D01*
X169203814Y-71378509D01*
X169211676Y-71376946D01*
X169212487Y-71376134D01*
X169214903Y-71375473D01*
X169310140Y-71327855D01*
X169325552Y-71315893D01*
X169337654Y-71279589D01*
X169320540Y-71245361D01*
X169284235Y-71233259D01*
X169265419Y-71238412D01*
X169180739Y-71280752D01*
X169061489Y-71280752D01*
X168984065Y-71242040D01*
X168947920Y-71205896D01*
X168909209Y-71128473D01*
X168909209Y-71030701D01*
X168932086Y-71042140D01*
X168934501Y-71042801D01*
X168935313Y-71043613D01*
X168943174Y-71045176D01*
X168950902Y-71047293D01*
X168951990Y-71046930D01*
X168954447Y-71047419D01*
X169144923Y-71047419D01*
X169147379Y-71046930D01*
X169148468Y-71047293D01*
X169156195Y-71045176D01*
X169164057Y-71043613D01*
X169164868Y-71042801D01*
X169167284Y-71042140D01*
X169262521Y-70994522D01*
X169268848Y-70989611D01*
X169275517Y-70985155D01*
X169323136Y-70937535D01*
X169327589Y-70930869D01*
X169332501Y-70924541D01*
X169380120Y-70829303D01*
X169380781Y-70826887D01*
X169381593Y-70826076D01*
X169383156Y-70818214D01*
X169385273Y-70810487D01*
X169384910Y-70809398D01*
X169385399Y-70806942D01*
X169385399Y-70521228D01*
X169384910Y-70518771D01*
X169385273Y-70517683D01*
X169383156Y-70509955D01*
X169381593Y-70502094D01*
X169380781Y-70501282D01*
X169380120Y-70498867D01*
X169367491Y-70473609D01*
X169713971Y-70473609D01*
X169713971Y-70997419D01*
X169717777Y-71016553D01*
X169744837Y-71043613D01*
X169783105Y-71043613D01*
X169810165Y-71016553D01*
X169813971Y-70997419D01*
X169813971Y-70485412D01*
X169848857Y-70415638D01*
X169918632Y-70380752D01*
X170037882Y-70380752D01*
X170115305Y-70419463D01*
X170142542Y-70446700D01*
X170142542Y-70997419D01*
X170146348Y-71016553D01*
X170173408Y-71043613D01*
X170211676Y-71043613D01*
X170238736Y-71016553D01*
X170242542Y-70997419D01*
X170242542Y-70473609D01*
X170618733Y-70473609D01*
X170618733Y-70997419D01*
X170622539Y-71016553D01*
X170649599Y-71043613D01*
X170687867Y-71043613D01*
X170706763Y-71024716D01*
X170741610Y-71042140D01*
X170744025Y-71042801D01*
X170744837Y-71043613D01*
X170752698Y-71045176D01*
X170760426Y-71047293D01*
X170761514Y-71046930D01*
X170763971Y-71047419D01*
X171002066Y-71047419D01*
X171004522Y-71046930D01*
X171005611Y-71047293D01*
X171013338Y-71045176D01*
X171021200Y-71043613D01*
X171022011Y-71042801D01*
X171024427Y-71042140D01*
X171119664Y-70994522D01*
X171127530Y-70988416D01*
X171130064Y-70987572D01*
X171132253Y-70984750D01*
X171135076Y-70982560D01*
X171135921Y-70980025D01*
X171142025Y-70972160D01*
X171189644Y-70876922D01*
X171190305Y-70874506D01*
X171191117Y-70873695D01*
X171192680Y-70865833D01*
X171194797Y-70858106D01*
X171194434Y-70857017D01*
X171194923Y-70854561D01*
X171194923Y-70759323D01*
X171194434Y-70756866D01*
X171194797Y-70755778D01*
X171192680Y-70748050D01*
X171191117Y-70740189D01*
X171190305Y-70739377D01*
X171189644Y-70736962D01*
X171142025Y-70641724D01*
X171135920Y-70633858D01*
X171135076Y-70631325D01*
X171132255Y-70629135D01*
X171130064Y-70626312D01*
X171127528Y-70625466D01*
X171119664Y-70619363D01*
X171024427Y-70571745D01*
X171022011Y-70571083D01*
X171021200Y-70570272D01*
X171013338Y-70568708D01*
X171005611Y-70566592D01*
X171004522Y-70566954D01*
X171002066Y-70566466D01*
X170775775Y-70566466D01*
X170718733Y-70537945D01*
X170718733Y-70485412D01*
X170753619Y-70415638D01*
X170823394Y-70380752D01*
X170990263Y-70380752D01*
X171074943Y-70423092D01*
X171093759Y-70428245D01*
X171130064Y-70416143D01*
X171147178Y-70381915D01*
X171135076Y-70345611D01*
X171119664Y-70333649D01*
X171024427Y-70286031D01*
X171022011Y-70285369D01*
X171021200Y-70284558D01*
X171013338Y-70282994D01*
X171005611Y-70280878D01*
X171004522Y-70281240D01*
X171002066Y-70280752D01*
X170811590Y-70280752D01*
X170809133Y-70281240D01*
X170808045Y-70280878D01*
X170800317Y-70282994D01*
X170792456Y-70284558D01*
X170791644Y-70285369D01*
X170789229Y-70286031D01*
X170693991Y-70333650D01*
X170686125Y-70339754D01*
X170683592Y-70340599D01*
X170681402Y-70343419D01*
X170678579Y-70345611D01*
X170677733Y-70348146D01*
X170671630Y-70356011D01*
X170624012Y-70451248D01*
X170623350Y-70453663D01*
X170622539Y-70454475D01*
X170620975Y-70462336D01*
X170618859Y-70470064D01*
X170619221Y-70471152D01*
X170618733Y-70473609D01*
X170242542Y-70473609D01*
X170242542Y-70330752D01*
X170238736Y-70311618D01*
X170211676Y-70284558D01*
X170173408Y-70284558D01*
X170146348Y-70311618D01*
X170144255Y-70322135D01*
X170072046Y-70286031D01*
X170069630Y-70285369D01*
X170068819Y-70284558D01*
X170060957Y-70282994D01*
X170053230Y-70280878D01*
X170052141Y-70281240D01*
X170049685Y-70280752D01*
X169906828Y-70280752D01*
X169904371Y-70281240D01*
X169903283Y-70280878D01*
X169895555Y-70282994D01*
X169887694Y-70284558D01*
X169886882Y-70285369D01*
X169884467Y-70286031D01*
X169789229Y-70333650D01*
X169781363Y-70339754D01*
X169778830Y-70340599D01*
X169776640Y-70343419D01*
X169773817Y-70345611D01*
X169772971Y-70348146D01*
X169766868Y-70356011D01*
X169719250Y-70451248D01*
X169718588Y-70453663D01*
X169717777Y-70454475D01*
X169716213Y-70462336D01*
X169714097Y-70470064D01*
X169714459Y-70471152D01*
X169713971Y-70473609D01*
X169367491Y-70473609D01*
X169332501Y-70403629D01*
X169327589Y-70397300D01*
X169323135Y-70390634D01*
X169275516Y-70343016D01*
X169268854Y-70338564D01*
X169262521Y-70333649D01*
X169167284Y-70286031D01*
X169164868Y-70285369D01*
X169164057Y-70284558D01*
X169156195Y-70282994D01*
X169148468Y-70280878D01*
X169147379Y-70281240D01*
X169144923Y-70280752D01*
X168954447Y-70280752D01*
X168951990Y-70281240D01*
X168950902Y-70280878D01*
X168943174Y-70282994D01*
X168935313Y-70284558D01*
X168934501Y-70285369D01*
X168932086Y-70286031D01*
X168897239Y-70303454D01*
X168878343Y-70284558D01*
X168840075Y-70284558D01*
X168813015Y-70311618D01*
X168809209Y-70330752D01*
X168698098Y-70330752D01*
X168698098Y-69989505D01*
X171428887Y-69989505D01*
X171429617Y-70009000D01*
X171667712Y-71009000D01*
X171675846Y-71026732D01*
X171682215Y-71030651D01*
X171685962Y-71037123D01*
X171697907Y-71040308D01*
X171708438Y-71046789D01*
X171715713Y-71045056D01*
X171722937Y-71046983D01*
X171733635Y-71040789D01*
X171745665Y-71037925D01*
X171749584Y-71031555D01*
X171756056Y-71027809D01*
X171764664Y-71010302D01*
X171906828Y-70477186D01*
X172048992Y-71010302D01*
X172057600Y-71027810D01*
X172064072Y-71031557D01*
X172067991Y-71037925D01*
X172080017Y-71040788D01*
X172090719Y-71046984D01*
X172097944Y-71045057D01*
X172105218Y-71046789D01*
X172115747Y-71040308D01*
X172127694Y-71037123D01*
X172131440Y-71030651D01*
X172137810Y-71026732D01*
X172145944Y-71009000D01*
X172273418Y-70473609D01*
X173380638Y-70473609D01*
X173380638Y-70568847D01*
X173382079Y-70576095D01*
X173381589Y-70578550D01*
X173382984Y-70580643D01*
X173384444Y-70587981D01*
X173394740Y-70598277D01*
X173402816Y-70610391D01*
X173409724Y-70613261D01*
X173411504Y-70615041D01*
X173414008Y-70615041D01*
X173420832Y-70617876D01*
X173856828Y-70705075D01*
X173856828Y-70842757D01*
X173821941Y-70912532D01*
X173752168Y-70947419D01*
X173585299Y-70947419D01*
X173500618Y-70905079D01*
X173481802Y-70899926D01*
X173445497Y-70912027D01*
X173428383Y-70946255D01*
X173440484Y-70982560D01*
X173455896Y-70994521D01*
X173551134Y-71042140D01*
X173553549Y-71042801D01*
X173554361Y-71043613D01*
X173562222Y-71045176D01*
X173569950Y-71047293D01*
X173571038Y-71046930D01*
X173573495Y-71047419D01*
X173763971Y-71047419D01*
X173766427Y-71046930D01*
X173767516Y-71047293D01*
X173775243Y-71045176D01*
X173783105Y-71043613D01*
X173783916Y-71042801D01*
X173786332Y-71042140D01*
X173881569Y-70994522D01*
X173889435Y-70988416D01*
X173891969Y-70987572D01*
X173894158Y-70984750D01*
X173896981Y-70982560D01*
X173897826Y-70980025D01*
X173903930Y-70972160D01*
X173951549Y-70876922D01*
X173952210Y-70874506D01*
X173953022Y-70873695D01*
X173954585Y-70865833D01*
X173956702Y-70858106D01*
X173956339Y-70857017D01*
X173956828Y-70854561D01*
X173956828Y-70473609D01*
X173956339Y-70471152D01*
X173956702Y-70470064D01*
X173954585Y-70462336D01*
X173953022Y-70454475D01*
X173952210Y-70453663D01*
X173951549Y-70451248D01*
X173903930Y-70356010D01*
X173897825Y-70348144D01*
X173896981Y-70345611D01*
X173894160Y-70343421D01*
X173891969Y-70340598D01*
X173889433Y-70339752D01*
X173881569Y-70333649D01*
X173875775Y-70330752D01*
X174285400Y-70330752D01*
X174285400Y-71140276D01*
X174285888Y-71142732D01*
X174285526Y-71143821D01*
X174287642Y-71151548D01*
X174289206Y-71159410D01*
X174290017Y-71160221D01*
X174290679Y-71162637D01*
X174338297Y-71257874D01*
X174343212Y-71264207D01*
X174347664Y-71270869D01*
X174395282Y-71318488D01*
X174401948Y-71322942D01*
X174408277Y-71327854D01*
X174503515Y-71375473D01*
X174505930Y-71376134D01*
X174506742Y-71376946D01*
X174514603Y-71378509D01*
X174522331Y-71380626D01*
X174523419Y-71380263D01*
X174525876Y-71380752D01*
X174668733Y-71380752D01*
X174671189Y-71380263D01*
X174672278Y-71380626D01*
X174680005Y-71378509D01*
X174687867Y-71376946D01*
X174688678Y-71376134D01*
X174691094Y-71375473D01*
X174786331Y-71327855D01*
X174801743Y-71315893D01*
X174813845Y-71279589D01*
X174796731Y-71245361D01*
X174760426Y-71233259D01*
X174741610Y-71238412D01*
X174656930Y-71280752D01*
X174537680Y-71280752D01*
X174460256Y-71242040D01*
X174424111Y-71205896D01*
X174385400Y-71128473D01*
X174385400Y-71030701D01*
X174408277Y-71042140D01*
X174410692Y-71042801D01*
X174411504Y-71043613D01*
X174419365Y-71045176D01*
X174427093Y-71047293D01*
X174428181Y-71046930D01*
X174430638Y-71047419D01*
X174621114Y-71047419D01*
X174623570Y-71046930D01*
X174624659Y-71047293D01*
X174632386Y-71045176D01*
X174640248Y-71043613D01*
X174641059Y-71042801D01*
X174643475Y-71042140D01*
X174738712Y-70994522D01*
X174745039Y-70989611D01*
X174751708Y-70985155D01*
X174799327Y-70937535D01*
X174803780Y-70930869D01*
X174808692Y-70924541D01*
X174856311Y-70829303D01*
X174856972Y-70826887D01*
X174857784Y-70826076D01*
X174859347Y-70818214D01*
X174861464Y-70810487D01*
X174861101Y-70809398D01*
X174861590Y-70806942D01*
X174861590Y-70521228D01*
X174861101Y-70518771D01*
X174861464Y-70517683D01*
X174859347Y-70509955D01*
X174857784Y-70502094D01*
X174856972Y-70501282D01*
X174856311Y-70498867D01*
X174808692Y-70403629D01*
X174803780Y-70397300D01*
X174799326Y-70390634D01*
X174751707Y-70343016D01*
X174745045Y-70338564D01*
X174738712Y-70333649D01*
X174694650Y-70311618D01*
X175051111Y-70311618D01*
X175051111Y-70349886D01*
X175078171Y-70376946D01*
X175097305Y-70380752D01*
X175180740Y-70380752D01*
X175258163Y-70419463D01*
X175294307Y-70455608D01*
X175333019Y-70533031D01*
X175333019Y-70997419D01*
X175336825Y-71016553D01*
X175363885Y-71043613D01*
X175402153Y-71043613D01*
X175429213Y-71016553D01*
X175433019Y-70997419D01*
X175433019Y-70521228D01*
X175761591Y-70521228D01*
X175761591Y-70806942D01*
X175762079Y-70809398D01*
X175761717Y-70810487D01*
X175763833Y-70818214D01*
X175765397Y-70826076D01*
X175766208Y-70826887D01*
X175766870Y-70829303D01*
X175814488Y-70924540D01*
X175819399Y-70930868D01*
X175823854Y-70937535D01*
X175871473Y-70985155D01*
X175878139Y-70989609D01*
X175884468Y-70994521D01*
X175979706Y-71042140D01*
X175982121Y-71042801D01*
X175982933Y-71043613D01*
X175990794Y-71045176D01*
X175998522Y-71047293D01*
X175999610Y-71046930D01*
X176002067Y-71047419D01*
X176144924Y-71047419D01*
X176147380Y-71046930D01*
X176148469Y-71047293D01*
X176156196Y-71045176D01*
X176164058Y-71043613D01*
X176164869Y-71042801D01*
X176167285Y-71042140D01*
X176262522Y-70994522D01*
X176268849Y-70989611D01*
X176275518Y-70985155D01*
X176323137Y-70937535D01*
X176327590Y-70930869D01*
X176332502Y-70924541D01*
X176380121Y-70829303D01*
X176380782Y-70826887D01*
X176381594Y-70826076D01*
X176383157Y-70818214D01*
X176385274Y-70810487D01*
X176384911Y-70809398D01*
X176385400Y-70806942D01*
X176385400Y-70521228D01*
X176384911Y-70518771D01*
X176385274Y-70517683D01*
X176383157Y-70509955D01*
X176381594Y-70502094D01*
X176380782Y-70501282D01*
X176380121Y-70498867D01*
X176367492Y-70473609D01*
X176666353Y-70473609D01*
X176666353Y-70568847D01*
X176667794Y-70576095D01*
X176667304Y-70578550D01*
X176668699Y-70580643D01*
X176670159Y-70587981D01*
X176680455Y-70598277D01*
X176688531Y-70610391D01*
X176695439Y-70613261D01*
X176697219Y-70615041D01*
X176699723Y-70615041D01*
X176706547Y-70617876D01*
X177142543Y-70705075D01*
X177142543Y-70842757D01*
X177107656Y-70912532D01*
X177037883Y-70947419D01*
X176871014Y-70947419D01*
X176786333Y-70905079D01*
X176767517Y-70899926D01*
X176731212Y-70912027D01*
X176714098Y-70946255D01*
X176726199Y-70982560D01*
X176741611Y-70994521D01*
X176836849Y-71042140D01*
X176839264Y-71042801D01*
X176840076Y-71043613D01*
X176847937Y-71045176D01*
X176855665Y-71047293D01*
X176856753Y-71046930D01*
X176859210Y-71047419D01*
X177049686Y-71047419D01*
X177052142Y-71046930D01*
X177053231Y-71047293D01*
X177060958Y-71045176D01*
X177068820Y-71043613D01*
X177069631Y-71042801D01*
X177072047Y-71042140D01*
X177167284Y-70994522D01*
X177175150Y-70988416D01*
X177177684Y-70987572D01*
X177179873Y-70984750D01*
X177182696Y-70982560D01*
X177183541Y-70980025D01*
X177189645Y-70972160D01*
X177237264Y-70876922D01*
X177237925Y-70874506D01*
X177238737Y-70873695D01*
X177240300Y-70865833D01*
X177242417Y-70858106D01*
X177242054Y-70857017D01*
X177242543Y-70854561D01*
X177242543Y-70568847D01*
X177523496Y-70568847D01*
X177523496Y-70902180D01*
X177527302Y-70921314D01*
X177538140Y-70937535D01*
X177585759Y-70985155D01*
X177587841Y-70986546D01*
X177588355Y-70987573D01*
X177595313Y-70991539D01*
X177601980Y-70995994D01*
X177603129Y-70995994D01*
X177605304Y-70997234D01*
X177748160Y-71044853D01*
X177756110Y-71045855D01*
X177763972Y-71047419D01*
X177859210Y-71047419D01*
X177867072Y-71045855D01*
X177875021Y-71044853D01*
X178017878Y-70997234D01*
X178020053Y-70995994D01*
X178021202Y-70995994D01*
X178027872Y-70991536D01*
X178034826Y-70987573D01*
X178035338Y-70986547D01*
X178037423Y-70985155D01*
X178091911Y-70930666D01*
X179289206Y-70930666D01*
X179289206Y-70968935D01*
X179289208Y-70968937D01*
X179300045Y-70985155D01*
X179347663Y-71032774D01*
X179363884Y-71043613D01*
X179363885Y-71043613D01*
X179402153Y-71043613D01*
X179418374Y-71032774D01*
X179465993Y-70985156D01*
X179476832Y-70968935D01*
X179476832Y-70930666D01*
X179465994Y-70914445D01*
X179418375Y-70866825D01*
X179402154Y-70855986D01*
X179402153Y-70855986D01*
X179363884Y-70855986D01*
X179347663Y-70866825D01*
X179300044Y-70914445D01*
X179289206Y-70930666D01*
X178091911Y-70930666D01*
X178132661Y-70889916D01*
X178137114Y-70883250D01*
X178142026Y-70876922D01*
X178189645Y-70781684D01*
X178191091Y-70776402D01*
X178193431Y-70771450D01*
X178241050Y-70580974D01*
X178241347Y-70574856D01*
X178242543Y-70568847D01*
X178242543Y-70425990D01*
X178241347Y-70419980D01*
X178241050Y-70413863D01*
X178239298Y-70406856D01*
X179289206Y-70406856D01*
X179289206Y-70445124D01*
X179300045Y-70461345D01*
X179347663Y-70508964D01*
X179363884Y-70519803D01*
X179363885Y-70519803D01*
X179402153Y-70519803D01*
X179418374Y-70508964D01*
X179465993Y-70461346D01*
X179476832Y-70445125D01*
X179476832Y-70406856D01*
X179476832Y-70406855D01*
X179465993Y-70390634D01*
X179418374Y-70343016D01*
X179402153Y-70332177D01*
X179363884Y-70332177D01*
X179347663Y-70343016D01*
X179300045Y-70390635D01*
X179289207Y-70406855D01*
X179289206Y-70406856D01*
X178239298Y-70406856D01*
X178219651Y-70328269D01*
X179714034Y-70328269D01*
X179716885Y-70347569D01*
X179954980Y-71014236D01*
X179955468Y-71015052D01*
X179955643Y-71015989D01*
X180050881Y-71254083D01*
X180051111Y-71254436D01*
X180051111Y-71254648D01*
X180056359Y-71262502D01*
X180061521Y-71270435D01*
X180061715Y-71270518D01*
X180061950Y-71270869D01*
X180109568Y-71318488D01*
X180116234Y-71322942D01*
X180122563Y-71327854D01*
X180217801Y-71375473D01*
X180236617Y-71380626D01*
X180272922Y-71368524D01*
X180290036Y-71334296D01*
X180277934Y-71297992D01*
X180262522Y-71286030D01*
X180174542Y-71242040D01*
X180139918Y-71207417D01*
X180055518Y-70996416D01*
X180174208Y-70664085D01*
X180523496Y-70664085D01*
X180523496Y-70806942D01*
X180523984Y-70809398D01*
X180523622Y-70810487D01*
X180525738Y-70818214D01*
X180527302Y-70826076D01*
X180528113Y-70826887D01*
X180528775Y-70829303D01*
X180576393Y-70924540D01*
X180581304Y-70930868D01*
X180585759Y-70937535D01*
X180633378Y-70985155D01*
X180640044Y-70989609D01*
X180646373Y-70994521D01*
X180741611Y-71042140D01*
X180744026Y-71042801D01*
X180744838Y-71043613D01*
X180752699Y-71045176D01*
X180760427Y-71047293D01*
X180761515Y-71046930D01*
X180763972Y-71047419D01*
X181144924Y-71047419D01*
X181164058Y-71043613D01*
X181191118Y-71016553D01*
X181194924Y-70997419D01*
X181194924Y-69997419D01*
X182333020Y-69997419D01*
X182333020Y-70997419D01*
X182336826Y-71016553D01*
X182363886Y-71043613D01*
X182402154Y-71043613D01*
X182421050Y-71024716D01*
X182455897Y-71042140D01*
X182458312Y-71042801D01*
X182459124Y-71043613D01*
X182466985Y-71045176D01*
X182474713Y-71047293D01*
X182475801Y-71046930D01*
X182478258Y-71047419D01*
X182668734Y-71047419D01*
X182671190Y-71046930D01*
X182672279Y-71047293D01*
X182680006Y-71045176D01*
X182687868Y-71043613D01*
X182688679Y-71042801D01*
X182691095Y-71042140D01*
X182786332Y-70994522D01*
X182792659Y-70989611D01*
X182799328Y-70985155D01*
X182846947Y-70937535D01*
X182851400Y-70930869D01*
X182856312Y-70924541D01*
X182903931Y-70829303D01*
X182904592Y-70826887D01*
X182905404Y-70826076D01*
X182906967Y-70818214D01*
X182909084Y-70810487D01*
X182908721Y-70809398D01*
X182909210Y-70806942D01*
X182909210Y-70521228D01*
X182908721Y-70518771D01*
X182909084Y-70517683D01*
X182906967Y-70509955D01*
X182905404Y-70502094D01*
X182904592Y-70501282D01*
X182903931Y-70498867D01*
X182891302Y-70473609D01*
X183190163Y-70473609D01*
X183190163Y-70568847D01*
X183191604Y-70576095D01*
X183191114Y-70578550D01*
X183192509Y-70580643D01*
X183193969Y-70587981D01*
X183204265Y-70598277D01*
X183212341Y-70610391D01*
X183219249Y-70613261D01*
X183221029Y-70615041D01*
X183223533Y-70615041D01*
X183230357Y-70617876D01*
X183666353Y-70705075D01*
X183666353Y-70842757D01*
X183631466Y-70912532D01*
X183561693Y-70947419D01*
X183394824Y-70947419D01*
X183310143Y-70905079D01*
X183291327Y-70899926D01*
X183255022Y-70912027D01*
X183237908Y-70946255D01*
X183250009Y-70982560D01*
X183265421Y-70994521D01*
X183360659Y-71042140D01*
X183363074Y-71042801D01*
X183363886Y-71043613D01*
X183371747Y-71045176D01*
X183379475Y-71047293D01*
X183380563Y-71046930D01*
X183383020Y-71047419D01*
X183573496Y-71047419D01*
X183575952Y-71046930D01*
X183577041Y-71047293D01*
X183584768Y-71045176D01*
X183592630Y-71043613D01*
X183593441Y-71042801D01*
X183595857Y-71042140D01*
X183691094Y-70994522D01*
X183698960Y-70988416D01*
X183701494Y-70987572D01*
X183703683Y-70984750D01*
X183706506Y-70982560D01*
X183707351Y-70980025D01*
X183713455Y-70972160D01*
X183761074Y-70876922D01*
X183761735Y-70874506D01*
X183762547Y-70873695D01*
X183764110Y-70865833D01*
X183766227Y-70858106D01*
X183765864Y-70857017D01*
X183766353Y-70854561D01*
X183766353Y-70473609D01*
X184094925Y-70473609D01*
X184094925Y-70997419D01*
X184098731Y-71016553D01*
X184125791Y-71043613D01*
X184164059Y-71043613D01*
X184191119Y-71016553D01*
X184194925Y-70997419D01*
X184194925Y-70485412D01*
X184229811Y-70415638D01*
X184299586Y-70380752D01*
X184418836Y-70380752D01*
X184496259Y-70419463D01*
X184523496Y-70446700D01*
X184523496Y-70997419D01*
X184527302Y-71016553D01*
X184554362Y-71043613D01*
X184592630Y-71043613D01*
X184619690Y-71016553D01*
X184623496Y-70997419D01*
X184623496Y-70330752D01*
X184999687Y-70330752D01*
X184999687Y-71140276D01*
X185000175Y-71142732D01*
X184999813Y-71143821D01*
X185001929Y-71151548D01*
X185003493Y-71159410D01*
X185004304Y-71160221D01*
X185004966Y-71162637D01*
X185052584Y-71257874D01*
X185057499Y-71264207D01*
X185061951Y-71270869D01*
X185109569Y-71318488D01*
X185116235Y-71322942D01*
X185122564Y-71327854D01*
X185217802Y-71375473D01*
X185220217Y-71376134D01*
X185221029Y-71376946D01*
X185228890Y-71378509D01*
X185236618Y-71380626D01*
X185237706Y-71380263D01*
X185240163Y-71380752D01*
X185383020Y-71380752D01*
X185385476Y-71380263D01*
X185386565Y-71380626D01*
X185394292Y-71378509D01*
X185402154Y-71376946D01*
X185402965Y-71376134D01*
X185405381Y-71375473D01*
X185500618Y-71327855D01*
X185516030Y-71315893D01*
X185528132Y-71279589D01*
X185511018Y-71245361D01*
X185474713Y-71233259D01*
X185455897Y-71238412D01*
X185371217Y-71280752D01*
X185251967Y-71280752D01*
X185174543Y-71242040D01*
X185138398Y-71205896D01*
X185099687Y-71128473D01*
X185099687Y-71030701D01*
X185122564Y-71042140D01*
X185124979Y-71042801D01*
X185125791Y-71043613D01*
X185133652Y-71045176D01*
X185141380Y-71047293D01*
X185142468Y-71046930D01*
X185144925Y-71047419D01*
X185335401Y-71047419D01*
X185337857Y-71046930D01*
X185338946Y-71047293D01*
X185346673Y-71045176D01*
X185354535Y-71043613D01*
X185355346Y-71042801D01*
X185357762Y-71042140D01*
X185452999Y-70994522D01*
X185459326Y-70989611D01*
X185465995Y-70985155D01*
X185513614Y-70937535D01*
X185518067Y-70930869D01*
X185522979Y-70924541D01*
X185570598Y-70829303D01*
X185571259Y-70826887D01*
X185572071Y-70826076D01*
X185573634Y-70818214D01*
X185575751Y-70810487D01*
X185575388Y-70809398D01*
X185575877Y-70806942D01*
X185575877Y-70521228D01*
X185575388Y-70518771D01*
X185575751Y-70517683D01*
X185573634Y-70509955D01*
X185572071Y-70502094D01*
X185571259Y-70501282D01*
X185570598Y-70498867D01*
X185522979Y-70403629D01*
X185518067Y-70397300D01*
X185513613Y-70390634D01*
X185465994Y-70343016D01*
X185459332Y-70338564D01*
X185452999Y-70333649D01*
X185447205Y-70330752D01*
X185904448Y-70330752D01*
X185904448Y-70997419D01*
X185908254Y-71016553D01*
X185935314Y-71043613D01*
X185973582Y-71043613D01*
X186000642Y-71016553D01*
X186004448Y-70997419D01*
X186004448Y-70806942D01*
X186333020Y-70806942D01*
X186333020Y-70854561D01*
X186333508Y-70857017D01*
X186333146Y-70858105D01*
X186335261Y-70865829D01*
X186336826Y-70873695D01*
X186337637Y-70874506D01*
X186338299Y-70876921D01*
X186385917Y-70972160D01*
X186392020Y-70980024D01*
X186392866Y-70982560D01*
X186395689Y-70984751D01*
X186397879Y-70987572D01*
X186400412Y-70988416D01*
X186408278Y-70994521D01*
X186503516Y-71042140D01*
X186505931Y-71042801D01*
X186506743Y-71043613D01*
X186514604Y-71045176D01*
X186522332Y-71047293D01*
X186523420Y-71046930D01*
X186525877Y-71047419D01*
X186716353Y-71047419D01*
X186718809Y-71046930D01*
X186719898Y-71047293D01*
X186727625Y-71045176D01*
X186735487Y-71043613D01*
X186736298Y-71042801D01*
X186738714Y-71042140D01*
X186833951Y-70994522D01*
X186849363Y-70982560D01*
X186861465Y-70946256D01*
X186844351Y-70912028D01*
X186808046Y-70899926D01*
X186789230Y-70905079D01*
X186704550Y-70947419D01*
X186537681Y-70947419D01*
X186467906Y-70912532D01*
X186433020Y-70842759D01*
X186433020Y-70818745D01*
X186467906Y-70748971D01*
X186537681Y-70714085D01*
X186668734Y-70714085D01*
X186671190Y-70713596D01*
X186672279Y-70713959D01*
X186680006Y-70711842D01*
X186687868Y-70710279D01*
X186688679Y-70709467D01*
X186691095Y-70708806D01*
X186786332Y-70661188D01*
X186794196Y-70655084D01*
X186796732Y-70654239D01*
X186798923Y-70651415D01*
X186801744Y-70649226D01*
X186802588Y-70646692D01*
X186808693Y-70638827D01*
X186856312Y-70543589D01*
X186856973Y-70541173D01*
X186857785Y-70540362D01*
X186859348Y-70532500D01*
X186861465Y-70524773D01*
X186861102Y-70523684D01*
X186861591Y-70521228D01*
X186861591Y-70473609D01*
X187142544Y-70473609D01*
X187142544Y-70568847D01*
X187143985Y-70576095D01*
X187143495Y-70578550D01*
X187144890Y-70580643D01*
X187146350Y-70587981D01*
X187156646Y-70598277D01*
X187164722Y-70610391D01*
X187171630Y-70613261D01*
X187173410Y-70615041D01*
X187175914Y-70615041D01*
X187182738Y-70617876D01*
X187618734Y-70705075D01*
X187618734Y-70842757D01*
X187583847Y-70912532D01*
X187514074Y-70947419D01*
X187347205Y-70947419D01*
X187262524Y-70905079D01*
X187243708Y-70899926D01*
X187207403Y-70912027D01*
X187190289Y-70946255D01*
X187202390Y-70982560D01*
X187217802Y-70994521D01*
X187313040Y-71042140D01*
X187315455Y-71042801D01*
X187316267Y-71043613D01*
X187324128Y-71045176D01*
X187331856Y-71047293D01*
X187332944Y-71046930D01*
X187335401Y-71047419D01*
X187525877Y-71047419D01*
X187528333Y-71046930D01*
X187529422Y-71047293D01*
X187537149Y-71045176D01*
X187545011Y-71043613D01*
X187545822Y-71042801D01*
X187548238Y-71042140D01*
X187643475Y-70994522D01*
X187651341Y-70988416D01*
X187653875Y-70987572D01*
X187656064Y-70984750D01*
X187658887Y-70982560D01*
X187659732Y-70980025D01*
X187665836Y-70972160D01*
X187713455Y-70876922D01*
X187714116Y-70874506D01*
X187714928Y-70873695D01*
X187716491Y-70865833D01*
X187718608Y-70858106D01*
X187718245Y-70857017D01*
X187718734Y-70854561D01*
X187718734Y-70473609D01*
X187718245Y-70471152D01*
X187718608Y-70470064D01*
X187716491Y-70462336D01*
X187714928Y-70454475D01*
X187714116Y-70453663D01*
X187713455Y-70451248D01*
X187700826Y-70425990D01*
X187999687Y-70425990D01*
X187999687Y-70568847D01*
X188000882Y-70574856D01*
X188001180Y-70580974D01*
X188048799Y-70771450D01*
X188051138Y-70776402D01*
X188052585Y-70781684D01*
X188100203Y-70876921D01*
X188105114Y-70883249D01*
X188109569Y-70889916D01*
X188204808Y-70985155D01*
X188206889Y-70986545D01*
X188207403Y-70987573D01*
X188214368Y-70991543D01*
X188221029Y-70995994D01*
X188222177Y-70995994D01*
X188224352Y-70997234D01*
X188367208Y-71044853D01*
X188375158Y-71045855D01*
X188383020Y-71047419D01*
X188621115Y-71047419D01*
X188640249Y-71043613D01*
X188667309Y-71016553D01*
X188671115Y-70997419D01*
X188671115Y-69997419D01*
X188667309Y-69978285D01*
X188640249Y-69951225D01*
X188621115Y-69947419D01*
X188383020Y-69947419D01*
X188375158Y-69948982D01*
X188367208Y-69949985D01*
X188224352Y-69997604D01*
X188222177Y-69998844D01*
X188221029Y-69998844D01*
X188214368Y-70003294D01*
X188207403Y-70007265D01*
X188206889Y-70008292D01*
X188204808Y-70009683D01*
X188109570Y-70104921D01*
X188105118Y-70111582D01*
X188100203Y-70117916D01*
X188052585Y-70213153D01*
X188051138Y-70218434D01*
X188048799Y-70223387D01*
X188001180Y-70413863D01*
X188000882Y-70419980D01*
X187999687Y-70425990D01*
X187700826Y-70425990D01*
X187665836Y-70356010D01*
X187659731Y-70348144D01*
X187658887Y-70345611D01*
X187656066Y-70343421D01*
X187653875Y-70340598D01*
X187651339Y-70339752D01*
X187643475Y-70333649D01*
X187548238Y-70286031D01*
X187545822Y-70285369D01*
X187545011Y-70284558D01*
X187537149Y-70282994D01*
X187529422Y-70280878D01*
X187528333Y-70281240D01*
X187525877Y-70280752D01*
X187335401Y-70280752D01*
X187332944Y-70281240D01*
X187331856Y-70280878D01*
X187324128Y-70282994D01*
X187316267Y-70284558D01*
X187315455Y-70285369D01*
X187313040Y-70286031D01*
X187217802Y-70333650D01*
X187209936Y-70339754D01*
X187207403Y-70340599D01*
X187205213Y-70343419D01*
X187202390Y-70345611D01*
X187201544Y-70348146D01*
X187195441Y-70356011D01*
X187147823Y-70451248D01*
X187147161Y-70453663D01*
X187146350Y-70454475D01*
X187144786Y-70462336D01*
X187142670Y-70470064D01*
X187143032Y-70471152D01*
X187142544Y-70473609D01*
X186861591Y-70473609D01*
X186861102Y-70471152D01*
X186861465Y-70470064D01*
X186859348Y-70462336D01*
X186857785Y-70454475D01*
X186856973Y-70453663D01*
X186856312Y-70451248D01*
X186808693Y-70356010D01*
X186802588Y-70348144D01*
X186801744Y-70345611D01*
X186798923Y-70343421D01*
X186796732Y-70340598D01*
X186794196Y-70339752D01*
X186786332Y-70333649D01*
X186691095Y-70286031D01*
X186688679Y-70285369D01*
X186687868Y-70284558D01*
X186680006Y-70282994D01*
X186672279Y-70280878D01*
X186671190Y-70281240D01*
X186668734Y-70280752D01*
X186525877Y-70280752D01*
X186523420Y-70281240D01*
X186522332Y-70280878D01*
X186514604Y-70282994D01*
X186506743Y-70284558D01*
X186505931Y-70285369D01*
X186503516Y-70286031D01*
X186408278Y-70333650D01*
X186392866Y-70345611D01*
X186380765Y-70381916D01*
X186397879Y-70416144D01*
X186434184Y-70428245D01*
X186453000Y-70423092D01*
X186537681Y-70380752D01*
X186656931Y-70380752D01*
X186726704Y-70415638D01*
X186761591Y-70485412D01*
X186761591Y-70509424D01*
X186726704Y-70579198D01*
X186656931Y-70614085D01*
X186525877Y-70614085D01*
X186523420Y-70614573D01*
X186522332Y-70614211D01*
X186514604Y-70616327D01*
X186506743Y-70617891D01*
X186505931Y-70618702D01*
X186503516Y-70619364D01*
X186408278Y-70666983D01*
X186400412Y-70673087D01*
X186397879Y-70673932D01*
X186395689Y-70676752D01*
X186392866Y-70678944D01*
X186392020Y-70681479D01*
X186385917Y-70689344D01*
X186338299Y-70784581D01*
X186337637Y-70786996D01*
X186336826Y-70787808D01*
X186335262Y-70795669D01*
X186333146Y-70803397D01*
X186333508Y-70804485D01*
X186333020Y-70806942D01*
X186004448Y-70806942D01*
X186004448Y-70330752D01*
X186000642Y-70311618D01*
X185973582Y-70284558D01*
X185935314Y-70284558D01*
X185908254Y-70311618D01*
X185904448Y-70330752D01*
X185447205Y-70330752D01*
X185357762Y-70286031D01*
X185355346Y-70285369D01*
X185354535Y-70284558D01*
X185346673Y-70282994D01*
X185338946Y-70280878D01*
X185337857Y-70281240D01*
X185335401Y-70280752D01*
X185144925Y-70280752D01*
X185142468Y-70281240D01*
X185141380Y-70280878D01*
X185133652Y-70282994D01*
X185125791Y-70284558D01*
X185124979Y-70285369D01*
X185122564Y-70286031D01*
X185087717Y-70303454D01*
X185068821Y-70284558D01*
X185030553Y-70284558D01*
X185003493Y-70311618D01*
X184999687Y-70330752D01*
X184623496Y-70330752D01*
X184619690Y-70311618D01*
X184592630Y-70284558D01*
X184554362Y-70284558D01*
X184527302Y-70311618D01*
X184525209Y-70322135D01*
X184453000Y-70286031D01*
X184450584Y-70285369D01*
X184449773Y-70284558D01*
X184441911Y-70282994D01*
X184434184Y-70280878D01*
X184433095Y-70281240D01*
X184430639Y-70280752D01*
X184287782Y-70280752D01*
X184285325Y-70281240D01*
X184284237Y-70280878D01*
X184276509Y-70282994D01*
X184268648Y-70284558D01*
X184267836Y-70285369D01*
X184265421Y-70286031D01*
X184170183Y-70333650D01*
X184162317Y-70339754D01*
X184159784Y-70340599D01*
X184157594Y-70343419D01*
X184154771Y-70345611D01*
X184153925Y-70348146D01*
X184147822Y-70356011D01*
X184100204Y-70451248D01*
X184099542Y-70453663D01*
X184098731Y-70454475D01*
X184097167Y-70462336D01*
X184095051Y-70470064D01*
X184095413Y-70471152D01*
X184094925Y-70473609D01*
X183766353Y-70473609D01*
X183765864Y-70471152D01*
X183766227Y-70470064D01*
X183764110Y-70462336D01*
X183762547Y-70454475D01*
X183761735Y-70453663D01*
X183761074Y-70451248D01*
X183713455Y-70356010D01*
X183707350Y-70348144D01*
X183706506Y-70345611D01*
X183703685Y-70343421D01*
X183701494Y-70340598D01*
X183698958Y-70339752D01*
X183691094Y-70333649D01*
X183595857Y-70286031D01*
X183593441Y-70285369D01*
X183592630Y-70284558D01*
X183584768Y-70282994D01*
X183577041Y-70280878D01*
X183575952Y-70281240D01*
X183573496Y-70280752D01*
X183383020Y-70280752D01*
X183380563Y-70281240D01*
X183379475Y-70280878D01*
X183371747Y-70282994D01*
X183363886Y-70284558D01*
X183363074Y-70285369D01*
X183360659Y-70286031D01*
X183265421Y-70333650D01*
X183257555Y-70339754D01*
X183255022Y-70340599D01*
X183252832Y-70343419D01*
X183250009Y-70345611D01*
X183249163Y-70348146D01*
X183243060Y-70356011D01*
X183195442Y-70451248D01*
X183194780Y-70453663D01*
X183193969Y-70454475D01*
X183192405Y-70462336D01*
X183190289Y-70470064D01*
X183190651Y-70471152D01*
X183190163Y-70473609D01*
X182891302Y-70473609D01*
X182856312Y-70403629D01*
X182851400Y-70397300D01*
X182846946Y-70390634D01*
X182799327Y-70343016D01*
X182792665Y-70338564D01*
X182786332Y-70333649D01*
X182691095Y-70286031D01*
X182688679Y-70285369D01*
X182687868Y-70284558D01*
X182680006Y-70282994D01*
X182672279Y-70280878D01*
X182671190Y-70281240D01*
X182668734Y-70280752D01*
X182478258Y-70280752D01*
X182475801Y-70281240D01*
X182474713Y-70280878D01*
X182466985Y-70282994D01*
X182459124Y-70284558D01*
X182458312Y-70285369D01*
X182455897Y-70286031D01*
X182433020Y-70297469D01*
X182433020Y-70025904D01*
X185860635Y-70025904D01*
X185860635Y-70064172D01*
X185871474Y-70080393D01*
X185919092Y-70128012D01*
X185935313Y-70138851D01*
X185935314Y-70138851D01*
X185973582Y-70138851D01*
X185989803Y-70128012D01*
X186037422Y-70080394D01*
X186048261Y-70064173D01*
X186048261Y-70025904D01*
X186048261Y-70025903D01*
X186037422Y-70009682D01*
X185989803Y-69962064D01*
X185973582Y-69951225D01*
X185935313Y-69951225D01*
X185919092Y-69962064D01*
X185871474Y-70009683D01*
X185860636Y-70025903D01*
X185860635Y-70025904D01*
X182433020Y-70025904D01*
X182433020Y-69997419D01*
X182429214Y-69978285D01*
X182402154Y-69951225D01*
X182363886Y-69951225D01*
X182336826Y-69978285D01*
X182333020Y-69997419D01*
X181194924Y-69997419D01*
X181191118Y-69978285D01*
X181164058Y-69951225D01*
X181144924Y-69947419D01*
X180811591Y-69947419D01*
X180809134Y-69947907D01*
X180808046Y-69947545D01*
X180800318Y-69949661D01*
X180792457Y-69951225D01*
X180791645Y-69952036D01*
X180789230Y-69952698D01*
X180693992Y-70000317D01*
X180687663Y-70005228D01*
X180680997Y-70009683D01*
X180633379Y-70057302D01*
X180628927Y-70063963D01*
X180624012Y-70070297D01*
X180576394Y-70165534D01*
X180575732Y-70167949D01*
X180574921Y-70168761D01*
X180573357Y-70176622D01*
X180571241Y-70184350D01*
X180571603Y-70185438D01*
X180571115Y-70187895D01*
X180571115Y-70283133D01*
X180571603Y-70285589D01*
X180571241Y-70286678D01*
X180573357Y-70294405D01*
X180574921Y-70302267D01*
X180575732Y-70303078D01*
X180576394Y-70305494D01*
X180624012Y-70400731D01*
X180628927Y-70407064D01*
X180633379Y-70413726D01*
X180680997Y-70461345D01*
X180684083Y-70463407D01*
X180652923Y-70473794D01*
X180650748Y-70475034D01*
X180649599Y-70475034D01*
X180642932Y-70479488D01*
X180635974Y-70483455D01*
X180635460Y-70484481D01*
X180633378Y-70485873D01*
X180585760Y-70533492D01*
X180581308Y-70540153D01*
X180576393Y-70546487D01*
X180528775Y-70641724D01*
X180528113Y-70644139D01*
X180527302Y-70644951D01*
X180525738Y-70652812D01*
X180523622Y-70660540D01*
X180523984Y-70661628D01*
X180523496Y-70664085D01*
X180174208Y-70664085D01*
X180287249Y-70347569D01*
X180290100Y-70328270D01*
X180273718Y-70293685D01*
X180237679Y-70280814D01*
X180203095Y-70297196D01*
X180193075Y-70313935D01*
X180002067Y-70848758D01*
X179811059Y-70313935D01*
X179801039Y-70297196D01*
X179766455Y-70280814D01*
X179730416Y-70293685D01*
X179714034Y-70328269D01*
X178219651Y-70328269D01*
X178193431Y-70223387D01*
X178191091Y-70218434D01*
X178189645Y-70213153D01*
X178142026Y-70117915D01*
X178137110Y-70111580D01*
X178132660Y-70104921D01*
X178037422Y-70009683D01*
X178035339Y-70008291D01*
X178034826Y-70007265D01*
X178027865Y-70003297D01*
X178021201Y-69998844D01*
X178020053Y-69998844D01*
X178017878Y-69997604D01*
X177875021Y-69949985D01*
X177867072Y-69948982D01*
X177859210Y-69947419D01*
X177716353Y-69947419D01*
X177713896Y-69947907D01*
X177712808Y-69947545D01*
X177705080Y-69949661D01*
X177697219Y-69951225D01*
X177696407Y-69952036D01*
X177693992Y-69952698D01*
X177598754Y-70000317D01*
X177583342Y-70012278D01*
X177571241Y-70048583D01*
X177588355Y-70082811D01*
X177624660Y-70094912D01*
X177643476Y-70089759D01*
X177728157Y-70047419D01*
X177851097Y-70047419D01*
X177975058Y-70088739D01*
X178056211Y-70169892D01*
X178097748Y-70252966D01*
X178142543Y-70432145D01*
X178142543Y-70562692D01*
X178097748Y-70741870D01*
X178056211Y-70824944D01*
X177975057Y-70906098D01*
X177851097Y-70947419D01*
X177772085Y-70947419D01*
X177648125Y-70906099D01*
X177623496Y-70881469D01*
X177623496Y-70618847D01*
X177763972Y-70618847D01*
X177783106Y-70615041D01*
X177810166Y-70587981D01*
X177810166Y-70549713D01*
X177783106Y-70522653D01*
X177763972Y-70518847D01*
X177573496Y-70518847D01*
X177554362Y-70522653D01*
X177527302Y-70549713D01*
X177523496Y-70568847D01*
X177242543Y-70568847D01*
X177242543Y-70473609D01*
X177242054Y-70471152D01*
X177242417Y-70470064D01*
X177240300Y-70462336D01*
X177238737Y-70454475D01*
X177237925Y-70453663D01*
X177237264Y-70451248D01*
X177189645Y-70356010D01*
X177183540Y-70348144D01*
X177182696Y-70345611D01*
X177179875Y-70343421D01*
X177177684Y-70340598D01*
X177175148Y-70339752D01*
X177167284Y-70333649D01*
X177072047Y-70286031D01*
X177069631Y-70285369D01*
X177068820Y-70284558D01*
X177060958Y-70282994D01*
X177053231Y-70280878D01*
X177052142Y-70281240D01*
X177049686Y-70280752D01*
X176859210Y-70280752D01*
X176856753Y-70281240D01*
X176855665Y-70280878D01*
X176847937Y-70282994D01*
X176840076Y-70284558D01*
X176839264Y-70285369D01*
X176836849Y-70286031D01*
X176741611Y-70333650D01*
X176733745Y-70339754D01*
X176731212Y-70340599D01*
X176729022Y-70343419D01*
X176726199Y-70345611D01*
X176725353Y-70348146D01*
X176719250Y-70356011D01*
X176671632Y-70451248D01*
X176670970Y-70453663D01*
X176670159Y-70454475D01*
X176668595Y-70462336D01*
X176666479Y-70470064D01*
X176666841Y-70471152D01*
X176666353Y-70473609D01*
X176367492Y-70473609D01*
X176332502Y-70403629D01*
X176327590Y-70397300D01*
X176323136Y-70390634D01*
X176275517Y-70343016D01*
X176268855Y-70338564D01*
X176262522Y-70333649D01*
X176167285Y-70286031D01*
X176164869Y-70285369D01*
X176164058Y-70284558D01*
X176156196Y-70282994D01*
X176148469Y-70280878D01*
X176147380Y-70281240D01*
X176144924Y-70280752D01*
X176002067Y-70280752D01*
X175999610Y-70281240D01*
X175998522Y-70280878D01*
X175990794Y-70282994D01*
X175982933Y-70284558D01*
X175982121Y-70285369D01*
X175979706Y-70286031D01*
X175884468Y-70333650D01*
X175878139Y-70338561D01*
X175871473Y-70343016D01*
X175823855Y-70390635D01*
X175819403Y-70397296D01*
X175814488Y-70403630D01*
X175766870Y-70498867D01*
X175766208Y-70501282D01*
X175765397Y-70502094D01*
X175763833Y-70509955D01*
X175761717Y-70517683D01*
X175762079Y-70518771D01*
X175761591Y-70521228D01*
X175433019Y-70521228D01*
X175433019Y-70330752D01*
X175429213Y-70311618D01*
X175402153Y-70284558D01*
X175363885Y-70284558D01*
X175336825Y-70311618D01*
X175333019Y-70330752D01*
X175333019Y-70352898D01*
X175323136Y-70343016D01*
X175316474Y-70338564D01*
X175310141Y-70333649D01*
X175214904Y-70286031D01*
X175212488Y-70285369D01*
X175211677Y-70284558D01*
X175203815Y-70282994D01*
X175196088Y-70280878D01*
X175194999Y-70281240D01*
X175192543Y-70280752D01*
X175097305Y-70280752D01*
X175078171Y-70284558D01*
X175051111Y-70311618D01*
X174694650Y-70311618D01*
X174643475Y-70286031D01*
X174641059Y-70285369D01*
X174640248Y-70284558D01*
X174632386Y-70282994D01*
X174624659Y-70280878D01*
X174623570Y-70281240D01*
X174621114Y-70280752D01*
X174430638Y-70280752D01*
X174428181Y-70281240D01*
X174427093Y-70280878D01*
X174419365Y-70282994D01*
X174411504Y-70284558D01*
X174410692Y-70285369D01*
X174408277Y-70286031D01*
X174373430Y-70303454D01*
X174354534Y-70284558D01*
X174316266Y-70284558D01*
X174289206Y-70311618D01*
X174285400Y-70330752D01*
X173875775Y-70330752D01*
X173786332Y-70286031D01*
X173783916Y-70285369D01*
X173783105Y-70284558D01*
X173775243Y-70282994D01*
X173767516Y-70280878D01*
X173766427Y-70281240D01*
X173763971Y-70280752D01*
X173573495Y-70280752D01*
X173571038Y-70281240D01*
X173569950Y-70280878D01*
X173562222Y-70282994D01*
X173554361Y-70284558D01*
X173553549Y-70285369D01*
X173551134Y-70286031D01*
X173455896Y-70333650D01*
X173448030Y-70339754D01*
X173445497Y-70340599D01*
X173443307Y-70343419D01*
X173440484Y-70345611D01*
X173439638Y-70348146D01*
X173433535Y-70356011D01*
X173385917Y-70451248D01*
X173385255Y-70453663D01*
X173384444Y-70454475D01*
X173382880Y-70462336D01*
X173380764Y-70470064D01*
X173381126Y-70471152D01*
X173380638Y-70473609D01*
X172273418Y-70473609D01*
X172384039Y-70009000D01*
X172384769Y-69989505D01*
X172364712Y-69956913D01*
X172327485Y-69948049D01*
X172294893Y-69968106D01*
X172286759Y-69985838D01*
X172094559Y-70793075D01*
X171955140Y-70270250D01*
X171946532Y-70252743D01*
X171940633Y-70249327D01*
X171937218Y-70243429D01*
X171924658Y-70240079D01*
X171913413Y-70233569D01*
X171906829Y-70235324D01*
X171900243Y-70233568D01*
X171888993Y-70240080D01*
X171876438Y-70243429D01*
X171873023Y-70249326D01*
X171867124Y-70252742D01*
X171858516Y-70270250D01*
X171719096Y-70793075D01*
X171526897Y-69985838D01*
X171518763Y-69968106D01*
X171486171Y-69948049D01*
X171448944Y-69956913D01*
X171428887Y-69989505D01*
X168698098Y-69989505D01*
X168698098Y-69836308D01*
X188782226Y-69836308D01*
X188782226Y-71491863D01*
G37*
D11*
X194514000Y-50535000D02*
G75*
G02*
X193114000Y-50535000I-700000J0D01*
G01*
X193114000Y-50535000D02*
G75*
G02*
X194514000Y-50535000I700000J0D01*
G01*
X188291000Y-97271000D02*
G75*
G02*
X186891000Y-97271000I-700000J0D01*
G01*
X186891000Y-97271000D02*
G75*
G02*
X188291000Y-97271000I700000J0D01*
G01*
X138507000Y-98668000D02*
G75*
G02*
X137107000Y-98668000I-700000J0D01*
G01*
X137107000Y-98668000D02*
G75*
G02*
X138507000Y-98668000I700000J0D01*
G01*
X144730000Y-46471000D02*
G75*
G02*
X143330000Y-46471000I-700000J0D01*
G01*
X143330000Y-46471000D02*
G75*
G02*
X144730000Y-46471000I700000J0D01*
G01*
%LPC*%
D12*
X170910000Y-90250000D03*
X181070000Y-90250000D03*
D13*
X169640000Y-97870000D03*
X172180000Y-97870000D03*
X174720000Y-97870000D03*
X177260000Y-97870000D03*
X179800000Y-97870000D03*
X182340000Y-97870000D03*
X190110000Y-61750000D03*
X187570000Y-61750000D03*
X185030000Y-61750000D03*
X182490000Y-61750000D03*
X179950000Y-61750000D03*
X177410000Y-61750000D03*
X174870000Y-61750000D03*
X172330000Y-61750000D03*
X169790000Y-61750000D03*
X167250000Y-61750000D03*
X164710000Y-61750000D03*
X162170000Y-61750000D03*
X159630000Y-61750000D03*
X157090000Y-61750000D03*
X154550000Y-61750000D03*
X152010000Y-61750000D03*
X149470000Y-61750000D03*
X146930000Y-61750000D03*
X144390000Y-61750000D03*
D14*
X141850000Y-61750000D03*
D13*
X190110000Y-76990000D03*
X187570000Y-76990000D03*
X185030000Y-76990000D03*
X182490000Y-76990000D03*
X179950000Y-76990000D03*
X177410000Y-76990000D03*
X174870000Y-76990000D03*
X172330000Y-76990000D03*
X169790000Y-76990000D03*
X167250000Y-76990000D03*
X164710000Y-76990000D03*
X162170000Y-76990000D03*
X159630000Y-76990000D03*
X157090000Y-76990000D03*
X154550000Y-76990000D03*
X152010000Y-76990000D03*
X149470000Y-76990000D03*
X146930000Y-76990000D03*
X144390000Y-76990000D03*
D14*
X141850000Y-76990000D03*
D12*
X140250000Y-47250000D03*
X191750000Y-47250000D03*
X192250000Y-99250000D03*
X163720000Y-94902500D03*
X143400000Y-94902500D03*
D13*
X164990000Y-83702500D03*
X162450000Y-83702500D03*
X159910000Y-83702500D03*
X157370000Y-83702500D03*
X154830000Y-83702500D03*
X152290000Y-83702500D03*
X149750000Y-83702500D03*
X147210000Y-83702500D03*
X144670000Y-83702500D03*
X142130000Y-83702500D03*
D15*
X193453949Y-104046051D03*
D16*
X195250000Y-102250000D03*
X197046051Y-100453949D03*
D17*
X138535445Y-41964555D03*
D18*
X136739394Y-43760606D03*
X134943343Y-45556657D03*
D19*
X158925000Y-48250000D03*
D20*
X161465000Y-48250000D03*
X164005000Y-48250000D03*
D21*
X197035445Y-45535445D03*
D22*
X195239394Y-43739394D03*
X193443343Y-41943343D03*
D23*
X134953949Y-100453949D03*
D24*
X136750000Y-102250000D03*
X138546051Y-104046051D03*
D25*
X193814000Y-50535000D03*
X187591000Y-97271000D03*
X137807000Y-98668000D03*
X144030000Y-46471000D03*
%LPD*%
M02*
